<svg width="34" height="17" viewBox="0 0 34 17" fill="none" xmlns="http://www.w3.org/2000/svg">
<rect width="16" height="16" transform="translate(16.0469 16.5) rotate(-180)" fill="white"/>
<path d="M4.81752 8.69754C4.82254 8.87333 4.88783 9.02399 5.02344 9.1596L8.9308 12.9816C9.04632 13.0921 9.18192 13.1523 9.34766 13.1523C9.68415 13.1523 9.94531 12.8912 9.94531 12.5547C9.94531 12.394 9.88002 12.2433 9.76451 12.1278L6.24888 8.69754L9.76451 5.2673C9.88002 5.15178 9.94531 5.00614 9.94531 4.8404C9.94531 4.50391 9.68415 4.24275 9.34766 4.24275C9.18694 4.24275 9.04632 4.30301 8.9308 4.4135L5.02344 8.24051C4.88281 8.37109 4.81752 8.52176 4.81752 8.69754Z" fill="#1C1C1E"/>
<rect width="16" height="16" transform="translate(17.0469 0.5)" fill="white"/>
<path d="M28.2762 8.30246C28.2712 8.12667 28.2059 7.976 28.0703 7.8404L24.1629 4.01842C24.0474 3.90792 23.9118 3.84766 23.7461 3.84766C23.4096 3.84766 23.1484 4.10882 23.1484 4.44531C23.1484 4.60603 23.2137 4.7567 23.3292 4.87221L26.8449 8.30246L23.3292 11.7327C23.2137 11.8482 23.1484 11.9939 23.1484 12.1596C23.1484 12.4961 23.4096 12.7573 23.7461 12.7573C23.9068 12.7573 24.0474 12.697 24.1629 12.5865L28.0703 8.75949C28.2109 8.62891 28.2762 8.47824 28.2762 8.30246Z" fill="#1C1C1E"/>
</svg>
