<svg width="98" height="23" viewBox="0 0 98 23" fill="none" xmlns="http://www.w3.org/2000/svg">
<path d="M6.38903 1.05469C2.7105 1.05469 0 3.64764 0 7.1533C0 10.659 2.7105 13.2519 6.38903 13.2519C10.0676 13.2519 12.7919 10.6797 12.7919 7.1533C12.7919 3.62689 10.0641 1.05469 6.38903 1.05469ZM6.38903 11.3228C5.28322 11.3228 4.2227 10.8835 3.44077 10.1016C2.65885 9.31963 2.21956 8.25911 2.21956 7.1533C2.21956 6.04749 2.65885 4.98697 3.44077 4.20505C4.2227 3.42312 5.28322 2.98384 6.38903 2.98384C7.49484 2.98384 8.55535 3.42312 9.33728 4.20505C10.1192 4.98697 10.5585 6.04749 10.5585 7.1533C10.5585 8.25911 10.1192 9.31963 9.33728 10.1016C8.55535 10.8835 7.49484 11.3228 6.38903 11.3228Z" fill="#22AA00" fill-opacity="0.62"/>
<path d="M25.9086 3.93442C25.2664 3.91146 24.6274 4.03529 24.0403 4.2965C23.4532 4.55771 22.9334 4.94941 22.5205 5.44179C21.8947 4.42535 20.7919 3.93442 19.4712 3.93442C18.9145 3.90945 18.3592 4.00918 17.846 4.22631C17.3328 4.44344 16.8746 4.77249 16.5048 5.18941V4.03468H14.4893V13.0858H16.5947V8.49109C16.5947 6.69332 17.5455 5.7806 18.9491 5.7806C20.2387 5.7806 20.9855 6.56194 20.9855 8.16957V13.0858H23.1048V8.49109C23.1048 6.69332 24.0693 5.7806 25.4592 5.7806C26.7453 5.7806 27.492 6.56194 27.492 8.16957V13.0858H29.6113V7.8999C29.6217 5.17212 28.0971 3.93442 25.9086 3.93442Z" fill="#22AA00" fill-opacity="0.62"/>
<path d="M43.333 3.93428C42.6903 3.91156 42.0509 4.03548 41.4633 4.29666C40.8756 4.55783 40.3552 4.94939 39.9414 5.44165C39.3156 4.42521 38.2127 3.93428 36.8921 3.93428C36.3354 3.90981 35.7803 4.00976 35.2672 4.22685C34.7541 4.44395 34.2958 4.77273 33.9257 5.18927V4.03454H31.9102V13.0857H34.0295V8.49095C34.0295 6.69318 34.9767 5.78046 36.3839 5.78046C37.6734 5.78046 38.4167 6.5618 38.4167 8.16943V13.0857H40.5326V8.49095C40.5326 6.69318 41.5006 5.78046 42.8904 5.78046C44.1765 5.78046 44.9233 6.5618 44.9233 8.16943V13.0857H47.0426V7.89977C47.0426 5.17198 45.5145 3.93428 43.333 3.93428Z" fill="#22AA00" fill-opacity="0.62"/>
<path d="M52.7888 3.93457C51.3298 3.93457 49.9262 4.30795 48.9581 5.05127L49.7879 6.59321C50.5795 6.00093 51.5443 5.68621 52.533 5.69778C54.0438 5.69778 54.7871 6.42726 54.7871 7.6615V7.79633H52.45C49.7049 7.79633 48.6885 8.98218 48.6885 10.493C48.6885 12.0695 49.9919 13.2035 52.0593 13.2035C53.4146 13.2035 54.3964 12.761 54.9081 11.9831V13.086H56.9064V7.77905C56.9064 5.17227 55.399 3.93457 52.7888 3.93457ZM54.7871 10.2545C54.4414 11.1845 53.5321 11.6616 52.5018 11.6616C51.4163 11.6616 50.7732 11.1706 50.7732 10.4066C50.7732 9.74623 51.1673 9.20344 52.6056 9.20344H54.7905L54.7871 10.2545Z" fill="#22AA00" fill-opacity="0.62"/>
<path d="M64.3293 3.93457C63.0051 3.93457 61.9092 4.37364 61.2177 5.20339V4.03483H59.2021V13.086H61.3214V8.50853C61.3214 6.69347 62.3344 5.78075 63.8418 5.78075C65.2005 5.78075 65.9957 6.56209 65.9957 8.16972V13.086H68.1081V7.90005C68.1081 5.17227 66.497 3.93457 64.3293 3.93457Z" fill="#22AA00" fill-opacity="0.62"/>
<path d="M71.447 0.00350807C71.1973 0.0200447 70.9579 0.109876 70.759 0.261758C70.5601 0.41364 70.4104 0.620823 70.3286 0.857379C70.2468 1.09394 70.2367 1.34935 70.2993 1.59166C70.362 1.83397 70.4948 2.05241 70.681 2.21963C70.8673 2.38686 71.0987 2.49544 71.3463 2.53179C71.5939 2.56813 71.8468 2.53063 72.0732 2.42398C72.2996 2.31732 72.4896 2.14626 72.6193 1.93218C72.7489 1.71811 72.8126 1.47054 72.8023 1.22046C72.7967 1.05041 72.7567 0.883235 72.6849 0.729003C72.613 0.574771 72.5107 0.436665 72.3841 0.322984C72.2575 0.209304 72.1093 0.122401 71.9482 0.0674983C71.7872 0.012596 71.6167 -0.00916999 71.447 0.00350807ZM70.3787 4.03468V13.0858H72.498V4.03468H70.3787Z" fill="#22AA00" fill-opacity="0.62"/>
<path d="M74.8525 0.511719V13.0858H76.9718V0.511719H74.8525Z" fill="#22AA00" fill-opacity="0.62"/>
<path d="M80.3962 0.00350807C80.1465 0.0200447 79.9072 0.109876 79.7082 0.261758C79.5093 0.41364 79.3596 0.620823 79.2778 0.857379C79.196 1.09394 79.1859 1.34935 79.2486 1.59166C79.3113 1.83397 79.444 2.05241 79.6302 2.21963C79.8165 2.38686 80.0479 2.49544 80.2955 2.53179C80.5432 2.56813 80.796 2.53063 81.0224 2.42398C81.2489 2.31732 81.4388 2.14626 81.5685 1.93218C81.6982 1.71811 81.7618 1.47054 81.7515 1.22046C81.7459 1.05041 81.706 0.883235 81.6341 0.729003C81.5623 0.574771 81.46 0.436665 81.3334 0.322984C81.2068 0.209304 81.0585 0.122401 80.8974 0.0674983C80.7364 0.012596 80.5659 -0.00916999 80.3962 0.00350807ZM79.3279 4.03468V13.0858H81.4472V4.03468H79.3279Z" fill="#22AA00" fill-opacity="0.62"/>
<path d="M87.4686 2.11968C87.8861 2.12478 88.2927 2.25352 88.6371 2.48961L89.2283 0.899264C88.6531 0.548433 87.9861 0.377479 87.313 0.408333C85.211 0.408333 84.077 1.64603 84.077 3.54061V4.11798H82.5869V5.81203H84.077V13.0999H86.1963V5.79821H88.6164V4.10415H86.1272V3.56136C86.141 2.59678 86.5973 2.11968 87.4686 2.11968Z" fill="#22AA00" fill-opacity="0.62"/>
<path d="M98.0007 8.60879C98.0007 5.78075 96.0715 3.93457 93.4267 3.93457C90.7819 3.93457 88.749 5.86718 88.749 8.56039C88.749 11.2536 90.7162 13.2035 93.7482 13.2035C95.3075 13.2035 96.5797 12.6953 97.3922 11.7307L96.2582 10.4169C95.9407 10.7447 95.5577 11.0019 95.1342 11.1716C94.7106 11.3414 94.256 11.42 93.8001 11.4023C92.2236 11.4023 91.1242 10.5518 90.8683 9.2311H97.9695C97.9868 9.03404 98.0007 8.78166 98.0007 8.60879ZM90.851 7.83091C90.926 7.20774 91.2324 6.6355 91.7095 6.2276C92.1866 5.81971 92.7994 5.60592 93.4267 5.62863C94.0535 5.60053 94.6673 5.81283 95.1428 6.22215C95.6183 6.63147 95.9196 7.20692 95.9851 7.83091H90.851Z" fill="#22AA00" fill-opacity="0.62"/>
<path d="M17.255 18.3682V20.7329L15.3293 18.3682H14.7969V21.86H15.4399V19.4952L17.3656 21.86H17.898V18.3682H17.255Z" fill="#22AA00" fill-opacity="0.62"/>
<path d="M20.6853 17.4106C20.6666 17.5172 20.6109 17.6137 20.5281 17.6833C20.4453 17.7529 20.3406 17.791 20.2324 17.791C20.1242 17.791 20.0195 17.7529 19.9367 17.6833C19.8538 17.6137 19.7982 17.5172 19.7795 17.4106H19.3612C19.3976 17.6134 19.5041 17.7969 19.6621 17.929C19.8201 18.0612 20.0195 18.1336 20.2255 18.1336C20.4315 18.1336 20.6309 18.0612 20.7889 17.929C20.9469 17.7969 21.0534 17.6134 21.0898 17.4106H20.6853ZM20.5539 18.3787H19.9143L18.3447 21.8705H19.0154L19.3612 21.0615H21.0898L21.4355 21.8705H22.127L20.5539 18.3787ZM19.5755 20.5533L20.2289 19.0286L20.8858 20.5533H19.5755Z" fill="#22AA00" fill-opacity="0.62"/>
<path d="M25.0304 18.3682V20.7329L23.1047 18.3682H22.5723V21.86H23.2153V19.4952L25.141 21.86H25.6734V18.3682H25.0304Z" fill="#22AA00" fill-opacity="0.62"/>
<path d="M28.9959 21.1722C28.777 21.2965 28.5284 21.3586 28.2768 21.352C27.9513 21.352 27.6391 21.2227 27.409 20.9925C27.1788 20.7624 27.0495 20.4502 27.0495 20.1247C27.0495 19.7992 27.1788 19.487 27.409 19.2568C27.6391 19.0266 27.9513 18.8973 28.2768 18.8973C28.4561 18.8935 28.6343 18.9272 28.7998 18.9962C28.9653 19.0653 29.1145 19.1682 29.2379 19.2984L29.6459 18.8973C29.3845 18.6349 29.053 18.4532 28.6911 18.3741C28.3292 18.295 27.9521 18.3217 27.605 18.4512C27.2579 18.5806 26.9554 18.8073 26.7337 19.104C26.5119 19.4008 26.3803 19.7551 26.3546 20.1247C26.3523 20.3683 26.4 20.6099 26.4949 20.8343C26.5897 21.0588 26.7296 21.2614 26.9059 21.4296C27.0822 21.5978 27.2912 21.728 27.5199 21.8122C27.7485 21.8964 27.992 21.9327 28.2353 21.919C28.733 21.9318 29.2204 21.7758 29.6182 21.4765V20.0936H28.9959V21.1722Z" fill="#22AA00" fill-opacity="0.62"/>
<path d="M32.4982 21.3207V18.3682H31.8379V21.86H34.3133V21.3103L32.4982 21.3207Z" fill="#22AA00" fill-opacity="0.62"/>
<path d="M38.1782 17.6113L37.7944 17.7531C37.8598 17.8423 37.8949 17.9501 37.8947 18.0608C37.8982 18.1028 37.8927 18.1452 37.8784 18.1849C37.8641 18.2247 37.8415 18.2609 37.8119 18.291C37.7824 18.3212 37.7467 18.3447 37.7073 18.3599C37.6679 18.375 37.6257 18.3815 37.5835 18.3788H37.1652V20.3253C37.1652 21.0444 36.8471 21.3625 36.2836 21.3625C35.7201 21.3625 35.3951 21.0548 35.3951 20.3253V18.3685H34.7451V20.3391C34.7451 21.3556 35.319 21.9087 36.2767 21.9087C37.2343 21.9087 37.8048 21.3556 37.8048 20.3391V18.7868C37.9618 18.7475 38.1001 18.6543 38.1955 18.5235C38.2909 18.3928 38.3374 18.2327 38.3268 18.0712C38.3283 17.9058 38.2762 17.7445 38.1782 17.6113Z" fill="#22AA00" fill-opacity="0.62"/>
<path d="M40.3905 22.2857C40.3507 22.2852 40.3113 22.2928 40.2745 22.308C40.2378 22.3232 40.2045 22.3457 40.1767 22.3741C40.1489 22.4026 40.1272 22.4364 40.1128 22.4734C40.0985 22.5105 40.0918 22.5502 40.0932 22.5899C40.1011 22.6637 40.1361 22.7319 40.1913 22.7815C40.2465 22.8311 40.318 22.8585 40.3922 22.8585C40.4664 22.8585 40.538 22.8311 40.5932 22.7815C40.6484 22.7319 40.6833 22.6637 40.6913 22.5899C40.6927 22.5499 40.6859 22.51 40.6714 22.4726C40.6568 22.4353 40.6348 22.4013 40.6066 22.3728C40.5784 22.3443 40.5447 22.3219 40.5076 22.3069C40.4704 22.2919 40.4306 22.2847 40.3905 22.2857ZM41.6386 18.7593C41.8054 18.7393 41.9584 18.6569 42.0669 18.5286C42.1753 18.4003 42.231 18.2356 42.2229 18.0678C42.2222 17.9002 42.169 17.7369 42.0707 17.6011L41.6939 17.7394C41.7568 17.8312 41.7916 17.9393 41.7942 18.0505C41.7942 18.2718 41.6351 18.3962 41.3482 18.3962C41.0612 18.3962 40.8054 18.3271 40.4182 18.3271C40.066 18.3386 39.7251 18.4536 39.4378 18.6576C39.1506 18.8617 38.9298 19.1458 38.8029 19.4745C38.6761 19.8032 38.6488 20.162 38.7246 20.5061C38.8003 20.8502 38.9756 21.1644 39.2288 21.4095C39.4819 21.6546 39.8016 21.8198 40.1479 21.8844C40.4943 21.949 40.852 21.9102 41.1765 21.7728C41.5009 21.6354 41.7778 21.4056 41.9725 21.1119C42.1672 20.8182 42.2711 20.4738 42.2713 20.1214C42.275 19.8614 42.2201 19.6039 42.1106 19.368C42.001 19.1322 41.8397 18.9241 41.6386 18.7593ZM40.3905 21.3522C40.1478 21.3522 39.9105 21.2802 39.7086 21.1454C39.5068 21.0105 39.3495 20.8188 39.2566 20.5946C39.1637 20.3703 39.1394 20.1235 39.1868 19.8854C39.2341 19.6474 39.351 19.4287 39.5227 19.257C39.6943 19.0854 39.913 18.9685 40.1511 18.9211C40.3891 18.8738 40.6359 18.8981 40.8602 18.991C41.0845 19.0839 41.2761 19.2412 41.411 19.443C41.5459 19.6448 41.6178 19.8821 41.6178 20.1249C41.6231 20.2875 41.595 20.4494 41.5352 20.6007C41.4754 20.752 41.3852 20.8895 41.2701 21.0045C41.1551 21.1195 41.0177 21.2097 40.8664 21.2696C40.7151 21.3294 40.5531 21.3575 40.3905 21.3522Z" fill="#22AA00" fill-opacity="0.62"/>
<path d="M45.4181 18.3682V20.7329L43.4958 18.3682H42.96V21.86H43.603V19.4952L45.5287 21.86H46.0646V18.3682H45.4181Z" fill="#22AA00" fill-opacity="0.62"/>
<path d="M49.3825 21.1725C49.1647 21.2961 48.9173 21.3583 48.6669 21.3523C48.3414 21.3523 48.0292 21.2229 47.799 20.9928C47.5689 20.7626 47.4396 20.4504 47.4396 20.1249C47.4396 19.7994 47.5689 19.4872 47.799 19.2571C48.0292 19.0269 48.3414 18.8976 48.6669 18.8976C48.8462 18.8937 49.0243 18.9274 49.1899 18.9965C49.3554 19.0655 49.5046 19.1685 49.628 19.2986L50.0394 18.8976C49.8603 18.7073 49.6421 18.558 49.3998 18.4601C49.1575 18.3622 48.8968 18.3181 48.6358 18.3306C48.3908 18.3154 48.1453 18.3505 47.9143 18.4338C47.6834 18.5171 47.472 18.6468 47.2931 18.8149C47.1143 18.983 46.9717 19.186 46.8743 19.4113C46.7768 19.6366 46.7266 19.8794 46.7266 20.1249C46.7266 20.3704 46.7768 20.6133 46.8743 20.8386C46.9717 21.0639 47.1143 21.2668 47.2931 21.4349C47.472 21.6031 47.6834 21.7328 47.9143 21.8161C48.1453 21.8993 48.3908 21.9345 48.6358 21.9192C49.1333 21.9309 49.6204 21.7751 50.0187 21.4767V20.0938H49.4033L49.3825 21.1725Z" fill="#22AA00" fill-opacity="0.62"/>
<path d="M53.8788 21.3522C53.5533 21.3522 53.2411 21.2229 53.0109 20.9927C52.7807 20.7626 52.6514 20.4504 52.6514 20.1249C52.6514 19.7994 52.7807 19.4872 53.0109 19.257C53.2411 19.0269 53.5533 18.8976 53.8788 18.8976C54.0548 18.8952 54.2292 18.9307 54.3903 19.0017C54.5513 19.0727 54.6952 19.1775 54.8122 19.309L55.2306 18.9148C54.9866 18.6477 54.6675 18.4605 54.3153 18.3779C53.963 18.2954 53.594 18.3212 53.2567 18.452C52.9194 18.5829 52.6295 18.8127 52.4251 19.1112C52.2207 19.4097 52.1113 19.7631 52.1113 20.1249C52.1113 20.4867 52.2207 20.8401 52.4251 21.1386C52.6295 21.4371 52.9194 21.6669 53.2567 21.7977C53.594 21.9286 53.963 21.9544 54.3153 21.8718C54.6675 21.7892 54.9866 21.6021 55.2306 21.3349L54.8122 20.9339C54.6963 21.0672 54.5528 21.1736 54.3916 21.2459C54.2304 21.3181 54.0554 21.3544 53.8788 21.3522Z" fill="#22AA00" fill-opacity="0.62"/>
<path d="M58.2174 18.3682V20.3146C58.2174 21.0337 57.8993 21.3518 57.3358 21.3518C56.7723 21.3518 56.4473 21.0441 56.4473 20.3146V18.3682H55.8008V20.3388C55.8008 21.3552 56.3747 21.9084 57.3324 21.9084C58.29 21.9084 58.857 21.3552 58.857 20.3388V18.3682H58.2174Z" fill="#22AA00" fill-opacity="0.62"/>
<path d="M61.3945 22.2854C61.3547 22.2849 61.3153 22.2925 61.2785 22.3077C61.2418 22.3229 61.2085 22.3454 61.1807 22.3738C61.1529 22.4023 61.1311 22.4361 61.1168 22.4732C61.1024 22.5103 61.0958 22.5499 61.0972 22.5896C61.1051 22.6634 61.14 22.7316 61.1952 22.7812C61.2504 22.8308 61.322 22.8582 61.3962 22.8582C61.4704 22.8582 61.542 22.8308 61.5972 22.7812C61.6524 22.7316 61.6873 22.6634 61.6953 22.5896C61.6967 22.5496 61.6899 22.5097 61.6754 22.4723C61.6608 22.435 61.6387 22.4011 61.6106 22.3726C61.5824 22.3441 61.5487 22.3216 61.5115 22.3066C61.4744 22.2916 61.4346 22.2844 61.3945 22.2854ZM61.678 17.4106H61.111L60.4437 18.1021H60.9554L61.3945 17.7322L61.8336 18.1021H62.3487L61.678 17.4106ZM61.3945 18.3303C61.0428 18.3465 60.7036 18.4657 60.419 18.673C60.1344 18.8803 59.9169 19.1666 59.7936 19.4964C59.6702 19.8262 59.6465 20.185 59.7252 20.5282C59.804 20.8713 59.9817 21.1838 60.2365 21.4269C60.4912 21.6699 60.8118 21.8328 61.1583 21.8954C61.5048 21.9579 61.862 21.9173 62.1856 21.7786C62.5093 21.6399 62.785 21.4092 62.9787 21.1152C63.1725 20.8211 63.2755 20.4767 63.2752 20.1246C63.2765 19.8812 63.2281 19.6401 63.1329 19.4162C63.0377 19.1922 62.8978 18.99 62.7217 18.822C62.5456 18.654 62.337 18.5237 62.1088 18.4392C61.8806 18.3546 61.6375 18.3176 61.3945 18.3303ZM61.3945 21.3519C61.1518 21.3519 60.9145 21.2799 60.7126 21.1451C60.5108 21.0102 60.3535 20.8185 60.2606 20.5943C60.1677 20.37 60.1434 20.1232 60.1907 19.8852C60.2381 19.6471 60.355 19.4284 60.5266 19.2567C60.6983 19.0851 60.917 18.9682 61.1551 18.9208C61.3931 18.8735 61.6399 18.8978 61.8642 18.9907C62.0884 19.0836 62.2801 19.2409 62.415 19.4427C62.5498 19.6446 62.6218 19.8818 62.6218 20.1246C62.6266 20.2871 62.5981 20.4488 62.5381 20.5999C62.4782 20.7509 62.3879 20.8882 62.273 21.0031C62.1581 21.118 62.0208 21.2082 61.8698 21.2682C61.7187 21.3282 61.557 21.3567 61.3945 21.3519Z" fill="#22AA00" fill-opacity="0.62"/>
<path d="M65.6151 21.3522C65.2896 21.3522 64.9774 21.2229 64.7472 20.9927C64.5171 20.7626 64.3878 20.4504 64.3878 20.1249C64.3878 19.7994 64.5171 19.4872 64.7472 19.257C64.9774 19.0269 65.2896 18.8976 65.6151 18.8976C65.7906 18.8948 65.9647 18.9301 66.1253 19.0011C66.2858 19.0722 66.4291 19.1772 66.5451 19.309L66.9669 18.9148C66.7229 18.6477 66.4038 18.4605 66.0516 18.3779C65.6993 18.2954 65.3303 18.3212 64.993 18.452C64.6557 18.5829 64.3658 18.8127 64.1614 19.1112C63.957 19.4097 63.8477 19.7631 63.8477 20.1249C63.8477 20.4867 63.957 20.8401 64.1614 21.1386C64.3658 21.4371 64.6557 21.6669 64.993 21.7977C65.3303 21.9286 65.6993 21.9544 66.0516 21.8718C66.4038 21.7892 66.7229 21.6021 66.9669 21.3349L66.5451 20.9339C66.43 21.0673 66.2871 21.1739 66.1265 21.2461C65.9658 21.3184 65.7913 21.3546 65.6151 21.3522Z" fill="#22AA00" fill-opacity="0.62"/>
<path d="M69.391 19.3433C69.391 19.0771 69.6088 18.8696 70.1481 18.8696C70.4869 18.8752 70.8182 18.9693 71.1092 19.1427L71.3167 18.638C70.9649 18.4311 70.5631 18.3246 70.155 18.3303C69.1974 18.3303 68.7479 18.8074 68.7479 19.3675C68.7479 20.6639 70.8223 20.173 70.8223 20.9232C70.8223 21.1825 70.5907 21.3796 70.0479 21.3796C69.6331 21.3769 69.23 21.2425 68.8966 20.9958L68.6719 21.4971C69.0745 21.7845 69.5604 21.9315 70.0548 21.9155C71.0124 21.9155 71.4653 21.4384 71.4653 20.8783C71.4584 19.6026 69.391 20.097 69.391 19.3433Z" fill="#22AA00" fill-opacity="0.62"/>
<path d="M74.8466 17.0547L74.2796 17.6355H74.7567L75.5138 17.0547H74.8466ZM74.0134 17.5629H73.4568L72.7826 18.0953H73.2943L73.7264 17.8222L74.1621 18.0953H74.6772L74.0134 17.5629ZM73.7334 18.3304C73.3816 18.3467 73.0424 18.4658 72.7578 18.6731C72.4732 18.8805 72.2558 19.1668 72.1324 19.4966C72.0091 19.8264 71.9853 20.1851 72.0641 20.5283C72.1428 20.8715 72.3206 21.184 72.5754 21.427C72.8301 21.6701 73.1506 21.833 73.4971 21.8955C73.8436 21.958 74.2009 21.9174 74.5245 21.7787C74.8481 21.64 75.1239 21.4093 75.3176 21.1153C75.5113 20.8213 75.6144 20.4768 75.6141 20.1247C75.6159 19.8812 75.5678 19.6399 75.4728 19.4157C75.3778 19.1915 75.2378 18.9891 75.0616 18.821C74.8854 18.6529 74.6767 18.5226 74.4483 18.4383C74.2198 18.3539 73.9765 18.3172 73.7334 18.3304ZM73.7334 21.3521C73.4906 21.3521 73.2533 21.2801 73.0515 21.1452C72.8497 21.0104 72.6924 20.8187 72.5995 20.5944C72.5066 20.3702 72.4823 20.1234 72.5296 19.8853C72.577 19.6472 72.6939 19.4285 72.8655 19.2569C73.0371 19.0852 73.2558 18.9683 73.4939 18.921C73.732 18.8736 73.9788 18.8979 74.203 18.9908C74.4273 19.0837 74.619 19.241 74.7538 19.4429C74.8887 19.6447 74.9607 19.882 74.9607 20.1247C74.9655 20.2872 74.937 20.4489 74.877 20.6C74.817 20.7511 74.7268 20.8883 74.6119 21.0032C74.4969 21.1182 74.3597 21.2084 74.2086 21.2684C74.0576 21.3284 73.8958 21.3568 73.7334 21.3521Z" fill="#22AA00" fill-opacity="0.62"/>
<path d="M78.7599 18.3682V20.7329L76.8376 18.3682H76.3018V21.86H76.9448V19.4952L78.8705 21.86H79.4064V18.3682H78.7599Z" fill="#22AA00" fill-opacity="0.62"/>
<path d="M82.7253 21.1725C82.5075 21.2961 82.2601 21.3583 82.0097 21.3523C81.6842 21.3523 81.372 21.2229 81.1418 20.9928C80.9116 20.7626 80.7823 20.4504 80.7823 20.1249C80.7823 19.7994 80.9116 19.4872 81.1418 19.2571C81.372 19.0269 81.6842 18.8976 82.0097 18.8976C82.189 18.8937 82.3671 18.9274 82.5326 18.9965C82.6982 19.0655 82.8474 19.1685 82.9708 19.2986L83.3822 18.8976C83.2031 18.7073 82.9849 18.558 82.7426 18.4601C82.5003 18.3622 82.2396 18.3181 81.9785 18.3306C81.7335 18.3154 81.488 18.3505 81.2571 18.4338C81.0262 18.5171 80.8148 18.6468 80.6359 18.8149C80.457 18.983 80.3145 19.186 80.2171 19.4113C80.1196 19.6366 80.0693 19.8794 80.0693 20.1249C80.0693 20.3704 80.1196 20.6133 80.2171 20.8386C80.3145 21.0639 80.457 21.2668 80.6359 21.4349C80.8148 21.6031 81.0262 21.7328 81.2571 21.8161C81.488 21.8993 81.7335 21.9345 81.9785 21.9192C82.4702 21.9271 82.9506 21.7714 83.3442 21.4767V20.0938H82.7288L82.7253 21.1725Z" fill="#22AA00" fill-opacity="0.62"/>
</svg>
