<svg width="21" height="20" viewBox="0 0 21 20" fill="none" xmlns="http://www.w3.org/2000/svg">
<path d="M4.7998 15.6293H16.1879C17.5439 15.6293 18.2596 14.9262 18.2596 13.5827V6.99093C18.2596 5.64746 17.5439 4.94434 16.1879 4.94434H14.4741C13.9844 4.94434 13.8274 4.86272 13.5198 4.54255L13.0239 4.00893C12.6974 3.66364 12.3647 3.49414 11.7243 3.49414H9.232C8.59166 3.49414 8.26521 3.66364 7.93248 4.00893L7.43652 4.54255C7.13518 4.85645 6.97196 4.94434 6.48228 4.94434H4.7998C3.44378 4.94434 2.73438 5.64746 2.73438 6.99093V13.5827C2.73438 14.9262 3.44378 15.6293 4.7998 15.6293ZM4.88142 14.38C4.31013 14.38 3.98368 14.0787 3.98368 13.4697V7.10393C3.98368 6.50126 4.31013 6.19992 4.88142 6.19992H6.8464C7.41141 6.19992 7.7002 6.09947 8.02037 5.75419L8.49749 5.22684C8.84905 4.84389 9.03739 4.74344 9.58984 4.74344H11.3665C11.9189 4.74344 12.1073 4.84389 12.4526 5.22056L12.936 5.75419C13.2561 6.09947 13.5449 6.19992 14.1099 6.19992H16.1063C16.6839 6.19992 17.004 6.50126 17.004 7.10393V13.4697C17.004 14.0787 16.6839 14.38 16.1063 14.38H4.88142ZM10.4939 13.5513C12.3772 13.5513 13.8839 12.0446 13.8839 10.155C13.8839 8.26535 12.3772 6.75865 10.4939 6.75865C8.61677 6.75865 7.11007 8.26535 7.11007 10.155C7.11007 12.0446 8.61677 13.5513 10.4939 13.5513ZM14.0974 7.90751C14.0974 8.36579 14.4678 8.72363 14.9198 8.71736C15.3592 8.71736 15.7296 8.35951 15.7296 7.90751C15.7296 7.46805 15.353 7.09138 14.9198 7.09138C14.4678 7.09138 14.0974 7.46805 14.0974 7.90751ZM10.4939 12.4088C9.25711 12.4088 8.24637 11.4043 8.24637 10.155C8.24637 8.89941 9.25084 7.90123 10.4939 7.90123C11.7432 7.90123 12.7476 8.89941 12.7476 10.155C12.7476 11.4043 11.7432 12.4088 10.4939 12.4088Z" fill="black"/>
</svg>
