<svg width="35" height="35" viewBox="0 0 35 35" fill="none" xmlns="http://www.w3.org/2000/svg">
<path d="M7.0957 17.0566C7.0957 17.3862 7.23853 17.7158 7.49121 17.9575L14.7422 25.1975C15.0059 25.4502 15.2915 25.571 15.6101 25.571C16.3022 25.571 16.8076 25.0767 16.8076 24.4065C16.8076 24.0549 16.6758 23.7583 16.4451 23.5386L13.9731 21.0337L10.7871 18.1223L13.3469 18.2761H26.6624C27.3875 18.2761 27.8928 17.7708 27.8928 17.0566C27.8928 16.3315 27.3875 15.8262 26.6624 15.8262H13.3469L10.7981 15.98L13.9731 13.0686L16.4451 10.5637C16.6758 10.344 16.8076 10.0474 16.8076 9.6958C16.8076 9.02563 16.3022 8.53125 15.6101 8.53125C15.2915 8.53125 14.9949 8.6521 14.7092 8.92676L7.49121 16.1448C7.23853 16.3865 7.0957 16.7161 7.0957 17.0566Z" fill="#1C1C1E"/>
</svg>
