<svg width="20" height="23" viewBox="0 0 20 23" fill="none" xmlns="http://www.w3.org/2000/svg">
<path d="M1.91406 18.3751H6.05246C6.12277 20.2836 7.68973 22.0515 10 22.0515C12.3002 22.0515 13.8772 20.3037 13.9576 18.3751H18.0859C19.1306 18.3751 19.7734 17.8026 19.7734 16.9388C19.7734 15.864 18.7991 14.9499 17.885 14.076C17.1719 13.383 17.0011 11.9968 16.8705 10.5805C16.7299 6.79367 15.615 4.26242 13.0033 3.31822C12.6116 1.98228 11.4967 0.967773 10 0.967773C8.50335 0.967773 7.38839 1.98228 7.0067 3.31822C4.38505 4.26242 3.28013 6.79367 3.12946 10.5805C2.99888 11.9968 2.82812 13.383 2.11496 14.076C1.20089 14.9499 0.226562 15.864 0.226562 16.9388C0.226562 17.8026 0.86942 18.3751 1.91406 18.3751ZM2.67746 16.5068V16.3863C2.93862 16.095 3.52121 15.5626 4.01339 15.0001C4.70647 14.2066 5.0279 12.7401 5.12835 10.8316C5.24888 6.80371 6.49442 5.44768 8.10156 5.01576C8.35268 4.94545 8.48326 4.82492 8.50335 4.55371C8.55357 3.5392 9.12612 2.85617 10 2.85617C10.8839 2.85617 11.4464 3.5392 11.4967 4.55371C11.5167 4.82492 11.6574 4.94545 11.8984 5.01576C13.5156 5.44768 14.7511 6.80371 14.8717 10.8316C14.9821 12.7401 15.3036 14.2066 15.9866 15.0001C16.4788 15.5626 17.0413 16.095 17.3025 16.3863V16.5068H2.67746ZM10 20.4343C8.86496 20.4343 8.05134 19.6207 7.98103 18.3751H12.029C11.9688 19.6106 11.1451 20.4343 10 20.4343Z" fill="white"/>
</svg>
