<svg width="18" height="17" viewBox="0 0 18 17" fill="none" xmlns="http://www.w3.org/2000/svg">
<path d="M7 9.4503C7.35957 9.89403 7.81831 10.2612 8.34512 10.5269C8.87192 10.7926 9.45447 10.9505 10.0532 10.9901C10.652 11.0297 11.253 10.95 11.8154 10.7563C12.3779 10.5626 12.8886 10.2596 13.313 9.86765L15.8248 7.54902C16.5874 6.82019 17.0094 5.84404 16.9998 4.83081C16.9903 3.81758 16.55 2.84834 15.7738 2.13185C14.9977 1.41536 13.9477 1.00895 12.85 1.00015C11.7524 0.991341 10.6949 1.38085 9.90533 2.08478L8.46522 3.4064" stroke="#29AB56" stroke-width="2" stroke-linecap="round" stroke-linejoin="round"/>
<path d="M11 7.5497C10.6404 7.10597 10.1817 6.73881 9.65488 6.47313C9.12808 6.20745 8.54553 6.04946 7.94676 6.00987C7.348 5.97029 6.74701 6.05004 6.18456 6.24371C5.62212 6.43738 5.11138 6.74045 4.68697 7.13235L2.17516 9.45098C1.41258 10.1798 0.99062 11.156 1.00016 12.1692C1.0097 13.1824 1.44997 14.1517 2.22616 14.8681C3.00234 15.5846 4.05233 15.991 5.14998 15.9999C6.24763 16.0087 7.30511 15.6192 8.09467 14.9152L9.5264 13.5936" stroke="#29AB56" stroke-width="2" stroke-linecap="round" stroke-linejoin="round"/>
</svg>
