<svg width="25" height="24" viewBox="0 0 25 24" fill="none" xmlns="http://www.w3.org/2000/svg">
<path d="M9.48521 20.0391H16.4085C17.5686 20.0391 18.3145 19.3376 18.3747 18.1761L18.8795 7.31447H19.7081C20.0924 7.31447 20.3862 7.01275 20.3862 6.63562C20.3862 6.25848 20.0848 5.97185 19.7081 5.97185H16.3633V4.84044C16.3633 3.67885 15.625 3 14.3669 3H11.5042C10.2461 3 9.50781 3.67885 9.50781 4.84044V5.97185H6.17801C5.80134 5.97185 5.5 6.26602 5.5 6.63562C5.5 7.0203 5.80134 7.31447 6.17801 7.31447H7.0067L7.51144 18.1761C7.57171 19.3452 8.30999 20.0391 9.48521 20.0391ZM10.9166 4.90832C10.9166 4.52364 11.1878 4.27473 11.6021 4.27473H14.269C14.6833 4.27473 14.9545 4.52364 14.9545 4.90832V5.97185H10.9166V4.90832ZM9.63588 18.689C9.22154 18.689 8.9202 18.3797 8.8976 17.9347L8.39286 7.31447H17.4707L16.981 17.9347C16.966 18.3873 16.6722 18.689 16.2427 18.689H9.63588ZM10.7207 17.4746C11.0446 17.4746 11.248 17.2709 11.2405 16.9692L11.0145 9.07947C11.007 8.77776 10.796 8.58165 10.4872 8.58165C10.1708 8.58165 9.96736 8.78531 9.97489 9.08702L10.2009 16.9768C10.2084 17.2785 10.4194 17.4746 10.7207 17.4746ZM12.9431 17.4746C13.2595 17.4746 13.478 17.2785 13.478 16.9768V9.08702C13.478 8.78531 13.2595 8.58165 12.9431 8.58165C12.6267 8.58165 12.4157 8.78531 12.4157 9.08702V16.9768C12.4157 17.2785 12.6267 17.4746 12.9431 17.4746ZM15.1655 17.4821C15.4668 17.4821 15.6777 17.2785 15.6853 16.9768L15.9113 9.08702C15.9188 8.78531 15.7154 8.58919 15.399 8.58919C15.0901 8.58919 14.8792 8.78531 14.8717 9.08702L14.6456 16.9768C14.6381 17.2709 14.8415 17.4821 15.1655 17.4821Z" fill="#29AB56"/>
</svg>
