<svg width="36" height="32" viewBox="0 0 36 32" fill="none" xmlns="http://www.w3.org/2000/svg">
<g clip-path="url(#clip0_4404_29794)">
<path fill-rule="evenodd" clip-rule="evenodd" d="M7.85938 28.6318C7.85938 27.3916 8.86477 26.3862 10.105 26.3862C11.3452 26.3862 12.3506 27.3916 12.3506 28.6318C12.3506 29.8721 11.3452 30.8775 10.105 30.8775C8.86477 30.8775 7.85938 29.8721 7.85938 28.6318Z" fill="white"/>
<path fill-rule="evenodd" clip-rule="evenodd" d="M20.2109 28.6318C20.2109 27.3916 21.2163 26.3862 22.4566 26.3862C23.6968 26.3862 24.7022 27.3916 24.7022 28.6318C24.7022 29.8721 23.6968 30.8775 22.4566 30.8775C21.2163 30.8775 20.2109 29.8721 20.2109 28.6318Z" fill="white"/>
<path fill-rule="evenodd" clip-rule="evenodd" d="M0 6.17554C0 5.55543 0.502698 5.05273 1.12281 5.05273H5.61404C6.1492 5.05273 6.60998 5.43043 6.71501 5.95518L7.65803 10.6668H25.8246C26.1592 10.6668 26.4764 10.816 26.6897 11.0738C26.903 11.3317 26.9902 11.6712 26.9275 11.9999L25.1294 21.4287C24.9754 22.2041 24.5535 22.9006 23.9377 23.3963C23.325 23.8896 22.559 24.1528 21.7727 24.1405H10.8785C10.0922 24.1528 9.32626 23.8896 8.71352 23.3963C8.09796 22.9008 7.67622 22.2046 7.52205 21.4296C7.52199 21.4293 7.52212 21.4299 7.52205 21.4296L5.64636 12.0582C5.63875 12.0272 5.63243 11.9956 5.62745 11.9637L4.69369 7.29835H1.12281C0.502698 7.29835 0 6.79565 0 6.17554ZM8.10749 12.9124L9.72445 20.9912C9.77579 21.2497 9.9164 21.4818 10.1217 21.6471C10.3269 21.8123 10.5838 21.9001 10.8473 21.895L10.8688 21.8948H21.7825L21.804 21.895C22.0674 21.9001 22.3243 21.8123 22.5296 21.6471C22.7339 21.4826 22.8741 21.2518 22.9261 20.9948L24.4674 12.9124H8.10749Z" fill="white"/>
</g>
<circle cx="27.5089" cy="8.42105" r="7.85965" fill="#F69320" stroke="#F0F0F0" stroke-width="1.12281"/>
<path d="M26.1891 8.91721L25.0313 8.63377L25.5077 4.2193H30.2418V5.44956H26.7138L26.4726 7.60252C26.6093 7.52211 26.7982 7.44371 27.0395 7.36732C27.2807 7.28691 27.5561 7.24671 27.8657 7.24671C28.2798 7.24671 28.6497 7.31506 28.9753 7.45175C29.305 7.58443 29.5844 7.77942 29.8136 8.03673C30.0428 8.29002 30.2177 8.5996 30.3383 8.96546C30.4589 9.3273 30.5192 9.73538 30.5192 10.1897C30.5192 10.5958 30.4589 10.9757 30.3383 11.3295C30.2217 11.6833 30.0448 11.9949 29.8076 12.2643C29.5704 12.5336 29.2708 12.7447 28.909 12.8975C28.5512 13.0462 28.127 13.1206 27.6365 13.1206C27.2707 13.1206 26.9189 13.0683 26.5811 12.9638C26.2474 12.8553 25.9479 12.6965 25.6826 12.4874C25.4172 12.2743 25.2041 12.013 25.0433 11.7034C24.8825 11.3898 24.79 11.03 24.7659 10.6239H26.1891C26.2253 10.9094 26.3037 11.1526 26.4243 11.3536C26.549 11.5506 26.7138 11.7014 26.9189 11.8059C27.1239 11.9105 27.3611 11.9627 27.6305 11.9627C27.8757 11.9627 28.0868 11.9205 28.2637 11.8361C28.4406 11.7476 28.5874 11.623 28.7039 11.4622C28.8246 11.2973 28.913 11.1043 28.9693 10.8832C29.0296 10.6621 29.0598 10.4168 29.0598 10.1475C29.0598 9.89017 29.0256 9.65497 28.9572 9.44189C28.8929 9.2288 28.7944 9.04386 28.6617 8.88706C28.5331 8.73026 28.3702 8.60965 28.1732 8.52522C27.9762 8.43677 27.7491 8.39254 27.4918 8.39254C27.146 8.39254 26.8807 8.4428 26.6957 8.54331C26.5148 8.64382 26.3459 8.76846 26.1891 8.91721Z" fill="white"/>
<defs>
<clipPath id="clip0_4404_29794">
<rect width="26.9474" height="26.9474" fill="white" transform="translate(0 5.05273)"/>
</clipPath>
</defs>
</svg>
