<svg width="36" height="32" viewBox="0 0 36 32" fill="none" xmlns="http://www.w3.org/2000/svg">
<g clip-path="url(#clip0_2075_35762)">
<path fill-rule="evenodd" clip-rule="evenodd" d="M7.85986 28.6318C7.85986 27.3916 8.86526 26.3862 10.1055 26.3862C11.3457 26.3862 12.3511 27.3916 12.3511 28.6318C12.3511 29.8721 11.3457 30.8775 10.1055 30.8775C8.86526 30.8775 7.85986 29.8721 7.85986 28.6318Z" fill="white"/>
<path fill-rule="evenodd" clip-rule="evenodd" d="M20.2104 28.6318C20.2104 27.3916 21.2158 26.3862 22.4561 26.3862C23.6963 26.3862 24.7017 27.3916 24.7017 28.6318C24.7017 29.8721 23.6963 30.8775 22.4561 30.8775C21.2158 30.8775 20.2104 29.8721 20.2104 28.6318Z" fill="white"/>
<path fill-rule="evenodd" clip-rule="evenodd" d="M0 6.17554C0 5.55543 0.502698 5.05273 1.12281 5.05273H5.61404C6.1492 5.05273 6.60998 5.43043 6.71501 5.95518L7.65803 10.6668H25.8246C26.1592 10.6668 26.4764 10.816 26.6897 11.0738C26.903 11.3317 26.9902 11.6712 26.9275 11.9999L25.1294 21.4287C24.9754 22.2041 24.5535 22.9006 23.9377 23.3963C23.325 23.8896 22.559 24.1528 21.7727 24.1405H10.8785C10.0922 24.1528 9.32626 23.8896 8.71352 23.3963C8.09796 22.9008 7.67622 22.2046 7.52205 21.4296C7.52199 21.4293 7.52212 21.4299 7.52205 21.4296L5.64636 12.0582C5.63875 12.0272 5.63243 11.9956 5.62745 11.9637L4.69369 7.29835H1.12281C0.502698 7.29835 0 6.79565 0 6.17554ZM8.10749 12.9124L9.72445 20.9912C9.77579 21.2497 9.9164 21.4818 10.1217 21.6471C10.3269 21.8123 10.5838 21.9001 10.8473 21.895L10.8688 21.8948H21.7825L21.804 21.895C22.0674 21.9001 22.3243 21.8123 22.5296 21.6471C22.7339 21.4826 22.8741 21.2518 22.9261 20.9948L24.4674 12.9124H8.10749Z" fill="white"/>
</g>
<circle cx="27.5089" cy="8.42105" r="7.85965" fill="#FB424F" stroke="#F0F0F0" stroke-width="1.12281"/>
<path d="M28.2107 3.87323V12.6841H26.7573V5.59801L24.6043 6.32772V5.12761L28.0358 3.87323H28.2107Z" fill="white"/>
<defs>
<clipPath id="clip0_2075_35762">
<rect width="26.9474" height="26.9474" fill="white" transform="translate(0 5.05273)"/>
</clipPath>
</defs>
</svg>
