<svg width="17" height="17" viewBox="0 0 17 17" fill="none" xmlns="http://www.w3.org/2000/svg">
<rect width="16" height="16" transform="translate(16.1426 16.5) rotate(-180)" fill="white"/>
<path d="M4.91323 8.69754C4.91825 8.87333 4.98354 9.02399 5.11914 9.1596L9.02651 12.9816C9.14202 13.0921 9.27762 13.1523 9.44336 13.1523C9.77985 13.1523 10.041 12.8912 10.041 12.5547C10.041 12.394 9.97573 12.2433 9.86021 12.1278L6.34459 8.69754L9.86021 5.2673C9.97573 5.15178 10.041 5.00614 10.041 4.8404C10.041 4.50391 9.77986 4.24275 9.44336 4.24275C9.28265 4.24275 9.14202 4.30301 9.02651 4.4135L5.11914 8.24051C4.97852 8.37109 4.91323 8.52176 4.91323 8.69754Z" fill="#1C1C1E"/>
</svg>
