<svg width="17" height="17" viewBox="0 0 17 17" fill="none" xmlns="http://www.w3.org/2000/svg">
<rect width="16" height="16" transform="translate(0.046875 0.5)" fill="white"/>
<path d="M11.2762 8.30246C11.2712 8.12667 11.2059 7.976 11.0703 7.8404L7.16295 4.01842C7.04743 3.90792 6.91183 3.84766 6.74609 3.84766C6.4096 3.84766 6.14844 4.10882 6.14844 4.44531C6.14844 4.60603 6.21373 4.7567 6.32924 4.87221L9.84487 8.30246L6.32924 11.7327C6.21373 11.8482 6.14844 11.9939 6.14844 12.1596C6.14844 12.4961 6.4096 12.7573 6.74609 12.7573C6.90681 12.7573 7.04743 12.697 7.16295 12.5865L11.0703 8.75949C11.2109 8.62891 11.2762 8.47824 11.2762 8.30246Z" fill="#1C1C1E"/>
</svg>
