<svg width="17" height="17" viewBox="0 0 17 17" fill="none" xmlns="http://www.w3.org/2000/svg">
<rect width="16" height="16" transform="translate(0.142578 0.5)" fill="white"/>
<path d="M11.3719 8.30246C11.3669 8.12667 11.3016 7.976 11.166 7.8404L7.25865 4.01842C7.14314 3.90792 7.00753 3.84766 6.8418 3.84766C6.5053 3.84766 6.24414 4.10882 6.24414 4.44531C6.24414 4.60603 6.30943 4.7567 6.42494 4.87221L9.94057 8.30246L6.42494 11.7327C6.30943 11.8482 6.24414 11.9939 6.24414 12.1596C6.24414 12.4961 6.5053 12.7573 6.8418 12.7573C7.00251 12.7573 7.14314 12.697 7.25865 12.5865L11.166 8.75949C11.3066 8.62891 11.3719 8.47824 11.3719 8.30246Z" fill="#1C1C1E"/>
</svg>
