<svg width="21" height="21" viewBox="0 0 21 21" fill="none" xmlns="http://www.w3.org/2000/svg">
<path d="M12.41 10.0002L20.7 1.71019C20.8638 1.51888 20.9494 1.27281 20.9397 1.02113C20.93 0.769456 20.8256 0.530717 20.6475 0.352623C20.4694 0.174528 20.2307 0.0701951 19.979 0.0604739C19.7274 0.0507528 19.4813 0.136359 19.29 0.300186L11 8.59019L2.70997 0.290185C2.52167 0.101882 2.26627 -0.00390625 1.99997 -0.00390625C1.73367 -0.00390625 1.47828 0.101882 1.28997 0.290185C1.10167 0.478489 0.995881 0.733884 0.995881 1.00019C0.995881 1.26649 1.10167 1.52188 1.28997 1.71019L9.58997 10.0002L1.28997 18.2902C1.18529 18.3798 1.10027 18.4902 1.04025 18.6142C0.980225 18.7383 0.946494 18.8734 0.941175 19.0111C0.935855 19.1488 0.959061 19.2862 1.00934 19.4145C1.05961 19.5428 1.13587 19.6594 1.23332 19.7568C1.33078 19.8543 1.44732 19.9305 1.57565 19.9808C1.70398 20.0311 1.84131 20.0543 1.97903 20.049C2.11675 20.0437 2.25188 20.0099 2.37594 19.9499C2.50001 19.8899 2.61033 19.8049 2.69997 19.7002L11 11.4102L19.29 19.7002C19.4813 19.864 19.7274 19.9496 19.979 19.9399C20.2307 19.9302 20.4694 19.8258 20.6475 19.6477C20.8256 19.4697 20.93 19.2309 20.9397 18.9792C20.9494 18.7276 20.8638 18.4815 20.7 18.2902L12.41 10.0002Z" fill="black"/>
</svg>
