<svg width="11" height="12" viewBox="0 0 11 12" fill="none" xmlns="http://www.w3.org/2000/svg">
<path d="M7.13808e-07 3.83499C7.53783e-07 3.37773 0.0665962 2.95228 0.199787 2.55865C0.336895 2.16501 0.521012 1.81908 0.752138 1.52087C0.98718 1.21869 1.25552 0.984095 1.55716 0.817096C1.86271 0.650098 2.1859 0.566599 2.52671 0.566599L4.29541 0.566599C4.6323 0.387673 5.00445 0.248508 5.41186 0.149105C5.81927 0.0497012 6.25214 -4.07095e-07 6.71047 -3.67026e-07L7.45673 -3.01786e-07C7.79363 -2.72334e-07 8.09918 0.0099399 8.3734 0.0298202C8.64761 0.0497015 8.87678 0.0834988 9.0609 0.131212C9.38996 0.218687 9.65046 0.367793 9.84241 0.578528C10.0344 0.789264 10.1303 1.04175 10.1303 1.33598C10.1303 1.49901 10.097 1.65408 10.0304 1.80119C10.4457 2.05567 10.6533 2.41551 10.6533 2.88072C10.6533 3.15507 10.5965 3.38171 10.4829 3.56064C10.6239 3.66004 10.7336 3.7992 10.812 3.97813C10.8903 4.15706 10.9295 4.34592 10.9295 4.54473C10.9295 4.68787 10.9099 4.82704 10.8707 4.96223C10.8316 5.09742 10.7767 5.20875 10.7062 5.29622C10.9021 5.49901 11 5.77932 11 6.13718C11 6.37575 10.9432 6.59245 10.8296 6.78728C10.7199 6.98211 10.571 7.13519 10.383 7.24652C10.195 7.36183 9.98344 7.41948 9.7484 7.41948L7.76229 7.41948C7.62126 7.41948 7.50766 7.45129 7.42147 7.51491C7.33921 7.57853 7.29808 7.666 7.29808 7.77734C7.29808 7.94036 7.34509 8.14115 7.4391 8.37972C7.53312 8.62227 7.64085 8.88469 7.76229 9.167C7.88372 9.45328 7.99145 9.74354 8.08547 10.0378C8.17949 10.332 8.22649 10.6103 8.22649 10.8728C8.22649 11.0954 8.17949 11.2903 8.08547 11.4573C7.99537 11.6282 7.87001 11.7614 7.7094 11.8569C7.55271 11.9523 7.37055 12 7.16293 12C6.93572 12 6.73985 11.9324 6.57532 11.7972C6.41079 11.666 6.25018 11.4473 6.09348 11.1412C5.92504 10.8032 5.75267 10.4891 5.57639 10.1988C5.40402 9.91253 5.21403 9.62028 5.00641 9.32207C4.80271 9.02783 4.56766 8.70378 4.30128 8.3499C4.0349 8 3.72543 7.59245 3.37286 7.12724L2.32692 7.12724C1.90385 7.12724 1.51603 6.98012 1.16346 6.68588C0.810898 6.39563 0.528847 6 0.317308 5.49901C0.10577 5.00199 6.60277e-07 4.44732 7.13808e-07 3.83499ZM2.80876 3.83499C2.80876 4.23658 2.84206 4.6004 2.90865 4.92644C2.97525 5.25248 3.08102 5.5666 3.22596 5.86879C3.37482 6.17495 3.57461 6.49702 3.82532 6.83499C4.09954 7.20477 4.39726 7.59841 4.71848 8.0159C5.03971 8.4334 5.36093 8.88072 5.68216 9.35785C6.00338 9.83499 6.3011 10.3479 6.57532 10.8966C6.68501 11.1153 6.78294 11.2624 6.86912 11.338C6.95531 11.4175 7.05912 11.4573 7.18056 11.4573C7.33725 11.4573 7.46065 11.4056 7.55075 11.3022C7.64476 11.1988 7.69177 11.0557 7.69177 10.8728C7.69177 10.6461 7.64476 10.3956 7.55075 10.1213C7.45673 9.8509 7.349 9.57455 7.22756 9.29225C7.10613 9.00994 6.9984 8.73757 6.90438 8.47515C6.81428 8.2167 6.76923 7.9841 6.76923 7.77734C6.76923 7.50298 6.86717 7.28429 7.06303 7.12127C7.26282 6.95825 7.51353 6.87674 7.81517 6.87674L9.7484 6.87674C9.9521 6.87674 10.1225 6.80517 10.2596 6.66203C10.3967 6.52286 10.4653 6.34791 10.4653 6.13718C10.4653 5.87873 10.3811 5.67197 10.2126 5.5169C10.146 5.46123 10.1088 5.3996 10.101 5.33201C10.0931 5.26441 10.1205 5.2008 10.1832 5.14115C10.2537 5.05765 10.3066 4.9662 10.3419 4.8668C10.3771 4.7674 10.3948 4.66004 10.3948 4.54473C10.3948 4.40557 10.3634 4.27435 10.3007 4.15109C10.242 4.03181 10.1558 3.93439 10.0422 3.85885C9.97169 3.81113 9.92468 3.75149 9.90118 3.67992C9.87767 3.61233 9.89138 3.5328 9.94231 3.44135C10.0011 3.34592 10.0442 3.25447 10.0716 3.167C10.1029 3.0835 10.1186 2.98807 10.1186 2.88072C10.1186 2.55865 9.93447 2.31014 9.56624 2.13519C9.49964 2.0994 9.45655 2.05368 9.43697 1.99801C9.4213 1.94235 9.43305 1.87674 9.47222 1.80119C9.52315 1.68986 9.55645 1.60239 9.57212 1.53877C9.5917 1.47515 9.6015 1.40755 9.6015 1.33598C9.6015 1.17296 9.54469 1.0338 9.43109 0.918488C9.31749 0.799205 9.151 0.711729 8.93162 0.656063C8.77101 0.616301 8.56535 0.586481 8.31464 0.5666C8.06392 0.546719 7.77796 0.536779 7.45673 0.536779L6.71047 0.548707C5.93875 0.556659 5.25908 0.701788 4.67147 0.984095C4.08779 1.26242 3.63141 1.64612 3.30235 2.13519C2.97329 2.62823 2.80876 3.19483 2.80876 3.83499ZM0.534723 3.83499C0.534723 4.35189 0.618946 4.8171 0.787394 5.23062C0.955841 5.64811 1.17521 5.97813 1.44551 6.22068C1.71973 6.46322 2.01353 6.58449 2.32692 6.58449C2.44053 6.58449 2.55413 6.58449 2.66774 6.58449C2.78134 6.58449 2.8969 6.58449 3.01442 6.58449C2.75196 6.15507 2.56197 5.72366 2.44444 5.29026C2.33084 4.85686 2.27404 4.37376 2.27404 3.84095C2.27404 3.28032 2.38373 2.76541 2.6031 2.29622C2.82639 1.83101 3.13978 1.4334 3.54327 1.10338C3.37482 1.10338 3.20638 1.10338 3.03793 1.10338C2.86948 1.10338 2.69907 1.10338 2.52671 1.10338C2.17806 1.10338 1.85096 1.22664 1.54541 1.47316C1.24377 1.71571 0.998932 2.04374 0.810898 2.45726C0.626781 2.87077 0.534723 3.33002 0.534723 3.83499Z" fill="#0066CC"/>
</svg>
