<svg width="141" height="23" viewBox="0 0 141 23" fill="none" xmlns="http://www.w3.org/2000/svg">
<rect width="37.95" height="23" fill="#00BC3C"/>
<path d="M37.9502 0H140.3L135.484 23H37.9502V0Z" fill="#008129"/>
<path d="M15.3478 6.4985C15.9918 6.4985 16.369 6.6733 16.4794 7.0229C16.5346 7.1701 16.5622 7.4277 16.5622 7.7957C16.5622 8.1637 16.4426 8.6237 16.2034 9.1757C15.9642 9.7185 15.6744 10.2567 15.334 10.7903C15.0028 11.3239 14.667 11.8621 14.3266 12.4049C13.517 13.7205 13.1122 14.7785 13.1122 15.5789C13.1122 15.7813 13.103 15.9331 13.0846 16.0343C13.0662 16.1263 13.0202 16.2275 12.9466 16.3379C12.873 16.4391 12.7488 16.5081 12.574 16.5449C12.4084 16.5817 12.1784 16.6001 11.884 16.6001C11.5896 16.6001 11.355 16.5817 11.1802 16.5449C11.0146 16.5081 10.895 16.4345 10.8214 16.3241C10.7478 16.2137 10.7018 16.1125 10.6834 16.0205C10.6742 15.9193 10.6696 15.7629 10.6696 15.5513C10.6696 14.9533 10.7708 14.3415 10.9732 13.7159C11.1756 13.0811 11.4194 12.5153 11.7046 12.0185C11.9898 11.5217 12.275 11.0663 12.5602 10.6523C12.8454 10.2291 13.0892 9.8703 13.2916 9.5759C13.494 9.2723 13.5952 9.0607 13.5952 8.9411H10.4488C10.0808 8.9411 9.81404 8.8951 9.64844 8.8031C9.48284 8.7111 9.37244 8.5777 9.31724 8.4029C9.26204 8.2281 9.23444 7.9981 9.23444 7.7129C9.23444 7.4277 9.26204 7.1977 9.31724 7.0229C9.37244 6.8481 9.45984 6.7285 9.57944 6.6641C9.77264 6.5537 10.0394 6.4985 10.3798 6.4985H15.3478ZM19.454 14.3231C19.6104 14.4795 19.6886 14.8015 19.6886 15.2891V15.3443C19.6886 15.5651 19.6794 15.7307 19.661 15.8411C19.6518 15.9423 19.6058 16.0665 19.523 16.2137C19.385 16.4805 19.0354 16.6139 18.4742 16.6139C17.9222 16.6139 17.5542 16.5265 17.3702 16.3517C17.1954 16.1769 17.108 15.8457 17.108 15.3581V15.3029C17.108 15.0913 17.1126 14.9303 17.1218 14.8199C17.1402 14.7095 17.1862 14.5853 17.2598 14.4473C17.3978 14.1713 17.7428 14.0333 18.2948 14.0333C18.856 14.0333 19.2424 14.1299 19.454 14.3231ZM26.3582 6.4985C27.0022 6.4985 27.3794 6.6733 27.4898 7.0229C27.545 7.1701 27.5726 7.4277 27.5726 7.7957C27.5726 8.1637 27.453 8.6237 27.2138 9.1757C26.9746 9.7185 26.6848 10.2567 26.3444 10.7903C26.0132 11.3239 25.6774 11.8621 25.337 12.4049C24.5274 13.7205 24.1226 14.7785 24.1226 15.5789C24.1226 15.7813 24.1134 15.9331 24.095 16.0343C24.0766 16.1263 24.0306 16.2275 23.957 16.3379C23.8834 16.4391 23.7592 16.5081 23.5844 16.5449C23.4188 16.5817 23.1888 16.6001 22.8944 16.6001C22.6 16.6001 22.3654 16.5817 22.1906 16.5449C22.025 16.5081 21.9054 16.4345 21.8318 16.3241C21.7582 16.2137 21.7122 16.1125 21.6938 16.0205C21.6846 15.9193 21.68 15.7629 21.68 15.5513C21.68 14.9533 21.7812 14.3415 21.9836 13.7159C22.186 13.0811 22.4298 12.5153 22.715 12.0185C23.0002 11.5217 23.2854 11.0663 23.5706 10.6523C23.8558 10.2291 24.0996 9.8703 24.302 9.5759C24.5044 9.2723 24.6056 9.0607 24.6056 8.9411H21.4592C21.0912 8.9411 20.8244 8.8951 20.6588 8.8031C20.4932 8.7111 20.3828 8.5777 20.3276 8.4029C20.2724 8.2281 20.2448 7.9981 20.2448 7.7129C20.2448 7.4277 20.2724 7.1977 20.3276 7.0229C20.3828 6.8481 20.4702 6.7285 20.5898 6.6641C20.783 6.5537 21.0498 6.4985 21.3902 6.4985H26.3582Z" fill="white"/>
<path d="M49.9509 11.5513V11.8545C49.9509 12.3408 49.885 12.7773 49.7531 13.1641C49.6213 13.5508 49.4353 13.8804 49.195 14.1528C48.9548 14.4224 48.6677 14.6289 48.3337 14.7725C48.0026 14.916 47.635 14.9878 47.2307 14.9878C46.8293 14.9878 46.4616 14.916 46.1276 14.7725C45.7966 14.6289 45.5095 14.4224 45.2663 14.1528C45.0231 13.8804 44.8342 13.5508 44.6994 13.1641C44.5676 12.7773 44.5017 12.3408 44.5017 11.8545V11.5513C44.5017 11.062 44.5676 10.6255 44.6994 10.2417C44.8312 9.85498 45.0173 9.52539 45.2575 9.25293C45.5007 8.98047 45.7878 8.77246 46.1188 8.62891C46.4528 8.48535 46.8205 8.41357 47.2219 8.41357C47.6262 8.41357 47.9938 8.48535 48.3249 8.62891C48.6589 8.77246 48.946 8.98047 49.1862 9.25293C49.4294 9.52539 49.6169 9.85498 49.7487 10.2417C49.8835 10.6255 49.9509 11.062 49.9509 11.5513ZM48.6193 11.8545V11.5425C48.6193 11.2026 48.5886 10.9038 48.5271 10.646C48.4655 10.3882 48.3747 10.1714 48.2546 9.99561C48.1345 9.81982 47.988 9.68799 47.8151 9.6001C47.6423 9.50928 47.4445 9.46387 47.2219 9.46387C46.9992 9.46387 46.8015 9.50928 46.6286 9.6001C46.4587 9.68799 46.3137 9.81982 46.1936 9.99561C46.0764 10.1714 45.987 10.3882 45.9255 10.646C45.864 10.9038 45.8332 11.2026 45.8332 11.5425V11.8545C45.8332 12.1914 45.864 12.4902 45.9255 12.751C45.987 13.0088 46.0778 13.2271 46.1979 13.4058C46.3181 13.5815 46.4646 13.7148 46.6374 13.8057C46.8103 13.8965 47.008 13.9419 47.2307 13.9419C47.4533 13.9419 47.6511 13.8965 47.8239 13.8057C47.9968 13.7148 48.1418 13.5815 48.259 13.4058C48.3762 13.2271 48.4655 13.0088 48.5271 12.751C48.5886 12.4902 48.6193 12.1914 48.6193 11.8545ZM51.5021 8.50146H52.6184L54.2619 13.1992L55.9055 8.50146H57.0217L54.7102 14.8999H53.8137L51.5021 8.50146ZM50.9001 8.50146H52.0119L52.2141 13.0806V14.8999H50.9001V8.50146ZM56.5119 8.50146H57.6281V14.8999H56.3098V13.0806L56.5119 8.50146ZM59.3859 8.50146H60.5021L62.1457 13.1992L63.7893 8.50146H64.9055L62.5939 14.8999H61.6975L59.3859 8.50146ZM58.7839 8.50146H59.8957L60.0979 13.0806V14.8999H58.7839V8.50146ZM64.3957 8.50146H65.5119V14.8999H64.1936V13.0806L64.3957 8.50146ZM69.3483 9.5957L67.6081 14.8999H66.2062L68.5837 8.50146H69.4758L69.3483 9.5957ZM70.7941 14.8999L69.0495 9.5957L68.9089 8.50146H69.8098L72.2004 14.8999H70.7941ZM70.715 12.5181V13.5508H67.3356V12.5181H70.715ZM78.0012 8.50146V14.8999H76.6828L74.112 10.6108V14.8999H72.7937V8.50146H74.112L76.6872 12.7949V8.50146H78.0012ZM80.55 8.50146V14.8999H79.236V8.50146H80.55ZM85.3444 8.50146V14.8999H84.0261V8.50146H85.3444ZM87.8933 11.2349V12.2632H84.9841V11.2349H87.8933ZM88.2009 8.50146V9.53418H84.9841V8.50146H88.2009ZM88.9655 8.50146H91.3518C91.841 8.50146 92.2614 8.57471 92.613 8.72119C92.9675 8.86768 93.2399 9.08447 93.4304 9.37158C93.6208 9.65869 93.716 10.0117 93.716 10.4307C93.716 10.7734 93.6574 11.0679 93.5402 11.314C93.426 11.5571 93.2634 11.7607 93.0524 11.9248C92.8444 12.0859 92.5998 12.2148 92.3186 12.3115L91.9011 12.5312H89.8269L89.8181 11.5029H91.3605C91.592 11.5029 91.7839 11.4619 91.9362 11.3799C92.0886 11.2979 92.2028 11.1836 92.279 11.0371C92.3581 10.8906 92.3977 10.7207 92.3977 10.5273C92.3977 10.3223 92.3596 10.145 92.2834 9.99561C92.2072 9.84619 92.0915 9.73193 91.9362 9.65283C91.781 9.57373 91.5861 9.53418 91.3518 9.53418H90.2839V14.8999H88.9655V8.50146ZM92.5427 14.8999L91.0837 12.0479L92.4768 12.0391L93.9533 14.8384V14.8999H92.5427ZM99.0246 13.8716V14.8999H95.6188V13.8716H99.0246ZM96.0495 8.50146V14.8999H94.7312V8.50146H96.0495ZM98.5808 11.1074V12.1094H95.6188V11.1074H98.5808ZM99.0202 8.50146V9.53418H95.6188V8.50146H99.0202ZM104.087 13.8716V14.8999H100.681V13.8716H104.087ZM101.112 8.50146V14.8999H99.7937V8.50146H101.112ZM103.643 11.1074V12.1094H100.681V11.1074H103.643ZM104.083 8.50146V9.53418H100.681V8.50146H104.083ZM108.187 13.2256C108.187 13.1113 108.17 13.0088 108.134 12.918C108.102 12.8242 108.041 12.7393 107.95 12.6631C107.859 12.584 107.732 12.5063 107.568 12.4302C107.404 12.354 107.191 12.2749 106.93 12.1929C106.64 12.0991 106.365 11.9937 106.104 11.8765C105.846 11.7593 105.618 11.623 105.419 11.4678C105.222 11.3096 105.067 11.1265 104.953 10.9185C104.842 10.7104 104.786 10.4688 104.786 10.1934C104.786 9.92676 104.844 9.68506 104.962 9.46826C105.079 9.24854 105.243 9.06104 105.454 8.90576C105.665 8.74756 105.914 8.62598 106.201 8.54102C106.491 8.45605 106.809 8.41357 107.154 8.41357C107.626 8.41357 108.038 8.49854 108.389 8.66846C108.741 8.83838 109.013 9.07129 109.207 9.36719C109.403 9.66309 109.501 10.0015 109.501 10.3823H108.192C108.192 10.1948 108.152 10.0308 108.073 9.89014C107.997 9.74658 107.88 9.63379 107.721 9.55176C107.566 9.46973 107.37 9.42871 107.133 9.42871C106.904 9.42871 106.714 9.46387 106.561 9.53418C106.409 9.60156 106.295 9.69385 106.218 9.81104C106.142 9.92529 106.104 10.0542 106.104 10.1978C106.104 10.3062 106.131 10.4043 106.183 10.4922C106.239 10.5801 106.321 10.6621 106.429 10.7383C106.538 10.8145 106.671 10.8862 106.829 10.9536C106.987 11.021 107.171 11.0869 107.379 11.1514C107.727 11.2568 108.033 11.3755 108.297 11.5073C108.564 11.6392 108.786 11.7871 108.965 11.9512C109.144 12.1152 109.279 12.3013 109.369 12.5093C109.46 12.7173 109.506 12.9531 109.506 13.2168C109.506 13.4951 109.451 13.7441 109.343 13.9639C109.235 14.1836 109.078 14.3696 108.873 14.522C108.668 14.6743 108.423 14.79 108.139 14.8691C107.855 14.9482 107.537 14.9878 107.185 14.9878C106.869 14.9878 106.557 14.9468 106.249 14.8647C105.942 14.7798 105.662 14.6523 105.41 14.4824C105.161 14.3125 104.962 14.0957 104.812 13.832C104.663 13.5684 104.588 13.2563 104.588 12.896H105.911C105.911 13.0952 105.942 13.2637 106.003 13.4014C106.065 13.5391 106.151 13.6504 106.262 13.7354C106.377 13.8203 106.511 13.8818 106.667 13.9199C106.825 13.958 106.998 13.9771 107.185 13.9771C107.414 13.9771 107.601 13.9448 107.748 13.8804C107.897 13.8159 108.007 13.7266 108.077 13.6123C108.151 13.498 108.187 13.3691 108.187 13.2256ZM114.669 11.1074V12.1357H111.329V11.1074H114.669ZM111.72 8.50146V14.8999H110.402V8.50146H111.72ZM115.61 8.50146V14.8999H114.296V8.50146H115.61ZM118.158 8.50146V14.8999H116.844V8.50146H118.158ZM121.885 12.6191H120.255V11.5908H121.885C122.137 11.5908 122.342 11.5498 122.5 11.4678C122.658 11.3828 122.774 11.2656 122.847 11.1162C122.921 10.9668 122.957 10.7983 122.957 10.6108C122.957 10.4204 122.921 10.2432 122.847 10.0791C122.774 9.91504 122.658 9.7832 122.5 9.68359C122.342 9.58398 122.137 9.53418 121.885 9.53418H120.712V14.8999H119.393V8.50146H121.885C122.386 8.50146 122.815 8.59229 123.173 8.77393C123.533 8.95264 123.808 9.2002 123.999 9.5166C124.189 9.83301 124.284 10.1948 124.284 10.6021C124.284 11.0151 124.189 11.3726 123.999 11.6743C123.808 11.9761 123.533 12.209 123.173 12.373C122.815 12.5371 122.386 12.6191 121.885 12.6191ZM129.255 11.3359V12.439H124.869V11.3359H129.255ZM127.664 9.6001V14.2583H126.464V9.6001H127.664Z" fill="white"/>
</svg>
