<svg width="18" height="15" viewBox="0 0 18 15" fill="none" xmlns="http://www.w3.org/2000/svg">
<path fill-rule="evenodd" clip-rule="evenodd" d="M0.742188 2.84622C0.742188 2.83268 0.742283 2.81923 0.742475 2.80588C0.748916 2.35806 0.863403 2.01926 1.08594 1.78949C1.31755 1.55034 1.65088 1.42936 2.08594 1.42654C2.09113 1.4265 2.09634 1.42649 2.10156 1.42649H15.0859C15.0912 1.42649 15.0964 1.42651 15.1016 1.42654C15.5261 1.42943 15.8541 1.55031 16.0856 1.78919C16.0856 1.78909 16.0857 1.78929 16.0856 1.78919C16.087 1.7905 16.0886 1.79212 16.0899 1.79344C16.32 2.02314 16.4383 2.36062 16.445 2.80588C16.4452 2.81923 16.4453 2.83268 16.4453 2.84622V12.1229C16.4453 12.1364 16.4452 12.1498 16.445 12.1632C16.4383 12.6005 16.3213 12.9338 16.0942 13.1633C16.0914 13.1661 16.0887 13.1688 16.0859 13.1715C16.0858 13.1716 16.086 13.1714 16.0859 13.1715C15.8544 13.4104 15.5261 13.5316 15.1016 13.5345C15.0964 13.5345 15.0912 13.5345 15.0859 13.5345H2.10156C2.09634 13.5345 2.09113 13.5345 2.08594 13.5345C1.65333 13.5317 1.3213 13.412 1.08985 13.1755C1.08855 13.1742 1.08724 13.1729 1.08594 13.1715C1.08584 13.1714 1.08603 13.1716 1.08594 13.1715C0.863671 12.9418 0.748993 12.6055 0.742482 12.1632C0.742286 12.1498 0.742188 12.1364 0.742188 12.1229V2.84622ZM0.523438 13.7604C0.522135 13.759 0.520836 13.7577 0.519538 13.7564C0.173179 13.3961 0 12.8651 0 12.1632V2.80588C0 2.1014 0.174479 1.569 0.523438 1.20869C0.877604 0.843 1.39844 0.660156 2.08594 0.660156H15.1016C15.7783 0.660156 16.291 0.837326 16.6398 1.19166C16.644 1.19596 16.6482 1.20028 16.6524 1.20463C16.6537 1.20598 16.655 1.20733 16.6562 1.20869C17.0104 1.57438 17.1875 2.10678 17.1875 2.80588V12.1632C17.1875 12.8623 17.0104 13.392 16.6562 13.7523C16.655 13.7537 16.6537 13.755 16.6524 13.7564C16.6482 13.7607 16.644 13.7651 16.6398 13.7694C16.291 14.1237 15.7783 14.3009 15.1016 14.3009H2.08594C1.39844 14.3009 0.877604 14.1207 0.523438 13.7604Z" fill="#0066CC"/>
<path fill-rule="evenodd" clip-rule="evenodd" d="M17.1875 12.1632C17.1823 12.7117 17.1306 13.2552 16.6562 13.7523C16.3854 14.0857 15.8272 14.2995 15.2022 14.2995L2.08594 14.3008C1.57031 14.3008 0.954622 14.2094 0.720247 13.9298C0.65889 13.864 0.600848 13.8001 0.546326 13.7367C0.546273 13.7367 0.546379 13.7368 0.546326 13.7367C0.246415 13.3883 0.0528788 13.0575 0 12.5342L3.17969 9.52538C3.33594 9.38556 3.48958 9.278 3.64062 9.20271C3.79167 9.12205 3.95573 9.08171 4.13281 9.08171C4.32031 9.08171 4.49479 9.12205 4.65625 9.20271C4.81771 9.278 4.97656 9.39094 5.13281 9.54151L6.53906 10.8806L9.90625 7.76685C10.0833 7.60014 10.263 7.47914 10.4453 7.40385C10.6276 7.32318 10.8281 7.28285 11.0469 7.28285C11.2656 7.28285 11.4661 7.32856 11.6484 7.41998C11.8359 7.50603 12.0234 7.62703 12.2109 7.78298L17.1875 12.1632ZM11.5737 8.57891C11.4466 8.47435 11.3358 8.40644 11.2423 8.36352L11.2268 8.35641L11.2115 8.34875C11.176 8.33093 11.1265 8.31538 11.0469 8.31538C10.9495 8.31538 10.8848 8.33274 10.8392 8.3529L10.828 8.35786L10.8167 8.36253C10.7673 8.38294 10.6874 8.42873 10.58 8.52985L10.5734 8.53604L6.52921 12.2758L4.45048 10.2964C4.35808 10.2073 4.28854 10.1642 4.24466 10.1437L4.2326 10.1381L4.22069 10.1322C4.20122 10.1224 4.17648 10.1142 4.13281 10.1142C4.11019 10.1142 4.10387 10.1177 4.10062 10.1195C4.10042 10.1196 4.1008 10.1194 4.10062 10.1195L4.0878 10.1264L4.07537 10.1326C4.02139 10.1595 3.94387 10.2091 3.84403 10.2973L1.14146 12.8547C1.20236 12.9461 1.28841 13.0489 1.4113 13.182C1.43387 13.1904 1.46881 13.2015 1.51812 13.2131C1.67194 13.249 1.87642 13.2683 2.08585 13.2683C2.08582 13.2683 2.08588 13.2683 2.08585 13.2683L15.2021 13.267C15.4081 13.267 15.5865 13.2312 15.7181 13.1814C15.8345 13.1374 15.8819 13.0955 15.8898 13.0885C15.8911 13.087 15.8914 13.0872 15.8898 13.0885L15.9158 13.0571L15.9439 13.0276C16.0558 12.9103 16.1055 12.8059 16.1354 12.6966C16.1428 12.6696 16.1493 12.6413 16.1549 12.6111L11.5737 8.57891ZM4.49219 4.27399C4.75781 4.10728 5.05208 4.02393 5.375 4.02393C5.69271 4.02393 5.98177 4.10728 6.24219 4.27399C6.5026 4.43532 6.71094 4.65312 6.86719 4.92739C7.02344 5.20166 7.10156 5.50012 7.10156 5.82279C7.10156 6.15621 7.02344 6.46005 6.86719 6.73432C6.71094 7.00321 6.5026 7.21832 6.24219 7.37965C5.98177 7.54098 5.69271 7.62165 5.375 7.62165C5.05208 7.62165 4.75781 7.54098 4.49219 7.37965C4.23177 7.21832 4.02344 7.00321 3.86719 6.73432C3.71094 6.46005 3.63281 6.15621 3.63281 5.82279C3.63281 5.50012 3.71094 5.20166 3.86719 4.92739C4.02344 4.65312 4.23177 4.43532 4.49219 4.27399ZM4.727 6.20705C4.79765 6.32734 4.88636 6.41892 5.00285 6.49187C5.10641 6.55395 5.22326 6.58912 5.375 6.58912C5.5202 6.58912 5.63002 6.55477 5.72769 6.49426C5.84608 6.42092 5.93595 6.32865 6.00738 6.20705C6.0675 6.10012 6.10156 5.97946 6.10156 5.82279C6.10156 5.6815 6.06978 5.56417 6.00525 5.4509C5.93241 5.32305 5.84264 5.2306 5.72769 5.15938L5.72144 5.15551L5.71525 5.15154C5.6191 5.08999 5.51373 5.05646 5.375 5.05646C5.22782 5.05646 5.11443 5.09177 5.0116 5.15631L5.00669 5.15939C4.89174 5.23061 4.80196 5.32305 4.72912 5.4509C4.6646 5.56417 4.63281 5.6815 4.63281 5.82279C4.63281 5.97946 4.66687 6.10013 4.727 6.20705Z" fill="#0066CC"/>
</svg>
