<svg width="24" height="24" viewBox="0 0 24 24" fill="none" xmlns="http://www.w3.org/2000/svg">
<path d="M11.9923 19.4933C16.2637 19.4933 19.7894 15.9676 19.7894 11.7037C19.7894 7.43973 16.2562 3.91406 11.9847 3.91406C7.72077 3.91406 4.20264 7.43973 4.20264 11.7037C4.20264 15.9676 7.72831 19.4933 11.9923 19.4933ZM8.19538 12.6529C7.85638 12.6529 7.5927 12.3892 7.5927 12.0502C7.5927 11.7112 7.85638 11.4475 8.19538 11.4475H11.3896V7.12333C11.3896 6.78432 11.6533 6.52065 11.9847 6.52065C12.3313 6.52065 12.5949 6.78432 12.5949 7.12333V12.0502C12.5949 12.3892 12.3313 12.6529 11.9847 12.6529H8.19538Z" fill="#FB424F"/>
</svg>
