<svg width="24" height="24" viewBox="0 0 24 24" fill="none" xmlns="http://www.w3.org/2000/svg">
<path d="M11.9923 19.4933C16.2637 19.4933 19.7894 15.9676 19.7894 11.7037C19.7894 7.43973 16.2562 3.91406 11.9847 3.91406C7.72077 3.91406 4.20264 7.43973 4.20264 11.7037C4.20264 15.9676 7.72831 19.4933 11.9923 19.4933ZM9.42334 14.9883C9.02407 14.9883 8.70766 14.6719 8.70766 14.2651C8.70766 14.0843 8.78299 13.9035 8.92613 13.7679L10.9752 11.7112L8.92613 9.66211C8.78299 9.52651 8.70766 9.3457 8.70766 9.1649C8.70766 8.75809 9.02407 8.44922 9.42334 8.44922C9.63428 8.44922 9.80001 8.51702 9.93562 8.65262L11.9923 10.7017L14.0564 8.64509C14.2071 8.50195 14.3653 8.43415 14.5687 8.43415C14.968 8.43415 15.2844 8.75056 15.2844 9.14983C15.2844 9.33817 15.2091 9.50391 15.0659 9.65458L13.0168 11.7112L15.0659 13.7603C15.2015 13.9035 15.2769 14.0767 15.2769 14.2651C15.2769 14.6719 14.9604 14.9883 14.5536 14.9883C14.3502 14.9883 14.177 14.9129 14.0338 14.7773L11.9923 12.7358L9.95068 14.7773C9.81508 14.9205 9.63428 14.9883 9.42334 14.9883Z" fill="#959595"/>
</svg>
