<svg width="28" height="29" viewBox="0 0 28 29" fill="none" xmlns="http://www.w3.org/2000/svg">
<path d="M18 18.5L21 10.5L24 18.5C23.13 19.15 22.08 19.5 21 19.5C19.92 19.5 18.87 19.15 18 18.5Z" stroke="#007B2B" stroke-width="1.6" stroke-linecap="round" stroke-linejoin="round"/>
<path d="M4 18.5L7 10.5L10 18.5C9.13 19.15 8.08 19.5 7 19.5C5.92 19.5 4.87 19.15 4 18.5Z" stroke="#007B2B" stroke-width="1.6" stroke-linecap="round" stroke-linejoin="round"/>
<path d="M9 23.5H19" stroke="#007B2B" stroke-width="1.6" stroke-linecap="round" stroke-linejoin="round"/>
<path d="M14 5.5V23.5" stroke="#007B2B" stroke-width="1.6" stroke-linecap="round" stroke-linejoin="round"/>
<path d="M5 9.5H7C9 9.5 12 8.5 14 7.5C16 8.5 19 9.5 21 9.5H23" stroke="#007B2B" stroke-width="1.6" stroke-linecap="round" stroke-linejoin="round"/>
</svg>
