<svg width="24" height="24" viewBox="0 0 24 24" fill="none" xmlns="http://www.w3.org/2000/svg">
<path d="M16.3543 8.75837L19.1492 7.18387C19.0287 7.06334 18.8855 6.9654 18.6972 6.86747L13.4162 3.89927C12.9491 3.6356 12.467 3.5 11.9999 3.5C11.5253 3.5 11.0432 3.6356 10.5761 3.89927L9.12967 4.71289L16.3543 8.75837ZM11.9924 11.1917L15.1941 9.39872L8.00718 5.3457L5.29513 6.86747C5.11433 6.9654 4.96366 7.06334 4.84312 7.18387L11.9924 11.1917ZM12.5499 19.9682C12.6252 19.9531 12.693 19.9155 12.7683 19.8778L18.5993 16.6083C19.33 16.1939 19.7067 15.7645 19.7067 14.6872V8.66043C19.7067 8.4721 19.6916 8.31389 19.6539 8.16323L12.5499 12.171V19.9682ZM11.4425 19.9682V12.171L4.33838 8.16323C4.30071 8.31389 4.28564 8.4721 4.28564 8.66043V14.6872C4.28564 15.7645 4.66232 16.1939 5.39307 16.6083L11.224 19.8778C11.2918 19.9155 11.3671 19.9531 11.4425 19.9682Z" fill="#29AB56"/>
</svg>
