<svg width="24" height="24" viewBox="0 0 24 24" fill="none" xmlns="http://www.w3.org/2000/svg">
<path d="M19.6 14.25H19.2V11.7164C19.2 11.4187 19.0725 11.1328 18.8475 10.9219L16.35 8.58047C16.125 8.36953 15.82 8.25 15.5025 8.25H14.4V7.125C14.4 6.50391 13.8625 6 13.2 6H6.8C6.1375 6 5.6 6.50391 5.6 7.125V8.25H4.2C4.09 8.25 4 8.33437 4 8.4375V8.8125C4 8.91563 4.09 9 4.2 9H11C11.11 9 11.2 9.08437 11.2 9.1875V9.5625C11.2 9.66563 11.11 9.75 11 9.75H5C4.89 9.75 4.8 9.83437 4.8 9.9375V10.3125C4.8 10.4156 4.89 10.5 5 10.5H10.2C10.31 10.5 10.4 10.5844 10.4 10.6875V11.0625C10.4 11.1656 10.31 11.25 10.2 11.25H4.2C4.09 11.25 4 11.3344 4 11.4375V11.8125C4 11.9156 4.09 12 4.2 12H9.4C9.51 12 9.6 12.0844 9.6 12.1875V12.5625C9.6 12.6656 9.51 12.75 9.4 12.75H5.6V15.75C5.6 16.9922 6.675 18 8 18C9.325 18 10.4 16.9922 10.4 15.75H13.6C13.6 16.9922 14.675 18 16 18C17.325 18 18.4 16.9922 18.4 15.75H19.6C19.82 15.75 20 15.5813 20 15.375V14.625C20 14.4187 19.82 14.25 19.6 14.25ZM8 16.875C7.3375 16.875 6.8 16.3711 6.8 15.75C6.8 15.1289 7.3375 14.625 8 14.625C8.6625 14.625 9.2 15.1289 9.2 15.75C9.2 16.3711 8.6625 16.875 8 16.875ZM16 16.875C15.3375 16.875 14.8 16.3711 14.8 15.75C14.8 15.1289 15.3375 14.625 16 14.625C16.6625 14.625 17.2 15.1289 17.2 15.75C17.2 16.3711 16.6625 16.875 16 16.875ZM18 12H14.4V9.375H15.5025L18 11.7164V12Z" fill="#29AB56"/>
</svg>
