<svg width="6" height="11" viewBox="0 0 6 11" fill="none" xmlns="http://www.w3.org/2000/svg">
<path d="M6 5.5C5.99412 5.28298 5.91773 5.09696 5.75906 4.92954L1.18707 0.210823C1.05191 0.0744081 0.893242 0 0.699315 0C0.305583 0 0 0.322435 0 0.73788C0 0.936302 0.0763957 1.12232 0.211557 1.26494L4.32517 5.5L0.211557 9.73506C0.0763957 9.87768 0 10.0575 0 10.2621C0 10.6776 0.305583 11 0.699315 11C0.887366 11 1.05191 10.9256 1.18707 10.7892L5.75906 6.06426C5.92361 5.90304 6 5.71702 6 5.5Z" fill="#4F4F4F"/>
</svg>
