<svg width="27" height="28" viewBox="0 0 27 28" fill="none" xmlns="http://www.w3.org/2000/svg">
<g clip-path="url(#clip0_2702_81561)">
<path fill-rule="evenodd" clip-rule="evenodd" d="M7.88623 24.105C7.88623 22.8648 8.89163 21.8594 10.1318 21.8594C11.3721 21.8594 12.3775 22.8648 12.3775 24.105C12.3775 25.3452 11.3721 26.3506 10.1318 26.3506C8.89163 26.3506 7.88623 25.3452 7.88623 24.105Z" fill="#00BC3C"/>
<path fill-rule="evenodd" clip-rule="evenodd" d="M20.2368 24.105C20.2368 22.8648 21.2422 21.8594 22.4824 21.8594C23.7226 21.8594 24.728 22.8648 24.728 24.105C24.728 25.3452 23.7226 26.3506 22.4824 26.3506C21.2422 26.3506 20.2368 25.3452 20.2368 24.105Z" fill="#00BC3C"/>
<path fill-rule="evenodd" clip-rule="evenodd" d="M0.0263672 1.64917C0.0263672 1.02907 0.529065 0.526367 1.14917 0.526367H5.6404C6.17556 0.526367 6.63634 0.904063 6.74137 1.42882L7.68439 6.1404H25.8509C26.1856 6.1404 26.5027 6.28965 26.716 6.54748C26.9294 6.80531 27.0165 7.14484 26.9539 7.47354L25.1558 16.9023C25.0018 17.6777 24.5799 18.3742 23.9641 18.87C23.3513 19.3632 22.5854 19.6264 21.7991 19.6141H10.9048C10.1186 19.6264 9.35263 19.3632 8.73989 18.87C8.12433 18.3744 7.70259 17.6783 7.54842 16.9033C7.54836 16.9029 7.54848 16.9036 7.54842 16.9033L5.67273 7.53179C5.66512 7.50079 5.6588 7.46928 5.65382 7.43733L4.72006 2.77198H1.14917C0.529065 2.77198 0.0263672 2.26928 0.0263672 1.64917ZM8.13385 8.38602L9.75082 16.4648C9.80216 16.7233 9.94277 16.9555 10.148 17.1207C10.3533 17.2859 10.6102 17.3737 10.8736 17.3687L10.8951 17.3685H21.8088L21.8303 17.3687C22.0938 17.3737 22.3507 17.2859 22.5559 17.1207C22.7602 16.9562 22.9005 16.7254 22.9524 16.4684L24.4938 8.38602H8.13385Z" fill="#00BC3C"/>
</g>
<defs>
<clipPath id="clip0_2702_81561">
<rect width="26.9474" height="26.9474" fill="white" transform="translate(0.0263672 0.526367)"/>
</clipPath>
</defs>
</svg>
