<svg width="28" height="28" viewBox="0 0 28 28" fill="none" xmlns="http://www.w3.org/2000/svg">
<g clip-path="url(#clip0_2075_37679)">
<path fill-rule="evenodd" clip-rule="evenodd" d="M8.45459 24.1052C8.45459 22.865 9.45999 21.8596 10.7002 21.8596C11.9404 21.8596 12.9458 22.865 12.9458 24.1052C12.9458 25.3455 11.9404 26.3508 10.7002 26.3508C9.45999 26.3508 8.45459 25.3455 8.45459 24.1052Z" fill="#29AB56"/>
<path fill-rule="evenodd" clip-rule="evenodd" d="M20.8052 24.1052C20.8052 22.865 21.8106 21.8596 23.0508 21.8596C24.291 21.8596 25.2964 22.865 25.2964 24.1052C25.2964 25.3455 24.291 26.3508 23.0508 26.3508C21.8106 26.3508 20.8052 25.3455 20.8052 24.1052Z" fill="#29AB56"/>
<path fill-rule="evenodd" clip-rule="evenodd" d="M0.594727 1.64911C0.594727 1.029 1.09742 0.526306 1.71753 0.526306H6.20876C6.74392 0.526306 7.2047 0.904002 7.30973 1.42875L8.25275 6.14034H26.4193C26.7539 6.14034 27.0711 6.28959 27.2844 6.54742C27.4977 6.80525 27.5849 7.14478 27.5222 7.47348L25.7241 16.9022C25.5701 17.6776 25.1482 18.3742 24.5324 18.8699C23.9197 19.3632 23.1537 19.6263 22.3675 19.614H11.4732C10.6869 19.6263 9.92099 19.3632 9.30825 18.8699C8.69269 18.3744 8.27095 17.6782 8.11678 16.9032C8.11672 16.9029 8.11684 16.9035 8.11678 16.9032L6.24109 7.53173C6.23348 7.50073 6.22716 7.46922 6.22218 7.43727L5.28841 2.77192H1.71753C1.09742 2.77192 0.594727 2.26922 0.594727 1.64911ZM8.70221 8.38596L10.3192 16.4648C10.3705 16.7232 10.5111 16.9554 10.7164 17.1206C10.9217 17.2859 11.1785 17.3737 11.442 17.3686L11.4635 17.3684H22.3772L22.3987 17.3686C22.6622 17.3737 22.919 17.2859 23.1243 17.1206C23.3286 16.9562 23.4689 16.7254 23.5208 16.4684L25.0621 8.38596H8.70221Z" fill="#29AB56"/>
</g>
<defs>
<clipPath id="clip0_2075_37679">
<rect width="26.9474" height="26.9474" fill="white" transform="translate(0.594727 0.526306)"/>
</clipPath>
</defs>
</svg>
