<svg width="36" height="28" viewBox="0 0 36 28" fill="none" xmlns="http://www.w3.org/2000/svg">
<g clip-path="url(#clip0_933_16833)">
<path d="M36 22.2611C36 25.3591 33.4914 27.8818 30.4107 27.8818H0V5.62065C0 2.52269 2.50861 0 5.58928 0H36V22.2611Z" fill="white"/>
<path d="M26.0977 16.5519H28.4081C28.4742 16.5519 28.6282 16.5299 28.6943 16.5299C29.1345 16.4413 29.5085 16.043 29.5085 15.4898C29.5085 14.9588 29.1345 14.5604 28.6943 14.4498C28.6282 14.4276 28.4963 14.4276 28.4083 14.4276H26.0978V16.5519H26.0977Z" fill="url(#paint0_linear_933_16833)"/>
<path d="M28.1441 1.88086C25.9436 1.88086 24.1391 3.67343 24.1391 5.90833V10.0907H29.7945C29.9265 10.0907 30.0805 10.0907 30.1905 10.1127C31.4668 10.1792 32.4131 10.843 32.4131 11.9935C32.4131 12.9008 31.7749 13.6754 30.5866 13.8304V13.8745C31.8849 13.963 32.8752 14.6933 32.8752 15.8217C32.8752 17.0389 31.7749 17.8355 30.3225 17.8355H24.1172V26.0231H29.9925C32.193 26.0231 33.9975 24.2307 33.9975 21.9956V1.88086H28.1441Z" fill="url(#paint1_linear_933_16833)"/>
<path d="M29.2223 12.2592C29.2223 11.728 28.8483 11.3739 28.4081 11.3075C28.3643 11.3075 28.2541 11.2854 28.1882 11.2854H26.0977V13.2327H28.1882C28.2543 13.2327 28.3862 13.2327 28.4083 13.2106C28.8484 13.1441 29.2225 12.7902 29.2225 12.259L29.2223 12.2592Z" fill="url(#paint2_linear_933_16833)"/>
<path d="M6.00741 1.88086C3.80691 1.88086 2.00241 3.67342 2.00241 5.90833V15.8441C3.12473 16.3972 4.29094 16.7513 5.45728 16.7513C6.84356 16.7513 7.59169 15.9104 7.59169 14.7597V10.0685H11.0245V14.7375C11.0245 16.552 9.9023 18.0347 6.09544 18.0347C3.78497 18.0347 1.98047 17.5256 1.98047 17.5256V26.0009H7.85578C10.0563 26.0009 11.8608 24.2085 11.8608 21.9734V1.88114H6.00727L6.00741 1.88086Z" fill="url(#paint3_linear_933_16833)"/>
<path d="M17.0763 1.88086C14.8758 1.88086 13.0713 3.67342 13.0713 5.90833V11.1749C14.0836 10.3118 15.844 9.75862 18.6826 9.8914C20.201 9.95787 21.8293 10.3783 21.8293 10.3783V12.0822C21.0151 11.6618 20.047 11.2855 18.7926 11.1969C16.6361 11.0421 15.3379 12.1043 15.3379 13.963C15.3379 15.8439 16.6361 16.9061 18.7926 16.7291C20.047 16.6405 21.0152 16.2423 21.8293 15.8439V17.5478C21.8293 17.5478 20.2229 17.9683 18.6826 18.0347C15.844 18.1674 14.0836 17.6142 13.0714 16.7513V26.0451H18.9467C21.1472 26.0451 22.9516 24.2527 22.9516 22.0177V1.88114H17.0763V1.88086Z" fill="url(#paint4_linear_933_16833)"/>
</g>
<defs>
<linearGradient id="paint0_linear_933_16833" x1="24.1355" y1="15.4924" x2="34.0242" y2="15.4924" gradientUnits="userSpaceOnUse">
<stop stop-color="#007940"/>
<stop offset="0.2285" stop-color="#00873F"/>
<stop offset="0.7433" stop-color="#40A737"/>
<stop offset="1" stop-color="#5CB531"/>
</linearGradient>
<linearGradient id="paint1_linear_933_16833" x1="24.1353" y1="13.9423" x2="34.0245" y2="13.9423" gradientUnits="userSpaceOnUse">
<stop stop-color="#007940"/>
<stop offset="0.2285" stop-color="#00873F"/>
<stop offset="0.7433" stop-color="#40A737"/>
<stop offset="1" stop-color="#5CB531"/>
</linearGradient>
<linearGradient id="paint2_linear_933_16833" x1="24.1352" y1="12.2563" x2="34.0244" y2="12.2563" gradientUnits="userSpaceOnUse">
<stop stop-color="#007940"/>
<stop offset="0.2285" stop-color="#00873F"/>
<stop offset="0.7433" stop-color="#40A737"/>
<stop offset="1" stop-color="#5CB531"/>
</linearGradient>
<linearGradient id="paint3_linear_933_16833" x1="1.99786" y1="13.9423" x2="12.0394" y2="13.9423" gradientUnits="userSpaceOnUse">
<stop stop-color="#1F286F"/>
<stop offset="0.4751" stop-color="#004E94"/>
<stop offset="0.8261" stop-color="#0066B1"/>
<stop offset="1" stop-color="#006FBC"/>
</linearGradient>
<linearGradient id="paint4_linear_933_16833" x1="13.0144" y1="13.9422" x2="22.7671" y2="13.9422" gradientUnits="userSpaceOnUse">
<stop stop-color="#6C2C2F"/>
<stop offset="0.1735" stop-color="#882730"/>
<stop offset="0.5731" stop-color="#BE1833"/>
<stop offset="0.8585" stop-color="#DC0436"/>
<stop offset="1" stop-color="#E60039"/>
</linearGradient>
<clipPath id="clip0_933_16833">
<rect width="36" height="28" fill="white"/>
</clipPath>
</defs>
</svg>
