<svg width="48" height="20" viewBox="0 0 48 20" fill="none" xmlns="http://www.w3.org/2000/svg">
<rect width="48" height="20" rx="3" fill="#29AB56"/>
<path d="M11.7705 5.04688H13.3975L16.1182 12.5391L18.832 5.04688H20.4658L16.7676 15H15.4619L11.7705 5.04688ZM10.9502 5.04688H12.543L12.8301 11.9307V15H10.9502V5.04688ZM19.6865 5.04688H21.2861V15H19.4062V11.9307L19.6865 5.04688ZM27.1377 13.4277V10.0166C27.1377 9.76595 27.0944 9.54948 27.0078 9.36719C26.9212 9.1849 26.7891 9.04362 26.6113 8.94336C26.4336 8.8431 26.208 8.79297 25.9346 8.79297C25.693 8.79297 25.4811 8.83398 25.2988 8.91602C25.1211 8.99805 24.9844 9.11426 24.8887 9.26465C24.793 9.41048 24.7451 9.5791 24.7451 9.77051H22.9336C22.9336 9.46517 23.0065 9.17578 23.1523 8.90234C23.2982 8.62435 23.5055 8.37826 23.7744 8.16406C24.0479 7.94531 24.3737 7.77441 24.752 7.65137C25.1348 7.52832 25.5632 7.4668 26.0371 7.4668C26.5977 7.4668 27.0967 7.5625 27.5342 7.75391C27.9762 7.94076 28.3226 8.22331 28.5732 8.60156C28.8285 8.97982 28.9561 9.45605 28.9561 10.0303V13.2568C28.9561 13.626 28.9788 13.9427 29.0244 14.207C29.0745 14.4668 29.1475 14.6924 29.2432 14.8838V15H27.4043C27.3177 14.8132 27.2516 14.5762 27.2061 14.2891C27.1605 13.9974 27.1377 13.7103 27.1377 13.4277ZM27.3906 10.4951L27.4043 11.5684H26.2627C25.9801 11.5684 25.7318 11.598 25.5176 11.6572C25.3034 11.7119 25.1279 11.7939 24.9912 11.9033C24.8545 12.0081 24.752 12.1357 24.6836 12.2861C24.6152 12.432 24.5811 12.5983 24.5811 12.7852C24.5811 12.9674 24.6221 13.1315 24.7041 13.2773C24.7907 13.4232 24.9137 13.5394 25.0732 13.626C25.2373 13.708 25.4287 13.749 25.6475 13.749C25.9665 13.749 26.2445 13.6852 26.4814 13.5576C26.7184 13.4255 26.903 13.266 27.0352 13.0791C27.1673 12.8923 27.238 12.7145 27.2471 12.5459L27.7666 13.3252C27.7028 13.512 27.6071 13.7103 27.4795 13.9199C27.3519 14.1296 27.1878 14.3255 26.9873 14.5078C26.7868 14.6901 26.5452 14.8405 26.2627 14.959C25.9801 15.0775 25.652 15.1367 25.2783 15.1367C24.7998 15.1367 24.3714 15.041 23.9932 14.8496C23.6149 14.6582 23.3164 14.3962 23.0977 14.0635C22.8789 13.7308 22.7695 13.3525 22.7695 12.9287C22.7695 12.5368 22.8424 12.1904 22.9883 11.8896C23.1341 11.5889 23.3506 11.3359 23.6377 11.1309C23.9248 10.9212 24.2803 10.764 24.7041 10.6592C25.1325 10.5498 25.6224 10.4951 26.1738 10.4951H27.3906ZM32.4971 4.5V15H30.6855V4.5H32.4971ZM36.1338 4.5V15H34.3223V4.5H36.1338Z" fill="white"/>
</svg>
