<svg width="51" height="21" viewBox="0 0 51 21" fill="none" xmlns="http://www.w3.org/2000/svg">
<rect x="0.455078" y="0.782715" width="49.9606" height="19.435" rx="3.34843" fill="#29AB56"/>
<path d="M13.3638 6.19076H14.9697L17.6552 13.586L20.334 6.19076H21.9466L18.2962 16.0151H17.0075L13.3638 6.19076ZM12.5541 6.19076H14.1263L14.4097 12.9855V16.0151H12.5541V6.19076ZM21.1774 6.19076H22.7563V16.0151H20.9008V12.9855L21.1774 6.19076ZM28.5322 14.4632V11.0962C28.5322 10.8488 28.4895 10.6351 28.404 10.4552C28.3185 10.2753 28.1881 10.1358 28.0127 10.0368C27.8372 9.93788 27.6146 9.8884 27.3447 9.8884C27.1062 9.8884 26.8971 9.92888 26.7171 10.0099C26.5417 10.0908 26.4068 10.2055 26.3123 10.354C26.2178 10.4979 26.1706 10.6644 26.1706 10.8533H24.3825C24.3825 10.5519 24.4545 10.2663 24.5984 9.99636C24.7424 9.72196 24.947 9.47905 25.2124 9.26763C25.4823 9.05171 25.804 8.88302 26.1773 8.76156C26.5552 8.64011 26.978 8.57938 27.4459 8.57938C27.9992 8.57938 28.4917 8.67385 28.9236 8.86278C29.3599 9.04721 29.7018 9.32611 29.9492 9.69947C30.2011 10.0728 30.3271 10.5429 30.3271 11.1097V14.2945C30.3271 14.6589 30.3495 14.9715 30.3945 15.2324C30.444 15.4888 30.516 15.7115 30.6104 15.9004V16.0151H28.7954C28.7099 15.8307 28.6447 15.5968 28.5997 15.3134C28.5547 15.0255 28.5322 14.7421 28.5322 14.4632ZM28.7819 11.5685L28.7954 12.6279H27.6685C27.3896 12.6279 27.1445 12.6571 26.9331 12.7156C26.7216 12.7696 26.5484 12.8506 26.4135 12.9585C26.2785 13.062 26.1773 13.1879 26.1099 13.3364C26.0424 13.4803 26.0086 13.6445 26.0086 13.8289C26.0086 14.0089 26.0491 14.1708 26.1301 14.3148C26.2156 14.4587 26.337 14.5734 26.4945 14.6589C26.6564 14.7399 26.8453 14.7803 27.0613 14.7803C27.3761 14.7803 27.6505 14.7174 27.8845 14.5914C28.1184 14.461 28.3006 14.3035 28.431 14.1191C28.5615 13.9347 28.6312 13.7592 28.6402 13.5928L29.153 14.362C29.09 14.5464 28.9955 14.7421 28.8696 14.949C28.7436 15.156 28.5817 15.3494 28.3838 15.5293C28.1858 15.7092 27.9474 15.8577 27.6685 15.9747C27.3896 16.0916 27.0658 16.1501 26.6969 16.1501C26.2246 16.1501 25.8017 16.0556 25.4284 15.8667C25.055 15.6778 24.7604 15.4191 24.5444 15.0907C24.3285 14.7623 24.2206 14.389 24.2206 13.9706C24.2206 13.5838 24.2925 13.2419 24.4365 12.945C24.5804 12.6481 24.7941 12.3985 25.0775 12.196C25.3609 11.9891 25.7118 11.8339 26.1301 11.7305C26.5529 11.6225 27.0365 11.5685 27.5808 11.5685H28.7819ZM33.8223 5.65096V16.0151H32.0342V5.65096H33.8223ZM37.4119 5.65096V16.0151H35.6238V5.65096H37.4119Z" fill="white"/>
</svg>
