<svg width="110" height="20" viewBox="0 0 110 20" fill="none" xmlns="http://www.w3.org/2000/svg">
<path d="M27.7414 19.3C27.5414 19.2733 27.2681 19.22 26.9214 19.14C26.5747 19.0733 26.2214 18.9333 25.8614 18.72C25.5014 18.5067 25.1947 18.18 24.9414 17.74C24.6881 17.3133 24.5614 16.74 24.5614 16.02C24.5614 15.1933 24.7281 14.2867 25.0614 13.3C25.4081 12.3 25.8281 11.26 26.3214 10.18C26.8147 9.1 27.2881 8.03333 27.7414 6.98C28.1014 6.14 28.2814 5.5 28.2814 5.06C28.2814 4.62 28.1147 4.4 27.7814 4.4C27.4081 4.4 26.8481 4.7 26.1014 5.3C25.3681 5.88667 24.5147 6.78 23.5414 7.98C23.2881 8.3 22.9614 8.74667 22.5614 9.32C22.1614 9.88 21.7347 10.5067 21.2814 11.2C20.8281 11.88 20.3814 12.5733 19.9414 13.28C19.5147 13.9733 19.1347 14.6133 18.8014 15.2C18.4814 15.7867 18.2481 16.2533 18.1014 16.6C17.9281 17.0133 17.7281 17.2933 17.5014 17.44C17.2747 17.6 17.0614 17.68 16.8614 17.68C16.6881 17.68 16.5347 17.6333 16.4014 17.54C16.2814 17.4467 16.2214 17.3333 16.2214 17.2C16.2214 17.12 16.2414 17.0533 16.2814 17C16.3614 16.84 16.5747 16.4533 16.9214 15.84C17.2681 15.2267 17.6614 14.4133 18.1014 13.4C18.5414 12.3733 18.9614 11.1867 19.3614 9.84C19.7747 8.48 20.0814 6.98 20.2814 5.34C20.3081 5.15333 20.3214 4.95333 20.3214 4.74C20.3214 4.27333 20.2414 3.93333 20.0814 3.72C19.9214 3.49333 19.7081 3.38 19.4414 3.38C19.1481 3.38 18.8147 3.50667 18.4414 3.76C18.0681 4.01333 17.6881 4.38 17.3014 4.86C16.6347 5.7 16.0481 6.48 15.5414 7.2C15.0347 7.90667 14.5681 8.61333 14.1414 9.32C13.7281 10.0267 13.3147 10.78 12.9014 11.58C12.5014 12.38 12.0747 13.28 11.6214 14.28C11.1681 15.2667 10.6481 16.4133 10.0614 17.72C9.96807 17.9333 9.80807 18.0867 9.58141 18.18C9.36807 18.2733 9.16807 18.32 8.98141 18.32C8.79474 18.32 8.64141 18.28 8.52141 18.2C8.40141 18.12 8.36141 18.0067 8.40141 17.86C8.74807 17.3267 9.12141 16.6533 9.52141 15.84C9.92141 15.0267 10.3214 14.14 10.7214 13.18C11.1347 12.2067 11.5147 11.2267 11.8614 10.24C12.2214 9.24 12.5281 8.3 12.7814 7.42C13.0347 6.52667 13.2081 5.75333 13.3014 5.1C13.3281 4.88667 13.3481 4.68667 13.3614 4.5C13.3747 4.31333 13.3814 4.13333 13.3814 3.96C13.3814 2.93333 13.1614 2.2 12.7214 1.76C12.2947 1.32 11.7414 1.1 11.0614 1.1C10.4881 1.1 9.86141 1.23333 9.18141 1.5C8.51474 1.75333 7.83474 2.10667 7.14141 2.56C6.46141 3.01333 5.80807 3.54 5.18141 4.14C4.55474 4.72667 4.00141 5.36 3.52141 6.04C3.04141 6.70667 2.67474 7.38667 2.42141 8.08C2.24807 8.57333 2.11474 9.04667 2.02141 9.5C1.94141 9.94 1.90141 10.3533 1.90141 10.74C1.90141 11.4867 2.03474 12.12 2.30141 12.64C2.58141 13.16 2.94807 13.5533 3.40141 13.82C3.86807 14.0867 4.36807 14.22 4.90141 14.22C5.08807 14.22 5.29474 14.2 5.52141 14.16C5.76141 14.1067 5.96141 14.0533 6.12141 14C6.50807 13.8533 6.88141 13.6267 7.24141 13.32C7.60141 13 7.92141 12.6333 8.20141 12.22C8.48141 11.8067 8.70141 11.3867 8.86141 10.96C9.02141 10.5333 9.10141 10.1333 9.10141 9.76C9.10141 9.37333 8.99474 9.05333 8.78141 8.8C8.56807 8.54667 8.22807 8.42 7.76141 8.42C7.70807 8.42 7.64807 8.42667 7.58141 8.44C7.52807 8.44 7.46807 8.44 7.40141 8.44H7.34141C7.24807 8.44 7.16141 8.42667 7.08141 8.4C7.00141 8.36 6.96141 8.31333 6.96141 8.26C6.96141 8.20667 7.02807 8.14667 7.16141 8.08C7.30807 8.01333 7.56807 7.98 7.94141 7.98C8.54141 7.98 8.98807 8.16 9.28141 8.52C9.58807 8.86667 9.74141 9.31333 9.74141 9.86C9.74141 10.3533 9.60807 10.8867 9.34141 11.46C9.07474 12.0333 8.67474 12.58 8.14141 13.1C7.60807 13.62 6.93474 14.0467 6.12141 14.38C5.64141 14.5667 5.17474 14.66 4.72141 14.66C4.05474 14.66 3.42141 14.4933 2.82141 14.16C2.22141 13.8133 1.73474 13.3267 1.36141 12.7C0.988073 12.06 0.801406 11.3067 0.801406 10.44C0.801406 10.0533 0.841406 9.64667 0.921406 9.22C1.01474 8.78 1.16141 8.32667 1.36141 7.86C1.80141 6.83333 2.39474 5.88667 3.14141 5.02C3.90141 4.14 4.74141 3.38 5.66141 2.74C6.58141 2.08667 7.51474 1.58 8.46141 1.22C9.40807 0.859999 10.2881 0.679999 11.1014 0.679999C12.0881 0.679999 12.9014 0.973333 13.5414 1.56C14.1947 2.14667 14.5214 3.09333 14.5214 4.4C14.5214 4.49333 14.5147 4.62 14.5014 4.78C14.5014 4.92667 14.4947 5.04 14.4814 5.12C14.4014 5.8 14.2614 6.48 14.0614 7.16C13.8747 7.84 13.6681 8.49333 13.4414 9.12C13.4014 9.22667 13.3681 9.34 13.3414 9.46C13.3281 9.56667 13.3214 9.64 13.3214 9.68C13.3214 9.74667 13.3347 9.78 13.3614 9.78C13.4147 9.78 13.5214 9.64 13.6814 9.36C13.9881 8.8 14.2614 8.31333 14.5014 7.9C14.7547 7.47333 15.0014 7.08667 15.2414 6.74C15.4814 6.39333 15.7414 6.04 16.0214 5.68C16.3014 5.32 16.6214 4.92 16.9814 4.48C17.3947 3.98667 17.8681 3.59333 18.4014 3.3C18.9347 3.00667 19.4481 2.86 19.9414 2.86C20.3814 2.86 20.7547 3.00667 21.0614 3.3C21.3681 3.59333 21.5214 4.09333 21.5214 4.8C21.5214 4.88 21.5214 4.94667 21.5214 5C21.5214 5.05333 21.5147 5.13333 21.5014 5.24C21.3814 6.52 21.1281 7.78 20.7414 9.02C20.3547 10.2467 19.9547 11.4867 19.5414 12.74C19.9547 12.1 20.5147 11.2867 21.2214 10.3C21.9281 9.31333 22.7014 8.29333 23.5414 7.24C24.5681 5.96 25.5214 5 26.4014 4.36C27.2814 3.72 28.0081 3.4 28.5814 3.4C29.3014 3.4 29.6614 3.84 29.6614 4.72C29.6614 5.05333 29.5947 5.45333 29.4614 5.92C29.3414 6.38667 29.1481 6.88 28.8814 7.4C28.5881 7.98667 28.2614 8.66667 27.9014 9.44C27.5547 10.2 27.2214 11 26.9014 11.84C26.5814 12.68 26.3147 13.5067 26.1014 14.32C25.9014 15.12 25.8014 15.86 25.8014 16.54C25.8014 17.2733 25.9681 17.8667 26.3014 18.32C26.6481 18.7867 27.2414 19.0067 28.0814 18.98H28.2014C28.4014 18.98 28.5014 19.02 28.5014 19.1C28.5014 19.1533 28.4347 19.2067 28.3014 19.26C28.1681 19.3133 27.9814 19.3267 27.7414 19.3ZM32.6002 17.06C32.4535 17.0733 32.2868 17.04 32.1002 16.96C31.9135 16.88 31.7468 16.7333 31.6002 16.52C31.4668 16.3067 31.4002 16.0067 31.4002 15.62C31.4002 15.3 31.4602 14.9133 31.5802 14.46C31.4202 14.7133 31.2135 15.0267 30.9602 15.4C30.7068 15.76 30.4335 16.08 30.1402 16.36C29.8868 16.6 29.6468 16.7733 29.4202 16.88C29.1935 16.9867 28.9868 17.04 28.8002 17.04C28.4535 17.04 28.1735 16.8867 27.9602 16.58C27.7468 16.26 27.6402 15.8467 27.6402 15.34C27.6402 14.8067 27.7735 14.2 28.0402 13.52C28.3068 12.84 28.7402 12.1333 29.3402 11.4C29.7268 10.9333 30.1935 10.56 30.7402 10.28C31.3002 9.98667 31.8468 9.84 32.3802 9.84C32.6868 9.84 32.9802 9.89333 33.2602 10C33.5402 10.0933 33.7868 10.2533 34.0002 10.48C34.0935 10.5733 34.1402 10.68 34.1402 10.8C34.1402 10.88 34.1068 10.9467 34.0402 11C33.9735 11.0533 33.8868 11.0667 33.7802 11.04C33.6335 10.5733 33.3202 10.34 32.8402 10.34C32.6135 10.34 32.3535 10.4133 32.0602 10.56C31.6068 10.8 31.1335 11.1933 30.6402 11.74C30.1602 12.2867 29.7402 12.8533 29.3802 13.44C29.3268 13.52 29.2402 13.6733 29.1202 13.9C29.0135 14.1267 28.9068 14.38 28.8002 14.66C28.6935 14.94 28.6202 15.2133 28.5802 15.48C28.5668 15.56 28.5602 15.62 28.5602 15.66C28.5602 15.6867 28.5602 15.7333 28.5602 15.8C28.5602 16.24 28.7268 16.46 29.0602 16.46C29.4602 16.46 29.9135 16.1667 30.4202 15.58C30.7668 15.1533 31.0802 14.7067 31.3602 14.24C31.6402 13.7733 31.9268 13.2733 32.2202 12.74C32.4202 12.38 32.6068 12.08 32.7802 11.84C32.9535 11.6 33.2002 11.48 33.5202 11.48C33.6668 11.48 33.8135 11.5 33.9602 11.54C34.1068 11.58 34.2602 11.5867 34.4202 11.56C34.3135 11.6667 34.1668 11.8667 33.9802 12.16C33.8068 12.4533 33.6202 12.7867 33.4202 13.16C33.2202 13.5333 33.0402 13.9133 32.8802 14.3C32.7202 14.6867 32.6068 15.02 32.5402 15.3C32.5268 15.38 32.5068 15.4933 32.4802 15.64C32.4668 15.7867 32.4602 15.8933 32.4602 15.96C32.4602 16.3333 32.5668 16.52 32.7802 16.52C32.9935 16.52 33.2202 16.3933 33.4602 16.14C33.7135 15.8867 33.9602 15.5733 34.2002 15.2C34.4402 14.8267 34.6602 14.4533 34.8602 14.08C35.0602 13.6933 35.2202 13.38 35.3402 13.14C35.3935 13.0067 35.4735 12.94 35.5802 12.94C35.6468 12.94 35.6802 12.9867 35.6802 13.08C35.6802 13.12 35.6602 13.1933 35.6202 13.3C35.4602 13.6333 35.2668 14.0133 35.0402 14.44C34.8135 14.8533 34.5668 15.26 34.3002 15.66C34.0335 16.0467 33.7535 16.3733 33.4602 16.64C33.1802 16.8933 32.8935 17.0333 32.6002 17.06ZM36.2914 17C35.9181 17 35.5847 16.8733 35.2914 16.62C34.9981 16.3533 34.8514 15.94 34.8514 15.38C34.8514 14.94 34.9314 14.4 35.0914 13.76C35.2647 13.1067 35.4714 12.4333 35.7114 11.74C35.9647 11.0333 36.2114 10.3933 36.4514 9.82H35.3914C35.2981 9.82 35.2514 9.75333 35.2514 9.62C35.2514 9.55333 35.2647 9.49333 35.2914 9.44C35.3314 9.38667 35.3847 9.36 35.4514 9.36H36.6514C36.8781 8.85333 37.1181 8.36 37.3714 7.88C37.6247 7.4 37.8714 6.94667 38.1114 6.52C38.4181 5.98667 38.7447 5.58667 39.0914 5.32C39.4381 5.05333 39.7381 4.92 39.9914 4.92C40.1914 4.92 40.3581 5 40.4914 5.16C40.6247 5.30667 40.6914 5.53333 40.6914 5.84C40.6914 6.02667 40.6514 6.28667 40.5714 6.62C40.4914 6.94 40.3647 7.28 40.1914 7.64C40.0981 7.82667 39.9647 8.09333 39.7914 8.44C39.6314 8.78667 39.4714 9.09333 39.3114 9.36H40.2714C40.3647 9.36 40.4114 9.42667 40.4114 9.56C40.4114 9.61333 40.3981 9.67333 40.3714 9.74C40.3447 9.79333 40.3047 9.82 40.2514 9.82H39.0714C38.7381 10.3933 38.3581 10.9533 37.9314 11.5C37.5047 12.0467 36.9981 12.5933 36.4114 13.14C36.3714 13.26 36.3181 13.4333 36.2514 13.66C36.1981 13.8867 36.1447 14.12 36.0914 14.36C36.0514 14.5867 36.0114 14.78 35.9714 14.94C35.9447 15.1 35.9314 15.18 35.9314 15.18C35.8914 15.3533 35.8714 15.5133 35.8714 15.66C35.8714 15.94 35.9381 16.1467 36.0714 16.28C36.2047 16.4 36.3581 16.46 36.5314 16.46C36.6381 16.46 36.7447 16.4467 36.8514 16.42C36.9581 16.38 37.0781 16.3133 37.2114 16.22C37.6781 15.8867 38.0847 15.4333 38.4314 14.86C38.7914 14.2867 39.1047 13.7333 39.3714 13.2C39.4514 13.04 39.5314 12.96 39.6114 12.96C39.6647 12.96 39.6914 13 39.6914 13.08C39.6914 13.12 39.6714 13.1933 39.6314 13.3C39.3381 13.9133 39.0914 14.4067 38.8914 14.78C38.6914 15.1533 38.4981 15.4667 38.3114 15.72C38.1247 15.96 37.9047 16.2 37.6514 16.44C37.4647 16.6267 37.2514 16.7667 37.0114 16.86C36.7714 16.9533 36.5314 17 36.2914 17ZM37.8714 9.36H38.8914C39.0781 9.01333 39.2514 8.67333 39.4114 8.34C39.5847 8.00667 39.7381 7.67333 39.8714 7.34C39.9647 7.12667 40.0447 6.88667 40.1114 6.62C40.1781 6.35333 40.2114 6.14667 40.2114 6C40.2114 5.8 40.1647 5.7 40.0714 5.7C40.0047 5.7 39.9047 5.76 39.7714 5.88C39.6514 5.98667 39.4981 6.17333 39.3114 6.44C39.0714 6.77333 38.8314 7.20667 38.5914 7.74C38.3647 8.26 38.1247 8.8 37.8714 9.36ZM36.5714 12.5C36.9581 12.1 37.3181 11.6733 37.6514 11.22C37.9981 10.7667 38.3181 10.3 38.6114 9.82H37.6714C37.4581 10.3133 37.2581 10.7933 37.0714 11.26C36.8847 11.7267 36.7181 12.14 36.5714 12.5ZM40.7548 17.08C40.2615 17.08 39.8148 16.92 39.4148 16.6C39.0282 16.28 38.8348 15.7933 38.8348 15.14C38.8348 14.54 38.9815 13.9 39.2748 13.22C39.5682 12.5267 39.9415 11.92 40.3948 11.4C40.7815 10.9467 41.2148 10.5733 41.6948 10.28C42.1748 9.98667 42.6282 9.84 43.0548 9.84C43.3482 9.84 43.6015 9.92 43.8148 10.08C44.0415 10.2533 44.1548 10.5 44.1548 10.82C44.1548 11.1533 44.0282 11.52 43.7748 11.92C43.5215 12.32 43.1615 12.6933 42.6948 13.04C42.4948 13.1867 42.2415 13.3267 41.9348 13.46C41.6282 13.5933 41.3215 13.7067 41.0148 13.8C40.7082 13.88 40.4548 13.92 40.2548 13.92C40.1882 14.08 40.1215 14.2933 40.0548 14.56C40.0015 14.8267 39.9748 15.1 39.9748 15.38C39.9748 15.7133 40.0415 16.0133 40.1748 16.28C40.3082 16.5467 40.5548 16.68 40.9148 16.68C41.3548 16.68 41.7548 16.5533 42.1148 16.3C42.4748 16.0467 42.7948 15.7333 43.0748 15.36C43.3548 14.9733 43.5882 14.5867 43.7748 14.2C43.9748 13.8133 44.1348 13.4867 44.2548 13.22C44.3348 13.0333 44.4415 12.94 44.5748 12.94C44.6415 12.94 44.6748 12.9733 44.6748 13.04C44.6748 13.0933 44.6548 13.16 44.6148 13.24C44.4282 13.64 44.2282 14.0667 44.0148 14.52C43.8015 14.96 43.5482 15.38 43.2548 15.78C42.9615 16.1667 42.6082 16.48 42.1948 16.72C41.7948 16.96 41.3148 17.08 40.7548 17.08ZM40.3948 13.56C40.5815 13.56 40.8948 13.4933 41.3348 13.36C41.7748 13.2133 42.1748 12.9867 42.5348 12.68C42.8815 12.3733 43.1482 12.04 43.3348 11.68C43.5215 11.3067 43.6148 10.9933 43.6148 10.74C43.6148 10.4467 43.5082 10.3 43.2948 10.3C43.1348 10.3 42.9148 10.4067 42.6348 10.62C42.3548 10.8333 42.0082 11.1933 41.5948 11.7C41.3415 12.02 41.1015 12.3667 40.8748 12.74C40.6482 13.1133 40.4882 13.3867 40.3948 13.56ZM53.9311 17.04C53.8511 17.04 53.7778 17.0333 53.7111 17.02C53.6578 17.02 53.5844 17.0133 53.4911 17C53.1578 16.9333 52.9244 16.7533 52.7911 16.46C52.6711 16.1533 52.6111 15.8267 52.6111 15.48C52.6111 15.2667 52.6244 15.06 52.6511 14.86C52.6911 14.6467 52.7378 14.46 52.7911 14.3C52.6711 14.5133 52.5178 14.7733 52.3311 15.08C52.1444 15.3733 51.9311 15.6667 51.6911 15.96C51.4511 16.2533 51.1978 16.5 50.9311 16.7C50.6644 16.9 50.3911 17 50.1111 17C49.8311 17 49.5711 16.92 49.3311 16.76C49.0911 16.6 48.9378 16.3733 48.8711 16.08C48.8578 16.0133 48.8444 15.9533 48.8311 15.9C48.8311 15.8333 48.8311 15.7733 48.8311 15.72C48.8311 15.3733 48.9111 15.04 49.0711 14.72C49.2444 14.3867 49.4044 14.0667 49.5511 13.76C49.5111 13.76 49.4644 13.7467 49.4111 13.72C49.3711 13.6933 49.3511 13.6533 49.3511 13.6C49.3511 13.5467 49.3644 13.4933 49.3911 13.44C49.4311 13.3733 49.4511 13.3333 49.4511 13.32C49.4644 13.2933 49.4844 13.2467 49.5111 13.18C49.5511 13.1 49.6244 12.9533 49.7311 12.74C49.8511 12.4867 49.9978 12.1867 50.1711 11.84C50.3578 11.4933 50.5178 11.1867 50.6511 10.92C50.7978 10.6533 50.8711 10.52 50.8711 10.52C51.0178 10.2267 51.2711 10.08 51.6311 10.08H52.8711C52.6444 10.2533 52.4378 10.4467 52.2511 10.66C52.0778 10.86 51.8578 11.2333 51.5911 11.78C51.5911 11.78 51.5444 11.8733 51.4511 12.06C51.3578 12.2467 51.2378 12.48 51.0911 12.76C50.9578 13.04 50.8178 13.3267 50.6711 13.62C50.5378 13.9133 50.4244 14.1667 50.3311 14.38C50.1978 14.6733 50.0978 14.9467 50.0311 15.2C49.9644 15.4533 49.9311 15.6733 49.9311 15.86C49.9311 16.3267 50.0844 16.56 50.3911 16.56C50.6044 16.56 50.8444 16.4267 51.1111 16.16C51.4178 15.8667 51.7311 15.46 52.0511 14.94C52.3844 14.4067 52.7044 13.8467 53.0111 13.26C53.3178 12.6733 53.5911 12.1333 53.8311 11.64C54.0711 11.1333 54.2511 10.76 54.3711 10.52C54.4378 10.3733 54.5244 10.2667 54.6311 10.2C54.7511 10.12 54.9178 10.08 55.1311 10.08H56.3511C56.2711 10.16 56.1511 10.2467 55.9911 10.34C55.8444 10.4333 55.6978 10.6 55.5511 10.84C55.3644 11.16 55.1978 11.46 55.0511 11.74C54.9044 12.0067 54.7044 12.4133 54.4511 12.96C54.3978 13.08 54.2911 13.3133 54.1311 13.66C53.9844 14.0067 53.8444 14.3867 53.7111 14.8C53.5778 15.2133 53.5111 15.5867 53.5111 15.92C53.5111 16.1333 53.5578 16.3067 53.6511 16.44C53.7444 16.5733 53.8978 16.64 54.1111 16.64C54.4844 16.64 54.8378 16.48 55.1711 16.16C55.5178 15.84 55.8444 15.4133 56.1511 14.88C56.4578 14.3467 56.7311 13.7667 56.9711 13.14C56.8111 12.74 56.7311 12.3067 56.7311 11.84C56.7311 11.56 56.7578 11.32 56.8111 11.12C56.9711 10.6 57.1844 10.2267 57.4511 10C57.7178 9.77333 57.9511 9.66 58.1511 9.66C58.3778 9.66 58.4911 9.77333 58.4911 10C58.4911 10.0533 58.4711 10.1333 58.4311 10.24C58.4044 10.24 58.3911 10.2667 58.3911 10.32C58.3111 10.5867 58.1911 10.9867 58.0311 11.52C57.8711 12.0533 57.6644 12.6333 57.4111 13.26C57.1578 13.8867 56.8578 14.4867 56.5111 15.06C56.1778 15.6333 55.7978 16.1067 55.3711 16.48C54.9444 16.8533 54.4644 17.04 53.9311 17.04ZM61.2819 8.88C61.0819 8.88 60.9152 8.81333 60.7819 8.68C60.6619 8.53333 60.6019 8.36 60.6019 8.16C60.6019 7.90667 60.7019 7.68667 60.9019 7.5C61.1019 7.31333 61.3219 7.22 61.5619 7.22C61.7752 7.22 61.9485 7.28667 62.0819 7.42C62.2152 7.55333 62.2819 7.71333 62.2819 7.9C62.2819 8.15333 62.1819 8.38 61.9819 8.58C61.7819 8.78 61.5485 8.88 61.2819 8.88ZM59.6619 17C59.1685 17 58.8219 16.86 58.6219 16.58C58.4219 16.2867 58.3219 15.9533 58.3219 15.58C58.3219 15.38 58.3419 15.18 58.3819 14.98C58.4352 14.7667 58.4952 14.5733 58.5619 14.4L59.9019 10.98C59.9419 10.8733 59.9619 10.78 59.9619 10.7C59.9619 10.5667 59.9285 10.4533 59.8619 10.36C59.7952 10.2533 59.7485 10.18 59.7219 10.14L60.8219 10.1C61.0219 10.0867 61.1619 10.1133 61.2419 10.18C61.3352 10.2333 61.3819 10.3 61.3819 10.38C61.3819 10.46 61.3352 10.6067 61.2419 10.82L59.5819 14.72C59.5819 14.72 59.5419 14.8067 59.4619 14.98C59.3952 15.14 59.3552 15.2467 59.3419 15.3C59.3019 15.5 59.2752 15.6267 59.2619 15.68C59.2485 15.7333 59.2419 15.7667 59.2419 15.78C59.2419 15.7933 59.2419 15.8467 59.2419 15.94C59.2419 16.1133 59.2819 16.26 59.3619 16.38C59.4552 16.5 59.6085 16.56 59.8219 16.56C59.9552 16.56 60.1085 16.52 60.2819 16.44C60.4552 16.36 60.5819 16.28 60.6619 16.2C60.9952 15.8533 61.3219 15.4 61.6419 14.84C61.9752 14.2667 62.2819 13.7 62.5619 13.14C62.6152 13.0067 62.6819 12.94 62.7619 12.94C62.8285 12.94 62.8619 12.9867 62.8619 13.08C62.8619 13.1333 62.8419 13.2133 62.8019 13.32C62.6685 13.6 62.5019 13.9467 62.3019 14.36C62.1019 14.7733 61.8619 15.1867 61.5819 15.6C61.3152 16 61.0219 16.3333 60.7019 16.6C60.3819 16.8667 60.0352 17 59.6619 17ZM63.5375 17C63.1642 17 62.8308 16.8733 62.5375 16.62C62.2442 16.3533 62.0975 15.94 62.0975 15.38C62.0975 14.94 62.1775 14.4 62.3375 13.76C62.5108 13.1067 62.7175 12.4333 62.9575 11.74C63.2108 11.0333 63.4575 10.3933 63.6975 9.82H62.6375C62.5442 9.82 62.4975 9.75333 62.4975 9.62C62.4975 9.55333 62.5108 9.49333 62.5375 9.44C62.5775 9.38667 62.6308 9.36 62.6975 9.36H63.8975C64.1242 8.85333 64.3642 8.36 64.6175 7.88C64.8708 7.4 65.1175 6.94667 65.3575 6.52C65.6642 5.98667 65.9908 5.58667 66.3375 5.32C66.6842 5.05333 66.9842 4.92 67.2375 4.92C67.4375 4.92 67.6042 5 67.7375 5.16C67.8708 5.30667 67.9375 5.53333 67.9375 5.84C67.9375 6.02667 67.8975 6.28667 67.8175 6.62C67.7375 6.94 67.6108 7.28 67.4375 7.64C67.3442 7.82667 67.2108 8.09333 67.0375 8.44C66.8775 8.78667 66.7175 9.09333 66.5575 9.36H67.5175C67.6108 9.36 67.6575 9.42667 67.6575 9.56C67.6575 9.61333 67.6442 9.67333 67.6175 9.74C67.5908 9.79333 67.5508 9.82 67.4975 9.82H66.3175C65.9842 10.3933 65.6042 10.9533 65.1775 11.5C64.7508 12.0467 64.2442 12.5933 63.6575 13.14C63.6175 13.26 63.5642 13.4333 63.4975 13.66C63.4442 13.8867 63.3908 14.12 63.3375 14.36C63.2975 14.5867 63.2575 14.78 63.2175 14.94C63.1908 15.1 63.1775 15.18 63.1775 15.18C63.1375 15.3533 63.1175 15.5133 63.1175 15.66C63.1175 15.94 63.1842 16.1467 63.3175 16.28C63.4508 16.4 63.6042 16.46 63.7775 16.46C63.8842 16.46 63.9908 16.4467 64.0975 16.42C64.2042 16.38 64.3242 16.3133 64.4575 16.22C64.9242 15.8867 65.3308 15.4333 65.6775 14.86C66.0375 14.2867 66.3508 13.7333 66.6175 13.2C66.6975 13.04 66.7775 12.96 66.8575 12.96C66.9108 12.96 66.9375 13 66.9375 13.08C66.9375 13.12 66.9175 13.1933 66.8775 13.3C66.5842 13.9133 66.3375 14.4067 66.1375 14.78C65.9375 15.1533 65.7442 15.4667 65.5575 15.72C65.3708 15.96 65.1508 16.2 64.8975 16.44C64.7108 16.6267 64.4975 16.7667 64.2575 16.86C64.0175 16.9533 63.7775 17 63.5375 17ZM65.1175 9.36H66.1375C66.3242 9.01333 66.4975 8.67333 66.6575 8.34C66.8308 8.00667 66.9842 7.67333 67.1175 7.34C67.2108 7.12667 67.2908 6.88667 67.3575 6.62C67.4242 6.35333 67.4575 6.14667 67.4575 6C67.4575 5.8 67.4108 5.7 67.3175 5.7C67.2508 5.7 67.1508 5.76 67.0175 5.88C66.8975 5.98667 66.7442 6.17333 66.5575 6.44C66.3175 6.77333 66.0775 7.20667 65.8375 7.74C65.6108 8.26 65.3708 8.8 65.1175 9.36ZM63.8175 12.5C64.2042 12.1 64.5642 11.6733 64.8975 11.22C65.2442 10.7667 65.5642 10.3 65.8575 9.82H64.9175C64.7042 10.3133 64.5042 10.7933 64.3175 11.26C64.1308 11.7267 63.9642 12.14 63.8175 12.5ZM64.6609 17.16C65.2209 16.0133 65.8009 14.8133 66.4009 13.56C67.0143 12.2933 67.6409 11.02 68.2809 9.74C68.9209 8.46 69.5543 7.24 70.1809 6.08C70.4076 5.68 70.6143 5.36667 70.8009 5.14C71.0009 4.91333 71.2609 4.8 71.5809 4.8C71.7009 4.8 71.8409 4.82 72.0009 4.86C72.1609 4.9 72.3143 4.90667 72.4609 4.88C72.2876 5.06667 72.0476 5.39333 71.7409 5.86C71.4476 6.32667 71.1143 6.88667 70.7409 7.54C70.3809 8.19333 69.9943 8.9 69.5809 9.66C69.1809 10.4067 68.7809 11.1667 68.3809 11.94C67.9943 12.7 67.6343 13.4133 67.3009 14.08C67.5676 13.7333 67.8409 13.4067 68.1209 13.1C68.4009 12.7933 68.6743 12.5267 68.9409 12.3C69.2343 12.0333 69.6009 11.7533 70.0409 11.46C70.4943 11.1667 70.9409 10.9133 71.3809 10.7C71.8343 10.4867 72.1943 10.38 72.4609 10.38C72.5543 10.38 72.6209 10.3867 72.6609 10.4C72.6609 10.4 72.5876 10.5333 72.4409 10.8C72.2943 11.0667 72.1076 11.4067 71.8809 11.82C71.6676 12.2333 71.4409 12.68 71.2009 13.16C70.9743 13.64 70.7743 14.1 70.6009 14.54C70.4276 14.9667 70.3143 15.32 70.2609 15.6C70.2209 15.8133 70.2009 15.9933 70.2009 16.14C70.2009 16.3533 70.2409 16.5 70.3209 16.58C70.4009 16.6467 70.4876 16.68 70.5809 16.68C70.8076 16.68 71.0543 16.54 71.3209 16.26C71.5876 15.98 71.8476 15.64 72.1009 15.24C72.3543 14.8267 72.5809 14.4267 72.7809 14.04C72.9943 13.6533 73.1543 13.3533 73.2609 13.14C73.3409 12.9933 73.4209 12.92 73.5009 12.92C73.5809 12.92 73.6209 12.9733 73.6209 13.08C73.6209 13.1333 73.6009 13.2133 73.5609 13.32C73.3876 13.6667 73.1876 14.06 72.9609 14.5C72.7476 14.9267 72.5009 15.34 72.2209 15.74C71.9543 16.1267 71.6543 16.4467 71.3209 16.7C71.0009 16.9533 70.6543 17.08 70.2809 17.08C70.0143 17.08 69.7409 16.9867 69.4609 16.8C69.1809 16.6133 69.0409 16.2733 69.0409 15.78C69.0409 15.6333 69.0543 15.48 69.0809 15.32C69.1076 15.1467 69.1543 14.9533 69.2209 14.74C69.3009 14.4733 69.4343 14.18 69.6209 13.86C69.8076 13.5267 70.0476 13.1133 70.3409 12.62C70.4743 12.3933 70.5409 12.2133 70.5409 12.08C70.5409 11.92 70.4609 11.84 70.3009 11.84C70.1676 11.84 69.9876 11.9067 69.7609 12.04C69.5343 12.1733 69.2476 12.4067 68.9009 12.74C68.5676 13.06 68.1543 13.5267 67.6609 14.14C67.1676 14.7533 66.6409 15.6133 66.0809 16.72C65.9876 16.8933 65.8809 16.9867 65.7609 17C65.6543 17 65.5076 17.0067 65.3209 17.02C65.2009 17.0333 65.0809 17.04 64.9609 17.04C64.8409 17.0533 64.7409 17.0933 64.6609 17.16ZM79.4559 17.06C78.8959 17.06 78.5159 16.9133 78.3159 16.62C78.1159 16.3133 78.0159 15.9533 78.0159 15.54C78.0159 15.1133 78.0759 14.6733 78.1959 14.22C78.3159 13.7667 78.4226 13.3867 78.5159 13.08C78.7293 12.3333 78.9959 11.54 79.3159 10.7C79.6493 9.84667 80.0093 9.01333 80.3959 8.2C80.7959 7.37333 81.1893 6.63333 81.5759 5.98C81.8826 5.46 82.2093 5.07333 82.5559 4.82C82.9159 4.55333 83.2293 4.42 83.4959 4.42C83.7093 4.42 83.8759 4.5 83.9959 4.66C84.1293 4.80667 84.1959 5.03333 84.1959 5.34C84.1959 5.55333 84.1559 5.80667 84.0759 6.1C84.0093 6.39333 83.8893 6.72667 83.7159 7.1C83.2493 8.14 82.6893 9.18 82.0359 10.22C81.3959 11.26 80.5826 12.2333 79.5959 13.14C79.5426 13.3133 79.4693 13.52 79.3759 13.76C79.2959 13.9867 79.2226 14.22 79.1559 14.46C79.0759 14.82 79.0359 15.1267 79.0359 15.38C79.0359 15.7933 79.1159 16.1067 79.2759 16.32C79.4493 16.52 79.6559 16.62 79.8959 16.62C80.1093 16.62 80.3359 16.5467 80.5759 16.4C80.8159 16.24 81.0426 16.0133 81.2559 15.72C81.5759 15.2533 81.8626 14.78 82.1159 14.3C82.3826 13.8067 82.5826 13.4267 82.7159 13.16C82.7959 13.0133 82.8826 12.94 82.9759 12.94C83.0426 12.94 83.0759 12.98 83.0759 13.06C83.0759 13.1267 83.0559 13.2 83.0159 13.28C82.8959 13.5467 82.7359 13.8933 82.5359 14.32C82.3493 14.7333 82.1093 15.1533 81.8159 15.58C81.5359 15.9933 81.1959 16.3467 80.7959 16.64C80.4093 16.92 79.9626 17.06 79.4559 17.06ZM79.7559 12.5C80.2359 12.0067 80.7026 11.44 81.1559 10.8C81.6093 10.1467 82.0293 9.47333 82.4159 8.78C82.8159 8.07333 83.1493 7.40667 83.4159 6.78C83.5093 6.58 83.5826 6.36 83.6359 6.12C83.7026 5.88 83.7359 5.68 83.7359 5.52C83.7359 5.33333 83.6893 5.24 83.5959 5.24C83.5426 5.24 83.4626 5.29333 83.3559 5.4C83.2493 5.49333 83.1093 5.66 82.9359 5.9C82.6826 6.23333 82.4026 6.68667 82.0959 7.26C81.8026 7.83333 81.5026 8.44667 81.1959 9.1C80.8893 9.75333 80.6093 10.3867 80.3559 11C80.1026 11.6 79.9026 12.1 79.7559 12.5ZM83.6738 17C83.1671 17 82.7937 16.8333 82.5538 16.5C82.3138 16.1533 82.1938 15.7333 82.1938 15.24C82.1938 14.64 82.3338 14.0133 82.6138 13.36C82.8804 12.7467 83.2204 12.1867 83.6338 11.68C84.0471 11.1733 84.4938 10.7667 84.9738 10.46C85.4538 10.14 85.9204 9.98 86.3738 9.98C86.8804 9.98 87.2538 10.1467 87.4938 10.48C87.7338 10.8133 87.8538 11.2333 87.8538 11.74C87.8538 12.3533 87.7138 12.98 87.4338 13.62C87.2738 13.98 87.0471 14.38 86.7538 14.82C86.4604 15.2467 86.1271 15.64 85.7538 16C85.8338 16.1467 85.9471 16.2733 86.0938 16.38C86.2404 16.4733 86.4404 16.52 86.6938 16.52C87.0138 16.52 87.3138 16.3867 87.5938 16.12C87.8871 15.8533 88.1538 15.5333 88.3938 15.16C88.6338 14.7733 88.8471 14.3867 89.0338 14C89.2204 13.6133 89.3738 13.3 89.4938 13.06C89.5338 12.98 89.6004 12.94 89.6938 12.94C89.7471 12.94 89.7871 12.9667 89.8138 13.02C89.8404 13.06 89.8338 13.1267 89.7938 13.22C89.7138 13.42 89.5804 13.72 89.3938 14.12C89.2071 14.5067 88.9804 14.9133 88.7138 15.34C88.4471 15.7533 88.1404 16.1067 87.7938 16.4C87.4471 16.6933 87.0604 16.84 86.6338 16.84C86.3404 16.84 86.0871 16.7933 85.8738 16.7C85.6604 16.5933 85.4871 16.4667 85.3538 16.32C85.0738 16.5333 84.7938 16.7 84.5138 16.82C84.2338 16.94 83.9538 17 83.6738 17ZM83.9738 16.56C84.3338 16.56 84.7204 16.3867 85.1338 16.04C85.0271 15.88 84.9471 15.7133 84.8938 15.54C84.8404 15.3667 84.8138 15.2067 84.8138 15.06C84.8138 14.82 84.8671 14.6133 84.9738 14.44C85.0938 14.2667 85.2738 14.18 85.5138 14.18C85.6871 14.18 85.8271 14.2467 85.9338 14.38C86.0538 14.5 86.1138 14.64 86.1138 14.8C86.1138 14.84 86.1071 14.88 86.0938 14.92C86.0938 14.9467 86.0871 14.98 86.0738 15.02C86.3004 14.7133 86.5138 14.3533 86.7138 13.94C87.1538 12.9933 87.3738 12.2133 87.3738 11.6C87.3738 11.2933 87.3138 11.0533 87.1938 10.88C87.0738 10.7067 86.8938 10.62 86.6538 10.62C86.3738 10.62 86.0671 10.74 85.7338 10.98C85.4138 11.22 85.1004 11.54 84.7938 11.94C84.5004 12.34 84.2404 12.7867 84.0138 13.28C83.8004 13.7333 83.6271 14.1733 83.4938 14.6C83.3738 15.0133 83.3138 15.3733 83.3138 15.68C83.3138 15.9467 83.3671 16.16 83.4738 16.32C83.5804 16.48 83.7471 16.56 83.9738 16.56ZM90.133 17.14C89.7196 17.14 89.433 17.0333 89.273 16.82C89.113 16.6067 89.033 16.3333 89.033 16C89.033 15.6533 89.093 15.26 89.213 14.82C89.3463 14.38 89.4863 13.9467 89.633 13.52C89.5396 13.6533 89.4463 13.72 89.353 13.72C89.2996 13.72 89.2596 13.6933 89.233 13.64C89.2063 13.5867 89.213 13.5267 89.253 13.46C89.3196 13.34 89.3863 13.2267 89.453 13.12C89.5196 13 89.5796 12.88 89.633 12.76C89.7396 12.5333 89.8263 12.2667 89.893 11.96C89.973 11.64 90.013 11.3467 90.013 11.08C90.013 10.8667 89.9863 10.6867 89.933 10.54C89.8796 10.3933 89.7996 10.3067 89.693 10.28C89.693 10.28 89.7596 10.2667 89.893 10.24C90.0396 10.2133 90.193 10.1867 90.353 10.16C90.513 10.1333 90.6196 10.12 90.673 10.12C90.753 10.1067 90.8263 10.1 90.893 10.1C90.9596 10.0867 91.0196 10.08 91.073 10.08C91.2063 10.08 91.293 10.1333 91.333 10.24C91.3863 10.3467 91.4063 10.58 91.393 10.94C91.3796 11.2733 91.313 11.68 91.193 12.16C91.073 12.6267 90.9463 13.0333 90.813 13.38C90.6396 13.8333 90.4796 14.2933 90.333 14.76C90.1863 15.2267 90.113 15.6133 90.113 15.92C90.113 16.1867 90.1863 16.36 90.333 16.44C90.4396 16.48 90.533 16.5 90.613 16.5C90.9196 16.5 91.2196 16.3467 91.513 16.04C91.8196 15.7333 92.113 15.3267 92.393 14.82C92.673 14.3 92.933 13.7467 93.173 13.16C93.0796 12.9733 93.013 12.7667 92.973 12.54C92.933 12.3133 92.913 12.0933 92.913 11.88C92.913 11.6267 92.9463 11.3867 93.013 11.16C93.173 10.6267 93.393 10.2467 93.673 10.02C93.9663 9.78 94.213 9.66 94.413 9.66C94.6663 9.66 94.793 9.77333 94.793 10C94.793 10.0533 94.773 10.1333 94.733 10.24C94.7063 10.2667 94.693 10.3067 94.693 10.36C94.5996 10.64 94.4596 11.0467 94.273 11.58C94.0996 12.1133 93.8796 12.7 93.613 13.34C93.3596 13.9667 93.053 14.5733 92.693 15.16C92.3463 15.7333 91.9596 16.2067 91.533 16.58C91.1063 16.9533 90.6396 17.14 90.133 17.14ZM96.1064 17.08C95.6131 17.08 95.1664 16.92 94.7664 16.6C94.3797 16.28 94.1864 15.7933 94.1864 15.14C94.1864 14.54 94.3331 13.9 94.6264 13.22C94.9197 12.5267 95.2931 11.92 95.7464 11.4C96.1331 10.9467 96.5664 10.5733 97.0464 10.28C97.5264 9.98667 97.9797 9.84 98.4064 9.84C98.6997 9.84 98.9531 9.92 99.1664 10.08C99.3931 10.2533 99.5064 10.5 99.5064 10.82C99.5064 11.1533 99.3797 11.52 99.1264 11.92C98.8731 12.32 98.5131 12.6933 98.0464 13.04C97.8464 13.1867 97.5931 13.3267 97.2864 13.46C96.9797 13.5933 96.6731 13.7067 96.3664 13.8C96.0597 13.88 95.8064 13.92 95.6064 13.92C95.5397 14.08 95.4731 14.2933 95.4064 14.56C95.3531 14.8267 95.3264 15.1 95.3264 15.38C95.3264 15.7133 95.3931 16.0133 95.5264 16.28C95.6597 16.5467 95.9064 16.68 96.2664 16.68C96.7064 16.68 97.1064 16.5533 97.4664 16.3C97.8264 16.0467 98.1464 15.7333 98.4264 15.36C98.7064 14.9733 98.9397 14.5867 99.1264 14.2C99.3264 13.8133 99.4864 13.4867 99.6064 13.22C99.6864 13.0333 99.7931 12.94 99.9264 12.94C99.9931 12.94 100.026 12.9733 100.026 13.04C100.026 13.0933 100.006 13.16 99.9664 13.24C99.7797 13.64 99.5797 14.0667 99.3664 14.52C99.1531 14.96 98.8997 15.38 98.6064 15.78C98.3131 16.1667 97.9597 16.48 97.5464 16.72C97.1464 16.96 96.6664 17.08 96.1064 17.08ZM95.7464 13.56C95.9331 13.56 96.2464 13.4933 96.6864 13.36C97.1264 13.2133 97.5264 12.9867 97.8864 12.68C98.2331 12.3733 98.4997 12.04 98.6864 11.68C98.8731 11.3067 98.9664 10.9933 98.9664 10.74C98.9664 10.4467 98.8597 10.3 98.6464 10.3C98.4864 10.3 98.2664 10.4067 97.9864 10.62C97.7064 10.8333 97.3597 11.1933 96.9464 11.7C96.6931 12.02 96.4531 12.3667 96.2264 12.74C95.9997 13.1133 95.8397 13.3867 95.7464 13.56ZM102.647 14.86L102.447 14.82L102.467 14.7L107.587 4.96C107.681 4.77333 107.821 4.66 108.007 4.62C108.194 4.58 108.394 4.56 108.607 4.56H109.247L109.347 4.62L109.387 4.72C109.361 4.81333 109.227 5.04667 108.987 5.42C108.761 5.78 108.461 6.24 108.087 6.8C107.727 7.34667 107.327 7.95333 106.887 8.62C106.447 9.27333 106.001 9.93333 105.547 10.6C105.094 11.2533 104.667 11.8733 104.267 12.46C103.867 13.0467 103.521 13.5533 103.227 13.98C102.947 14.4067 102.754 14.7 102.647 14.86ZM101.627 17.3C101.374 17.3 101.187 17.2133 101.067 17.04C100.961 16.8667 100.921 16.6667 100.947 16.44C100.974 16.2 101.087 16.0067 101.287 15.86C101.487 15.7133 101.694 15.64 101.907 15.64C102.121 15.64 102.294 15.7067 102.427 15.84C102.561 15.96 102.627 16.12 102.627 16.32C102.627 16.5733 102.521 16.8 102.307 17C102.107 17.2 101.881 17.3 101.627 17.3Z" fill="#F17185"/>
</svg>
