<svg width="12" height="11" viewBox="0 0 12 11" fill="none" xmlns="http://www.w3.org/2000/svg">
<path d="M2.28059 11C2.49933 11 2.78261 10.9372 3.13043 10.8115C3.48185 10.6894 3.85298 10.526 4.24384 10.3213C4.63828 10.1201 5.013 9.89928 5.368 9.65867C6.08516 9.70535 6.77364 9.66226 7.43344 9.52938C8.09323 9.39651 8.70103 9.19001 9.25683 8.90989C9.81264 8.62618 10.2949 8.27963 10.7037 7.87022C11.1161 7.46082 11.4352 7.00114 11.6611 6.49119C11.887 5.98123 12 5.43356 12 4.84819C12 4.17662 11.8458 3.54816 11.5374 2.96278C11.2326 2.37741 10.8059 1.86386 10.2573 1.42214C9.70865 0.97682 9.07037 0.628469 8.34245 0.377081C7.61811 0.125694 6.83819 0 6.00269 0C5.16719 0 4.38548 0.125694 3.65755 0.377081C2.93321 0.628469 2.29673 0.97682 1.74809 1.42214C1.19946 1.86386 0.770955 2.37741 0.462573 2.96278C0.154191 3.54816 0 4.17662 0 4.84819C0 5.42997 0.11654 5.98302 0.349619 6.50735C0.586284 7.03167 0.916181 7.50392 1.33931 7.92409C1.76244 8.34427 2.25728 8.68723 2.82385 8.95299C2.74137 9.10741 2.64455 9.26722 2.53339 9.43242C2.42582 9.59762 2.31645 9.75384 2.20529 9.90108C2.09771 10.0483 2.00448 10.1704 1.92559 10.2674C1.83595 10.3823 1.78933 10.4954 1.78575 10.6068C1.78575 10.7217 1.82698 10.8151 1.90946 10.8869C1.99552 10.9623 2.11923 11 2.28059 11ZM2.66786 10.3159C2.64635 10.323 2.632 10.3195 2.62483 10.3051C2.62125 10.2943 2.62662 10.28 2.64097 10.262C2.78082 10.0896 2.94218 9.88312 3.12506 9.64251C3.31152 9.40549 3.45495 9.18821 3.55536 8.99069C3.61273 8.87937 3.62887 8.77881 3.60377 8.68903C3.58225 8.59925 3.50695 8.52383 3.37786 8.46278C2.81488 8.20062 2.33259 7.88459 1.93097 7.51469C1.52936 7.14479 1.22098 6.73359 1.00583 6.2811C0.790677 5.8286 0.683102 5.35096 0.683102 4.84819C0.683102 4.27 0.819363 3.73131 1.09189 3.23213C1.368 2.72935 1.74809 2.28763 2.23218 1.90695C2.71627 1.52269 3.28104 1.22282 3.92649 1.00735C4.57194 0.791871 5.26401 0.684133 6.00269 0.684133C6.74137 0.684133 7.43164 0.791871 8.07351 1.00735C8.71896 1.22282 9.28373 1.52269 9.76782 1.90695C10.2555 2.28763 10.6356 2.72935 10.9081 3.23213C11.1842 3.73131 11.3223 4.27 11.3223 4.84819C11.3223 5.4192 11.1842 5.95788 10.9081 6.46425C10.6356 6.96703 10.2555 7.40875 9.76782 7.78942C9.28373 8.17009 8.71896 8.46996 8.07351 8.68903C7.43164 8.90451 6.74137 9.01224 6.00269 9.01224C5.91304 9.01224 5.81623 9.01045 5.71224 9.00686C5.60825 8.99967 5.49529 8.99249 5.37337 8.98531C5.28731 8.98172 5.20484 8.99429 5.12595 9.02302C5.04706 9.05175 4.96818 9.09484 4.88929 9.1523C4.63828 9.3175 4.37113 9.4809 4.08785 9.64251C3.80457 9.80411 3.53563 9.94597 3.28104 10.0681C3.03003 10.1902 2.82564 10.2728 2.66786 10.3159Z" fill="black"/>
</svg>
