<svg width="33" height="33" viewBox="0 0 33 33" fill="none" xmlns="http://www.w3.org/2000/svg">
<path d="M9.18677 27.3627C10.6266 27.3627 13.5374 25.9643 15.7334 24.4001C23.0465 24.5348 28.5158 20.3085 28.5158 14.7563C28.5158 9.40095 23.1604 5.0918 16.4895 5.0918C9.81864 5.0918 4.47363 9.40095 4.47363 14.7563C4.47363 18.1643 6.58677 21.1993 9.829 22.7842C9.38358 23.6232 8.59633 24.773 8.15091 25.3738C7.48797 26.2543 7.94374 27.3627 9.18677 27.3627ZM10.4402 25.2184C10.3055 25.2702 10.2537 25.1977 10.3469 25.0838C10.8752 24.4415 11.6521 23.4161 12.0354 22.691C12.3461 22.1212 12.2425 21.624 11.5796 21.3133C8.42024 19.832 6.58677 17.4599 6.58677 14.7563C6.58677 10.5922 10.9788 7.20494 16.4895 7.20494C22.0003 7.20494 26.3923 10.5922 26.3923 14.7563C26.3923 18.9204 22.0003 22.318 16.4895 22.318C16.3031 22.318 16.013 22.3077 15.6609 22.3077C15.2154 22.2973 14.884 22.432 14.4696 22.7531C13.2162 23.6854 11.3621 24.8455 10.4402 25.2184Z" fill="white"/>
</svg>
