<svg width="47" height="47" viewBox="0 0 47 47" fill="none" xmlns="http://www.w3.org/2000/svg">
<rect width="47" height="47" rx="10" fill="url(#paint0_linear_933_16730)"/>
<path d="M28.333 14.7915C28.333 13.894 27.6055 13.1665 26.708 13.1665C25.8105 13.1665 25.083 13.894 25.083 14.7915V20.2082C25.083 21.1056 25.8105 21.8332 26.708 21.8332C27.6055 21.8332 28.333 21.1056 28.333 20.2082V14.7915Z" stroke="white" stroke-width="1.5" stroke-linecap="round" stroke-linejoin="round"/>
<path d="M31.583 20.2085V21.8335H33.208C33.5294 21.8335 33.8436 21.7382 34.1108 21.5596C34.378 21.3811 34.5863 21.1273 34.7093 20.8304C34.8323 20.5334 34.8645 20.2067 34.8018 19.8915C34.7391 19.5763 34.5843 19.2867 34.3571 19.0594C34.1298 18.8322 33.8402 18.6774 33.525 18.6147C33.2098 18.552 32.8831 18.5842 32.5861 18.7072C32.2892 18.8302 32.0354 19.0385 31.8569 19.3057C31.6783 19.5729 31.583 19.8871 31.583 20.2085Z" stroke="white" stroke-width="1.5" stroke-linecap="round" stroke-linejoin="round"/>
<path d="M22.917 27.7915C22.917 26.894 22.1895 26.1665 21.292 26.1665C20.3945 26.1665 19.667 26.894 19.667 27.7915V33.2082C19.667 34.1056 20.3945 34.8332 21.292 34.8332C22.1895 34.8332 22.917 34.1056 22.917 33.2082V27.7915Z" stroke="white" stroke-width="1.5" stroke-linecap="round" stroke-linejoin="round"/>
<path d="M16.417 27.7915V26.1665H14.792C14.4706 26.1665 14.1564 26.2618 13.8892 26.4404C13.622 26.6189 13.4137 26.8727 13.2907 27.1696C13.1677 27.4666 13.1355 27.7933 13.1982 28.1085C13.2609 28.4237 13.4157 28.7133 13.6429 28.9406C13.8702 29.1678 14.1598 29.3226 14.475 29.3853C14.7902 29.448 15.1169 29.4158 15.4139 29.2928C15.7108 29.1698 15.9646 28.9615 16.1431 28.6943C16.3217 28.4271 16.417 28.1129 16.417 27.7915Z" stroke="white" stroke-width="1.5" stroke-linecap="round" stroke-linejoin="round"/>
<path d="M33.2087 25.0835H27.792C26.8945 25.0835 26.167 25.811 26.167 26.7085C26.167 27.606 26.8945 28.3335 27.792 28.3335H33.2087C34.1061 28.3335 34.8337 27.606 34.8337 26.7085C34.8337 25.811 34.1061 25.0835 33.2087 25.0835Z" stroke="white" stroke-width="1.5" stroke-linecap="round" stroke-linejoin="round"/>
<path d="M27.792 31.5835H26.167V33.2085C26.167 33.5299 26.2623 33.8441 26.4409 34.1113C26.6194 34.3785 26.8732 34.5868 27.1701 34.7098C27.4671 34.8328 27.7938 34.865 28.109 34.8023C28.4242 34.7396 28.7138 34.5848 28.941 34.3575C29.1683 34.1303 29.3231 33.8407 29.3858 33.5255C29.4485 33.2103 29.4163 32.8836 29.2933 32.5866C29.1703 32.2897 28.962 32.0359 28.6948 31.8574C28.4276 31.6788 28.1134 31.5835 27.792 31.5835" stroke="white" stroke-width="1.5" stroke-linecap="round" stroke-linejoin="round"/>
<path d="M20.2087 19.6665H14.792C13.8945 19.6665 13.167 20.394 13.167 21.2915C13.167 22.189 13.8945 22.9165 14.792 22.9165H20.2087C21.1061 22.9165 21.8337 22.189 21.8337 21.2915C21.8337 20.394 21.1061 19.6665 20.2087 19.6665Z" stroke="white" stroke-width="1.5" stroke-linecap="round" stroke-linejoin="round"/>
<path d="M20.208 16.4165H21.833V14.7915C21.833 14.4701 21.7377 14.1559 21.5591 13.8887C21.3806 13.6215 21.1268 13.4132 20.8299 13.2902C20.5329 13.1672 20.2062 13.135 19.891 13.1977C19.5758 13.2604 19.2862 13.4152 19.059 13.6425C18.8317 13.8697 18.6769 14.1593 18.6142 14.4745C18.5515 14.7897 18.5837 15.1164 18.7067 15.4134C18.8297 15.7103 19.038 15.9641 19.3052 16.1426C19.5724 16.3212 19.8866 16.4165 20.208 16.4165Z" stroke="white" stroke-width="1.5" stroke-linecap="round" stroke-linejoin="round"/>
<defs>
<linearGradient id="paint0_linear_933_16730" x1="23.5" y1="0" x2="23.5" y2="47" gradientUnits="userSpaceOnUse">
<stop stop-color="#72A537"/>
<stop offset="1" stop-color="#156A37"/>
</linearGradient>
</defs>
</svg>
