<svg width="10" height="18" viewBox="0 0 10 18" fill="none" xmlns="http://www.w3.org/2000/svg">
<path d="M1.00096 1.77474C1.00096 1.56141 1.06736 1.37614 1.20017 1.21895C1.33297 1.07298 1.50154 1 1.70585 1C1.89996 1 2.06852 1.0786 2.21154 1.23579L8.60158 8.02316C8.86719 8.29263 9 8.61263 9 8.98316C9 9.36491 8.86719 9.69614 8.60158 9.97684L2.21154 16.7642C2.0583 16.9214 1.88974 17 1.70586 17C1.52197 17 1.35851 16.927 1.21549 16.7811C1.07247 16.6351 1.00096 16.4498 1.00096 16.2253C0.990742 16.0119 1.06225 15.8323 1.21549 15.6863L7.51359 9L1.21549 2.31369C1.07247 2.16772 1.00096 1.98807 1.00096 1.77474Z" fill="white" stroke="white"/>
</svg>
