<svg width="100" height="100" viewBox="0 0 100 100" fill="none" xmlns="http://www.w3.org/2000/svg">
<g clip-path="url(#clip0_2075_43152)">
<path d="M51.5433 0.531109C44.6793 1.7653 43.2725 4.1021 30.4151 7.39317C17.6844 10.6521 16.2056 9.09263 12.2469 11.369C0.864188 17.9138 -1.84623 39.3506 1.10584 54.1693C4.87111 73.0693 20.6907 98.1943 46.8989 99.9088C76.3233 101.834 98.5874 72.9255 99.947 47.5565C100.094 44.813 100.962 21.8255 83.8732 8.24621C70.0981 -2.70027 52.6263 0.336346 51.5433 0.531109Z" fill="#F4F4F4"/>
<path d="M74.0293 55.2461C75.8631 55.2461 77.3496 53.7595 77.3496 51.9258C77.3496 50.092 75.8631 48.6055 74.0293 48.6055C72.1955 48.6055 70.709 50.092 70.709 51.9258C70.709 53.7595 72.1955 55.2461 74.0293 55.2461Z" fill="#888888"/>
<path d="M74.6934 39.3086C75.4265 39.3086 76.0215 39.9036 76.0215 40.6367C76.0215 41.3698 75.4265 41.9648 74.6934 41.9648C73.9602 41.9648 73.3652 41.3698 73.3652 40.6367C73.3652 39.9036 73.9602 39.3086 74.6934 39.3086Z" fill="#E0E0E0"/>
<path d="M66.7246 22.043C67.4577 22.043 68.0527 22.638 68.0527 23.3711C68.0527 24.1042 67.4577 24.6992 66.7246 24.6992C65.9915 24.6992 65.3965 24.1042 65.3965 23.3711C65.3965 22.638 65.9915 22.043 66.7246 22.043Z" fill="#E0E0E0"/>
<path d="M61.4121 75.168C62.1452 75.168 62.7402 75.763 62.7402 76.4961C62.7402 77.2292 62.1452 77.8242 61.4121 77.8242C60.679 77.8242 60.084 77.2292 60.084 76.4961C60.084 75.763 60.679 75.168 61.4121 75.168Z" fill="#E0E0E0"/>
<path d="M37.5059 75.168C38.239 75.168 38.834 75.763 38.834 76.4961C38.834 77.2292 38.239 77.8242 37.5059 77.8242C36.7726 77.8242 36.1777 77.2292 36.1777 76.4961C36.1777 75.763 36.7726 75.168 37.5059 75.168Z" fill="#E0E0E0"/>
<path d="M29.5371 23.3711C30.2702 23.3711 30.8652 23.9661 30.8652 24.6992C30.8652 25.4323 30.2702 26.0273 29.5371 26.0273C28.8039 26.0273 28.209 25.4323 28.209 24.6992C28.209 23.9661 28.8039 23.3711 29.5371 23.3711Z" fill="#E0E0E0"/>
<path d="M25.5527 40.6367C26.2859 40.6367 26.8809 41.2317 26.8809 41.9648C26.8809 42.698 26.2859 43.293 25.5527 43.293C24.8195 43.293 24.2246 42.698 24.2246 41.9648C24.2246 41.2317 24.8195 40.6367 25.5527 40.6367Z" fill="#E0E0E0"/>
<path d="M23.5684 67.543C24.3015 67.543 24.8965 68.138 24.8965 68.8711C24.8965 69.6042 24.3015 70.1992 23.5684 70.1992C22.8351 70.1992 22.2402 69.6042 22.2402 68.8711C22.2402 68.138 22.8351 67.543 23.5684 67.543Z" fill="#E0E0E0"/>
<path d="M56.2113 52.4253L57.1534 53.5894L58.3411 55.058L59.2832 56.2221C59.532 56.5301 59.386 57.0715 58.9581 57.4336L58.0259 58.2187C57.598 58.5807 57.0473 58.6214 56.7985 58.3134L55.8563 57.1493L54.6687 55.6807L53.7266 54.5166L56.2113 52.4253Z" fill="#C6C9D3"/>
<path d="M57.7408 31.8036C52.2339 25.0018 42.3614 24.0407 35.6934 29.6581C29.0221 35.2755 28.08 45.3462 33.5869 52.1514C39.0937 58.9566 48.9663 59.9177 55.6375 54.3002C62.3088 48.6795 63.251 38.6087 57.7408 31.8036ZM54.0552 52.3477C48.4421 57.0751 40.1354 56.2663 35.4977 50.5406C30.8666 44.8116 31.6595 36.3381 37.2725 31.6107C42.8855 26.8833 51.1922 27.6886 55.83 33.4177C60.4644 39.1434 59.6715 47.6169 54.0552 52.3477Z" fill="#A5ACB8"/>
<path d="M56.1412 59.1054C55.6369 58.4117 55.6469 57.5319 56.1644 57.0953L58.2311 55.3526C58.7486 54.9161 59.5946 55.0751 60.1685 55.7113L60.9978 56.6317L56.871 60.1105L56.1412 59.1054Z" fill="#A5ACB8"/>
<path d="M72.0017 68.8514L60.9979 56.6353L58.9212 58.3848L56.8711 60.1106L66.5512 73.4435C67.8052 75.1693 70.1672 75.5178 71.733 74.2082C71.7363 74.2049 71.7396 74.2015 71.7463 74.1981C73.3121 72.8817 73.4282 70.4385 72.0017 68.8514Z" fill="#888888"/>
<path d="M54.9373 43.6883C54.8743 43.6883 54.8113 43.6849 54.7482 43.6747C54.0217 43.5698 53.5208 42.8829 53.6236 42.1418C53.7397 41.3195 53.7961 39.6884 52.8739 38.0404C51.6929 35.9254 49.656 35.2013 49.0589 35.0321C48.3523 34.829 47.9409 34.0812 48.14 33.3638C48.339 32.6463 49.0689 32.2234 49.7755 32.4264C50.8536 32.7343 53.5407 33.7698 55.1795 36.7004C56.4932 39.0522 56.4136 41.3601 56.2477 42.5276C56.1548 43.2044 55.5875 43.6883 54.9373 43.6883Z" fill="#C6C9D3"/>
<path d="M31.6563 62C33.1238 62 34.3125 63.1887 34.3125 64.6562C34.3125 66.1238 33.1238 67.3125 31.6563 67.3125C30.1887 67.3125 29 66.1238 29 64.6562C29 63.1887 30.1887 62 31.6563 62Z" fill="#888888"/>
</g>
<defs>
<clipPath id="clip0_2075_43152">
<rect width="100" height="100" fill="white"/>
</clipPath>
</defs>
</svg>
