<svg width="28" height="28" viewBox="0 0 28 28" fill="none" xmlns="http://www.w3.org/2000/svg">
<g clip-path="url(#clip0_933_16826)">
<path d="M25.375 0.875H2.625C1.65812 0.875 0.875 1.65812 0.875 2.625V25.375C0.875 26.3419 1.65812 27.125 2.625 27.125H25.375C26.3419 27.125 27.125 26.3419 27.125 25.375V2.625C27.125 1.65812 26.3419 0.875 25.375 0.875Z" fill="#194FA5"/>
<path d="M23.9969 0.875H2.51563C2.08148 0.878149 1.66601 1.05201 1.35901 1.35901C1.05202 1.66601 0.878154 2.08148 0.875005 2.51562V23.9312C0.872817 24.8369 1.60563 25.5697 2.51125 25.5719H23.975C24.8806 25.5741 25.6134 24.8412 25.6156 23.9356V2.51562C25.6353 1.62969 24.9309 0.894687 24.045 0.875H23.9969Z" fill="#2262DD"/>
<path d="M0.875 7.875H27.125V20.125H0.875V7.875Z" fill="#0A3880"/>
<path d="M4.61332 9.85034H6.40926L9.52863 18.1519H7.80051L7.10488 16.17H3.92863L3.23301 18.1519H1.50488L4.61332 9.85034ZM6.5952 14.7307L5.86457 12.6438L5.5627 11.6463H5.47082L5.16895 12.6438L4.42738 14.7307H6.5952ZM11.0621 11.3335H8.74332V9.85034H14.9471V11.3335H12.6283V18.1497H11.0643V11.3335H11.0621ZM16.1983 9.85034H18.2152L20.418 15.6822H20.5099L22.7127 9.85034H24.7427V18.1519H23.1896V14.0591L23.2814 12.6788H23.1896L21.0786 18.1519H19.8624L17.7405 12.6788H17.6486L17.7405 14.0591V18.1519H16.1983V9.85034Z" fill="#FAFAFA"/>
<path d="M25.6152 7.875H27.1246V20.125H25.6152V7.875Z" fill="#092C56"/>
<path opacity="0.3" d="M8.68463 2.82189C8.68463 2.31877 8.33463 2.16564 6.32213 2.23127C4.63776 2.29689 3.80651 2.49377 3.30338 3.10627C2.88776 3.60939 2.80026 4.33127 2.73463 4.94377C2.69088 5.42502 2.25338 8.20314 3.50026 7.39377C3.64901 7.29533 3.76932 7.15971 3.85026 7.00002C4.11276 6.54064 4.26588 6.23439 4.57213 5.77502C5.73151 3.89377 8.68463 3.47814 8.68463 2.82189Z" fill="white"/>
</g>
<defs>
<clipPath id="clip0_933_16826">
<rect width="28" height="28" fill="white"/>
</clipPath>
</defs>
</svg>
