<svg width="11" height="11" viewBox="0 0 11 11" fill="none" xmlns="http://www.w3.org/2000/svg">
<path d="M2.51695 6.03739H5.49452C5.58225 6.03739 5.65354 6.00814 5.70837 5.94965C5.76687 5.89116 5.79611 5.81987 5.79611 5.73579V1.89182C5.79611 1.80774 5.76687 1.73829 5.70837 1.68345C5.65354 1.62496 5.58225 1.59571 5.49452 1.59571C5.41409 1.59571 5.34463 1.62496 5.28614 1.68345C5.22765 1.73829 5.1984 1.80774 5.1984 1.89182V5.43968H2.51695C2.42921 5.43968 2.3561 5.46893 2.29761 5.52742C2.24277 5.58591 2.21535 5.65537 2.21535 5.73579C2.21535 5.81987 2.24277 5.89116 2.29761 5.94965C2.3561 6.00814 2.42921 6.03739 2.51695 6.03739ZM5.5 11C6.25307 11 6.96045 10.8556 7.62213 10.5668C8.28747 10.2817 8.87238 9.88684 9.37687 9.38235C9.88136 8.87421 10.278 8.2893 10.5668 7.62762C10.8556 6.96228 11 6.25307 11 5.5C11 4.74693 10.8556 4.03955 10.5668 3.37787C10.278 2.71253 9.88136 2.12762 9.37687 1.62313C8.87238 1.11499 8.28747 0.718345 7.62213 0.4332C6.9568 0.1444 6.24759 0 5.49452 0C4.74144 0 4.03224 0.1444 3.3669 0.4332C2.70522 0.718345 2.12213 1.11499 1.61765 1.62313C1.11316 2.12762 0.716517 2.71253 0.427717 3.37787C0.142572 4.03955 0 4.74693 0 5.5C0 6.25307 0.142572 6.96228 0.427717 7.62762C0.716517 8.2893 1.11316 8.87421 1.61765 9.38235C2.12579 9.88684 2.7107 10.2817 3.37238 10.5668C4.03772 10.8556 4.74693 11 5.5 11ZM5.5 10.2926C4.83466 10.2926 4.21319 10.1683 3.63559 9.91974C3.05799 9.67115 2.54985 9.32752 2.11117 8.88883C1.67248 8.45015 1.32885 7.94201 1.08026 7.36441C0.835327 6.78315 0.712861 6.16168 0.712861 5.5C0.712861 4.83832 0.835327 4.21868 1.08026 3.64108C1.32885 3.05982 1.67065 2.54985 2.10568 2.11117C2.54437 1.66883 3.05251 1.32519 3.63011 1.08026C4.21137 0.831672 4.83283 0.707378 5.49452 0.707378C6.15985 0.707378 6.78132 0.831672 7.35892 1.08026C7.93652 1.32519 8.44467 1.66883 8.88335 2.11117C9.32569 2.54985 9.67115 3.05982 9.91974 3.64108C10.1683 4.21868 10.2926 4.83832 10.2926 5.5C10.2926 6.16168 10.1683 6.78315 9.91974 7.36441C9.67481 7.94201 9.333 8.45015 8.89432 8.88883C8.45563 9.32752 7.94566 9.67115 7.36441 9.91974C6.78315 10.1683 6.16168 10.2926 5.5 10.2926Z" fill="#888888"/>
</svg>
