<svg width="10" height="18" viewBox="0 0 10 18" fill="none" xmlns="http://www.w3.org/2000/svg">
<path d="M8.99904 16.2253C8.99904 16.4386 8.93264 16.6239 8.79983 16.7811C8.66703 16.927 8.49846 17 8.29414 17C8.10004 17 7.93148 16.9214 7.78846 16.7642L1.39842 9.97684C1.13281 9.70737 1 9.38737 1 9.01684C1 8.63509 1.13281 8.30386 1.39842 8.02316L7.78846 1.23579C7.9417 1.0786 8.11026 1 8.29414 1C8.47803 1 8.64149 1.07298 8.78451 1.21895C8.92753 1.36491 8.99904 1.55018 8.99904 1.77474C9.00926 1.98807 8.93775 2.16772 8.78451 2.31368L2.48641 9L8.78451 15.6863C8.92753 15.8323 8.99904 16.0119 8.99904 16.2253Z" fill="white" stroke="white"/>
</svg>
