<svg width="70" height="70" viewBox="0 0 70 70" fill="none" xmlns="http://www.w3.org/2000/svg">
<rect width="70" height="70" fill="white"/>
<path d="M9.88281 9.88232H24.1793V23.9482H9.88281V9.88232ZM28.264 9.88232H30.3063V11.8917H32.3487V9.88232H36.4334V13.9011H32.3487V15.9106H30.3063V17.92H28.264V19.9294H30.3063V21.9388H28.264V23.9482H30.3063V21.9388H32.3487V23.9482H34.391V17.92H36.4334V15.9106H38.4758V19.9294H42.5605V17.92H44.6028V23.9482H42.5605V21.9388H40.5181V23.9482H38.4758V21.9388H36.4334V25.9576H40.5181V27.967H34.391V25.9576H32.3487V31.9859H30.3063V27.967H28.264V25.9576H26.2216V13.9011H28.264V9.88232ZM42.5605 9.88232H44.6028V11.8917H42.5605V9.88232ZM46.6452 9.88232H60.9416V23.9482H46.6452V9.88232ZM11.9252 11.8917V21.9388H22.1369V11.8917H11.9252ZM38.4758 11.8917H42.5605V13.9011H40.5181V15.9106H38.4758V11.8917ZM48.6875 11.8917V21.9388H58.8993V11.8917H48.6875ZM13.9675 13.9011H20.0946V19.9294H13.9675V13.9011ZM42.5605 13.9011H44.6028V15.9106H42.5605V13.9011ZM50.7299 13.9011H56.8569V19.9294H50.7299V13.9011ZM32.3487 15.9106H34.391V17.92H32.3487V15.9106ZM40.5181 15.9106H42.5605V17.92H40.5181V15.9106ZM40.5181 23.9482H42.5605V25.9576H40.5181V23.9482ZM9.88281 25.9576H11.9252V27.967H13.9675V29.9764H16.0099V33.9953H13.9675V31.9859H11.9252V29.9764H9.88281V25.9576ZM13.9675 25.9576H24.1793V27.967H22.1369V29.9764H24.1793V31.9859H22.1369V33.9953H24.1793V36.0047H22.1369V38.0141H26.2216V40.0235H22.1369V42.0329H20.0946V44.0423H16.0099V42.0329H13.9675V40.0235H20.0946V33.9953H18.0522V29.9764H16.0099V27.967H13.9675V25.9576ZM46.6452 25.9576H56.8569V27.967H50.7299V29.9764H54.8146V31.9859H52.7722V36.0047H50.7299V33.9953H48.6875V36.0047H44.6028V33.9953H40.5181V36.0047H38.4758V38.0141H42.5605V36.0047H44.6028V38.0141H46.6452V40.0235H48.6875V36.0047H50.7299V38.0141H52.7722V36.0047H54.8146V40.0235H52.7722V44.0423H54.8146V46.0517H52.7722V48.0611H54.8146V50.0706H52.7722V52.08H54.8146V50.0706H56.8569V48.0611H54.8146V46.0517H60.9416V48.0611H58.8993V50.0706H60.9416V60.1176H44.6028V58.1082H46.6452V56.0988H52.7722V54.0894H50.7299V52.08H48.6875V54.0894H44.6028V58.1082H38.4758V56.0988H34.391V58.1082H36.4334V60.1176H30.3063V58.1082H32.3487V56.0988H30.3063V58.1082H28.264V56.0988H26.2216V48.0611H28.264V46.0517H26.2216V40.0235H28.264V42.0329H32.3487V38.0141H36.4334V36.0047H32.3487V33.9953H38.4758V31.9859H40.5181V29.9764H42.5605V31.9859H44.6028V29.9764H46.6452V31.9859H48.6875V27.967H46.6452V25.9576ZM42.5605 27.967H44.6028V29.9764H42.5605V27.967ZM56.8569 27.967H58.8993V29.9764H60.9416V36.0047H58.8993V38.0141H60.9416V42.0329H58.8993V40.0235H56.8569V36.0047H54.8146V33.9953H58.8993V31.9859H56.8569V27.967ZM26.2216 29.9764H28.264V33.9953H24.1793V31.9859H26.2216V29.9764ZM36.4334 29.9764H38.4758V31.9859H36.4334V29.9764ZM11.9252 33.9953H13.9675V36.0047H11.9252V33.9953ZM9.88281 36.0047H11.9252V44.0423H9.88281V36.0047ZM26.2216 36.0047H32.3487V38.0141H26.2216V36.0047ZM34.391 40.0235V44.0423H30.3063V52.08H32.3487V54.0894H36.4334V52.08H34.391V48.0611H36.4334V50.0706H38.4758V54.0894H40.5181V56.0988H42.5605V54.0894H40.5181V50.0706H42.5605V46.0517H40.5181V44.0423H42.5605V42.0329H44.6028V40.0235H42.5605V42.0329H40.5181V44.0423H38.4758V46.0517H34.391V44.0423H36.4334V42.0329H38.4758V40.0235H34.391ZM22.1369 42.0329H24.1793V44.0423H22.1369V42.0329ZM54.8146 42.0329H56.8569V44.0423H54.8146V42.0329ZM44.6028 44.0423V50.0706H50.7299V44.0423H44.6028ZM9.88281 46.0517H24.1793V60.1176H9.88281V46.0517ZM38.4758 46.0517H40.5181V50.0706H38.4758V46.0517ZM46.6452 46.0517H48.6875V48.0611H46.6452V46.0517ZM11.9252 48.0611V58.1082H22.1369V48.0611H11.9252ZM13.9675 50.0706H20.0946V56.0988H13.9675V50.0706ZM56.8569 54.0894V56.0988H54.8146V58.1082H58.8993V54.0894H56.8569ZM26.2216 58.1082H28.264V60.1176H26.2216V58.1082Z" fill="black"/>
</svg>
