<svg width="6" height="11" viewBox="0 0 6 11" fill="none" xmlns="http://www.w3.org/2000/svg">
<path d="M-4.72849e-07 5.5C0.00587605 5.71702 0.0822715 5.90304 0.24094 6.07046L4.81293 10.7892C4.94809 10.9256 5.10676 11 5.30069 11C5.69442 11 6 10.6776 6 10.2621C6 10.0637 5.9236 9.87768 5.78844 9.73506L1.67483 5.5L5.78844 1.26494C5.92361 1.12232 6 0.942504 6 0.737882C6 0.322436 5.69442 9.26959e-07 5.30069 8.92538e-07C5.11264 8.76098e-07 4.94809 0.0744094 4.81293 0.210824L0.24094 4.93574C0.0763951 5.09696 -4.53876e-07 5.28298 -4.72849e-07 5.5Z" fill="#4F4F4F"/>
</svg>
