<svg width="30" height="31" viewBox="0 0 30 31" fill="none" xmlns="http://www.w3.org/2000/svg">
<path d="M0 0H28C29.1046 0 30 0.895431 30 2V22H0V0Z" fill="#F69320"/>
<path d="M7.37982 6.27019V15.9502H5.78305V8.16511L3.41771 8.96681V7.64832L7.18768 6.27019H7.37982ZM17.3779 12.5115V13.7836H10.421L10.368 12.8229L14.5288 6.30332H15.8076L14.4228 8.67529L12.031 12.5115H17.3779ZM16.172 6.30332V15.9502H14.5752V6.30332H16.172ZM18.3783 8.66866V8.15849C18.3783 7.79187 18.4578 7.45838 18.6168 7.15802C18.7759 6.85766 19.0078 6.61693 19.3125 6.43583C19.6173 6.25473 19.9839 6.16418 20.4124 6.16418C20.8541 6.16418 21.2251 6.25473 21.5255 6.43583C21.8303 6.61693 22.0622 6.85766 22.2212 7.15802C22.3802 7.45838 22.4597 7.79187 22.4597 8.15849V8.66866C22.4597 9.02644 22.3802 9.35551 22.2212 9.65587C22.0666 9.95623 21.8369 10.197 21.5321 10.3781C21.2317 10.5592 20.8629 10.6497 20.4256 10.6497C19.9928 10.6497 19.6217 10.5592 19.3125 10.3781C19.0078 10.197 18.7759 9.95623 18.6168 9.65587C18.4578 9.35551 18.3783 9.02644 18.3783 8.66866ZM19.4848 8.15849V8.66866C19.4848 8.84534 19.5179 9.01319 19.5842 9.17221C19.6549 9.33122 19.7609 9.45931 19.9022 9.55649C20.0436 9.65367 20.218 9.70225 20.4256 9.70225C20.6376 9.70225 20.8099 9.65367 20.9424 9.55649C21.0794 9.45931 21.1809 9.33122 21.2472 9.17221C21.3135 9.01319 21.3466 8.84534 21.3466 8.66866V8.15849C21.3466 7.97739 21.3113 7.80733 21.2406 7.64832C21.1743 7.48489 21.0727 7.35458 20.9358 7.25741C20.7989 7.16023 20.6244 7.11164 20.4124 7.11164C20.2092 7.11164 20.0369 7.16023 19.8956 7.25741C19.7587 7.35458 19.6549 7.48489 19.5842 7.64832C19.5179 7.80733 19.4848 7.97739 19.4848 8.15849ZM23.0295 14.1017V13.5849C23.0295 13.2227 23.109 12.8914 23.268 12.591C23.4314 12.2907 23.6655 12.0499 23.9703 11.8688C24.2751 11.6877 24.6417 11.5972 25.0702 11.5972C25.5119 11.5972 25.8829 11.6877 26.1833 11.8688C26.4881 12.0499 26.7177 12.2907 26.8723 12.591C27.0314 12.8914 27.1109 13.2227 27.1109 13.5849V14.1017C27.1109 14.4639 27.0314 14.7951 26.8723 15.0955C26.7177 15.3959 26.4903 15.6366 26.1899 15.8177C25.8895 15.9988 25.5229 16.0893 25.0901 16.0893C24.6528 16.0893 24.2795 15.9988 23.9703 15.8177C23.6655 15.6366 23.4314 15.3959 23.268 15.0955C23.109 14.7951 23.0295 14.4639 23.0295 14.1017ZM24.1426 13.5849V14.1017C24.1426 14.2783 24.1779 14.4462 24.2486 14.6052C24.3237 14.7642 24.4319 14.8945 24.5733 14.9961C24.7146 15.0933 24.8847 15.1419 25.0834 15.1419C25.3087 15.1419 25.4898 15.0933 25.6267 14.9961C25.7637 14.8945 25.8608 14.7664 25.9183 14.6118C25.9801 14.4528 26.011 14.2828 26.011 14.1017V13.5849C26.011 13.4038 25.9757 13.2337 25.905 13.0747C25.8387 12.9157 25.7349 12.7876 25.5936 12.6904C25.4567 12.5932 25.2822 12.5446 25.0702 12.5446C24.8626 12.5446 24.6903 12.5932 24.5534 12.6904C24.4165 12.7876 24.3126 12.9157 24.242 13.0747C24.1757 13.2337 24.1426 13.4038 24.1426 13.5849ZM25.4677 7.68145L20.7569 15.2214L19.942 14.751L24.6528 7.21103L25.4677 7.68145Z" fill="white"/>
<path d="M12.358 22.7318L0.731795 29.7075V22.7318H12.358ZM29.2682 29.7075L17.642 22.7318H29.2682V29.7075Z" fill="#F69320" stroke="#F69320" stroke-width="1.46359"/>
</svg>
