<svg width="26" height="27" viewBox="0 0 26 27" fill="none" xmlns="http://www.w3.org/2000/svg">
<path d="M0.265625 0H24.0365C24.9742 0 25.7344 0.760183 25.7344 1.69792V18.6771H0.265625V0Z" fill="#F69320"/>
<path d="M6.26172 4.77832V13.3389H4.84961V6.4541L2.75781 7.16309V5.99707L6.0918 4.77832H6.26172ZM15.1035 10.2979V11.4229H8.95117L8.9043 10.5732L12.584 4.80762H13.7148L12.4902 6.90527L10.375 10.2979H15.1035ZM14.0371 4.80762V13.3389H12.625V4.80762H14.0371ZM15.9883 6.89941V6.44824C15.9883 6.12402 16.0586 5.8291 16.1992 5.56348C16.3398 5.29785 16.5449 5.08496 16.8145 4.9248C17.084 4.76465 17.4082 4.68457 17.7871 4.68457C18.1777 4.68457 18.5059 4.76465 18.7715 4.9248C19.041 5.08496 19.2461 5.29785 19.3867 5.56348C19.5273 5.8291 19.5977 6.12402 19.5977 6.44824V6.89941C19.5977 7.21582 19.5273 7.50684 19.3867 7.77246C19.25 8.03809 19.0469 8.25098 18.7773 8.41113C18.5117 8.57129 18.1855 8.65137 17.7988 8.65137C17.416 8.65137 17.0879 8.57129 16.8145 8.41113C16.5449 8.25098 16.3398 8.03809 16.1992 7.77246C16.0586 7.50684 15.9883 7.21582 15.9883 6.89941ZM16.9668 6.44824V6.89941C16.9668 7.05566 16.9961 7.2041 17.0547 7.34473C17.1172 7.48535 17.2109 7.59863 17.3359 7.68457C17.4609 7.77051 17.6152 7.81348 17.7988 7.81348C17.9863 7.81348 18.1387 7.77051 18.2559 7.68457C18.377 7.59863 18.4668 7.48535 18.5254 7.34473C18.584 7.2041 18.6133 7.05566 18.6133 6.89941V6.44824C18.6133 6.28809 18.582 6.1377 18.5195 5.99707C18.4609 5.85254 18.3711 5.7373 18.25 5.65137C18.1289 5.56543 17.9746 5.52246 17.7871 5.52246C17.6074 5.52246 17.4551 5.56543 17.3301 5.65137C17.209 5.7373 17.1172 5.85254 17.0547 5.99707C16.9961 6.1377 16.9668 6.28809 16.9668 6.44824ZM20.1016 11.7041V11.2471C20.1016 10.9268 20.1719 10.6338 20.3125 10.3682C20.457 10.1025 20.6641 9.88965 20.9336 9.72949C21.2031 9.56934 21.5273 9.48926 21.9062 9.48926C22.2969 9.48926 22.625 9.56934 22.8906 9.72949C23.1602 9.88965 23.3633 10.1025 23.5 10.3682C23.6406 10.6338 23.7109 10.9268 23.7109 11.2471V11.7041C23.7109 12.0244 23.6406 12.3174 23.5 12.583C23.3633 12.8486 23.1621 13.0615 22.8965 13.2217C22.6309 13.3818 22.3066 13.4619 21.9238 13.4619C21.5371 13.4619 21.207 13.3818 20.9336 13.2217C20.6641 13.0615 20.457 12.8486 20.3125 12.583C20.1719 12.3174 20.1016 12.0244 20.1016 11.7041ZM21.0859 11.2471V11.7041C21.0859 11.8604 21.1172 12.0088 21.1797 12.1494C21.2461 12.29 21.3418 12.4053 21.4668 12.4951C21.5918 12.5811 21.7422 12.624 21.918 12.624C22.1172 12.624 22.2773 12.5811 22.3984 12.4951C22.5195 12.4053 22.6055 12.292 22.6562 12.1553C22.7109 12.0146 22.7383 11.8643 22.7383 11.7041V11.2471C22.7383 11.0869 22.707 10.9365 22.6445 10.7959C22.5859 10.6553 22.4941 10.542 22.3691 10.4561C22.248 10.3701 22.0938 10.3271 21.9062 10.3271C21.7227 10.3271 21.5703 10.3701 21.4492 10.4561C21.3281 10.542 21.2363 10.6553 21.1738 10.7959C21.1152 10.9365 21.0859 11.0869 21.0859 11.2471ZM22.2578 6.02637L18.0918 12.6943L17.3711 12.2783L21.5371 5.61035L22.2578 6.02637Z" fill="white"/>
<path d="M10.757 19.298L0.886889 25.2201V19.298H10.757ZM25.1131 25.2201L15.243 19.298H25.1131V25.2201Z" fill="#F69320" stroke="#F69320" stroke-width="1.24253"/>
</svg>
