<svg width="30" height="30" viewBox="0 0 30 30" fill="none" xmlns="http://www.w3.org/2000/svg">
<path d="M29.25 19.2188H28.5V14.4683C28.5 13.9102 28.2609 13.374 27.8391 12.9785L23.1562 8.58838C22.7344 8.19287 22.1625 7.96875 21.5672 7.96875H19.5V5.85938C19.5 4.69482 18.4922 3.75 17.25 3.75H5.25C4.00781 3.75 3 4.69482 3 5.85938V7.96875H0.375C0.16875 7.96875 0 8.12695 0 8.32031V9.02344C0 9.2168 0.16875 9.375 0.375 9.375H13.125C13.3313 9.375 13.5 9.5332 13.5 9.72656V10.4297C13.5 10.623 13.3313 10.7812 13.125 10.7812H1.875C1.66875 10.7812 1.5 10.9395 1.5 11.1328V11.8359C1.5 12.0293 1.66875 12.1875 1.875 12.1875H11.625C11.8313 12.1875 12 12.3457 12 12.5391V13.2422C12 13.4355 11.8313 13.5938 11.625 13.5938H0.375C0.16875 13.5938 0 13.752 0 13.9453V14.6484C0 14.8418 0.16875 15 0.375 15H10.125C10.3313 15 10.5 15.1582 10.5 15.3516V16.0547C10.5 16.248 10.3313 16.4062 10.125 16.4062H3V22.0312C3 24.3604 5.01562 26.25 7.5 26.25C9.98438 26.25 12 24.3604 12 22.0312H18C18 24.3604 20.0156 26.25 22.5 26.25C24.9844 26.25 27 24.3604 27 22.0312H29.25C29.6625 22.0312 30 21.7148 30 21.3281V19.9219C30 19.5352 29.6625 19.2188 29.25 19.2188ZM7.5 24.1406C6.25781 24.1406 5.25 23.1958 5.25 22.0312C5.25 20.8667 6.25781 19.9219 7.5 19.9219C8.74219 19.9219 9.75 20.8667 9.75 22.0312C9.75 23.1958 8.74219 24.1406 7.5 24.1406ZM22.5 24.1406C21.2578 24.1406 20.25 23.1958 20.25 22.0312C20.25 20.8667 21.2578 19.9219 22.5 19.9219C23.7422 19.9219 24.75 20.8667 24.75 22.0312C24.75 23.1958 23.7422 24.1406 22.5 24.1406ZM26.25 15H19.5V10.0781H21.5672L26.25 14.4683V15Z" fill="black"/>
</svg>
