<svg width="20" height="20" viewBox="0 0 20 20" fill="none" xmlns="http://www.w3.org/2000/svg">
<g clip-path="url(#clip0_4604_17256)">
<path d="M18.3331 9.32224C18.5335 9.16842 18.6822 8.95383 18.7583 8.70858C18.8343 8.46332 18.834 8.19968 18.7573 7.95463C18.6806 7.70958 18.5314 7.49541 18.3305 7.34215C18.1297 7.18889 17.8874 7.10422 17.6375 7.10001L12.7846 6.91112C12.7607 6.90943 12.7379 6.90066 12.7187 6.88587C12.6996 6.87109 12.685 6.85092 12.6768 6.82779L10.9998 2.16113C10.9155 1.9237 10.7625 1.71869 10.5614 1.57384C10.3603 1.429 10.1209 1.35132 9.87553 1.35132C9.63017 1.35132 9.39074 1.429 9.18965 1.57384C8.98856 1.71869 8.83553 1.9237 8.75127 2.16113L7.0797 6.84446C7.07144 6.86758 7.05686 6.88775 7.03773 6.90254C7.01859 6.91733 6.99572 6.9261 6.97186 6.92779L2.11892 7.11668C1.86905 7.12089 1.62672 7.20555 1.42591 7.35882C1.22511 7.51208 1.07589 7.72625 0.999187 7.9713C0.922484 8.21635 0.922139 8.47998 0.998203 8.72524C1.07427 8.9705 1.22292 9.18508 1.42333 9.3389L5.23019 12.4222C5.24924 12.4377 5.26348 12.4585 5.27115 12.4822C5.27882 12.5059 5.27957 12.5314 5.27333 12.5556L3.96303 17.3389C3.89514 17.5825 3.90171 17.8417 3.98187 18.0813C4.06203 18.3209 4.21188 18.5292 4.41104 18.6779C4.6102 18.8267 4.84899 18.9086 5.09493 18.9125C5.34087 18.9165 5.58203 18.8423 5.78558 18.7L9.80813 15.9222C9.82795 15.9081 9.85146 15.9006 9.87553 15.9006C9.89961 15.9006 9.92312 15.9081 9.94294 15.9222L13.9655 18.7C14.1663 18.8471 14.4066 18.9262 14.653 18.9262C14.8994 18.9262 15.1397 18.8471 15.3405 18.7C15.5397 18.5527 15.6897 18.3454 15.7698 18.1066C15.85 17.8678 15.8563 17.6093 15.788 17.3667L14.467 12.5667C14.46 12.5426 14.4603 12.5168 14.4681 12.493C14.4758 12.4691 14.4905 12.4483 14.5101 12.4333L18.3331 9.32224Z" fill="#FDD116"/>
<path d="M14.6614 18.889C14.4231 18.8887 14.1903 18.8152 13.9928 18.6779L9.97024 15.9001C9.95042 15.886 9.92691 15.8784 9.90284 15.8784C9.87876 15.8784 9.85525 15.886 9.83543 15.9001L5.81288 18.6779C5.61089 18.8168 5.37265 18.8892 5.12979 18.8853C4.88694 18.8815 4.65096 18.8016 4.4532 18.6564C4.25544 18.5111 4.10525 18.3073 4.02258 18.072C3.9399 17.8367 3.92866 17.581 3.99034 17.339L5.31141 12.539C5.31766 12.5148 5.3169 12.4893 5.30924 12.4656C5.30157 12.4419 5.28733 12.4211 5.26828 12.4056L1.46141 9.3223C1.26101 9.16848 1.11235 8.9539 1.03629 8.70864C0.960225 8.46338 0.960569 8.19974 1.03727 7.9547C1.11398 7.70965 1.26319 7.49548 1.464 7.34222C1.66481 7.18895 1.90713 7.10428 2.157 7.10008L7.00994 6.91119C7.0338 6.90949 7.05668 6.90072 7.07581 6.88594C7.09495 6.87115 7.10952 6.85098 7.11779 6.82786L8.78935 2.14452C8.87361 1.9071 9.02665 1.70209 9.22774 1.55724C9.42883 1.4124 9.66826 1.33472 9.91362 1.33472C10.159 1.33472 10.3984 1.4124 10.5995 1.55724C10.8006 1.70209 10.9536 1.9071 11.0379 2.14452L12.7095 6.82786C12.7177 6.85098 12.7323 6.87115 12.7514 6.88594C12.7706 6.90072 12.7934 6.90949 12.8173 6.91119L17.6702 7.10008C17.9201 7.10428 18.1624 7.18895 18.3632 7.34222C18.564 7.49548 18.7133 7.70965 18.79 7.9547C18.8667 8.19974 18.867 8.46338 18.791 8.70864C18.7149 8.9539 18.5662 9.16848 18.3658 9.3223L14.559 12.4056C14.5393 12.4206 14.5247 12.4414 14.5169 12.4653C14.5092 12.4891 14.5088 12.5149 14.5158 12.539L15.8369 17.339C15.8833 17.5231 15.8879 17.7157 15.8503 17.902C15.8128 18.0882 15.7342 18.263 15.6205 18.4129C15.5068 18.5628 15.3612 18.6837 15.1949 18.7663C15.0286 18.8488 14.846 18.8908 14.6614 18.889ZM9.90553 14.7667C10.1443 14.7743 10.3754 14.8556 10.5688 15.0001L14.5913 17.7779C14.6117 17.7938 14.6366 17.8026 14.6622 17.8028C14.6878 17.803 14.7127 17.7946 14.7334 17.779C14.754 17.7634 14.7692 17.7413 14.7766 17.7161C14.784 17.6908 14.7834 17.6638 14.7746 17.639L13.4536 12.839C13.3886 12.6035 13.3934 12.3534 13.4673 12.1208C13.5413 11.8881 13.6811 11.6836 13.8688 11.5334L17.6756 8.45008C17.6964 8.43505 17.7119 8.41356 17.72 8.38876C17.728 8.36395 17.7281 8.33715 17.7203 8.31229C17.7124 8.28742 17.697 8.2658 17.6764 8.2506C17.6557 8.23541 17.6309 8.22744 17.6055 8.22786L12.7526 8.03897C12.515 8.02942 12.2855 7.94718 12.0934 7.80272C11.9013 7.65826 11.7554 7.45813 11.6742 7.22786L10.0026 2.54452C9.99505 2.51966 9.98 2.49792 9.95963 2.48249C9.93926 2.46705 9.91464 2.45873 9.88936 2.45873C9.86407 2.45873 9.83945 2.46705 9.81908 2.48249C9.79871 2.49792 9.78366 2.51966 9.77612 2.54452L8.12073 7.2223C8.0395 7.45257 7.89354 7.6527 7.70147 7.79716C7.5094 7.94162 7.27992 8.02387 7.0423 8.03341L2.18936 8.2223C2.16398 8.22188 2.13915 8.22985 2.11849 8.24505C2.09784 8.26025 2.08247 8.28186 2.07462 8.30673C2.06678 8.3316 2.06688 8.3584 2.07492 8.3832C2.08295 8.408 2.09849 8.4295 2.11926 8.44452L5.93151 11.5334C6.11859 11.6841 6.25795 11.8886 6.33189 12.1211C6.40582 12.3536 6.41098 12.6035 6.34671 12.839L5.03102 17.639C5.02317 17.663 5.02313 17.689 5.03092 17.7131C5.0387 17.7371 5.05388 17.7579 5.07416 17.7723C5.09369 17.7895 5.11855 17.799 5.14426 17.799C5.16996 17.799 5.19482 17.7895 5.21436 17.7723L9.2369 14.9945C9.43349 14.8602 9.66423 14.7887 9.90014 14.789L9.90553 14.7667Z" fill="#FDB600"/>
</g>
<defs>
<clipPath id="clip0_4604_17256">
<rect width="19.4118" height="20" fill="white"/>
</clipPath>
</defs>
</svg>
