<svg width="44" height="44" viewBox="0 0 44 44" fill="none" xmlns="http://www.w3.org/2000/svg">
<path opacity="0.5" d="M28.0006 34.3346C25.561 34.335 23.1761 33.6119 21.1475 32.2569C19.1189 30.9018 17.5376 28.9756 16.6037 26.7219C15.6698 24.4682 15.4251 21.9881 15.9007 19.5954C16.3763 17.2026 17.5507 15.0046 19.2755 13.2793C21.0003 11.554 23.1979 10.3789 25.5906 9.90265C27.9832 9.42636 30.4633 9.67026 32.7173 10.6035C34.9713 11.5368 36.898 13.1174 38.2536 15.1457C39.6093 17.1739 40.333 19.5586 40.3334 21.9981V22C40.33 25.27 39.0296 28.4051 36.7176 30.7175C34.4055 33.0299 31.2706 34.3307 28.0006 34.3346Z" fill="#FF9900" fill-opacity="0.5"/>
<path d="M15.9997 34.3346C13.5601 34.3346 11.1754 33.6112 9.14694 32.2559C7.11851 30.9005 5.53755 28.9741 4.60397 26.7202C3.67038 24.4664 3.42612 21.9863 3.90205 19.5936C4.37799 17.2009 5.55275 15.0031 7.27778 13.278C9.00282 11.553 11.2006 10.3782 13.5933 9.9023C15.986 9.42636 18.4661 9.67063 20.72 10.6042C22.9738 11.5378 24.9003 13.1188 26.2556 15.1472C27.611 17.1756 28.3344 19.5604 28.3344 22C28.331 25.2703 27.0303 28.4057 24.7179 30.7181C22.4054 33.0306 19.27 34.3312 15.9997 34.3346Z" fill="#CC0000" fill-opacity="0.5"/>
</svg>
