<svg width="50" height="16" viewBox="0 0 50 16" fill="none" xmlns="http://www.w3.org/2000/svg">
<path d="M35.9694 1.19947C34.8459 0.790111 33.6584 0.584692 32.4628 0.592887C28.5961 0.592887 25.8653 2.54072 25.8459 5.3368C25.8218 7.39097 27.7865 8.54855 29.2728 9.23489C30.7977 9.94055 31.3076 10.3852 31.3028 11.016C31.2931 11.9754 30.0848 12.4104 28.961 12.4104C27.4168 12.4104 26.5734 12.1953 25.2756 11.6564L24.7947 11.4316L24.2461 14.6506C25.1862 15.0421 26.8803 15.3781 28.6299 15.4071C32.7407 15.4071 35.428 13.4713 35.4594 10.4964C35.4933 8.85547 34.4299 7.61572 32.1921 6.59105C30.8315 5.92647 29.9881 5.4818 29.9881 4.80755C29.9881 4.21064 30.7107 3.57264 32.2211 3.57264C33.2263 3.54832 34.2254 3.73692 35.1525 4.12605L35.515 4.28797L36.0636 1.17772L35.9694 1.19947ZM46.0034 0.853887H42.9825C42.0424 0.853887 41.3344 1.11247 40.9235 2.0453L35.1139 15.2065H39.2246L40.0463 13.0484L45.0633 13.0532C45.1817 13.5583 45.5442 15.2065 45.5442 15.2065H49.1692L46.0034 0.853887ZM20.2852 0.733053H24.2026L21.7521 15.0929H17.8395L20.2852 0.72822V0.733053ZM10.3406 8.64764L10.7466 10.6414L14.5746 0.853887H18.724L12.5591 15.1871H8.41936L5.03603 3.05064C4.98123 2.85052 4.85254 2.67864 4.67595 2.56972C3.4565 1.93979 2.16441 1.46175 0.828613 1.1463L0.88178 0.844218H7.18686C8.04236 0.878052 8.73111 1.1463 8.9607 2.0598L10.3382 8.65489V8.64764H10.3406ZM41.17 10.1121L42.7312 6.09564C42.7119 6.13914 43.0526 5.26672 43.2508 4.7278L43.519 5.96755L44.4253 10.1097H41.1676V10.1121H41.17Z" fill="#0057A0"/>
</svg>
