<svg width="19" height="13" viewBox="0 0 19 13" fill="none" xmlns="http://www.w3.org/2000/svg">
<path d="M18.525 8.9375H18.05V6.19277C18.05 5.87031 17.8986 5.56055 17.6314 5.33203L14.6656 2.79551C14.3984 2.56699 14.0363 2.4375 13.6592 2.4375H12.35V1.21875C12.35 0.545898 11.7117 0 10.925 0H3.325C2.53828 0 1.9 0.545898 1.9 1.21875V2.4375H0.2375C0.106875 2.4375 0 2.52891 0 2.64062V3.04687C0 3.15859 0.106875 3.25 0.2375 3.25H8.3125C8.44312 3.25 8.55 3.34141 8.55 3.45312V3.85937C8.55 3.97109 8.44312 4.0625 8.3125 4.0625H1.1875C1.05687 4.0625 0.95 4.15391 0.95 4.26562V4.67188C0.95 4.78359 1.05687 4.875 1.1875 4.875H7.3625C7.49312 4.875 7.6 4.96641 7.6 5.07812V5.48437C7.6 5.59609 7.49312 5.6875 7.3625 5.6875H0.2375C0.106875 5.6875 0 5.77891 0 5.89062V6.29687C0 6.40859 0.106875 6.5 0.2375 6.5H6.4125C6.54313 6.5 6.65 6.59141 6.65 6.70312V7.10937C6.65 7.22109 6.54313 7.3125 6.4125 7.3125H1.9V10.5625C1.9 11.9082 3.17656 13 4.75 13C6.32344 13 7.6 11.9082 7.6 10.5625H11.4C11.4 11.9082 12.6766 13 14.25 13C15.8234 13 17.1 11.9082 17.1 10.5625H18.525C18.7863 10.5625 19 10.3797 19 10.1562V9.34375C19 9.12031 18.7863 8.9375 18.525 8.9375ZM4.75 11.7812C3.96328 11.7812 3.325 11.2354 3.325 10.5625C3.325 9.88965 3.96328 9.34375 4.75 9.34375C5.53672 9.34375 6.175 9.88965 6.175 10.5625C6.175 11.2354 5.53672 11.7812 4.75 11.7812ZM14.25 11.7812C13.4633 11.7812 12.825 11.2354 12.825 10.5625C12.825 9.88965 13.4633 9.34375 14.25 9.34375C15.0367 9.34375 15.675 9.88965 15.675 10.5625C15.675 11.2354 15.0367 11.7812 14.25 11.7812ZM16.625 6.5H12.35V3.65625H13.6592L16.625 6.19277V6.5Z" fill="#28BBA2"/>
</svg>
