<svg width="16" height="14" viewBox="0 0 16 14" fill="none" xmlns="http://www.w3.org/2000/svg">
<path d="M2 5.63574V11.6357C2 11.9894 2.14048 12.3285 2.39052 12.5786C2.64057 12.8286 2.97971 12.9691 3.33333 12.9691H12.6667C13.0203 12.9691 13.3594 12.8286 13.6095 12.5786C13.8595 12.3285 14 11.9894 14 11.6357V5.63574" stroke="#2E9DFF" stroke-width="1.5"/>
<path d="M9.88867 12.9691V8.96908C9.88867 8.61545 9.7482 8.27632 9.49815 8.02627C9.2481 7.77622 8.90896 7.63574 8.55534 7.63574H7.22201C6.86838 7.63574 6.52924 7.77622 6.2792 8.02627C6.02915 8.27632 5.88867 8.61545 5.88867 8.96908V12.9691" stroke="#2E9DFF" stroke-width="1.5" stroke-miterlimit="16"/>
<path d="M14.545 5.21178L13.4157 1.25912C13.3918 1.17555 13.3413 1.10204 13.2719 1.04972C13.2025 0.99739 13.1179 0.969097 13.031 0.969116H10.333L10.6497 4.77178C10.6545 4.83293 10.6738 4.89205 10.706 4.94423C10.7382 4.99641 10.7825 5.04014 10.835 5.07178C11.095 5.22712 11.603 5.51378 11.9997 5.63578C12.677 5.84445 13.6663 5.76912 14.2303 5.69978C14.2852 5.69269 14.3378 5.67373 14.3845 5.6442C14.4313 5.61468 14.471 5.57531 14.501 5.52885C14.5309 5.48238 14.5504 5.42994 14.558 5.37518C14.5656 5.32041 14.5612 5.26465 14.545 5.21178Z" stroke="#2E9DFF" stroke-width="1.5"/>
<path d="M9.3332 5.63578C9.71187 5.51912 10.1919 5.25312 10.4599 5.09445C10.5223 5.05727 10.573 5.00317 10.6061 4.9384C10.6391 4.87364 10.6531 4.80085 10.6465 4.72845L10.3332 0.969116H5.66654L5.3532 4.72845C5.34649 4.80096 5.36046 4.87389 5.3935 4.93878C5.42654 5.00368 5.47729 5.05788 5.53987 5.09512C5.80787 5.25312 6.28787 5.51912 6.66654 5.63578C7.66187 5.94245 8.33787 5.94245 9.3332 5.63578V5.63578Z" stroke="#2E9DFF" stroke-width="1.5"/>
<path d="M2.58403 1.25912L1.4547 5.21245C1.43876 5.26524 1.4345 5.32086 1.44221 5.37546C1.44993 5.43006 1.46943 5.48232 1.49937 5.52863C1.52931 5.57493 1.56897 5.61417 1.61559 5.64361C1.66222 5.67305 1.71469 5.69199 1.76937 5.69912C2.3327 5.76912 3.3227 5.84378 4.00004 5.63578C4.3967 5.51378 4.90537 5.22712 5.1647 5.07245C5.21733 5.04074 5.26161 4.9969 5.29385 4.9446C5.32609 4.8923 5.34535 4.83304 5.35003 4.77178L5.6667 0.969116H2.9687C2.88178 0.969097 2.79722 0.99739 2.72782 1.04972C2.65841 1.10204 2.60794 1.17555 2.58403 1.25912V1.25912Z" stroke="#2E9DFF" stroke-width="1.5"/>
</svg>
