<svg width="80" height="80" viewBox="0 0 80 80" fill="none" xmlns="http://www.w3.org/2000/svg">
<circle cx="40" cy="40" r="39" stroke="#E60A32" stroke-width="2"/>
<circle cx="39.9997" cy="40.0002" r="28.2927" fill="#F0F0F0"/>
<path d="M38 33.5H42C42 32.9696 41.7893 32.4609 41.4142 32.0858C41.0391 31.7107 40.5304 31.5 40 31.5C39.4696 31.5 38.9609 31.7107 38.5858 32.0858C38.2107 32.4609 38 32.9696 38 33.5ZM36.5 33.5C36.5 33.0404 36.5905 32.5852 36.7664 32.1606C36.9423 31.736 37.2001 31.3501 37.5251 31.0251C37.8501 30.7001 38.236 30.4423 38.6606 30.2664C39.0852 30.0905 39.5404 30 40 30C40.4596 30 40.9148 30.0905 41.3394 30.2664C41.764 30.4423 42.1499 30.7001 42.4749 31.0251C42.7999 31.3501 43.0577 31.736 43.2336 32.1606C43.4095 32.5852 43.5 33.0404 43.5 33.5H49.25C49.4489 33.5 49.6397 33.579 49.7803 33.7197C49.921 33.8603 50 34.0511 50 34.25C50 34.4489 49.921 34.6397 49.7803 34.7803C49.6397 34.921 49.4489 35 49.25 35H47.93L46.76 47.111C46.6702 48.039 46.238 48.9002 45.5477 49.5268C44.8573 50.1534 43.9583 50.5004 43.026 50.5H36.974C36.0419 50.5001 35.1431 50.153 34.4529 49.5265C33.7628 48.8999 33.3307 48.0388 33.241 47.111L32.07 35H30.75C30.5511 35 30.3603 34.921 30.2197 34.7803C30.079 34.6397 30 34.4489 30 34.25C30 34.0511 30.079 33.8603 30.2197 33.7197C30.3603 33.579 30.5511 33.5 30.75 33.5H36.5ZM38.5 38.25C38.5 38.0511 38.421 37.8603 38.2803 37.7197C38.1397 37.579 37.9489 37.5 37.75 37.5C37.5511 37.5 37.3603 37.579 37.2197 37.7197C37.079 37.8603 37 38.0511 37 38.25V45.75C37 45.9489 37.079 46.1397 37.2197 46.2803C37.3603 46.421 37.5511 46.5 37.75 46.5C37.9489 46.5 38.1397 46.421 38.2803 46.2803C38.421 46.1397 38.5 45.9489 38.5 45.75V38.25ZM42.25 37.5C42.4489 37.5 42.6397 37.579 42.7803 37.7197C42.921 37.8603 43 38.0511 43 38.25V45.75C43 45.9489 42.921 46.1397 42.7803 46.2803C42.6397 46.421 42.4489 46.5 42.25 46.5C42.0511 46.5 41.8603 46.421 41.7197 46.2803C41.579 46.1397 41.5 45.9489 41.5 45.75V38.25C41.5 38.0511 41.579 37.8603 41.7197 37.7197C41.8603 37.579 42.0511 37.5 42.25 37.5ZM34.734 46.967C34.7879 47.5236 35.0472 48.0403 35.4614 48.4161C35.8755 48.792 36.4147 49.0001 36.974 49H43.026C43.5853 49.0001 44.1245 48.792 44.5386 48.4161C44.9528 48.0403 45.2121 47.5236 45.266 46.967L46.424 35H33.576L34.734 46.967Z" fill="#EC0800"/>
</svg>
