<svg width="17" height="17" viewBox="0 0 17 17" fill="none" xmlns="http://www.w3.org/2000/svg">
<path d="M10.9788 1.41669H6.09134C5.80801 1.41669 5.52467 1.55835 5.31217 1.77085C5.09967 1.98335 4.95801 2.26669 4.95801 2.55002V11.6167C4.95801 11.9 5.09967 12.1834 5.31217 12.3959C5.52467 12.6084 5.80801 12.75 6.09134 12.75H13.033C13.3163 12.75 13.5997 12.6084 13.8122 12.3959C14.0247 12.1834 14.1663 11.9 14.1663 11.6167V4.60419L10.9788 1.41669Z" stroke="#29AB56" stroke-width="1.4" stroke-linecap="round" stroke-linejoin="round"/>
<path d="M2.125 5.38336V14.45C2.125 14.7334 2.26667 15.0167 2.47917 15.2292C2.69167 15.4417 2.975 15.5834 3.25833 15.5834H10.2" stroke="#29AB56" stroke-width="1.4" stroke-linecap="round" stroke-linejoin="round"/>
<path d="M10.625 1.41669V4.95835H14.1667" stroke="#29AB56" stroke-width="1.4" stroke-linecap="round" stroke-linejoin="round"/>
</svg>
