<svg width="11" height="12" viewBox="0 0 11 12" fill="none" xmlns="http://www.w3.org/2000/svg">
<path d="M0 8.14876C0 8.60055 0.0649926 9.02479 0.194978 9.42149C0.328574 9.81451 0.51272 10.1616 0.747415 10.4628C0.982111 10.764 1.25111 10.9991 1.55441 11.168C1.85771 11.337 2.18086 11.4215 2.52388 11.4215H4.27326C4.61267 11.6015 4.98638 11.7429 5.39439 11.8457C5.80601 11.9486 6.2411 12 6.69966 12H7.43624C7.77203 12 8.07533 11.989 8.34614 11.9669C8.62055 11.9449 8.84983 11.91 9.03397 11.8623C9.37699 11.7741 9.64779 11.6198 9.84638 11.3994C10.045 11.1791 10.1443 10.9146 10.1443 10.6061C10.1443 10.4591 10.1154 10.314 10.0576 10.1708C10.249 10.0459 10.397 9.88797 10.5017 9.69697C10.6064 9.50597 10.6588 9.30027 10.6588 9.07989C10.6588 8.82277 10.6082 8.60606 10.5071 8.42975C10.6371 8.31956 10.74 8.17631 10.8159 8C10.8917 7.82002 10.9296 7.63085 10.9296 7.43251C10.9296 7.2966 10.9115 7.16437 10.8754 7.03581C10.8393 6.90358 10.7906 6.79155 10.7292 6.69972C10.9097 6.48668 11 6.20753 11 5.86226C11 5.61249 10.9422 5.38659 10.8267 5.18457C10.7111 4.98255 10.5541 4.82277 10.3555 4.70523C10.1605 4.58402 9.94206 4.52342 9.70015 4.52342H7.71246C7.60414 4.52342 7.51567 4.49954 7.44707 4.45179C7.38208 4.40037 7.34958 4.33058 7.34958 4.24242C7.34958 4.08448 7.39472 3.88797 7.48498 3.65289C7.57886 3.41414 7.68538 3.15519 7.80453 2.87603C7.92729 2.59688 8.03381 2.31221 8.12408 2.02204C8.21795 1.72819 8.26489 1.4472 8.26489 1.17906C8.26489 0.951331 8.21615 0.749311 8.11866 0.573003C8.02117 0.393021 7.88938 0.253444 7.72329 0.15427C7.5572 0.0514233 7.36583 0 7.14919 0C6.90727 0 6.70146 0.0697888 6.53176 0.209366C6.36205 0.345271 6.19596 0.571166 6.03348 0.887052C5.86739 1.21396 5.69588 1.52433 5.51896 1.81818C5.34564 2.11203 5.15428 2.40955 4.94485 2.71074C4.73904 3.00826 4.50615 3.3315 4.24618 3.68044C3.98621 4.02938 3.68653 4.42057 3.34712 4.85399H2.32349C2.00574 4.85399 1.70606 4.93848 1.42442 5.10744C1.14279 5.2764 0.895454 5.51148 0.682422 5.81267C0.469391 6.11387 0.301494 6.46465 0.17873 6.86501C0.0595766 7.26171 0 7.68962 0 8.14876ZM2.89217 8.13774C2.89217 7.74105 2.92467 7.38476 2.98966 7.06887C3.05465 6.74931 3.15936 6.44077 3.30379 6.14325C3.44822 5.84206 3.6432 5.52617 3.88872 5.19559C4.15592 4.83196 4.44838 4.44261 4.76613 4.02755C5.08387 3.61249 5.40161 3.16988 5.71935 2.69972C6.0407 2.2259 6.33497 1.71901 6.60217 1.17906C6.70688 0.966024 6.80076 0.82461 6.8838 0.754821C6.96685 0.681359 7.06253 0.644628 7.17085 0.644628C7.31167 0.644628 7.4236 0.692378 7.50665 0.787879C7.58969 0.879706 7.63122 1.0101 7.63122 1.17906C7.63122 1.40312 7.58428 1.64922 7.4904 1.91736C7.40013 2.18182 7.29542 2.45363 7.17627 2.73278C7.05711 3.01194 6.9506 3.28191 6.85672 3.5427C6.76645 3.80349 6.72132 4.03673 6.72132 4.24242C6.72132 4.52893 6.82422 4.75482 7.03003 4.92011C7.23584 5.0854 7.4904 5.16804 7.7937 5.16804H9.70015C9.8879 5.16804 10.045 5.236 10.1713 5.3719C10.3013 5.50413 10.3663 5.66758 10.3663 5.86226C10.3663 6.10836 10.2779 6.31405 10.1009 6.47934C10.0432 6.53444 10.0107 6.5932 10.0034 6.65565C9.99984 6.71442 10.0233 6.77135 10.0739 6.82645C10.1497 6.92929 10.2056 7.02847 10.2418 7.12397C10.2779 7.21947 10.2959 7.32231 10.2959 7.43251C10.2959 7.56841 10.2652 7.69513 10.2038 7.81267C10.1461 7.92654 10.0594 8.02571 9.94387 8.11019C9.87527 8.15794 9.83013 8.21671 9.80847 8.2865C9.7868 8.35262 9.79764 8.42975 9.84097 8.51791C9.90235 8.62443 9.94748 8.71993 9.97637 8.80441C10.0089 8.88522 10.0251 8.97704 10.0251 9.07989C10.0251 9.38108 9.84097 9.62351 9.47267 9.80716C9.41129 9.84022 9.37157 9.8843 9.35352 9.93939C9.33547 9.99082 9.34269 10.0514 9.37519 10.1212C9.43296 10.2534 9.47087 10.3489 9.48892 10.4077C9.50698 10.4702 9.516 10.5363 9.516 10.6061C9.516 10.7567 9.46184 10.8871 9.35352 10.9972C9.2452 11.1074 9.08813 11.1882 8.88232 11.2397C8.72706 11.2801 8.52486 11.3095 8.27573 11.3278C8.0302 11.3499 7.75217 11.359 7.44165 11.3554L6.70507 11.3444C5.95044 11.3407 5.28607 11.2011 4.71196 10.9256C4.13786 10.6538 3.69014 10.2792 3.36878 9.80165C3.05104 9.32048 2.89217 8.76584 2.89217 8.13774ZM0.633678 8.14876C0.633678 7.65657 0.711308 7.21028 0.866568 6.80992C1.02544 6.40588 1.23305 6.08632 1.48941 5.85124C1.74938 5.61249 2.02741 5.49311 2.32349 5.49311C2.42459 5.49311 2.52569 5.49311 2.62678 5.49311C2.72788 5.49311 2.82898 5.49311 2.93008 5.49311C2.69178 5.90083 2.52027 6.31589 2.41556 6.73829C2.31085 7.15702 2.25849 7.61983 2.25849 8.12672C2.25849 8.66667 2.35959 9.16253 2.56179 9.61432C2.76399 10.0624 3.04924 10.4518 3.41753 10.7824C3.26949 10.7824 3.12145 10.7824 2.97341 10.7824C2.82537 10.7824 2.67553 10.7824 2.52388 10.7824C2.1917 10.7824 1.88118 10.663 1.59232 10.4242C1.30346 10.1855 1.07057 9.86777 0.893648 9.47107C0.720335 9.07438 0.633678 8.63361 0.633678 8.14876Z" fill="#0066CC"/>
</svg>
