<svg width="30" height="24" viewBox="0 0 30 24" fill="none" xmlns="http://www.w3.org/2000/svg">
<path d="M29.25 16.2188H28.5V11.4683C28.5 10.9102 28.2609 10.374 27.8391 9.97852L23.1562 5.58838C22.7344 5.19287 22.1625 4.96875 21.5672 4.96875H19.5V2.85938C19.5 1.69482 18.4922 0.75 17.25 0.75H5.25C4.00781 0.75 3 1.69482 3 2.85938V4.96875H0.375C0.16875 4.96875 0 5.12695 0 5.32031V6.02344C0 6.2168 0.16875 6.375 0.375 6.375H13.125C13.3313 6.375 13.5 6.5332 13.5 6.72656V7.42969C13.5 7.62305 13.3313 7.78125 13.125 7.78125H1.875C1.66875 7.78125 1.5 7.93945 1.5 8.13281V8.83594C1.5 9.0293 1.66875 9.1875 1.875 9.1875H11.625C11.8313 9.1875 12 9.3457 12 9.53906V10.2422C12 10.4355 11.8313 10.5938 11.625 10.5938H0.375C0.16875 10.5938 0 10.752 0 10.9453V11.6484C0 11.8418 0.16875 12 0.375 12H10.125C10.3313 12 10.5 12.1582 10.5 12.3516V13.0547C10.5 13.248 10.3313 13.4062 10.125 13.4062H3V19.0312C3 21.3604 5.01562 23.25 7.5 23.25C9.98438 23.25 12 21.3604 12 19.0312H18C18 21.3604 20.0156 23.25 22.5 23.25C24.9844 23.25 27 21.3604 27 19.0312H29.25C29.6625 19.0312 30 18.7148 30 18.3281V16.9219C30 16.5352 29.6625 16.2188 29.25 16.2188ZM7.5 21.1406C6.25781 21.1406 5.25 20.1958 5.25 19.0312C5.25 17.8667 6.25781 16.9219 7.5 16.9219C8.74219 16.9219 9.75 17.8667 9.75 19.0312C9.75 20.1958 8.74219 21.1406 7.5 21.1406ZM22.5 21.1406C21.2578 21.1406 20.25 20.1958 20.25 19.0312C20.25 17.8667 21.2578 16.9219 22.5 16.9219C23.7422 16.9219 24.75 17.8667 24.75 19.0312C24.75 20.1958 23.7422 21.1406 22.5 21.1406ZM26.25 12H19.5V7.07812H21.5672L26.25 11.4683V12Z" fill="black"/>
</svg>
