<svg width="26" height="18" viewBox="0 0 26 18" fill="none" xmlns="http://www.w3.org/2000/svg">
<path d="M25.35 12.375H24.7V8.57461C24.7 8.12812 24.4928 7.69922 24.1272 7.38281L20.0688 3.8707C19.7031 3.5543 19.2075 3.375 18.6916 3.375H16.9V1.6875C16.9 0.755859 16.0266 0 14.95 0H4.55C3.47344 0 2.6 0.755859 2.6 1.6875V3.375H0.325C0.14625 3.375 0 3.50156 0 3.65625V4.21875C0 4.37344 0.14625 4.5 0.325 4.5H11.375C11.5538 4.5 11.7 4.62656 11.7 4.78125V5.34375C11.7 5.49844 11.5538 5.625 11.375 5.625H1.625C1.44625 5.625 1.3 5.75156 1.3 5.90625V6.46875C1.3 6.62344 1.44625 6.75 1.625 6.75H10.075C10.2537 6.75 10.4 6.87656 10.4 7.03125V7.59375C10.4 7.74844 10.2537 7.875 10.075 7.875H0.325C0.14625 7.875 0 8.00156 0 8.15625V8.71875C0 8.87344 0.14625 9 0.325 9H8.775C8.95375 9 9.1 9.12656 9.1 9.28125V9.84375C9.1 9.99844 8.95375 10.125 8.775 10.125H2.6V14.625C2.6 16.4883 4.34687 18 6.5 18C8.65312 18 10.4 16.4883 10.4 14.625H15.6C15.6 16.4883 17.3469 18 19.5 18C21.6531 18 23.4 16.4883 23.4 14.625H25.35C25.7075 14.625 26 14.3719 26 14.0625V12.9375C26 12.6281 25.7075 12.375 25.35 12.375ZM6.5 16.3125C5.42344 16.3125 4.55 15.5566 4.55 14.625C4.55 13.6934 5.42344 12.9375 6.5 12.9375C7.57656 12.9375 8.45 13.6934 8.45 14.625C8.45 15.5566 7.57656 16.3125 6.5 16.3125ZM19.5 16.3125C18.4234 16.3125 17.55 15.5566 17.55 14.625C17.55 13.6934 18.4234 12.9375 19.5 12.9375C20.5766 12.9375 21.45 13.6934 21.45 14.625C21.45 15.5566 20.5766 16.3125 19.5 16.3125ZM22.75 9H16.9V5.0625H18.6916L22.75 8.57461V9Z" fill="#28BBA2"/>
</svg>
