<svg width="47" height="47" viewBox="0 0 47 47" fill="none" xmlns="http://www.w3.org/2000/svg">
<rect width="47" height="47" rx="10" fill="url(#paint0_linear_933_16707)"/>
<path d="M7.67203 14.58C8.6587 14.58 9.51536 14.9367 10.242 15.65C10.9687 16.3633 11.332 17.25 11.332 18.31C11.332 19.3633 10.9854 20.2633 10.292 21.01C9.5987 21.75 8.74537 22.12 7.73203 22.12C6.7187 22.12 5.85536 21.7533 5.14203 21.02C4.43536 20.2867 4.08203 19.4133 4.08203 18.4C4.08203 17.8467 4.18203 17.33 4.38203 16.85C4.58203 16.3633 4.8487 15.9567 5.18203 15.63C5.51536 15.3033 5.8987 15.0467 6.33203 14.86C6.76536 14.6733 7.21203 14.58 7.67203 14.58ZM5.85203 18.35C5.85203 18.9433 6.04203 19.4267 6.42203 19.8C6.8087 20.1667 7.2387 20.35 7.71203 20.35C8.18536 20.35 8.61203 20.17 8.99203 19.81C9.37203 19.45 9.56203 18.9667 9.56203 18.36C9.56203 17.7533 9.3687 17.2667 8.98203 16.9C8.60203 16.5333 8.17536 16.35 7.70203 16.35C7.2287 16.35 6.80203 16.5367 6.42203 16.91C6.04203 17.2767 5.85203 17.7567 5.85203 18.35ZM13.7059 17.43C14.0193 16.9567 14.3959 16.72 14.8359 16.72C15.5159 16.72 16.0226 17.01 16.3559 17.59C16.4293 17.49 16.5159 17.3867 16.6159 17.28C16.7226 17.1667 16.8893 17.0467 17.1159 16.92C17.3426 16.7867 17.5759 16.72 17.8159 16.72C18.3493 16.72 18.7959 16.9267 19.1559 17.34C19.5159 17.7467 19.6959 18.4233 19.6959 19.37V21.12C19.6959 21.2733 19.6893 21.39 19.6759 21.47C19.6693 21.5433 19.6393 21.63 19.5859 21.73C19.4993 21.91 19.2426 22 18.8159 22C18.3959 22 18.1393 21.9067 18.0459 21.72C17.9993 21.62 17.9693 21.5333 17.9559 21.46C17.9493 21.38 17.9459 21.2633 17.9459 21.11V19.36C17.9459 18.78 17.7393 18.49 17.3259 18.49C17.0926 18.49 16.9326 18.5667 16.8459 18.72C16.7659 18.8733 16.7259 19.09 16.7259 19.37V21.12C16.7259 21.28 16.7193 21.3967 16.7059 21.47C16.6993 21.5433 16.6693 21.63 16.6159 21.73C16.5226 21.91 16.2626 22 15.8359 22C15.4159 22 15.1593 21.9067 15.0659 21.72C15.0193 21.62 14.9893 21.5333 14.9759 21.46C14.9693 21.38 14.9659 21.2633 14.9659 21.11V19.36C14.9659 18.78 14.7593 18.49 14.3459 18.49C13.9459 18.49 13.7459 18.78 13.7459 19.36V21.13C13.7459 21.2833 13.7393 21.4 13.7259 21.48C13.7193 21.5533 13.6893 21.64 13.6359 21.74C13.5359 21.9133 13.2759 22 12.8559 22C12.4359 22 12.1793 21.91 12.0859 21.73C12.0393 21.63 12.0093 21.5433 11.9959 21.47C11.9893 21.3967 11.9859 21.28 11.9859 21.12V17.6C11.9859 17.4467 11.9893 17.3333 11.9959 17.26C12.0093 17.18 12.0426 17.0933 12.0959 17C12.1959 16.82 12.4326 16.73 12.8059 16.73C13.1793 16.73 13.4226 16.79 13.5359 16.91C13.6493 17.03 13.7059 17.2033 13.7059 17.43ZM22.2118 17.43C22.5251 16.9567 22.9018 16.72 23.3418 16.72C24.0218 16.72 24.5285 17.01 24.8618 17.59C24.9351 17.49 25.0218 17.3867 25.1218 17.28C25.2285 17.1667 25.3951 17.0467 25.6218 16.92C25.8485 16.7867 26.0818 16.72 26.3218 16.72C26.8551 16.72 27.3018 16.9267 27.6618 17.34C28.0218 17.7467 28.2018 18.4233 28.2018 19.37V21.12C28.2018 21.2733 28.1951 21.39 28.1818 21.47C28.1751 21.5433 28.1451 21.63 28.0918 21.73C28.0051 21.91 27.7485 22 27.3218 22C26.9018 22 26.6451 21.9067 26.5518 21.72C26.5051 21.62 26.4751 21.5333 26.4618 21.46C26.4551 21.38 26.4518 21.2633 26.4518 21.11V19.36C26.4518 18.78 26.2451 18.49 25.8318 18.49C25.5985 18.49 25.4385 18.5667 25.3518 18.72C25.2718 18.8733 25.2318 19.09 25.2318 19.37V21.12C25.2318 21.28 25.2251 21.3967 25.2118 21.47C25.2051 21.5433 25.1751 21.63 25.1218 21.73C25.0285 21.91 24.7685 22 24.3418 22C23.9218 22 23.6651 21.9067 23.5718 21.72C23.5251 21.62 23.4951 21.5333 23.4818 21.46C23.4751 21.38 23.4718 21.2633 23.4718 21.11V19.36C23.4718 18.78 23.2651 18.49 22.8518 18.49C22.4518 18.49 22.2518 18.78 22.2518 19.36V21.13C22.2518 21.2833 22.2451 21.4 22.2318 21.48C22.2251 21.5533 22.1951 21.64 22.1418 21.74C22.0418 21.9133 21.7818 22 21.3618 22C20.9418 22 20.6851 21.91 20.5918 21.73C20.5451 21.63 20.5151 21.5433 20.5018 21.47C20.4951 21.3967 20.4918 21.28 20.4918 21.12V17.6C20.4918 17.4467 20.4951 17.3333 20.5018 17.26C20.5151 17.18 20.5485 17.0933 20.6018 17C20.7018 16.82 20.9385 16.73 21.3118 16.73C21.6851 16.73 21.9285 16.79 22.0418 16.91C22.1551 17.03 22.2118 17.2033 22.2118 17.43ZM32.4177 17.29C32.4577 16.9167 32.721 16.73 33.2077 16.73C33.4677 16.73 33.661 16.75 33.7877 16.79C33.9143 16.83 34.001 16.9 34.0477 17C34.101 17.1 34.131 17.19 34.1377 17.27C34.151 17.3433 34.1577 17.4567 34.1577 17.61V21.11C34.1577 21.2633 34.151 21.38 34.1377 21.46C34.131 21.5333 34.1043 21.62 34.0577 21.72C33.9643 21.8933 33.7343 21.98 33.3677 21.98C33.0077 21.98 32.7643 21.9367 32.6377 21.85C32.5177 21.7567 32.4477 21.6233 32.4277 21.45C32.181 21.8033 31.7677 21.98 31.1877 21.98C30.6143 21.98 30.081 21.7167 29.5877 21.19C29.0943 20.6633 28.8477 20.0533 28.8477 19.36C28.8477 18.66 29.0943 18.05 29.5877 17.53C30.0877 17.0033 30.6343 16.74 31.2277 16.74C31.4543 16.74 31.661 16.78 31.8477 16.86C32.0343 16.94 32.1643 17.0167 32.2377 17.09C32.311 17.1567 32.371 17.2233 32.4177 17.29ZM30.5977 19.37C30.5977 19.59 30.6843 19.79 30.8577 19.97C31.031 20.1433 31.241 20.23 31.4877 20.23C31.7343 20.23 31.9377 20.14 32.0977 19.96C32.2643 19.78 32.3477 19.5833 32.3477 19.37C32.3477 19.15 32.2677 18.9467 32.1077 18.76C31.9543 18.5733 31.7443 18.48 31.4777 18.48C31.2177 18.48 31.0043 18.5733 30.8377 18.76C30.6777 18.9467 30.5977 19.15 30.5977 19.37ZM37.8847 16.73C38.5514 16.73 39.1047 16.9867 39.5447 17.5C39.9914 18.0067 40.2147 18.6267 40.2147 19.36V21.12C40.2147 21.2733 40.208 21.39 40.1947 21.47C40.188 21.5433 40.1614 21.6267 40.1147 21.72C40.0214 21.9 39.7614 21.99 39.3347 21.99C38.8614 21.99 38.588 21.8667 38.5147 21.62C38.4747 21.5067 38.4547 21.3367 38.4547 21.11V19.35C38.4547 19.0767 38.3747 18.8633 38.2147 18.71C38.0614 18.5567 37.8514 18.48 37.5847 18.48C37.3247 18.48 37.1114 18.56 36.9447 18.72C36.7847 18.88 36.7047 19.09 36.7047 19.35V21.12C36.7047 21.2733 36.698 21.39 36.6847 21.47C36.678 21.5433 36.648 21.6267 36.5947 21.72C36.508 21.9 36.2514 21.99 35.8247 21.99C35.4047 21.99 35.148 21.9 35.0547 21.72C35.008 21.62 34.978 21.5333 34.9647 21.46C34.958 21.38 34.9547 21.2633 34.9547 21.11V17.57C34.9547 17.4233 34.958 17.3133 34.9647 17.24C34.978 17.16 35.0114 17.0733 35.0647 16.98C35.158 16.8133 35.4147 16.73 35.8347 16.73C36.2414 16.73 36.4914 16.8067 36.5847 16.96C36.6514 17.0733 36.6847 17.21 36.6847 17.37C36.7114 17.3233 36.7714 17.2567 36.8647 17.17C36.958 17.0833 37.048 17.0133 37.1347 16.96C37.3614 16.8067 37.6114 16.73 37.8847 16.73ZM41.0191 17.61C41.0191 17.4567 41.0225 17.3433 41.0291 17.27C41.0425 17.19 41.0725 17.1 41.1191 17C41.2125 16.8267 41.4725 16.74 41.8991 16.74C42.2191 16.74 42.4458 16.7967 42.5791 16.91C42.6925 17.0033 42.7525 17.1467 42.7591 17.34C42.7658 17.4067 42.7691 17.5033 42.7691 17.63V21.13C42.7691 21.2833 42.7625 21.4 42.7491 21.48C42.7425 21.5533 42.7125 21.64 42.6591 21.74C42.5725 21.9133 42.3158 22 41.8891 22C41.4691 22 41.2125 21.91 41.1191 21.73C41.0725 21.63 41.0425 21.5433 41.0291 21.47C41.0225 21.3967 41.0191 21.28 41.0191 21.12V17.61ZM42.6591 15.76C42.6125 15.8533 42.5258 15.92 42.3991 15.96C42.2725 16 42.1025 16.02 41.8891 16.02C41.6825 16.02 41.5158 16 41.3891 15.96C41.2625 15.92 41.1725 15.85 41.1191 15.75C41.0725 15.65 41.0425 15.5633 41.0291 15.49C41.0225 15.41 41.0191 15.2933 41.0191 15.14C41.0191 14.9867 41.0225 14.8733 41.0291 14.8C41.0425 14.72 41.0725 14.6333 41.1191 14.54C41.2125 14.36 41.4725 14.27 41.8991 14.27C42.3191 14.27 42.5725 14.36 42.6591 14.54C42.7125 14.64 42.7425 14.73 42.7491 14.81C42.7625 14.8833 42.7691 14.9967 42.7691 15.15C42.7691 15.3033 42.7625 15.42 42.7491 15.5C42.7425 15.5733 42.7125 15.66 42.6591 15.76Z" fill="#FFA500"/>
<path d="M21.231 25.95C21.2843 26.05 21.3143 26.14 21.321 26.22C21.3343 26.3 21.341 26.4167 21.341 26.57V32.12C21.341 32.58 21.2143 32.85 20.961 32.93C20.8343 32.97 20.6743 32.99 20.481 32.99C20.2877 32.99 20.1343 32.9733 20.021 32.94C19.9077 32.9067 19.821 32.8667 19.761 32.82C19.701 32.7733 19.6543 32.7067 19.621 32.62C19.5877 32.5067 19.571 32.3333 19.571 32.1V28.75C19.4043 28.9567 19.161 29.2867 18.841 29.74C18.521 30.1867 18.3177 30.4667 18.231 30.58C18.1443 30.6933 18.0843 30.7733 18.051 30.82C18.0177 30.86 17.9343 30.92 17.801 31C17.6743 31.0733 17.5343 31.11 17.381 31.11C17.2343 31.11 17.0977 31.0767 16.971 31.01C16.851 30.9367 16.7643 30.8667 16.711 30.8L16.631 30.69C16.4977 30.5233 16.2343 30.17 15.841 29.63C15.4477 29.0833 15.2343 28.79 15.201 28.75V32.12C15.201 32.2733 15.1943 32.39 15.181 32.47C15.1743 32.5433 15.1443 32.6267 15.091 32.72C14.991 32.9 14.731 32.99 14.311 32.99C13.9043 32.99 13.651 32.9 13.551 32.72C13.4977 32.6267 13.4643 32.54 13.451 32.46C13.4443 32.38 13.441 32.26 13.441 32.1V26.55C13.441 26.3967 13.4443 26.2833 13.451 26.21C13.4643 26.13 13.4977 26.04 13.551 25.94C13.651 25.7667 13.911 25.68 14.331 25.68C14.511 25.68 14.6643 25.7033 14.791 25.75C14.9243 25.79 15.011 25.8333 15.051 25.88L15.111 25.94L17.381 28.92C18.5143 27.42 19.271 26.43 19.651 25.95C19.7643 25.77 20.031 25.68 20.451 25.68C20.8777 25.68 21.1377 25.77 21.231 25.95ZM25.5622 28.29C25.6022 27.9167 25.8655 27.73 26.3522 27.73C26.6122 27.73 26.8055 27.75 26.9322 27.79C27.0589 27.83 27.1455 27.9 27.1922 28C27.2455 28.1 27.2755 28.19 27.2822 28.27C27.2955 28.3433 27.3022 28.4567 27.3022 28.61V32.11C27.3022 32.2633 27.2955 32.38 27.2822 32.46C27.2755 32.5333 27.2489 32.62 27.2022 32.72C27.1089 32.8933 26.8789 32.98 26.5122 32.98C26.1522 32.98 25.9089 32.9367 25.7822 32.85C25.6622 32.7567 25.5922 32.6233 25.5722 32.45C25.3255 32.8033 24.9122 32.98 24.3322 32.98C23.7589 32.98 23.2255 32.7167 22.7322 32.19C22.2389 31.6633 21.9922 31.0533 21.9922 30.36C21.9922 29.66 22.2389 29.05 22.7322 28.53C23.2322 28.0033 23.7789 27.74 24.3722 27.74C24.5989 27.74 24.8055 27.78 24.9922 27.86C25.1789 27.94 25.3089 28.0167 25.3822 28.09C25.4555 28.1567 25.5155 28.2233 25.5622 28.29ZM23.7422 30.37C23.7422 30.59 23.8289 30.79 24.0022 30.97C24.1755 31.1433 24.3855 31.23 24.6322 31.23C24.8789 31.23 25.0822 31.14 25.2422 30.96C25.4089 30.78 25.4922 30.5833 25.4922 30.37C25.4922 30.15 25.4122 29.9467 25.2522 29.76C25.0989 29.5733 24.8889 29.48 24.6222 29.48C24.3622 29.48 24.1489 29.5733 23.9822 29.76C23.8222 29.9467 23.7422 30.15 23.7422 30.37ZM29.9392 31.23C30.1592 31.23 30.3226 31.2867 30.4292 31.4C30.5359 31.5133 30.5892 31.7467 30.5892 32.1C30.5892 32.4533 30.5326 32.69 30.4192 32.81C30.3059 32.9233 30.1426 32.98 29.9292 32.98C29.2559 32.98 28.7826 32.82 28.5092 32.5C28.2359 32.1733 28.0992 31.6333 28.0992 30.88V26.11C28.0992 25.9567 28.1026 25.8433 28.1092 25.77C28.1226 25.69 28.1526 25.6 28.1992 25.5C28.2926 25.3267 28.5526 25.24 28.9792 25.24C29.3859 25.24 29.6392 25.3333 29.7392 25.52C29.7926 25.6133 29.8226 25.7 29.8292 25.78C29.8426 25.8533 29.8492 25.9667 29.8492 26.12V30.92C29.8492 31.1267 29.8792 31.23 29.9392 31.23ZM32.5492 30.92C32.5492 31.0467 32.5759 31.13 32.6292 31.17C32.6826 31.21 32.8192 31.23 33.0392 31.23C33.2592 31.23 33.4426 31.2867 33.5892 31.4C33.7359 31.5133 33.8092 31.7467 33.8092 32.1C33.8092 32.4533 33.7292 32.69 33.5692 32.81C33.4159 32.9233 33.1992 32.98 32.9192 32.98C31.5059 32.98 30.7992 32.28 30.7992 30.88L30.7892 26.11C30.7892 25.9567 30.7926 25.8433 30.7992 25.77C30.8126 25.69 30.8459 25.6 30.8992 25.5C30.9992 25.3267 31.2592 25.24 31.6792 25.24C32.0859 25.24 32.3392 25.3333 32.4392 25.52C32.5126 25.6667 32.5492 25.8667 32.5492 26.12V30.92Z" fill="white"/>
<defs>
<linearGradient id="paint0_linear_933_16707" x1="23.5" y1="0" x2="23.5" y2="47" gradientUnits="userSpaceOnUse">
<stop stop-color="#72A537"/>
<stop offset="1" stop-color="#156A37"/>
</linearGradient>
</defs>
</svg>
