<svg width="47" height="47" viewBox="0 0 47 47" fill="none" xmlns="http://www.w3.org/2000/svg">
<rect width="47" height="47" rx="10" fill="url(#paint0_linear_933_16710)"/>
<path d="M19.6285 15.696H21.7405C22.1725 15.712 22.4365 15.824 22.5325 16.032C22.6125 16.184 22.6525 16.408 22.6525 16.704V19.344C22.6525 19.6 22.5405 19.844 22.3165 20.076C21.6445 20.772 20.6365 21.12 19.2925 21.12C18.1005 21.12 17.0645 20.672 16.1845 19.776C15.3045 18.872 14.8645 17.784 14.8645 16.512C14.8645 15.24 15.3125 14.18 16.2085 13.332C17.1045 12.476 18.1605 12.048 19.3765 12.048C20.3205 12.048 21.2125 12.36 22.0525 12.984C22.2685 13.144 22.3765 13.324 22.3765 13.524C22.3765 13.716 22.2845 13.94 22.1005 14.196C21.7885 14.62 21.5045 14.832 21.2485 14.832C21.0965 14.832 20.8525 14.724 20.5165 14.508C20.1805 14.284 19.7805 14.172 19.3165 14.172C18.7085 14.172 18.1685 14.388 17.6965 14.82C17.2245 15.244 16.9885 15.804 16.9885 16.5C16.9885 17.188 17.2285 17.776 17.7085 18.264C18.1885 18.744 18.7325 18.984 19.3405 18.984C19.7805 18.984 20.1765 18.912 20.5285 18.768V17.46H19.5805C19.3325 17.46 19.1565 17.428 19.0525 17.364C18.9485 17.3 18.8805 17.208 18.8485 17.088C18.8165 16.96 18.8005 16.792 18.8005 16.584C18.8005 16.368 18.8165 16.196 18.8485 16.068C18.8885 15.94 18.9565 15.852 19.0525 15.804C19.1965 15.732 19.3885 15.696 19.6285 15.696ZM27.7389 12.096C28.9229 12.096 29.9509 12.524 30.8229 13.38C31.6949 14.236 32.1309 15.3 32.1309 16.572C32.1309 17.836 31.7149 18.916 30.8829 19.812C30.0509 20.7 29.0269 21.144 27.8109 21.144C26.5949 21.144 25.5589 20.704 24.7029 19.824C23.8549 18.944 23.4309 17.896 23.4309 16.68C23.4309 16.016 23.5509 15.396 23.7909 14.82C24.0309 14.236 24.3509 13.748 24.7509 13.356C25.1509 12.964 25.6109 12.656 26.1309 12.432C26.6509 12.208 27.1869 12.096 27.7389 12.096ZM25.5549 16.62C25.5549 17.332 25.7829 17.912 26.2389 18.36C26.7029 18.8 27.2189 19.02 27.7869 19.02C28.3549 19.02 28.8669 18.804 29.3229 18.372C29.7789 17.94 30.0069 17.36 30.0069 16.632C30.0069 15.904 29.7749 15.32 29.3109 14.88C28.8549 14.44 28.3429 14.22 27.7749 14.22C27.2069 14.22 26.6949 14.444 26.2389 14.892C25.7829 15.332 25.5549 15.908 25.5549 16.62ZM15.7375 26.204C15.9215 26.204 16.0575 26.212 16.1455 26.228C16.2415 26.236 16.3455 26.272 16.4575 26.336C16.5775 26.4 16.6615 26.508 16.7095 26.66C16.7575 26.812 16.7815 27.016 16.7815 27.272C16.7815 27.528 16.7575 27.732 16.7095 27.884C16.6615 28.036 16.5775 28.144 16.4575 28.208C16.3375 28.264 16.2295 28.3 16.1335 28.316C16.0455 28.324 15.9055 28.328 15.7135 28.328H12.0415V29.54H14.4055C14.5975 29.54 14.7375 29.548 14.8255 29.564C14.9215 29.572 15.0295 29.608 15.1495 29.672C15.3575 29.792 15.4615 30.108 15.4615 30.62C15.4615 31.18 15.3095 31.512 15.0055 31.616C14.8775 31.656 14.6735 31.676 14.3935 31.676H12.0415V33.944C12.0415 34.136 12.0335 34.276 12.0175 34.364C12.0095 34.452 11.9735 34.556 11.9095 34.676C11.7975 34.892 11.4855 35 10.9735 35C10.4135 35 10.0855 34.848 9.9895 34.544C9.9415 34.416 9.9175 34.212 9.9175 33.932V27.26C9.9175 26.852 9.9935 26.576 10.1455 26.432C10.2975 26.28 10.5855 26.204 11.0095 26.204H15.7375ZM16.3 31.844C16.3 30.884 16.636 30.092 17.308 29.468C17.98 28.844 18.748 28.532 19.612 28.532C20.476 28.532 21.24 28.844 21.904 29.468C22.568 30.084 22.9 30.872 22.9 31.832C22.9 32.496 22.728 33.088 22.384 33.608C22.04 34.12 21.62 34.5 21.124 34.748C20.636 34.988 20.128 35.108 19.6 35.108C19.072 35.108 18.56 34.98 18.064 34.724C17.568 34.46 17.148 34.076 16.804 33.572C16.468 33.06 16.3 32.484 16.3 31.844ZM18.808 32.708C19.064 32.9 19.324 32.996 19.588 32.996C19.852 32.996 20.116 32.896 20.38 32.696C20.644 32.496 20.776 32.2 20.776 31.808C20.776 31.416 20.652 31.124 20.404 30.932C20.156 30.74 19.888 30.644 19.6 30.644C19.312 30.644 19.044 30.744 18.796 30.944C18.548 31.144 18.424 31.44 18.424 31.832C18.424 32.216 18.552 32.508 18.808 32.708ZM23.4953 31.844C23.4953 30.884 23.8313 30.092 24.5033 29.468C25.1753 28.844 25.9433 28.532 26.8073 28.532C27.6713 28.532 28.4353 28.844 29.0993 29.468C29.7633 30.084 30.0953 30.872 30.0953 31.832C30.0953 32.496 29.9233 33.088 29.5793 33.608C29.2353 34.12 28.8153 34.5 28.3193 34.748C27.8313 34.988 27.3233 35.108 26.7953 35.108C26.2673 35.108 25.7553 34.98 25.2593 34.724C24.7633 34.46 24.3433 34.076 23.9993 33.572C23.6633 33.06 23.4953 32.484 23.4953 31.844ZM26.0033 32.708C26.2593 32.9 26.5193 32.996 26.7833 32.996C27.0473 32.996 27.3113 32.896 27.5753 32.696C27.8393 32.496 27.9713 32.2 27.9713 31.808C27.9713 31.416 27.8473 31.124 27.5993 30.932C27.3513 30.74 27.0833 30.644 26.7953 30.644C26.5073 30.644 26.2393 30.744 25.9913 30.944C25.7433 31.144 25.6193 31.44 25.6193 31.832C25.6193 32.216 25.7473 32.508 26.0033 32.708ZM35.1066 26.048C35.1706 25.928 35.2786 25.844 35.4306 25.796C35.5826 25.748 35.7826 25.724 36.0306 25.724C36.2866 25.724 36.4906 25.748 36.6426 25.796C36.7946 25.844 36.8986 25.928 36.9546 26.048C37.0186 26.168 37.0546 26.276 37.0626 26.372C37.0786 26.46 37.0866 26.596 37.0866 26.78V33.944C37.0866 34.128 37.0786 34.268 37.0626 34.364C37.0546 34.452 37.0186 34.552 36.9546 34.664C36.8346 34.88 36.4946 34.988 35.9346 34.988C35.3826 34.988 35.0746 34.792 35.0106 34.4C34.6746 34.784 34.2066 34.976 33.6066 34.976C32.8866 34.976 32.2306 34.664 31.6386 34.04C31.0466 33.408 30.7506 32.676 30.7506 31.844C30.7506 31.004 31.0466 30.268 31.6386 29.636C32.2386 29.004 32.8946 28.688 33.6066 28.688C34.1986 28.688 34.6586 28.888 34.9866 29.288V26.768C34.9866 26.584 34.9906 26.448 34.9986 26.36C35.0146 26.264 35.0506 26.16 35.1066 26.048ZM33.1626 32.564C33.3706 32.78 33.6226 32.888 33.9186 32.888C34.2146 32.888 34.4586 32.78 34.6506 32.564C34.8506 32.348 34.9506 32.112 34.9506 31.856C34.9506 31.592 34.8546 31.348 34.6626 31.124C34.4786 30.9 34.2266 30.788 33.9066 30.788C33.5866 30.788 33.3306 30.9 33.1386 31.124C32.9466 31.34 32.8506 31.58 32.8506 31.844C32.8506 32.108 32.9546 32.348 33.1626 32.564Z" fill="white"/>
<defs>
<linearGradient id="paint0_linear_933_16710" x1="23.5" y1="0" x2="23.5" y2="47" gradientUnits="userSpaceOnUse">
<stop stop-color="#72A537"/>
<stop offset="1" stop-color="#156A37"/>
</linearGradient>
</defs>
</svg>
