<svg width="47" height="47" viewBox="0 0 47 47" fill="none" xmlns="http://www.w3.org/2000/svg">
<rect width="47" height="47" rx="10" fill="url(#paint0_linear_1580_28512)"/>
<path d="M22.5742 16.752V19.875C22.4688 20.0312 22.3008 20.207 22.0703 20.4023C21.8398 20.5938 21.5215 20.7617 21.1152 20.9062C20.7129 21.0469 20.1934 21.1172 19.5566 21.1172C19.0371 21.1172 18.5586 21.0273 18.1211 20.8477C17.6875 20.6641 17.3105 20.3984 16.9902 20.0508C16.6738 19.6992 16.4277 19.2734 16.252 18.7734C16.0801 18.2695 15.9941 17.6992 15.9941 17.0625V16.4004C15.9941 15.7637 16.0684 15.1953 16.2168 14.6953C16.3691 14.1953 16.5918 13.7715 16.8848 13.4238C17.1777 13.0723 17.5371 12.8066 17.9629 12.627C18.3887 12.4434 18.877 12.3516 19.4277 12.3516C20.0801 12.3516 20.625 12.4648 21.0625 12.6914C21.5039 12.9141 21.8477 13.2227 22.0938 13.6172C22.3438 14.0117 22.5039 14.4609 22.5742 14.9648H21.4434C21.3926 14.6562 21.291 14.375 21.1387 14.1211C20.9902 13.8672 20.7773 13.6641 20.5 13.5117C20.2227 13.3555 19.8652 13.2773 19.4277 13.2773C19.0332 13.2773 18.6914 13.3496 18.4023 13.4941C18.1133 13.6387 17.875 13.8457 17.6875 14.1152C17.5 14.3848 17.3594 14.7109 17.2656 15.0938C17.1758 15.4766 17.1309 15.9082 17.1309 16.3887V17.0625C17.1309 17.5547 17.1875 17.9941 17.3008 18.3809C17.418 18.7676 17.584 19.0977 17.7988 19.3711C18.0137 19.6406 18.2695 19.8457 18.5664 19.9863C18.8672 20.127 19.1992 20.1973 19.5625 20.1973C19.9648 20.1973 20.291 20.1641 20.541 20.0977C20.791 20.0273 20.9863 19.9453 21.127 19.8516C21.2676 19.7539 21.375 19.6621 21.4492 19.5762V17.666H19.4746V16.752H22.5742ZM31.0176 16.4648V17.0039C31.0176 17.6445 30.9375 18.2188 30.7773 18.7266C30.6172 19.2344 30.3867 19.666 30.0859 20.0215C29.7852 20.377 29.4238 20.6484 29.002 20.8359C28.584 21.0234 28.1152 21.1172 27.5957 21.1172C27.0918 21.1172 26.6289 21.0234 26.207 20.8359C25.7891 20.6484 25.4258 20.377 25.1172 20.0215C24.8125 19.666 24.5762 19.2344 24.4082 18.7266C24.2402 18.2188 24.1562 17.6445 24.1562 17.0039V16.4648C24.1562 15.8242 24.2383 15.252 24.4023 14.748C24.5703 14.2402 24.8066 13.8086 25.1113 13.4531C25.416 13.0938 25.7773 12.8203 26.1953 12.6328C26.6172 12.4453 27.0801 12.3516 27.584 12.3516C28.1035 12.3516 28.5723 12.4453 28.9902 12.6328C29.4121 12.8203 29.7734 13.0938 30.0742 13.4531C30.3789 13.8086 30.6113 14.2402 30.7715 14.748C30.9355 15.252 31.0176 15.8242 31.0176 16.4648ZM29.8984 17.0039V16.4531C29.8984 15.9453 29.8457 15.4961 29.7402 15.1055C29.6387 14.7148 29.4883 14.3867 29.2891 14.1211C29.0898 13.8555 28.8457 13.6543 28.5566 13.5176C28.2715 13.3809 27.9473 13.3125 27.584 13.3125C27.2324 13.3125 26.9141 13.3809 26.6289 13.5176C26.3477 13.6543 26.1055 13.8555 25.9023 14.1211C25.7031 14.3867 25.5488 14.7148 25.4395 15.1055C25.3301 15.4961 25.2754 15.9453 25.2754 16.4531V17.0039C25.2754 17.5156 25.3301 17.9688 25.4395 18.3633C25.5488 18.7539 25.7051 19.084 25.9082 19.3535C26.1152 19.6191 26.3594 19.8203 26.6406 19.957C26.9258 20.0938 27.2441 20.1621 27.5957 20.1621C27.9629 20.1621 28.2891 20.0938 28.5742 19.957C28.8594 19.8203 29.0996 19.6191 29.2949 19.3535C29.4941 19.084 29.6445 18.7539 29.7461 18.3633C29.8477 17.9688 29.8984 17.5156 29.8984 17.0039ZM12.1387 26.4688V35H11.0078V26.4688H12.1387ZM15.7129 30.3066V31.2324H11.8926V30.3066H15.7129ZM16.293 26.4688V27.3945H11.8926V26.4688H16.293ZM17.0605 31.9004V31.7656C17.0605 31.3086 17.127 30.8848 17.2598 30.4941C17.3926 30.0996 17.584 29.7578 17.834 29.4688C18.084 29.1758 18.3867 28.9492 18.7422 28.7891C19.0977 28.625 19.4961 28.543 19.9375 28.543C20.3828 28.543 20.7832 28.625 21.1387 28.7891C21.498 28.9492 21.8027 29.1758 22.0527 29.4688C22.3066 29.7578 22.5 30.0996 22.6328 30.4941C22.7656 30.8848 22.832 31.3086 22.832 31.7656V31.9004C22.832 32.3574 22.7656 32.7812 22.6328 33.1719C22.5 33.5625 22.3066 33.9043 22.0527 34.1973C21.8027 34.4863 21.5 34.7129 21.1445 34.877C20.793 35.0371 20.3945 35.1172 19.9492 35.1172C19.5039 35.1172 19.1035 35.0371 18.748 34.877C18.3926 34.7129 18.0879 34.4863 17.834 34.1973C17.584 33.9043 17.3926 33.5625 17.2598 33.1719C17.127 32.7812 17.0605 32.3574 17.0605 31.9004ZM18.1445 31.7656V31.9004C18.1445 32.2168 18.1816 32.5156 18.2559 32.7969C18.3301 33.0742 18.4414 33.3203 18.5898 33.5352C18.7422 33.75 18.9316 33.9199 19.1582 34.0449C19.3848 34.166 19.6484 34.2266 19.9492 34.2266C20.2461 34.2266 20.5059 34.166 20.7285 34.0449C20.9551 33.9199 21.1426 33.75 21.291 33.5352C21.4395 33.3203 21.5508 33.0742 21.625 32.7969C21.7031 32.5156 21.7422 32.2168 21.7422 31.9004V31.7656C21.7422 31.4531 21.7031 31.1582 21.625 30.8809C21.5508 30.5996 21.4375 30.3516 21.2852 30.1367C21.1367 29.918 20.9492 29.7461 20.7227 29.6211C20.5 29.4961 20.2383 29.4336 19.9375 29.4336C19.6406 29.4336 19.3789 29.4961 19.1523 29.6211C18.9297 29.7461 18.7422 29.918 18.5898 30.1367C18.4414 30.3516 18.3301 30.5996 18.2559 30.8809C18.1816 31.1582 18.1445 31.4531 18.1445 31.7656ZM23.9043 31.9004V31.7656C23.9043 31.3086 23.9707 30.8848 24.1035 30.4941C24.2363 30.0996 24.4277 29.7578 24.6777 29.4688C24.9277 29.1758 25.2305 28.9492 25.5859 28.7891C25.9414 28.625 26.3398 28.543 26.7812 28.543C27.2266 28.543 27.627 28.625 27.9824 28.7891C28.3418 28.9492 28.6465 29.1758 28.8965 29.4688C29.1504 29.7578 29.3438 30.0996 29.4766 30.4941C29.6094 30.8848 29.6758 31.3086 29.6758 31.7656V31.9004C29.6758 32.3574 29.6094 32.7812 29.4766 33.1719C29.3438 33.5625 29.1504 33.9043 28.8965 34.1973C28.6465 34.4863 28.3438 34.7129 27.9883 34.877C27.6367 35.0371 27.2383 35.1172 26.793 35.1172C26.3477 35.1172 25.9473 35.0371 25.5918 34.877C25.2363 34.7129 24.9316 34.4863 24.6777 34.1973C24.4277 33.9043 24.2363 33.5625 24.1035 33.1719C23.9707 32.7812 23.9043 32.3574 23.9043 31.9004ZM24.9883 31.7656V31.9004C24.9883 32.2168 25.0254 32.5156 25.0996 32.7969C25.1738 33.0742 25.2852 33.3203 25.4336 33.5352C25.5859 33.75 25.7754 33.9199 26.002 34.0449C26.2285 34.166 26.4922 34.2266 26.793 34.2266C27.0898 34.2266 27.3496 34.166 27.5723 34.0449C27.7988 33.9199 27.9863 33.75 28.1348 33.5352C28.2832 33.3203 28.3945 33.0742 28.4688 32.7969C28.5469 32.5156 28.5859 32.2168 28.5859 31.9004V31.7656C28.5859 31.4531 28.5469 31.1582 28.4688 30.8809C28.3945 30.5996 28.2812 30.3516 28.1289 30.1367C27.9805 29.918 27.793 29.7461 27.5664 29.6211C27.3438 29.4961 27.082 29.4336 26.7812 29.4336C26.4844 29.4336 26.2227 29.4961 25.9961 29.6211C25.7734 29.7461 25.5859 29.918 25.4336 30.1367C25.2852 30.3516 25.1738 30.5996 25.0996 30.8809C25.0254 31.1582 24.9883 31.4531 24.9883 31.7656ZM35.0312 33.7695V26H36.1211V35H35.125L35.0312 33.7695ZM30.7656 31.9004V31.7773C30.7656 31.293 30.8242 30.8535 30.9414 30.459C31.0625 30.0605 31.2324 29.7188 31.4512 29.4336C31.6738 29.1484 31.9375 28.9297 32.2422 28.7773C32.5508 28.6211 32.8945 28.543 33.2734 28.543C33.6719 28.543 34.0195 28.6133 34.3164 28.7539C34.6172 28.8906 34.8711 29.0918 35.0781 29.3574C35.2891 29.6191 35.4551 29.9355 35.5762 30.3066C35.6973 30.6777 35.7812 31.0977 35.8281 31.5664V32.1055C35.7852 32.5703 35.7012 32.9883 35.5762 33.3594C35.4551 33.7305 35.2891 34.0469 35.0781 34.3086C34.8711 34.5703 34.6172 34.7715 34.3164 34.9121C34.0156 35.0488 33.6641 35.1172 33.2617 35.1172C32.8906 35.1172 32.5508 35.0371 32.2422 34.877C31.9375 34.7168 31.6738 34.4922 31.4512 34.2031C31.2324 33.9141 31.0625 33.5742 30.9414 33.1836C30.8242 32.7891 30.7656 32.3613 30.7656 31.9004ZM31.8555 31.7773V31.9004C31.8555 32.2168 31.8867 32.5137 31.9492 32.791C32.0156 33.0684 32.1172 33.3125 32.2539 33.5234C32.3906 33.7344 32.5645 33.9004 32.7754 34.0215C32.9863 34.1387 33.2383 34.1973 33.5312 34.1973C33.8906 34.1973 34.1855 34.1211 34.416 33.9688C34.6504 33.8164 34.8379 33.6152 34.9785 33.3652C35.1191 33.1152 35.2285 32.8438 35.3066 32.5508V31.1387C35.2598 30.9238 35.1914 30.7168 35.1016 30.5176C35.0156 30.3145 34.9023 30.1348 34.7617 29.9785C34.625 29.8184 34.4551 29.6914 34.252 29.5977C34.0527 29.5039 33.8164 29.457 33.543 29.457C33.2461 29.457 32.9902 29.5195 32.7754 29.6445C32.5645 29.7656 32.3906 29.9336 32.2539 30.1484C32.1172 30.3594 32.0156 30.6055 31.9492 30.8867C31.8867 31.1641 31.8555 31.4609 31.8555 31.7773Z" fill="white"/>
<defs>
<linearGradient id="paint0_linear_1580_28512" x1="23.5" y1="0" x2="23.5" y2="47" gradientUnits="userSpaceOnUse">
<stop stop-color="#72A537"/>
<stop offset="1" stop-color="#156A37"/>
</linearGradient>
</defs>
</svg>
