<svg width="47" height="47" viewBox="0 0 47 47" fill="none" xmlns="http://www.w3.org/2000/svg">
<rect width="47" height="47" rx="10" fill="url(#paint0_linear_1580_28509)"/>
<path d="M10.8877 17.2207V17.6699C10.8877 18.2038 10.821 18.6823 10.6875 19.1055C10.554 19.5286 10.362 19.8883 10.1113 20.1846C9.86068 20.4808 9.55957 20.707 9.20801 20.8633C8.8597 21.0195 8.46908 21.0977 8.03613 21.0977C7.61621 21.0977 7.23047 21.0195 6.87891 20.8633C6.5306 20.707 6.22786 20.4808 5.9707 20.1846C5.7168 19.8883 5.51986 19.5286 5.37988 19.1055C5.23991 18.6823 5.16992 18.2038 5.16992 17.6699V17.2207C5.16992 16.6868 5.23828 16.21 5.375 15.79C5.51497 15.3669 5.71191 15.0072 5.96582 14.7109C6.21973 14.4115 6.52083 14.1836 6.86914 14.0273C7.2207 13.8711 7.60645 13.793 8.02637 13.793C8.45931 13.793 8.84993 13.8711 9.19824 14.0273C9.5498 14.1836 9.85091 14.4115 10.1016 14.7109C10.3555 15.0072 10.5492 15.3669 10.6826 15.79C10.8193 16.21 10.8877 16.6868 10.8877 17.2207ZM9.95508 17.6699V17.2109C9.95508 16.7878 9.91113 16.4134 9.82324 16.0879C9.73861 15.7624 9.61328 15.4889 9.44727 15.2676C9.28125 15.0462 9.0778 14.8786 8.83691 14.7646C8.59928 14.6507 8.3291 14.5938 8.02637 14.5938C7.7334 14.5938 7.4681 14.6507 7.23047 14.7646C6.99609 14.8786 6.79427 15.0462 6.625 15.2676C6.45898 15.4889 6.3304 15.7624 6.23926 16.0879C6.14811 16.4134 6.10254 16.7878 6.10254 17.2109V17.6699C6.10254 18.0964 6.14811 18.474 6.23926 18.8027C6.3304 19.1283 6.46061 19.4033 6.62988 19.6279C6.80241 19.8493 7.00586 20.0169 7.24023 20.1309C7.47786 20.2448 7.74316 20.3018 8.03613 20.3018C8.34212 20.3018 8.61393 20.2448 8.85156 20.1309C9.08919 20.0169 9.28939 19.8493 9.45215 19.6279C9.61816 19.4033 9.74349 19.1283 9.82812 18.8027C9.91276 18.474 9.95508 18.0964 9.95508 17.6699ZM13.0605 16.7666V21H12.1523V15.7168H13.0117L13.0605 16.7666ZM12.875 18.1582L12.4551 18.1436C12.4583 17.7822 12.5055 17.4486 12.5967 17.1426C12.6878 16.8333 12.8229 16.5648 13.002 16.3369C13.181 16.109 13.404 15.9333 13.6709 15.8096C13.9378 15.6826 14.2471 15.6191 14.5986 15.6191C14.846 15.6191 15.0739 15.6549 15.2822 15.7266C15.4906 15.7949 15.6712 15.904 15.8242 16.0537C15.9772 16.2035 16.096 16.3955 16.1807 16.6299C16.2653 16.8643 16.3076 17.1475 16.3076 17.4795V21H15.4043V17.5234C15.4043 17.2467 15.3571 17.0254 15.2627 16.8594C15.1715 16.6934 15.0413 16.5729 14.8721 16.498C14.7028 16.4199 14.5042 16.3809 14.2764 16.3809C14.0094 16.3809 13.7865 16.4281 13.6074 16.5225C13.4284 16.6169 13.2852 16.7471 13.1777 16.9131C13.0703 17.0791 12.9922 17.2695 12.9434 17.4844C12.8978 17.696 12.875 17.9206 12.875 18.1582ZM16.2979 17.6602L15.6924 17.8457C15.6956 17.556 15.7428 17.2777 15.834 17.0107C15.9284 16.7438 16.0635 16.5062 16.2393 16.2979C16.4183 16.0895 16.638 15.9251 16.8984 15.8047C17.1589 15.681 17.4567 15.6191 17.792 15.6191C18.0752 15.6191 18.3258 15.6566 18.5439 15.7314C18.7653 15.8063 18.9508 15.9219 19.1006 16.0781C19.2536 16.2311 19.3691 16.4281 19.4473 16.6689C19.5254 16.9098 19.5645 17.1963 19.5645 17.5283V21H18.6562V17.5186C18.6562 17.2223 18.609 16.9928 18.5146 16.8301C18.4235 16.6641 18.2933 16.5485 18.124 16.4834C17.958 16.415 17.7594 16.3809 17.5283 16.3809C17.3298 16.3809 17.154 16.415 17.001 16.4834C16.848 16.5518 16.7194 16.6462 16.6152 16.7666C16.5111 16.8838 16.4313 17.0189 16.376 17.1719C16.3239 17.3249 16.2979 17.4876 16.2979 17.6602ZM21.8301 16.7666V21H20.9219V15.7168H21.7812L21.8301 16.7666ZM21.6445 18.1582L21.2246 18.1436C21.2279 17.7822 21.2751 17.4486 21.3662 17.1426C21.4574 16.8333 21.5924 16.5648 21.7715 16.3369C21.9505 16.109 22.1735 15.9333 22.4404 15.8096C22.7074 15.6826 23.0166 15.6191 23.3682 15.6191C23.6156 15.6191 23.8434 15.6549 24.0518 15.7266C24.2601 15.7949 24.4408 15.904 24.5938 16.0537C24.7467 16.2035 24.8656 16.3955 24.9502 16.6299C25.0348 16.8643 25.0771 17.1475 25.0771 17.4795V21H24.1738V17.5234C24.1738 17.2467 24.1266 17.0254 24.0322 16.8594C23.9411 16.6934 23.8109 16.5729 23.6416 16.498C23.4723 16.4199 23.2738 16.3809 23.0459 16.3809C22.779 16.3809 22.556 16.4281 22.377 16.5225C22.1979 16.6169 22.0547 16.7471 21.9473 16.9131C21.8398 17.0791 21.7617 17.2695 21.7129 17.4844C21.6673 17.696 21.6445 17.9206 21.6445 18.1582ZM25.0674 17.6602L24.4619 17.8457C24.4652 17.556 24.5124 17.2777 24.6035 17.0107C24.6979 16.7438 24.833 16.5062 25.0088 16.2979C25.1878 16.0895 25.4076 15.9251 25.668 15.8047C25.9284 15.681 26.2262 15.6191 26.5615 15.6191C26.8447 15.6191 27.0954 15.6566 27.3135 15.7314C27.5348 15.8063 27.7204 15.9219 27.8701 16.0781C28.0231 16.2311 28.1387 16.4281 28.2168 16.6689C28.2949 16.9098 28.334 17.1963 28.334 17.5283V21H27.4258V17.5186C27.4258 17.2223 27.3786 16.9928 27.2842 16.8301C27.193 16.6641 27.0628 16.5485 26.8936 16.4834C26.7275 16.415 26.529 16.3809 26.2979 16.3809C26.0993 16.3809 25.9235 16.415 25.7705 16.4834C25.6175 16.5518 25.4889 16.6462 25.3848 16.7666C25.2806 16.8838 25.2008 17.0189 25.1455 17.1719C25.0934 17.3249 25.0674 17.4876 25.0674 17.6602ZM32.8164 20.0967V17.377C32.8164 17.1686 32.7741 16.988 32.6895 16.835C32.6081 16.6787 32.4844 16.5583 32.3184 16.4736C32.1523 16.389 31.9473 16.3467 31.7031 16.3467C31.4753 16.3467 31.2751 16.3857 31.1025 16.4639C30.9333 16.542 30.7998 16.6445 30.7021 16.7715C30.6077 16.8984 30.5605 17.0352 30.5605 17.1816H29.6572C29.6572 16.9928 29.7061 16.8057 29.8037 16.6201C29.9014 16.4346 30.0413 16.2669 30.2236 16.1172C30.4092 15.9642 30.6305 15.8438 30.8877 15.7559C31.1481 15.6647 31.4378 15.6191 31.7568 15.6191C32.141 15.6191 32.4795 15.6842 32.7725 15.8145C33.0687 15.9447 33.2998 16.1416 33.4658 16.4053C33.6351 16.6657 33.7197 16.9928 33.7197 17.3867V19.8477C33.7197 20.0234 33.7344 20.2106 33.7637 20.4092C33.7962 20.6077 33.8434 20.7786 33.9053 20.9219V21H32.9629C32.9173 20.8958 32.8815 20.7575 32.8555 20.585C32.8294 20.4092 32.8164 20.2464 32.8164 20.0967ZM32.9727 17.7969L32.9824 18.4316H32.0693C31.8122 18.4316 31.5827 18.4528 31.3809 18.4951C31.179 18.5342 31.0098 18.5944 30.873 18.6758C30.7363 18.7572 30.6322 18.8597 30.5605 18.9834C30.4889 19.1038 30.4531 19.2454 30.4531 19.4082C30.4531 19.5742 30.4906 19.7256 30.5654 19.8623C30.6403 19.999 30.7526 20.1081 30.9023 20.1895C31.0553 20.2676 31.2425 20.3066 31.4639 20.3066C31.7406 20.3066 31.9847 20.248 32.1963 20.1309C32.4079 20.0137 32.5755 19.8704 32.6992 19.7012C32.8262 19.5319 32.8945 19.3675 32.9043 19.208L33.29 19.6426C33.2673 19.7793 33.2054 19.9307 33.1045 20.0967C33.0036 20.2627 32.8685 20.4222 32.6992 20.5752C32.5332 20.7249 32.3346 20.8503 32.1035 20.9512C31.8757 21.0488 31.6185 21.0977 31.332 21.0977C30.974 21.0977 30.6598 21.0277 30.3896 20.8877C30.1227 20.7477 29.9144 20.5605 29.7646 20.3262C29.6182 20.0885 29.5449 19.8232 29.5449 19.5303C29.5449 19.2471 29.6003 18.998 29.7109 18.7832C29.8216 18.5651 29.9811 18.3844 30.1895 18.2412C30.3978 18.0947 30.6484 17.984 30.9414 17.9092C31.2344 17.8343 31.5615 17.7969 31.9229 17.7969H32.9727ZM36.0439 16.8447V21H35.1406V15.7168H35.9951L36.0439 16.8447ZM35.8291 18.1582L35.4531 18.1436C35.4564 17.7822 35.5101 17.4486 35.6143 17.1426C35.7184 16.8333 35.8649 16.5648 36.0537 16.3369C36.2425 16.109 36.4671 15.9333 36.7275 15.8096C36.9912 15.6826 37.2826 15.6191 37.6016 15.6191C37.862 15.6191 38.0964 15.6549 38.3047 15.7266C38.513 15.7949 38.6904 15.9056 38.8369 16.0586C38.9867 16.2116 39.1006 16.4102 39.1787 16.6543C39.2568 16.8952 39.2959 17.1898 39.2959 17.5381V21H38.3877V17.5283C38.3877 17.2516 38.347 17.0303 38.2656 16.8643C38.1842 16.695 38.0654 16.5729 37.9092 16.498C37.7529 16.4199 37.5609 16.3809 37.333 16.3809C37.1084 16.3809 36.9033 16.4281 36.7178 16.5225C36.5355 16.6169 36.3776 16.7471 36.2441 16.9131C36.1139 17.0791 36.0114 17.2695 35.9365 17.4844C35.8649 17.696 35.8291 17.9206 35.8291 18.1582ZM41.6494 15.7168V21H40.7412V15.7168H41.6494ZM40.6729 14.3154C40.6729 14.1689 40.7168 14.0452 40.8047 13.9443C40.8958 13.8434 41.0293 13.793 41.2051 13.793C41.3776 13.793 41.5094 13.8434 41.6006 13.9443C41.695 14.0452 41.7422 14.1689 41.7422 14.3154C41.7422 14.4554 41.695 14.5758 41.6006 14.6768C41.5094 14.7744 41.3776 14.8232 41.2051 14.8232C41.0293 14.8232 40.8958 14.7744 40.8047 14.6768C40.7168 14.5758 40.6729 14.4554 40.6729 14.3154Z" fill="#FFA500"/>
<path d="M15.1064 24.8906H16.0195L18.3486 30.6865L20.6729 24.8906H21.5908L18.7002 32H17.9873L15.1064 24.8906ZM14.8086 24.8906H15.6143L15.7461 29.2266V32H14.8086V24.8906ZM21.0781 24.8906H21.8838V32H20.9463V29.2266L21.0781 24.8906ZM26.5176 31.0967V28.377C26.5176 28.1686 26.4753 27.988 26.3906 27.835C26.3092 27.6787 26.1855 27.5583 26.0195 27.4736C25.8535 27.389 25.6484 27.3467 25.4043 27.3467C25.1764 27.3467 24.9762 27.3857 24.8037 27.4639C24.6344 27.542 24.501 27.6445 24.4033 27.7715C24.3089 27.8984 24.2617 28.0352 24.2617 28.1816H23.3584C23.3584 27.9928 23.4072 27.8057 23.5049 27.6201C23.6025 27.4346 23.7425 27.2669 23.9248 27.1172C24.1104 26.9642 24.3317 26.8438 24.5889 26.7559C24.8493 26.6647 25.139 26.6191 25.458 26.6191C25.8421 26.6191 26.1807 26.6842 26.4736 26.8145C26.7699 26.9447 27.001 27.1416 27.167 27.4053C27.3363 27.6657 27.4209 27.9928 27.4209 28.3867V30.8477C27.4209 31.0234 27.4355 31.2106 27.4648 31.4092C27.4974 31.6077 27.5446 31.7786 27.6064 31.9219V32H26.6641C26.6185 31.8958 26.5827 31.7575 26.5566 31.585C26.5306 31.4092 26.5176 31.2464 26.5176 31.0967ZM26.6738 28.7969L26.6836 29.4316H25.7705C25.5133 29.4316 25.2839 29.4528 25.082 29.4951C24.8802 29.5342 24.7109 29.5944 24.5742 29.6758C24.4375 29.7572 24.3333 29.8597 24.2617 29.9834C24.1901 30.1038 24.1543 30.2454 24.1543 30.4082C24.1543 30.5742 24.1917 30.7256 24.2666 30.8623C24.3415 30.999 24.4538 31.1081 24.6035 31.1895C24.7565 31.2676 24.9437 31.3066 25.165 31.3066C25.4417 31.3066 25.6859 31.248 25.8975 31.1309C26.109 31.0137 26.2767 30.8704 26.4004 30.7012C26.5273 30.5319 26.5957 30.3675 26.6055 30.208L26.9912 30.6426C26.9684 30.7793 26.9066 30.9307 26.8057 31.0967C26.7048 31.2627 26.5697 31.4222 26.4004 31.5752C26.2344 31.7249 26.0358 31.8503 25.8047 31.9512C25.5768 32.0488 25.3197 32.0977 25.0332 32.0977C24.6751 32.0977 24.361 32.0277 24.0908 31.8877C23.8239 31.7477 23.6156 31.5605 23.4658 31.3262C23.3193 31.0885 23.2461 30.8232 23.2461 30.5303C23.2461 30.2471 23.3014 29.998 23.4121 29.7832C23.5228 29.5651 23.6823 29.3844 23.8906 29.2412C24.099 29.0947 24.3496 28.984 24.6426 28.9092C24.9355 28.8343 25.2627 28.7969 25.624 28.7969H26.6738ZM29.8232 24.5V32H28.915V24.5H29.8232ZM32.2549 24.5V32H31.3467V24.5H32.2549Z" fill="white"/>
<defs>
<linearGradient id="paint0_linear_1580_28509" x1="23.5" y1="0" x2="23.5" y2="47" gradientUnits="userSpaceOnUse">
<stop stop-color="#72A537"/>
<stop offset="1" stop-color="#156A37"/>
</linearGradient>
</defs>
</svg>
