<svg width="47" height="47" viewBox="0 0 47 47" fill="none" xmlns="http://www.w3.org/2000/svg">
<rect width="47" height="47" rx="10" fill="url(#paint0_linear_1580_28531)"/>
<g clip-path="url(#clip0_1580_28531)">
<path d="M23.4995 36.9122C31.1256 36.9122 37.4425 30.6089 37.4425 22.9693C37.4425 15.3432 31.1256 9.02637 23.486 9.02637C15.86 9.02637 9.55664 15.3432 9.55664 22.9693C9.55664 30.6089 15.8735 36.9122 23.4995 36.9122ZM19.7877 21.93L18.411 19.9053C17.6416 18.7581 16.3999 18.3261 15.1446 18.9335L14.0918 19.4599C13.228 19.8783 12.877 20.5397 12.877 21.7545C12.877 22.7128 12.5936 23.1717 12.0267 23.1717C11.9187 23.1717 11.8107 23.1582 11.7162 23.1312C11.7162 23.0773 11.7162 23.0233 11.7162 22.9693C11.7162 16.531 17.0477 11.186 23.486 11.186C24.4174 11.186 25.3217 11.3074 26.199 11.5099C25.7671 12.2928 25.0383 12.6977 25.0383 13.8045C25.0383 15.8156 27.7108 15.6671 27.7108 17.9077C27.7108 19.2575 26.6445 19.8918 24.2959 19.8918C22.9327 19.8918 22.0013 20.6072 22.0013 21.6735C22.0013 22.3889 22.3658 22.8748 23.1621 23.2932C23.5805 23.4822 23.7425 23.6981 23.7425 23.9951C23.7425 24.346 23.486 24.535 23.0676 24.535C22.1768 24.535 21.016 23.7521 19.7877 21.93ZM23.4995 34.7526C17.6956 34.7526 12.796 30.4199 11.8782 24.8589C11.9457 24.8589 12.0132 24.8589 12.0942 24.8589C13.5249 24.8589 14.4967 23.6307 14.4967 21.7545C14.4967 21.1741 14.5912 20.9851 14.9961 20.7962L15.86 20.3913C16.3189 20.1618 16.7373 20.3373 17.0073 20.7422L18.5325 22.9828C20.0577 25.2099 21.6099 26.1142 23.0271 26.1142C24.4039 26.1142 25.2407 25.2773 25.2407 23.9411C25.2407 23.1717 24.8493 22.4969 24.2149 22.0919C23.999 21.9435 23.8775 21.876 23.8775 21.741C23.864 21.5925 23.999 21.525 24.2284 21.525C27.5893 21.525 29.344 20.2968 29.344 17.9077C29.344 14.7493 26.658 14.5738 26.658 13.764C26.658 13.2241 27.3733 12.9811 27.7917 12.0228C32.1514 13.764 35.2829 18.0427 35.2829 22.9693C35.2829 24.2245 35.0804 25.4528 34.7025 26.5866C34.0006 26.0197 33.4337 25.7768 32.7858 25.7768C32.2594 25.7768 31.976 25.9117 31.6655 26.0062C31.4091 26.1007 31.2876 25.9927 31.2471 25.7498C31.0986 24.7374 30.4777 24.3595 29.4789 24.3595H28.7771C27.9672 24.3595 27.3058 24.7779 26.8064 25.5473L26.5905 25.8847C26.2395 26.4246 25.9426 26.8566 25.6591 27.14C25.3757 27.383 25.1462 27.5044 24.5928 27.6799L23.972 27.8689C23.0406 28.1658 22.7437 28.9892 23.0001 29.907L23.6615 32.1881C23.891 33.0249 24.3904 33.4568 25.2002 33.4568C25.5512 33.4568 25.9831 33.3353 26.442 33.1194L26.6445 33.0114C26.9414 32.8629 27.1709 32.8089 27.4138 32.8089C27.9267 32.8089 28.2912 33.0654 28.6691 33.5243C27.1034 34.3072 25.3487 34.7526 23.4995 34.7526ZM27.3868 31.2432C26.9684 31.2432 26.4825 31.3917 25.9561 31.6077L25.5512 31.7561C25.3352 31.8371 25.1867 31.8236 25.1327 31.6212L24.5524 29.6775C24.4984 29.4751 24.5793 29.3536 24.7818 29.2861C25.8076 28.9892 26.361 28.5977 26.7119 28.2603C27.2518 27.7339 27.6973 26.9915 28.0887 26.4246C28.3316 26.0467 28.5206 25.9117 28.7636 25.9117H29.4654C29.6544 25.9117 29.6949 25.9792 29.7354 26.1277C29.9244 27.0725 30.4373 27.6259 31.3686 27.6259C32.0435 27.6259 32.3674 27.3425 32.7858 27.3425C33.1233 27.3425 33.5012 27.5584 34.0816 28.1118C33.1637 29.9745 31.7465 31.5807 30.0323 32.7415C29.4249 31.9721 28.6556 31.2432 27.3868 31.2432Z" fill="white"/>
</g>
<defs>
<linearGradient id="paint0_linear_1580_28531" x1="23.5" y1="0" x2="23.5" y2="47" gradientUnits="userSpaceOnUse">
<stop stop-color="#72A537"/>
<stop offset="1" stop-color="#156A37"/>
</linearGradient>
<clipPath id="clip0_1580_28531">
<rect width="43" height="43" fill="white" transform="translate(2 2)"/>
</clipPath>
</defs>
</svg>
