<svg width="21" height="20" viewBox="0 0 21 20" fill="none" xmlns="http://www.w3.org/2000/svg">
<path d="M10.3331 13.2061C10.5529 13.1998 10.7538 13.1182 10.917 12.9424L15.6882 8.05818C15.8263 7.92006 15.9016 7.74428 15.9016 7.53711C15.9016 7.12277 15.5752 6.79004 15.1609 6.79004C14.96 6.79004 14.7653 6.87165 14.621 7.01604L10.3394 11.4169L6.04534 7.01604C5.90095 6.87793 5.71261 6.79004 5.50544 6.79004C5.0911 6.79004 4.76465 7.12277 4.76465 7.53711C4.76465 7.74428 4.83998 7.92006 4.9781 8.05818L9.75558 12.9424C9.92508 13.1182 10.1134 13.2061 10.3331 13.2061Z" fill="#1C1C1E"/>
</svg>
