<svg width="24" height="24" viewBox="0 0 24 24" fill="none" xmlns="http://www.w3.org/2000/svg">
<path fill-rule="evenodd" clip-rule="evenodd" d="M10.8571 3C10.5072 3 10.1771 3.13542 9.93798 3.36787C9.69984 3.59939 9.57143 3.9073 9.57143 4.22222C9.57143 4.53714 9.69984 4.84505 9.93798 5.07658C10.1771 5.30903 10.5072 5.44444 10.8571 5.44444H13.1429C13.4928 5.44444 13.8229 5.30903 14.062 5.07658C14.3002 4.84505 14.4286 4.53714 14.4286 4.22222C14.4286 3.9073 14.3002 3.59939 14.062 3.36787C13.8229 3.13542 13.4928 3 13.1429 3H10.8571ZM8.54382 1.93388C9.16204 1.33284 9.99467 1 10.8571 1H13.1429C14.0053 1 14.838 1.33284 15.4562 1.93388C15.829 2.29639 16.1055 2.73889 16.2664 3.22222H17.7143C18.5768 3.22222 19.4094 3.55506 20.0276 4.1561C20.6468 4.75807 21 5.58062 21 6.44444V19.7778C21 20.6416 20.6468 21.4641 20.0276 22.0661C19.4094 22.6672 18.5768 23 17.7143 23H6.28571C5.42324 23 4.59061 22.6672 3.97239 22.0661C3.35322 21.4641 3 20.6416 3 19.7778V6.44444C3 5.58062 3.35322 4.75807 3.97239 4.1561C4.59061 3.55506 5.42324 3.22222 6.28571 3.22222H7.73362C7.89454 2.73889 8.17095 2.29639 8.54382 1.93388ZM7.73362 5.22222H6.28571C5.93577 5.22222 5.60564 5.35764 5.36655 5.59009C5.12841 5.82161 5 6.12953 5 6.44444V19.7778C5 20.0927 5.12841 20.4006 5.36655 20.6321C5.60564 20.8646 5.93577 21 6.28571 21H17.7143C18.0642 21 18.3944 20.8646 18.6335 20.6321C18.8716 20.4006 19 20.0927 19 19.7778V6.44444C19 6.12953 18.8716 5.82161 18.6335 5.59009C18.3944 5.35764 18.0642 5.22222 17.7143 5.22222H16.2664C16.1055 5.70556 15.829 6.14806 15.4562 6.51057C14.838 7.11161 14.0053 7.44444 13.1429 7.44444H10.8571C9.99467 7.44444 9.16204 7.11161 8.54382 6.51057C8.17095 6.14806 7.89454 5.70556 7.73362 5.22222ZM7.57143 12C7.57143 11.4477 8.01914 11 8.57143 11H8.58286C9.13514 11 9.58286 11.4477 9.58286 12C9.58286 12.5523 9.13514 13 8.58286 13H8.57143C8.01914 13 7.57143 12.5523 7.57143 12ZM11 12C11 11.4477 11.4477 11 12 11H15.4286C15.9809 11 16.4286 11.4477 16.4286 12C16.4286 12.5523 15.9809 13 15.4286 13H12C11.4477 13 11 12.5523 11 12ZM7.57143 16.4444C7.57143 15.8922 8.01914 15.4444 8.57143 15.4444H8.58286C9.13514 15.4444 9.58286 15.8922 9.58286 16.4444C9.58286 16.9967 9.13514 17.4444 8.58286 17.4444H8.57143C8.01914 17.4444 7.57143 16.9967 7.57143 16.4444ZM11 16.4444C11 15.8922 11.4477 15.4444 12 15.4444H15.4286C15.9809 15.4444 16.4286 15.8922 16.4286 16.4444C16.4286 16.9967 15.9809 17.4444 15.4286 17.4444H12C11.4477 17.4444 11 16.9967 11 16.4444Z" fill="black"/>
</svg>
