<svg width="27" height="29" viewBox="0 0 27 29" fill="none" xmlns="http://www.w3.org/2000/svg">
<path fill-rule="evenodd" clip-rule="evenodd" d="M6.34985 12.5173C6.29635 13.132 6.29571 13.7632 6.29571 14.436C6.29571 14.5043 6.28872 14.5724 6.27484 14.6392C6.06467 15.6517 5.5887 16.5901 4.89695 17.3621C4.66206 17.7355 4.52629 18.1592 4.50083 18.5949V18.7871L4.5006 18.8086C4.48747 19.4196 4.69189 20.0181 5.08185 20.5008C5.6622 21.0916 6.44192 21.4631 7.28223 21.5429L7.29429 21.5441L7.29428 21.5441C10.4188 21.8793 13.5712 21.8793 16.6957 21.5441L16.7118 21.5425C17.5526 21.466 18.3328 21.0936 18.9098 20.4995C19.3068 20.018 19.5145 19.4165 19.4992 18.8025C19.4991 18.7982 19.499 18.794 19.499 18.7898C19.4989 18.7857 19.4989 18.7817 19.4989 18.7776V18.5926C19.4758 18.1607 19.3404 17.7407 19.1042 17.3727C18.4141 16.5961 17.9382 15.6555 17.7253 14.6414C17.7161 14.5976 17.7099 14.5532 17.7067 14.5086C17.6806 14.1504 17.682 13.7944 17.6832 13.4816C17.6833 13.4635 17.6833 13.4456 17.6834 13.4279C17.6846 13.09 17.6839 12.7989 17.6597 12.5187C17.4084 9.95228 14.7946 8 12.0387 8H11.9611C9.20353 8 6.59212 9.9533 6.34985 12.5173ZM4.35829 12.3337C4.71934 8.48199 8.45212 6 11.9611 6H12.0387C15.5486 6 19.2785 8.48219 19.6509 12.3307L19.6518 12.34L19.6517 12.34C19.6853 12.7248 19.6846 13.1036 19.6834 13.4351L19.6833 13.4636C19.6822 13.7701 19.6812 14.0369 19.6968 14.2952C19.8478 14.9586 20.1703 15.5751 20.6358 16.0848C20.6683 16.1204 20.6983 16.1584 20.7253 16.1983C21.1927 16.8883 21.4604 17.6921 21.4979 18.5231C21.4986 18.5381 21.4989 18.5531 21.4989 18.5681V18.7659C21.5233 19.8784 21.1386 20.9598 20.419 21.8124C20.406 21.8278 20.3924 21.8429 20.3784 21.8576C19.4636 22.8167 18.2263 23.411 16.9013 23.5336C13.6394 23.8829 10.3486 23.8828 7.0867 23.5333C5.76498 23.4062 4.5311 22.8138 3.6144 21.8605C3.59756 21.843 3.58136 21.8249 3.56584 21.8062C2.85859 20.9544 2.47986 19.8812 2.50083 18.777V18.5681C2.50083 18.5516 2.50124 18.5351 2.50205 18.5186C2.54317 17.6894 2.80894 16.8873 3.27019 16.1951C3.29937 16.1513 3.33195 16.1099 3.36765 16.0712C3.82554 15.5753 4.14417 14.9745 4.29572 14.3272C4.29583 13.6982 4.29851 13.018 4.35772 12.34L4.35827 12.3337L4.35829 12.3337Z" fill="black"/>
<path fill-rule="evenodd" clip-rule="evenodd" d="M8.9316 25.0695C9.36356 24.7253 9.99271 24.7965 10.3368 25.2285C10.6697 25.6463 11.1626 25.9211 11.7089 25.9854C12.2554 26.0497 12.8031 25.8971 13.2304 25.5659L13.2454 25.5545C13.3737 25.4588 13.4887 25.348 13.5878 25.2248C13.934 24.7945 14.5635 24.7263 14.9938 25.0724C15.4241 25.4186 15.4923 26.0481 15.1461 26.4784C14.9427 26.7313 14.7082 26.9576 14.4483 27.1523C13.6045 27.8032 12.5352 28.0964 11.4752 27.9717C10.4118 27.8466 9.43827 27.3102 8.7726 26.4747C8.42846 26.0428 8.49965 25.4136 8.9316 25.0695Z" fill="black"/>
<ellipse cx="19.2" cy="7.4002" rx="7.2" ry="7.2" fill="#FE564B"/>
<path d="M17.5746 10.589L17.2351 9.74556L19.4363 7.2667C19.5529 7.14328 19.6729 7.0027 19.7963 6.84499C19.9266 6.68042 20.05 6.51242 20.1666 6.34099C20.2832 6.16956 20.3757 6.00156 20.4443 5.83699C20.5197 5.66556 20.5574 5.50442 20.5574 5.35356C20.5574 5.13413 20.5129 4.94899 20.4237 4.79813C20.3414 4.64042 20.218 4.52042 20.0534 4.43813C19.8957 4.35585 19.7037 4.3147 19.4774 4.3147C19.2786 4.3147 19.0832 4.37299 18.8911 4.48956C18.6991 4.60613 18.5243 4.7707 18.3666 4.98328C18.2089 5.19585 18.0854 5.4427 17.9963 5.72385L17.1426 5.18899C17.2591 4.79128 17.434 4.45185 17.6671 4.1707C17.9071 3.8827 18.1917 3.66328 18.5209 3.51242C18.8569 3.36156 19.2203 3.28613 19.6112 3.28613C20.0157 3.28613 20.3757 3.37185 20.6912 3.54328C21.0066 3.70785 21.2534 3.94099 21.4317 4.2427C21.61 4.53756 21.6992 4.88042 21.6992 5.27128C21.6992 5.42899 21.682 5.59013 21.6477 5.7547C21.6134 5.91928 21.5586 6.0907 21.4832 6.26899C21.4077 6.44042 21.3117 6.62213 21.1952 6.81413C21.0786 6.99928 20.938 7.1947 20.7734 7.40042C20.6157 7.60613 20.434 7.82213 20.2283 8.04842L18.5929 9.82785L18.3871 9.51928H21.9254V10.589H17.5746Z" fill="white"/>
</svg>
