<svg width="24" height="24" viewBox="0 0 24 24" fill="none" xmlns="http://www.w3.org/2000/svg">
<path d="M4.60497 23.7769C5.10618 24.1617 5.7247 24.0334 6.44986 23.5097L11.9952 19.4268L17.5405 23.5097C18.2657 24.0334 18.8949 24.1617 19.3961 23.7769C19.8866 23.4028 19.9933 22.7829 19.7053 21.9385L17.5192 15.4079L23.1179 11.3784C23.8324 10.8654 24.1416 10.2989 23.939 9.70034C23.7364 9.11247 23.1712 8.82389 22.2861 8.83458L15.4184 8.87733L13.3282 2.31467C13.0616 1.4596 12.6244 1 11.9952 1C11.3767 1 10.9395 1.4596 10.6622 2.31467L8.57202 8.87733L1.70434 8.83458C0.819214 8.82389 0.264681 9.11247 0.0620629 9.70034C-0.140555 10.2989 0.15804 10.8654 0.883199 11.3784L6.48185 15.4079L4.28505 21.9385C3.99712 22.7829 4.10376 23.4028 4.60497 23.7769ZM11.9952 17.2143V4.18513C12.0272 4.18513 12.0379 4.19582 12.0592 4.25995L13.7654 10.0958C13.9254 10.6302 14.2133 10.8119 14.7572 10.7905L20.8251 10.6516C20.8891 10.6516 20.9104 10.6623 20.9211 10.6837C20.9317 10.7157 20.9211 10.7264 20.8677 10.7585L15.8663 14.2001C15.3757 14.5315 15.3117 14.8521 15.493 15.3759L17.5192 21.1155C17.5405 21.169 17.5405 21.1796 17.5192 21.201C17.4979 21.2331 17.4765 21.2117 17.4339 21.1903L12.6244 17.4708C12.4111 17.2998 12.1978 17.2143 11.9952 17.2143Z" fill="black"/>
</svg>
