<svg width="24" height="24" viewBox="0 0 24 24" fill="none" xmlns="http://www.w3.org/2000/svg">
<g clip-path="url(#clip0_5093_16201)">
<path d="M4.27121 17.478L11.2629 21.4286C11.7484 21.7056 12.2428 21.7056 12.7283 21.4286L19.72 17.478C20.5763 16.9954 21 16.4949 21 15.2347V7.9861C21 7.03869 20.6469 6.43986 19.8524 5.98403L13.6464 2.46253C12.5606 1.84582 11.4394 1.84582 10.3448 2.46253L4.13879 5.98403C3.35311 6.43986 3 7.03869 3 7.9861V15.2347C3 16.4949 3.42374 16.9954 4.27121 17.478ZM16.1359 8.50449L9.61206 4.81317L11.0598 3.9909C11.6954 3.62445 12.2957 3.61551 12.9402 3.9909L18.5017 7.16382L16.1359 8.50449ZM11.9956 10.8462L5.49828 7.16382L7.93477 5.76058L14.4497 9.4519L11.9956 10.8462ZM5.24228 16.0927C4.75674 15.8156 4.58901 15.5385 4.58901 15.0648V8.57599L11.1658 12.3299V19.4801L5.24228 16.0927ZM18.7577 16.0927L12.8254 19.4801V12.3299L19.4022 8.57599V15.0648C19.4022 15.5385 19.2344 15.8156 18.7577 16.0927Z" fill="black"/>
<path d="M13.0034 15.7278H12.9939L12.9844 15.7282L12.8564 15.7343L12.9453 15.6591L12.9562 15.6499L12.9665 15.6399L14.3999 14.2404C14.5833 14.0651 14.7086 13.8226 14.7086 13.5174C14.7086 13.2441 14.6116 12.9863 14.4212 12.796C14.2306 12.6054 13.9713 12.5072 13.6927 12.5072C13.4225 12.5072 13.1507 12.6269 12.9589 12.81L12.9588 12.81L12.9542 12.8145L9.71861 16.0049C9.50739 16.2083 9.3998 16.483 9.3998 16.7606C9.3998 17.0344 9.50868 17.3085 9.71862 17.5106L12.9542 20.701L12.9542 20.7011L12.9589 20.7056C13.1507 20.8887 13.4225 21.0083 13.6927 21.0083C13.9713 21.0083 14.2306 20.9102 14.4212 20.7195C14.6116 20.5292 14.7086 20.2715 14.7086 19.9981C14.7086 19.6864 14.5783 19.4535 14.405 19.2802L14.405 19.2802L14.4016 19.2769L12.9665 17.8756L12.9557 17.8652L12.9443 17.8555L12.8565 17.7818L12.9861 17.7874L12.9948 17.7878H13.0034H16.5799C17.4092 17.7878 18.0053 18.0226 18.3903 18.3791C18.7725 18.7329 18.988 19.2445 18.988 19.8851C18.988 20.5265 18.7718 21.0514 18.3866 21.4172C18.0001 21.7841 17.4046 22.0277 16.5799 22.0277H15.2578C14.6616 22.0277 14.2194 22.4916 14.2194 23.0548C14.2194 23.6204 14.664 24.082 15.2635 24.082H16.6251C17.9634 24.082 19.0722 23.6862 19.8491 22.9453C20.6279 22.2025 21.0311 21.153 21.0311 19.9303C21.0311 18.7137 20.6193 17.6528 19.83 16.8969C19.0418 16.1422 17.9154 15.7278 16.5517 15.7278H13.0034Z" fill="black" stroke="white" stroke-width="0.8"/>
</g>
<defs>
<clipPath id="clip0_5093_16201">
<rect width="24" height="24" fill="white"/>
</clipPath>
</defs>
</svg>
