<svg width="16" height="17" viewBox="0 0 16 17" fill="none" xmlns="http://www.w3.org/2000/svg">
<path d="M3.06654 16.4023C3.17155 16.4848 3.28969 16.5151 3.42095 16.4931C3.55746 16.471 3.71235 16.3968 3.88562 16.2702L7.99673 13.1096L12.1157 16.2702C12.2837 16.3968 12.4334 16.471 12.5646 16.4931C12.7011 16.5151 12.8219 16.4848 12.9269 16.4023C13.0319 16.3198 13.0975 16.207 13.1238 16.0639C13.1501 15.9264 13.1317 15.7531 13.0687 15.544L11.462 10.4688L15.6046 7.34945C15.7727 7.21741 15.8855 7.08813 15.9433 6.96159C16.0063 6.83505 16.0168 6.70577 15.9748 6.57373C15.9328 6.44719 15.8514 6.34816 15.7307 6.27664C15.6151 6.20512 15.4524 6.17211 15.2424 6.17762L10.1468 6.19412L8.5874 1.11067C8.51915 0.896113 8.43514 0.742069 8.33538 0.648542C8.24087 0.549514 8.12799 0.5 7.99673 0.5C7.86546 0.5 7.74995 0.549514 7.6502 0.648542C7.55569 0.742069 7.47693 0.896113 7.41392 1.11067L5.85454 6.19412L0.758968 6.17762C0.548949 6.17211 0.38356 6.20512 0.262799 6.27664C0.142039 6.34816 0.0632818 6.44719 0.0265286 6.57373C-0.015475 6.70577 -0.00759935 6.83505 0.0501557 6.96159C0.107911 7.08813 0.220796 7.21741 0.38881 7.34945L4.53142 10.4688L2.93266 15.544C2.8644 15.7531 2.8434 15.9264 2.86965 16.0639C2.8959 16.207 2.96154 16.3198 3.06654 16.4023Z" fill="#FEB700"/>
</svg>
