<svg width="13" height="12" viewBox="0 0 13 12" fill="none" xmlns="http://www.w3.org/2000/svg">
<path d="M3.19124 11.4351C3.26771 11.4944 3.35374 11.5162 3.44934 11.5004C3.54875 11.4846 3.66155 11.4311 3.78773 11.3402L6.78167 9.06738L9.78135 11.3402C9.90371 11.4311 10.0127 11.4846 10.1083 11.5004C10.2077 11.5162 10.2956 11.4944 10.3721 11.4351C10.4486 11.3758 10.4964 11.2947 10.5155 11.1918C10.5346 11.0929 10.5212 10.9683 10.4753 10.818L9.3053 7.16845L12.3222 4.92534C12.4445 4.8304 12.5268 4.73743 12.5688 4.64644C12.6147 4.55545 12.6223 4.46248 12.5918 4.36753C12.5612 4.27654 12.5019 4.20533 12.414 4.1539C12.3298 4.10247 12.2113 4.07874 12.0584 4.08269L8.34747 4.09456L7.21184 0.439127C7.16213 0.284839 7.10095 0.174068 7.0283 0.106815C6.95947 0.0356049 6.87727 0 6.78167 0C6.68608 0 6.60196 0.0356049 6.52931 0.106815C6.46048 0.174068 6.40313 0.284839 6.35724 0.439127L5.22161 4.09456L1.51073 4.08269C1.35778 4.07874 1.23734 4.10247 1.14939 4.1539C1.06145 4.20533 1.00409 4.27654 0.977327 4.36753C0.946738 4.46248 0.952474 4.55545 0.994534 4.64644C1.03659 4.73743 1.1188 4.8304 1.24116 4.92534L4.25804 7.16845L3.09373 10.818C3.04403 10.9683 3.02873 11.0929 3.04785 11.1918C3.06697 11.2947 3.11476 11.3758 3.19124 11.4351Z" fill="#86868B"/>
</svg>
