<svg width="24" height="24" viewBox="0 0 24 24" fill="none" xmlns="http://www.w3.org/2000/svg">
<g clip-path="url(#clip0_9734_19289)">
<path d="M12 24C18.6274 24 24 18.6274 24 12C24 5.37258 18.6274 0 12 0C5.37258 0 0 5.37258 0 12C0 18.6274 5.37258 24 12 24Z" fill="url(#paint0_linear_9734_19289)"/>
<path d="M11.9996 11.4229C13.7733 11.4229 15.2111 9.98506 15.2111 8.21143C15.2111 6.43781 13.7733 5 11.9996 5C10.2259 5 8.78809 6.43781 8.78809 8.21143C8.78809 9.98506 10.2259 11.4229 11.9996 11.4229Z" fill="white"/>
<path d="M8.85885 12.707H15.1409C15.5076 12.707 15.8707 12.7793 16.2095 12.9197C16.5483 13.06 16.8562 13.2658 17.1155 13.5251C17.3747 13.7845 17.5804 14.0924 17.7206 14.4312C17.8609 14.7701 17.933 15.1332 17.9329 15.5V17.6499C17.9329 18.008 17.7906 18.3513 17.5375 18.6045C17.2843 18.8577 16.9409 18.9999 16.5829 18.9999H7.41885C7.06081 18.9999 6.71743 18.8577 6.46425 18.6045C6.21108 18.3513 6.06885 18.008 6.06885 17.6499V15.5C6.06858 14.7597 6.36235 14.0496 6.88555 13.5258C7.40874 13.0021 8.11854 12.7076 8.85885 12.707Z" fill="white"/>
</g>
<defs>
<linearGradient id="paint0_linear_9734_19289" x1="14.6905" y1="26.1489" x2="6.88298" y2="1.24749" gradientUnits="userSpaceOnUse">
<stop stop-color="#0468E4"/>
<stop offset="1" stop-color="#11A7FF"/>
</linearGradient>
<clipPath id="clip0_9734_19289">
<rect width="24" height="24" fill="white"/>
</clipPath>
</defs>
</svg>
