<svg width="12" height="13" viewBox="0 0 12 13" fill="none" xmlns="http://www.w3.org/2000/svg">
<path d="M1.62375 11.9378L1.63875 11.9348C3.01125 11.6626 3.84975 11.3033 4.23975 11.1061C4.81394 11.2592 5.40574 11.3364 6 11.3356C9.3135 11.3356 12 8.98507 12 6.08557C12 3.18607 9.3135 0.835571 6 0.835571C2.6865 0.835571 0 3.18607 0 6.08557C0 7.40557 0.55725 8.61307 1.4775 9.53557C1.41312 10.1281 1.28126 10.7114 1.0845 11.2741L1.08225 11.2823C1.02633 11.4435 0.965302 11.6028 0.89925 11.7601C0.84 11.8996 0.95475 12.0556 1.104 12.0316C1.27775 12.0031 1.45102 11.9719 1.62375 11.9378ZM2.22375 9.60682C2.23426 9.49702 2.22041 9.38625 2.18321 9.28241C2.146 9.17857 2.08635 9.08422 2.0085 9.00607C1.2135 8.20807 0.75 7.18657 0.75 6.08557C0.75 3.69157 3.003 1.58557 6 1.58557C8.997 1.58557 11.25 3.69157 11.25 6.08557C11.25 8.48032 8.997 10.5856 6 10.5856C5.47133 10.5863 4.94483 10.5178 4.434 10.3816C4.25548 10.3337 4.06559 10.3535 3.90075 10.4371C3.6105 10.5841 2.97075 10.8646 1.92525 11.1068C2.07111 10.6172 2.17104 10.115 2.22375 9.60682Z" fill="#FF000F"/>
</svg>
