<svg width="28" height="28" viewBox="0 0 28 28" fill="none" xmlns="http://www.w3.org/2000/svg">
<circle cx="14" cy="14" r="14" fill="#F4F4F4"/>
<path d="M16.9788 6.41669H12.0913C11.808 6.41669 11.5247 6.55835 11.3122 6.77085C11.0997 6.98335 10.958 7.26669 10.958 7.55002V16.6167C10.958 16.9 11.0997 17.1834 11.3122 17.3959C11.5247 17.6084 11.808 17.75 12.0913 17.75H19.033C19.3163 17.75 19.5997 17.6084 19.8122 17.3959C20.0247 17.1834 20.1663 16.9 20.1663 16.6167V9.60419L16.9788 6.41669Z" stroke="#29AB56" stroke-width="1.4" stroke-linecap="round" stroke-linejoin="round"/>
<path d="M8.125 10.3834V19.45C8.125 19.7334 8.26667 20.0167 8.47917 20.2292C8.69167 20.4417 8.975 20.5834 9.25833 20.5834H16.2" stroke="#29AB56" stroke-width="1.4" stroke-linecap="round" stroke-linejoin="round"/>
<path d="M16.625 6.41669V9.95835H20.1667" stroke="#29AB56" stroke-width="1.4" stroke-linecap="round" stroke-linejoin="round"/>
</svg>
