<svg width="28" height="28" viewBox="0 0 28 28" fill="none" xmlns="http://www.w3.org/2000/svg">
<path d="M10.5 4.66669L8.16667 7.00002L5.83333 9.33335L8.16667 11.6667L10.5 14L11.3167 13.1834L12.1333 12.3667L10.6167 10.85L9.1 9.33335L10.6167 7.81669L12.1333 6.30002L11.3167 5.48335L10.5 4.66669ZM17.5 4.66669L16.6833 5.48335L15.8667 6.30002L17.3833 7.81669L18.9 9.33335L17.3833 10.85L15.8667 12.3667L16.6833 13.1834L17.5 14L19.8333 11.6667L22.1667 9.33335L19.8333 7.00002L17.5 4.66669ZM24.4732 22.2717L24.0205 20.4844C23.9915 20.3704 23.9398 20.2635 23.8684 20.1701C23.797 20.0766 23.7075 19.9986 23.6052 19.9407C23.5023 19.8819 23.3888 19.8442 23.2712 19.8297C23.1536 19.8153 23.0343 19.8245 22.9203 19.8567L17.6097 21.3547L14 19.8334L18.5675 18.6632C18.8793 18.385 19.1052 18.0236 19.2185 17.6214L18.8603 16.3334L9.33333 17.5H3.5V24.5H9.33333L14.5308 25.6247C14.8134 25.6504 15.098 25.6437 15.379 25.6049L23.849 23.3252C24.0712 23.2657 24.2613 23.1217 24.3787 22.9239C24.4366 22.8265 24.4748 22.7187 24.491 22.6066C24.5072 22.4945 24.5012 22.3815 24.4732 22.2717ZM7 23.3334H4.66667V18.6667H7V23.3334ZM15.0757 24.479C15.0231 24.4927 14.969 24.4998 14.9147 24.5C14.8696 24.5002 14.8246 24.4955 14.7805 24.486L9.33333 23.2902V18.69L17.8838 17.6307L12.1239 19.6714C11.9557 19.731 11.9438 19.9644 12.1052 20.0407L17.1745 22.4374L17.5443 22.5855L17.927 22.477L22.9623 21.0572L23.2703 22.2729L15.0757 24.479Z" fill="#007B2B"/>
</svg>
