<svg width="16" height="17" viewBox="0 0 16 17" fill="none" xmlns="http://www.w3.org/2000/svg">
<path d="M2 7.63574V13.6357C2 13.9894 2.14048 14.3285 2.39052 14.5786C2.64057 14.8286 2.97971 14.9691 3.33333 14.9691H12.6667C13.0203 14.9691 13.3594 14.8286 13.6095 14.5786C13.8595 14.3285 14 13.9894 14 13.6357V7.63574" stroke="#2E9DFF" stroke-width="1.5"/>
<path d="M9.88867 14.9691V10.9691C9.88867 10.6155 9.7482 10.2763 9.49815 10.0263C9.2481 9.77622 8.90896 9.63574 8.55534 9.63574H7.22201C6.86838 9.63574 6.52924 9.77622 6.2792 10.0263C6.02915 10.2763 5.88867 10.6155 5.88867 10.9691V14.9691" stroke="#2E9DFF" stroke-width="1.5" stroke-miterlimit="16"/>
<path d="M14.545 7.21178L13.4157 3.25912C13.3918 3.17555 13.3413 3.10204 13.2719 3.04972C13.2025 2.99739 13.1179 2.9691 13.031 2.96912H10.333L10.6497 6.77178C10.6545 6.83293 10.6738 6.89205 10.706 6.94423C10.7382 6.99641 10.7825 7.04014 10.835 7.07178C11.095 7.22712 11.603 7.51378 11.9997 7.63578C12.677 7.84445 13.6663 7.76912 14.2303 7.69978C14.2852 7.69269 14.3378 7.67373 14.3845 7.6442C14.4313 7.61468 14.471 7.57531 14.501 7.52885C14.5309 7.48238 14.5504 7.42994 14.558 7.37518C14.5656 7.32041 14.5612 7.26465 14.545 7.21178Z" stroke="#2E9DFF" stroke-width="1.5"/>
<path d="M9.3332 7.63578C9.71187 7.51912 10.1919 7.25312 10.4599 7.09445C10.5223 7.05727 10.573 7.00317 10.6061 6.9384C10.6391 6.87364 10.6531 6.80085 10.6465 6.72845L10.3332 2.96912H5.66654L5.3532 6.72845C5.34649 6.80096 5.36046 6.87389 5.3935 6.93878C5.42654 7.00368 5.47729 7.05788 5.53987 7.09512C5.80787 7.25312 6.28787 7.51912 6.66654 7.63578C7.66187 7.94245 8.33787 7.94245 9.3332 7.63578V7.63578Z" stroke="#2E9DFF" stroke-width="1.5"/>
<path d="M2.58403 3.25912L1.4547 7.21245C1.43876 7.26524 1.4345 7.32086 1.44221 7.37546C1.44993 7.43006 1.46943 7.48232 1.49937 7.52863C1.52931 7.57493 1.56897 7.61417 1.61559 7.64361C1.66222 7.67305 1.71469 7.69199 1.76937 7.69912C2.3327 7.76912 3.3227 7.84378 4.00004 7.63578C4.3967 7.51378 4.90537 7.22712 5.1647 7.07245C5.21733 7.04074 5.26161 6.9969 5.29385 6.9446C5.32609 6.8923 5.34535 6.83304 5.35003 6.77178L5.6667 2.96912H2.9687C2.88178 2.9691 2.79722 2.99739 2.72782 3.04972C2.65841 3.10204 2.60794 3.17555 2.58403 3.25912V3.25912Z" stroke="#2E9DFF" stroke-width="1.5"/>
</svg>
