<svg width="7" height="12" viewBox="0 0 7 12" fill="none" xmlns="http://www.w3.org/2000/svg">
<path d="M5.74912 10.2148C5.74912 10.3392 5.71038 10.4473 5.63291 10.539C5.55544 10.6241 5.45711 10.6667 5.33793 10.6667C5.2247 10.6667 5.12637 10.6209 5.04294 10.5292L1.31542 6.56987C1.16048 6.41267 1.08301 6.226 1.08301 6.00986C1.08301 5.78717 1.16048 5.59396 1.31542 5.43022L5.04294 1.47092C5.13233 1.37922 5.23066 1.33337 5.33793 1.33337C5.44519 1.33337 5.54054 1.37595 5.62397 1.46109C5.7074 1.54624 5.74912 1.65431 5.74912 1.7853C5.75507 1.90975 5.71336 2.01454 5.62397 2.09969L1.95008 6.00004L5.62397 9.90039C5.7074 9.98554 5.74912 10.0903 5.74912 10.2148Z" fill="white" stroke="white"/>
</svg>
