<svg width="7" height="12" viewBox="0 0 7 12" fill="none" xmlns="http://www.w3.org/2000/svg">
<path d="M1.25088 1.78522C1.25088 1.66078 1.28962 1.55271 1.36709 1.46101C1.44456 1.37587 1.54289 1.33329 1.66207 1.33329C1.7753 1.33329 1.87363 1.37914 1.95706 1.47084L5.68458 5.43013C5.83952 5.58733 5.91699 5.774 5.91699 5.99014C5.91699 6.21283 5.83952 6.40604 5.68458 6.56978L1.95706 10.5291C1.86767 10.6208 1.76934 10.6666 1.66207 10.6666C1.55481 10.6666 1.45946 10.6241 1.37603 10.5389C1.2926 10.4538 1.25088 10.3457 1.25088 10.2147C1.24492 10.0903 1.28664 9.98546 1.37603 9.90031L5.04992 5.99996L1.37603 2.09961C1.2926 2.01446 1.25088 1.90967 1.25088 1.78522Z" fill="white" stroke="white"/>
</svg>
