<svg width="27" height="27" viewBox="0 0 27 27" fill="none" xmlns="http://www.w3.org/2000/svg">
<g clip-path="url(#clip0_2075_36022)">
<path fill-rule="evenodd" clip-rule="evenodd" d="M7.85938 23.6318C7.85938 22.3916 8.86477 21.3862 10.105 21.3862C11.3452 21.3862 12.3506 22.3916 12.3506 23.6318C12.3506 24.8721 11.3452 25.8775 10.105 25.8775C8.86477 25.8775 7.85938 24.8721 7.85938 23.6318Z" fill="#22AF5B"/>
<path fill-rule="evenodd" clip-rule="evenodd" d="M20.2109 23.6318C20.2109 22.3916 21.2163 21.3862 22.4566 21.3862C23.6968 21.3862 24.7022 22.3916 24.7022 23.6318C24.7022 24.8721 23.6968 25.8775 22.4566 25.8775C21.2163 25.8775 20.2109 24.8721 20.2109 23.6318Z" fill="#22AF5B"/>
<path fill-rule="evenodd" clip-rule="evenodd" d="M0 1.17554C0 0.555432 0.502698 0.0527344 1.12281 0.0527344H5.61404C6.1492 0.0527344 6.60998 0.43043 6.71501 0.955183L7.65803 5.66677H25.8246C26.1592 5.66677 26.4764 5.81602 26.6897 6.07385C26.903 6.33168 26.9902 6.67121 26.9275 6.99991L25.1294 16.4287C24.9754 17.2041 24.5535 17.9006 23.9377 18.3963C23.325 18.8896 22.559 19.1528 21.7727 19.1405H10.8785C10.0922 19.1528 9.32626 18.8896 8.71352 18.3963C8.09796 17.9008 7.67622 17.2046 7.52205 16.4296C7.52199 16.4293 7.52212 16.4299 7.52205 16.4296L5.64636 7.05815C5.63875 7.02716 5.63243 6.99565 5.62745 6.9637L4.69369 2.29835H1.12281C0.502698 2.29835 0 1.79565 0 1.17554ZM8.10749 7.91238L9.72445 15.9912C9.77579 16.2497 9.9164 16.4818 10.1217 16.6471C10.3269 16.8123 10.5838 16.9001 10.8473 16.895L10.8688 16.8948H21.7825L21.804 16.895C22.0674 16.9001 22.3243 16.8123 22.5296 16.6471C22.7339 16.4826 22.8741 16.2518 22.9261 15.9948L24.4674 7.91238H8.10749Z" fill="#22AF5B"/>
</g>
<defs>
<clipPath id="clip0_2075_36022">
<rect width="26.9474" height="26.9474" fill="#22AF5B" transform="translate(0 0.0527344)"/>
</clipPath>
</defs>
</svg>
