<svg width="25" height="23" viewBox="0 0 25 23" fill="none" xmlns="http://www.w3.org/2000/svg">
<path d="M5.18677 22.3627C6.6266 22.3627 9.53735 20.9643 11.7334 19.4001C19.0465 19.5348 24.5158 15.3085 24.5158 9.75631C24.5158 4.40095 19.1604 0.0917969 12.4895 0.0917969C5.81864 0.0917969 0.473633 4.40095 0.473633 9.75631C0.473633 13.1643 2.58677 16.1993 5.829 17.7842C5.38358 18.6232 4.59633 19.773 4.15091 20.3738C3.48797 21.2543 3.94374 22.3627 5.18677 22.3627ZM6.44015 20.2184C6.30549 20.2702 6.2537 20.1977 6.34692 20.0838C6.87521 19.4415 7.6521 18.4161 8.03537 17.691C8.34612 17.1212 8.24254 16.624 7.57959 16.3133C4.42024 14.832 2.58677 12.4599 2.58677 9.75631C2.58677 5.59218 6.97879 2.20494 12.4895 2.20494C18.0003 2.20494 22.3923 5.59218 22.3923 9.75631C22.3923 13.9204 18.0003 17.318 12.4895 17.318C12.3031 17.318 12.013 17.3077 11.6609 17.3077C11.2154 17.2973 10.884 17.432 10.4696 17.7531C9.21624 18.6854 7.36206 19.8455 6.44015 20.2184Z" fill="white"/>
</svg>
