<svg width="20" height="20" viewBox="0 0 20 20" fill="none" xmlns="http://www.w3.org/2000/svg">
<g clip-path="url(#clip0_5817_14321)">
<path d="M15.2493 18.889C15.011 18.8887 14.7782 18.8152 14.5807 18.6779L10.5581 15.9001C10.5383 15.886 10.5148 15.8784 10.4907 15.8784C10.4666 15.8784 10.4431 15.886 10.4233 15.9001L6.40078 18.6779C6.19878 18.8168 5.96054 18.8892 5.71768 18.8853C5.47483 18.8815 5.23885 18.8016 5.04109 18.6564C4.84333 18.5111 4.69314 18.3073 4.61047 18.072C4.52779 17.8367 4.51655 17.581 4.57823 17.339L5.89931 12.539C5.90555 12.5148 5.90479 12.4893 5.89713 12.4656C5.88946 12.4419 5.87522 12.4211 5.85617 12.4056L2.04931 9.3223C1.8489 9.16848 1.70024 8.9539 1.62418 8.70864C1.54812 8.46338 1.54846 8.19974 1.62516 7.9547C1.70187 7.70965 1.85108 7.49548 2.05189 7.34222C2.2527 7.18895 2.49502 7.10428 2.74489 7.10008L7.59784 6.91119C7.6217 6.90949 7.64457 6.90072 7.66371 6.88594C7.68284 6.87115 7.69742 6.85098 7.70568 6.82786L9.37725 2.14452C9.4615 1.9071 9.61454 1.70209 9.81563 1.55724C10.0167 1.4124 10.2562 1.33472 10.5015 1.33472C10.7469 1.33472 10.9863 1.4124 11.1874 1.55724C11.3885 1.70209 11.5415 1.9071 11.6258 2.14452L13.2973 6.82786C13.3056 6.85098 13.3202 6.87115 13.3393 6.88594C13.3585 6.90072 13.3813 6.90949 13.4052 6.91119L18.2581 7.10008C18.508 7.10428 18.7503 7.18895 18.9511 7.34222C19.1519 7.49548 19.3012 7.70965 19.3779 7.9547C19.4546 8.19974 19.4549 8.46338 19.3788 8.70864C19.3028 8.9539 19.1541 9.16848 18.9537 9.3223L15.1469 12.4056C15.1272 12.4206 15.1125 12.4414 15.1048 12.4653C15.0971 12.4891 15.0967 12.5149 15.1037 12.539L16.4248 17.339C16.4712 17.5231 16.4758 17.7157 16.4382 17.902C16.4007 18.0882 16.3221 18.263 16.2084 18.4129C16.0947 18.5628 15.9491 18.6837 15.7828 18.7663C15.6165 18.8488 15.4339 18.8908 15.2493 18.889ZM10.4934 14.7667C10.7322 14.7743 10.9633 14.8556 11.1567 15.0001L15.1792 17.7779C15.1996 17.7938 15.2244 17.8026 15.2501 17.8028C15.2757 17.803 15.3006 17.7946 15.3213 17.779C15.3419 17.7634 15.3571 17.7413 15.3645 17.7161C15.3719 17.6908 15.3713 17.6638 15.3625 17.639L14.0415 12.839C13.9765 12.6035 13.9813 12.3534 14.0552 12.1208C14.1292 11.8881 14.269 11.6836 14.4567 11.5334L18.2635 8.45008C18.2843 8.43505 18.2998 8.41356 18.3079 8.38875C18.3159 8.36395 18.316 8.33715 18.3082 8.31228C18.3003 8.28742 18.2849 8.2658 18.2643 8.2506C18.2436 8.23541 18.2188 8.22743 18.1934 8.22786L13.3405 8.03897C13.1029 8.02942 12.8734 7.94718 12.6813 7.80272C12.4892 7.65826 12.3433 7.45813 12.2621 7.22786L10.5905 2.54452C10.5829 2.51966 10.5679 2.49792 10.5475 2.48249C10.5272 2.46705 10.5025 2.45873 10.4772 2.45873C10.452 2.45873 10.4273 2.46705 10.407 2.48249C10.3866 2.49792 10.3715 2.51966 10.364 2.54452L8.70862 7.2223C8.62739 7.45257 8.48143 7.6527 8.28936 7.79716C8.09729 7.94162 7.86781 8.02387 7.63019 8.03341L2.77725 8.2223C2.75187 8.22188 2.72704 8.22985 2.70639 8.24505C2.68573 8.26024 2.67036 8.28186 2.66251 8.30673C2.65467 8.3316 2.65477 8.3584 2.66281 8.3832C2.67084 8.408 2.68638 8.42949 2.70715 8.44452L6.5194 11.5334C6.70648 11.6841 6.84585 11.8886 6.91978 12.1211C6.99371 12.3536 6.99887 12.6035 6.9346 12.839L5.61891 17.639C5.61106 17.663 5.61102 17.689 5.61881 17.7131C5.62659 17.7371 5.64177 17.7579 5.66205 17.7723C5.68158 17.7895 5.70644 17.799 5.73215 17.799C5.75785 17.799 5.78271 17.7895 5.80225 17.7723L9.8248 14.9945C10.0214 14.8602 10.2521 14.7887 10.488 14.789L10.4934 14.7667Z" fill="#FDB600"/>
</g>
<defs>
<clipPath id="clip0_5817_14321">
<rect width="19.4118" height="20" fill="white" transform="translate(0.587891)"/>
</clipPath>
</defs>
</svg>
