<svg width="21" height="20" viewBox="0 0 21 20" fill="none" xmlns="http://www.w3.org/2000/svg">
<g clip-path="url(#clip0_5817_16714)">
<path d="M19.2745 9.32224C19.4749 9.16842 19.6236 8.95383 19.6997 8.70858C19.7757 8.46332 19.7754 8.19968 19.6987 7.95463C19.622 7.70958 19.4728 7.49541 19.272 7.34215C19.0711 7.18889 18.8288 7.10422 18.579 7.10001L13.726 6.91112C13.7021 6.90943 13.6793 6.90066 13.6601 6.88587C13.641 6.87109 13.6264 6.85092 13.6182 6.82779L11.9412 2.16113C11.8569 1.9237 11.7039 1.71869 11.5028 1.57384C11.3017 1.429 11.0623 1.35132 10.8169 1.35132C10.5716 1.35132 10.3321 1.429 10.1311 1.57384C9.92997 1.71869 9.77693 1.9237 9.69268 2.16113L8.02111 6.84446C8.01285 6.86758 7.99827 6.88775 7.97913 6.90254C7.96 6.91733 7.93713 6.9261 7.91326 6.92779L3.06032 7.11668C2.81045 7.12089 2.56813 7.20555 2.36732 7.35882C2.16651 7.51208 2.0173 7.72625 1.94059 7.9713C1.86389 8.21635 1.86355 8.47998 1.93961 8.72524C2.01567 8.9705 2.16433 9.18508 2.36474 9.3389L6.1716 12.4222C6.19065 12.4377 6.20489 12.4585 6.21256 12.4822C6.22022 12.5059 6.22098 12.5314 6.21473 12.5556L4.90444 17.3389C4.83654 17.5825 4.84312 17.8417 4.92328 18.0813C5.00344 18.3209 5.15329 18.5292 5.35245 18.6779C5.5516 18.8267 5.7904 18.9086 6.03634 18.9125C6.28228 18.9165 6.52343 18.8423 6.72699 18.7L10.7495 15.9222C10.7694 15.9081 10.7929 15.9006 10.8169 15.9006C10.841 15.9006 10.8645 15.9081 10.8843 15.9222L14.9069 18.7C15.1077 18.8471 15.348 18.9262 15.5944 18.9262C15.8408 18.9262 16.0811 18.8471 16.2819 18.7C16.4811 18.5527 16.6311 18.3454 16.7112 18.1066C16.7914 17.8678 16.7977 17.6093 16.7294 17.3667L15.4084 12.5667C15.4014 12.5426 15.4017 12.5168 15.4095 12.493C15.4172 12.4691 15.4319 12.4483 15.4515 12.4333L19.2745 9.32224Z" fill="#FDD116"/>
<path d="M15.6028 18.889C15.3645 18.8887 15.1317 18.8152 14.9342 18.6779L10.9116 15.9001C10.8918 15.886 10.8683 15.8784 10.8442 15.8784C10.8202 15.8784 10.7967 15.886 10.7768 15.9001L6.75429 18.6779C6.5523 18.8168 6.31405 18.8892 6.0712 18.8853C5.82834 18.8815 5.59237 18.8016 5.39461 18.6564C5.19684 18.5111 5.04665 18.3073 4.96398 18.072C4.88131 17.8367 4.87007 17.581 4.93174 17.339L6.25282 12.539C6.25907 12.5148 6.25831 12.4893 6.25064 12.4656C6.24298 12.4419 6.22874 12.4211 6.20968 12.4056L2.40282 9.3223C2.20242 9.16848 2.05376 8.9539 1.9777 8.70864C1.90163 8.46338 1.90198 8.19974 1.97868 7.9547C2.05538 7.70965 2.2046 7.49548 2.40541 7.34222C2.60621 7.18895 2.84854 7.10428 3.09841 7.10008L7.95135 6.91119C7.97521 6.90949 7.99809 6.90072 8.01722 6.88594C8.03636 6.87115 8.05093 6.85098 8.05919 6.82786L9.73076 2.14452C9.81502 1.9071 9.96805 1.70209 10.1691 1.55724C10.3702 1.4124 10.6097 1.33472 10.855 1.33472C11.1004 1.33472 11.3398 1.4124 11.5409 1.55724C11.742 1.70209 11.895 1.9071 11.9793 2.14452L13.6509 6.82786C13.6591 6.85098 13.6737 6.87115 13.6928 6.88594C13.712 6.90072 13.7348 6.90949 13.7587 6.91119L18.6116 7.10008C18.8615 7.10428 19.1038 7.18895 19.3046 7.34222C19.5055 7.49548 19.6547 7.70965 19.7314 7.9547C19.8081 8.19974 19.8084 8.46338 19.7324 8.70864C19.6563 8.9539 19.5076 9.16848 19.3072 9.3223L15.5004 12.4056C15.4807 12.4206 15.4661 12.4414 15.4583 12.4653C15.4506 12.4891 15.4502 12.5149 15.4572 12.539L16.7783 17.339C16.8247 17.5231 16.8293 17.7157 16.7918 17.902C16.7542 18.0882 16.6756 18.263 16.5619 18.4129C16.4482 18.5628 16.3026 18.6837 16.1363 18.7663C15.97 18.8488 15.7874 18.8908 15.6028 18.889ZM10.8469 14.7667C11.0857 14.7743 11.3168 14.8556 11.5102 15.0001L15.5327 17.7779C15.5531 17.7938 15.578 17.8026 15.6036 17.8028C15.6292 17.803 15.6542 17.7946 15.6748 17.779C15.6954 17.7634 15.7106 17.7413 15.718 17.7161C15.7255 17.6908 15.7248 17.6638 15.7161 17.639L14.395 12.839C14.33 12.6035 14.3348 12.3534 14.4087 12.1208C14.4827 11.8881 14.6225 11.6836 14.8102 11.5334L18.617 8.45008C18.6378 8.43505 18.6533 8.41356 18.6614 8.38876C18.6694 8.36395 18.6695 8.33715 18.6617 8.31229C18.6538 8.28742 18.6385 8.2658 18.6178 8.2506C18.5971 8.23541 18.5723 8.22744 18.5469 8.22786L13.694 8.03897C13.4564 8.02942 13.2269 7.94718 13.0348 7.80272C12.8428 7.65826 12.6968 7.45813 12.6156 7.22786L10.944 2.54452C10.9365 2.51966 10.9214 2.49792 10.901 2.48249C10.8807 2.46705 10.856 2.45873 10.8308 2.45873C10.8055 2.45873 10.7809 2.46705 10.7605 2.48249C10.7401 2.49792 10.7251 2.51966 10.7175 2.54452L9.06213 7.2223C8.98091 7.45257 8.83495 7.6527 8.64288 7.79716C8.45081 7.94162 8.22133 8.02387 7.9837 8.03341L3.13076 8.2223C3.10539 8.22188 3.08055 8.22985 3.0599 8.24505C3.03925 8.26025 3.02387 8.28186 3.01603 8.30673C3.00819 8.3316 3.00829 8.3584 3.01632 8.3832C3.02436 8.408 3.0399 8.4295 3.06066 8.44452L6.87292 11.5334C7.06 11.6841 7.19936 11.8886 7.27329 12.1211C7.34722 12.3536 7.35238 12.6035 7.28812 12.839L5.97243 17.639C5.96458 17.663 5.96454 17.689 5.97232 17.7131C5.98011 17.7371 5.99529 17.7579 6.01557 17.7723C6.0351 17.7895 6.05996 17.799 6.08566 17.799C6.11137 17.799 6.13623 17.7895 6.15576 17.7723L10.1783 14.9945C10.3749 14.8602 10.6056 14.7887 10.8415 14.789L10.8469 14.7667Z" fill="#FDB600"/>
</g>
<defs>
<clipPath id="clip0_5817_16714">
<rect width="19.4118" height="20" fill="white" transform="translate(0.941406)"/>
</clipPath>
</defs>
</svg>
