<svg width="81" height="24" viewBox="0 0 81 24" fill="none" xmlns="http://www.w3.org/2000/svg">
<path d="M25.227 2.56291L18.8307 13.6887L22.9953 20.9404L23.4735 21.7748L19.6676 23.9801L19.1096 23.0464L14.2676 14.6026L21.7001 1.60927L22.6366 0L26.044 1.19205L25.227 2.56291Z" fill="#004C73"/>
<path d="M11.876 8.94057L8.62806 14.6028L9.30555 15.775L5.32031 16.5498L5.41994 16.3909L9.36533 9.91408L6.93433 5.62268L6.2967 4.49023L12.0155 5.04653L12.5734 6.02004L13.0716 6.87434L11.876 8.94057Z" fill="#004C73"/>
<path d="M21.6995 1.60927L14.267 14.6026L19.1091 23.0464L19.667 23.9801V24H14.0279L9.40505 15.9536L9.30542 15.7748L8.62793 14.6026L11.8759 8.9404L13.0715 6.87417L16.9969 0H22.636L21.6995 1.60927Z" fill="#3CBDFF"/>
<path d="M9.36531 9.91408L5.41993 16.3909L5.3203 16.5498H0L4.04502 9.91408L0.976384 4.49023H6.29668L6.93432 5.62268L9.36531 9.91408Z" fill="#3CBDFF"/>
<path d="M49.7155 7.76791C48.7053 10.3429 47.4298 12.8064 45.9096 15.1189C44.2122 17.7197 42.3134 20.1841 40.2306 22.4898H37.2417L36.5244 17.3242C36.0461 18.1785 35.548 19.0527 35.0498 19.907C34.5517 20.7613 34.0336 21.6355 33.5155 22.4898H29.5901L27.0794 9.19838V9.15864L26.8402 7.92686L26.8203 7.76791H31.2041L32.6587 18.4169C33.0174 17.8209 33.3561 17.2249 33.6949 16.6288C34.0336 16.0328 34.3524 15.4368 34.6712 14.8408L33.3163 7.76791H37.1022L37.6203 12.2182C37.979 11.4633 38.3377 10.7282 38.6764 9.97321C39.0151 9.21825 39.3539 8.48315 39.6727 7.76791H43.1797C42.6616 9.09904 42.1236 10.311 41.5657 11.4434C40.9735 12.6077 40.3011 13.7296 39.5532 14.801L40.0314 17.4037C40.6292 16.609 41.1672 15.9136 41.6255 15.258C42.0838 14.6024 42.4823 14.0063 42.841 13.4302C43.1996 12.854 43.5185 12.2977 43.8174 11.7216C44.1163 11.1454 44.3952 10.5494 44.6941 9.91361C44.993 9.27785 45.2919 8.56262 45.6107 7.74805H49.7155V7.76791Z" fill="#3CBDFF"/>
<path d="M61.1941 8.02627C60.2503 7.68033 59.2504 7.51192 58.245 7.52958C55.7144 7.50924 53.2734 8.46283 51.4303 10.1918C50.5705 11.0072 49.8741 11.9781 49.3779 13.0528C48.8781 14.1504 48.6264 15.3441 48.6406 16.5494C48.6217 17.6683 48.8819 18.7742 49.3978 19.768C49.8833 20.6921 50.632 21.4525 51.5498 21.9534C52.581 22.4926 53.7335 22.7594 54.8974 22.7283C55.908 22.7298 56.9117 22.5619 57.8664 22.2316C58.8327 21.9016 59.7456 21.4331 60.5764 20.8408C61.3719 20.2928 62.055 19.5982 62.5889 18.7945L59.0022 17.662C58.655 18.221 58.1673 18.6799 57.5875 18.9932C57.0076 19.3105 56.3559 19.4746 55.6945 19.47C55.182 19.4853 54.6743 19.369 54.2199 19.1322C53.8336 18.9269 53.5359 18.5877 53.383 18.1786C53.1979 17.711 53.1098 17.2109 53.124 16.7084V16.5097C53.7417 16.5296 54.3196 16.5494 54.8576 16.5494C57.7867 16.5494 60.0185 16.1322 61.493 15.2978C62.9675 14.4634 63.7247 13.2713 63.7247 11.6819C63.7509 10.8675 63.5134 10.0664 63.0472 9.39713C62.5845 8.76218 61.9378 8.28378 61.1941 8.02627ZM58.9624 13.0528C58.6834 13.311 58.2052 13.4898 57.5476 13.609C56.671 13.744 55.7843 13.8039 54.8974 13.7879C54.5188 13.7879 54.1402 13.7879 53.7417 13.768C53.9133 13.3463 54.134 12.9462 54.3993 12.5759C54.7595 12.0522 55.2284 11.6118 55.7742 11.2845C56.2976 10.9708 56.8971 10.8059 57.5078 10.8077C57.84 10.8036 58.1705 10.8574 58.4841 10.9667C58.7369 11.0546 58.9631 11.2049 59.1417 11.4038C59.3026 11.6071 59.3872 11.8601 59.3808 12.119C59.3861 12.296 59.3512 12.4719 59.2787 12.6336C59.2063 12.7953 59.0981 12.9386 58.9624 13.0528Z" fill="#3CBDFF"/>
<path d="M80.4231 10.4503C80.0863 9.60459 79.5207 8.86865 78.7892 8.32451C78.0126 7.78828 77.083 7.51651 76.139 7.54968C75.1548 7.55131 74.1875 7.8044 73.3294 8.28477C72.4409 8.75571 71.671 9.42141 71.0777 10.2318L72.8512 1.78809H68.308L63.9043 22.4901H67.8895L68.4076 20.0662C68.6592 20.8812 69.1786 21.5881 69.8822 22.0729C70.5796 22.5497 71.4563 22.7881 72.5323 22.7881C73.6251 22.7928 74.7036 22.541 75.6807 22.053C76.7021 21.5592 77.6213 20.8786 78.3906 20.0464C79.1995 19.1807 79.8473 18.1783 80.3036 17.0861C80.77 15.9376 81.0069 14.7093 81.001 13.4702C81.0056 12.4358 80.8093 11.4104 80.4231 10.4503ZM75.86 16.1126C75.6509 16.6503 75.3396 17.1427 74.9434 17.5629C74.5689 17.9706 74.1233 18.3072 73.6283 18.5563C73.1523 18.7967 72.6275 18.9258 72.094 18.9338C71.7085 18.9417 71.3265 18.8601 70.9781 18.6954C70.6499 18.5387 70.3633 18.3073 70.1412 18.0199C69.9059 17.7031 69.7304 17.3463 69.6231 16.9669L70.3006 13.8874C70.5766 13.4173 70.9189 12.9891 71.3168 12.6159C71.6915 12.2521 72.122 11.9503 72.5921 11.7219C72.9921 11.5115 73.4353 11.3959 73.8873 11.3841C74.3324 11.3729 74.7681 11.513 75.1227 11.7815C75.4714 12.057 75.7397 12.4206 75.8999 12.8344C76.0992 13.3123 76.1943 13.827 76.1788 14.3444C76.1965 14.9494 76.0879 15.5516 75.86 16.1126Z" fill="#3CBDFF"/>
</svg>
