<svg width="47" height="47" viewBox="0 0 47 47" fill="none" xmlns="http://www.w3.org/2000/svg">
<rect width="47" height="47" rx="10" fill="url(#paint0_linear_933_16717)"/>
<path d="M24 33C25.6569 33 27 31.6569 27 30C27 28.3431 25.6569 27 24 27C22.3431 27 21 28.3431 21 30C21 31.6569 22.3431 33 24 33Z" stroke="white" stroke-width="2" stroke-linecap="round" stroke-linejoin="round"/>
<path d="M18 21C19.6569 21 21 19.6569 21 18C21 16.3431 19.6569 15 18 15C16.3431 15 15 16.3431 15 18C15 19.6569 16.3431 21 18 21Z" stroke="white" stroke-width="2" stroke-linecap="round" stroke-linejoin="round"/>
<path d="M30 21C31.6569 21 33 19.6569 33 18C33 16.3431 31.6569 15 30 15C28.3431 15 27 16.3431 27 18C27 19.6569 28.3431 21 30 21Z" stroke="white" stroke-width="2" stroke-linecap="round" stroke-linejoin="round"/>
<path d="M30 21V22C30 22.5304 29.7893 23.0391 29.4142 23.4142C29.0391 23.7893 28.5304 24 28 24H20C19.4696 24 18.9609 23.7893 18.5858 23.4142C18.2107 23.0391 18 22.5304 18 22V21" stroke="white" stroke-width="2" stroke-linecap="round" stroke-linejoin="round"/>
<path d="M24 24V27" stroke="white" stroke-width="2" stroke-linecap="round" stroke-linejoin="round"/>
<defs>
<linearGradient id="paint0_linear_933_16717" x1="23.5" y1="0" x2="23.5" y2="47" gradientUnits="userSpaceOnUse">
<stop stop-color="#72A537"/>
<stop offset="1" stop-color="#156A37"/>
</linearGradient>
</defs>
</svg>
