<svg width="32" height="32" viewBox="0 0 32 32" fill="none" xmlns="http://www.w3.org/2000/svg">
<path d="M7.91406 22.3751H12.0525C12.1228 24.2836 13.6897 26.0515 16 26.0515C18.3002 26.0515 19.8772 24.3037 19.9576 22.3751H24.0859C25.1306 22.3751 25.7734 21.8026 25.7734 20.9388C25.7734 19.864 24.7991 18.9499 23.885 18.076C23.1719 17.383 23.0011 15.9968 22.8705 14.5805C22.7299 10.7937 21.615 8.26242 19.0033 7.31822C18.6116 5.98228 17.4967 4.96777 16 4.96777C14.5033 4.96777 13.3884 5.98228 13.0067 7.31822C10.385 8.26242 9.28013 10.7937 9.12946 14.5805C8.99888 15.9968 8.82812 17.383 8.11496 18.076C7.20089 18.9499 6.22656 19.864 6.22656 20.9388C6.22656 21.8026 6.86942 22.3751 7.91406 22.3751ZM8.67746 20.5068V20.3863C8.93862 20.095 9.52121 19.5626 10.0134 19.0001C10.7065 18.2066 11.0279 16.7401 11.1283 14.8316C11.2489 10.8037 12.4944 9.44768 14.1016 9.01576C14.3527 8.94545 14.4833 8.82492 14.5033 8.55371C14.5536 7.5392 15.1261 6.85617 16 6.85617C16.8839 6.85617 17.4464 7.5392 17.4967 8.55371C17.5167 8.82492 17.6574 8.94545 17.8984 9.01576C19.5156 9.44768 20.7511 10.8037 20.8717 14.8316C20.9821 16.7401 21.3036 18.2066 21.9866 19.0001C22.4788 19.5626 23.0413 20.095 23.3025 20.3863V20.5068H8.67746ZM16 24.4343C14.865 24.4343 14.0513 23.6207 13.981 22.3751H18.029C17.9688 23.6106 17.1451 24.4343 16 24.4343Z" fill="white"/>
</svg>
