<svg width="33" height="33" viewBox="0 0 33 33" fill="none" xmlns="http://www.w3.org/2000/svg">
<path d="M16.5 8.25C15.4802 8.25 14.4833 8.55241 13.6353 9.11899C12.7874 9.68556 12.1265 10.4909 11.7362 11.433C11.346 12.3752 11.2439 13.412 11.4428 14.4122C11.6418 15.4124 12.1329 16.3312 12.854 17.0523C13.5751 17.7734 14.4939 18.2645 15.4941 18.4634C16.4943 18.6624 17.531 18.5603 18.4732 18.17C19.4154 17.7797 20.2207 17.1188 20.7873 16.2709C21.3538 15.423 21.6563 14.4261 21.6563 13.4062C21.6563 12.0387 21.113 10.7272 20.146 9.76023C19.179 8.79325 17.8675 8.25 16.5 8.25ZM16.5 16.5C15.8881 16.5 15.29 16.3186 14.7812 15.9786C14.2724 15.6387 13.8759 15.1555 13.6418 14.5902C13.4076 14.0249 13.3463 13.4028 13.4657 12.8027C13.5851 12.2026 13.8797 11.6513 14.3124 11.2186C14.7451 10.786 15.2963 10.4913 15.8964 10.3719C16.4966 10.2526 17.1186 10.3138 17.6839 10.548C18.2492 10.7822 18.7324 11.1787 19.0724 11.6875C19.4123 12.1962 19.5938 12.7944 19.5938 13.4062C19.5929 14.2265 19.2667 15.0129 18.6867 15.593C18.1067 16.173 17.3203 16.4992 16.5 16.5Z" fill="white"/>
<path d="M16.5 2.0625C13.6445 2.0625 10.8532 2.90924 8.47896 4.49566C6.10473 6.08207 4.25424 8.3369 3.1615 10.975C2.06876 13.6131 1.78284 16.516 2.33992 19.3166C2.89699 22.1172 4.27203 24.6897 6.29115 26.7089C8.31027 28.728 10.8828 30.103 13.6834 30.6601C16.484 31.2172 19.3869 30.9312 22.025 29.8385C24.6631 28.7458 26.9179 26.8953 28.5043 24.521C30.0908 22.1468 30.9375 19.3555 30.9375 16.5C30.9331 12.6723 29.4106 9.00258 26.704 6.29597C23.9974 3.58936 20.3277 2.06687 16.5 2.0625ZM10.3125 27.2013V25.7812C10.3133 24.961 10.6395 24.1746 11.2196 23.5945C11.7996 23.0145 12.586 22.6883 13.4063 22.6875H19.5938C20.414 22.6883 21.2004 23.0145 21.7805 23.5945C22.3605 24.1746 22.6867 24.961 22.6875 25.7812V27.2013C20.8098 28.2977 18.6744 28.8755 16.5 28.8755C14.3256 28.8755 12.1902 28.2977 10.3125 27.2013ZM24.7418 25.7049C24.7212 24.3523 24.1701 23.0618 23.2072 22.1116C22.2442 21.1614 20.9466 20.6275 19.5938 20.625H13.4063C12.0534 20.6275 10.7558 21.1614 9.79285 22.1116C8.82992 23.0618 8.27881 24.3523 8.25826 25.7049C6.38815 24.0351 5.06935 21.8366 4.47649 19.4006C3.88363 16.9645 4.04467 14.4059 4.93829 12.0634C5.83191 9.72095 7.41595 7.70516 9.48067 6.28296C11.5454 4.86076 13.9934 4.09925 16.5005 4.09925C19.0077 4.09925 21.4557 4.86076 23.5204 6.28296C25.5851 7.70516 27.1691 9.72095 28.0628 12.0634C28.9564 14.4059 29.1174 16.9645 28.5246 19.4006C27.9317 21.8366 26.6129 24.0351 24.7428 25.7049H24.7418Z" fill="white"/>
</svg>
