<svg width="107" height="24" viewBox="0 0 107 24" fill="none" xmlns="http://www.w3.org/2000/svg">
<path d="M6.8756 1.09747C5.9864 1.06074 5.0989 1.20269 4.26644 1.51479C3.43399 1.82689 2.67378 2.3027 2.03151 2.9136C1.38925 3.5245 0.878198 4.25788 0.529082 5.06965C0.179967 5.88141 0 6.75481 0 7.63732C0 8.51982 0.179967 9.39321 0.529082 10.205C0.878198 11.0167 1.38925 11.7501 2.03151 12.361C2.67378 12.9719 3.43399 13.4477 4.26644 13.7598C5.0989 14.0719 5.9864 14.2139 6.8756 14.1772C7.76479 14.2139 8.6523 14.0719 9.48475 13.7598C10.3172 13.4477 11.0774 12.9719 11.7197 12.361C12.3619 11.7501 12.873 11.0167 13.2221 10.205C13.5712 9.39321 13.7512 8.51982 13.7512 7.63732C13.7512 6.75481 13.5712 5.88141 13.2221 5.06965C12.873 4.25788 12.3619 3.5245 11.7197 2.9136C11.0774 2.3027 10.3172 1.82689 9.48475 1.51479C8.6523 1.20269 7.76479 1.06074 6.8756 1.09747ZM6.8756 12.1125C5.68018 12.1125 4.53371 11.6416 3.68842 10.8034C2.84313 9.96524 2.36825 8.82839 2.36825 7.64298C2.36825 6.45758 2.84313 5.32073 3.68842 4.48253C4.53371 3.64432 5.68018 3.17342 6.8756 3.17342C8.07102 3.17342 9.21748 3.64432 10.0628 4.48253C10.9081 5.32073 11.3829 6.45758 11.3829 7.64298C11.3829 8.82839 10.9081 9.96524 10.0628 10.8034C9.21748 11.6416 8.07102 12.1125 6.8756 12.1125Z" fill="white"/>
<path d="M27.8525 3.82615C27.1521 3.80325 26.4556 3.93739 25.8158 4.2184C25.176 4.4994 24.6097 4.9199 24.1598 5.448C23.8008 4.91347 23.3042 4.48187 22.7205 4.19702C22.1368 3.91216 21.4868 3.78421 20.8365 3.82615C20.2279 3.8 19.621 3.90759 19.0601 4.14107C18.4991 4.37454 17.9983 4.72803 17.5939 5.1758V3.93957H15.4014V13.6366H17.7093V8.71439C17.7093 6.78631 18.7478 5.81093 20.2826 5.81093C21.8173 5.81093 22.4981 6.65021 22.4981 8.37414V13.6366H24.806V8.71439C24.806 6.78631 25.8561 5.81093 27.3793 5.81093C28.9025 5.81093 29.5949 6.65021 29.5949 8.37414V13.6366H31.9028V8.05657C31.9028 5.15312 30.2411 3.82615 27.8525 3.82615Z" fill="white"/>
<path d="M47.1159 3.82615C46.4136 3.8015 45.7149 3.9348 45.0729 4.21587C44.431 4.49694 43.8629 4.91835 43.4118 5.448C43.0527 4.91347 42.5561 4.48187 41.9724 4.19702C41.3887 3.91216 40.7387 3.78421 40.0884 3.82615C39.48 3.80161 38.8737 3.90993 38.313 4.1433C37.7523 4.37667 37.2512 4.7293 36.8458 5.1758V3.93957H34.6533V13.6366H36.9612V8.71439C36.9612 6.78631 37.9998 5.81093 39.5345 5.81093C41.0693 5.81093 41.7501 6.65021 41.7501 8.37414V13.6366H44.058V8.71439C44.058 6.78631 45.1196 5.81093 46.6313 5.81093C48.143 5.81093 48.8469 6.65021 48.8469 8.37414V13.6366H51.1548V8.05657C51.1201 5.15312 49.4238 3.82615 47.1159 3.82615Z" fill="white"/>
<path d="M57.2164 3.82269C55.7617 3.76938 54.3294 4.20962 53.1319 5.07811L54.012 6.80728C54.8528 6.14081 55.8808 5.78667 56.9343 5.80057C58.5478 5.80057 59.3376 6.61778 59.3376 8.00348V8.1456H56.8553C53.933 8.1456 52.8047 9.48393 52.8047 11.1657C52.8047 12.8475 54.2263 14.1621 56.4265 14.1621C57.004 14.2267 57.5875 14.1342 58.121 13.8936C58.6545 13.653 59.1201 13.2723 59.473 12.7883V13.9726H61.6055V8.05085C61.6055 5.20839 59.992 3.82269 57.2164 3.82269ZM59.3376 10.9288C59.1401 11.4266 58.7985 11.8465 58.3611 12.1292C57.9237 12.4119 57.4127 12.543 56.9004 12.504C55.7721 12.504 55.0613 11.9474 55.0613 11.0947C55.0613 10.2419 55.4788 9.75632 57.0133 9.75632H59.3376V10.9288Z" fill="white"/>
<path d="M69.7532 3.82832C69.1282 3.78475 68.5017 3.88448 67.92 4.12006C67.3384 4.35565 66.8168 4.72103 66.3939 5.18902V3.94172H64.356V13.6366H66.5955V8.73815C66.5405 8.36237 66.5684 7.97895 66.6771 7.61537C66.7858 7.2518 66.9726 6.9171 67.2242 6.63528C67.4757 6.35347 67.7857 6.13153 68.132 5.98538C68.4783 5.83923 68.8522 5.77251 69.2269 5.78999C70.6602 5.78999 71.4664 6.62908 71.4664 8.35263V13.614H73.7059V8.05781C73.7507 5.155 72.0375 3.82832 69.7532 3.82832Z" fill="white"/>
<path d="M76.1276 4.20612V13.6365H78.3365V4.20612H76.1276ZM77.2321 0.00380587C76.8806 0.00380587 76.5435 0.143251 76.2949 0.391467C76.0464 0.639683 75.9067 0.976343 75.9067 1.32737C75.9067 1.6784 76.0464 2.01505 76.2949 2.26327C76.5435 2.51149 76.8806 2.65093 77.2321 2.65093C77.4178 2.66002 77.6035 2.63092 77.7775 2.56543C77.9516 2.49993 78.1103 2.39944 78.2439 2.27019C78.3774 2.14093 78.483 1.98567 78.554 1.814C78.625 1.64234 78.66 1.45794 78.6568 1.27222C78.6513 1.09492 78.6099 0.920564 78.5351 0.759682C78.4603 0.598799 78.3536 0.454732 78.2215 0.336181C78.0894 0.21763 77.9345 0.127057 77.7664 0.0699308C77.5982 0.0128047 77.4202 -0.00969355 77.2431 0.00380587H77.2321Z" fill="white"/>
<path d="M80.8569 0V13.6365H83.6072V0H80.8569Z" fill="white"/>
<path d="M85.4998 4.20673V13.6365H87.6998V4.20673H85.4998ZM86.5998 0.00468987C86.2439 0.00468987 85.9026 0.146452 85.6509 0.398788C85.3992 0.651125 85.2578 0.993368 85.2578 1.35023C85.2578 1.70708 85.3992 2.04933 85.6509 2.30166C85.9026 2.554 86.2439 2.69576 86.5998 2.69576C86.7839 2.7033 86.9677 2.67305 87.1397 2.60686C87.3118 2.54068 87.4685 2.43995 87.6003 2.31087C87.7322 2.18178 87.8363 2.02706 87.9064 1.85618C87.9765 1.6853 88.011 1.50187 88.0078 1.31714C88.01 1.13562 87.9743 0.955646 87.903 0.788789C87.8317 0.621932 87.7263 0.471889 87.5937 0.348285C87.4611 0.224681 87.3042 0.130252 87.133 0.0710798C86.9619 0.0119071 86.7802 -0.0107075 86.5998 0.00468987Z" fill="white"/>
<path d="M94.9152 1.85339C95.3635 1.86025 95.7998 1.99897 96.1697 2.25224L96.8083 0.542889C96.1875 0.167597 95.469 -0.0148586 94.7441 0.0186902C94.2794 -0.0320713 93.8091 0.0208784 93.3673 0.173725C92.9255 0.326572 92.5232 0.575507 92.1893 0.90256C91.8555 1.22961 91.5984 1.62664 91.4367 2.06498C91.2751 2.50333 91.2128 2.97207 91.2543 3.43739V4.05275H89.6577V5.79629H91.2543V13.6365H93.5352V5.79629H96.1469V4.00717H93.4668V3.42599C93.4668 2.37759 93.9572 1.85339 94.9152 1.85339Z" fill="white"/>
<path d="M106.15 9.0391C106.191 8.35257 106.086 7.66527 105.842 7.02129C105.598 6.37732 105.221 5.7909 104.734 5.29965C104.248 4.80841 103.663 4.4232 103.017 4.16873C102.371 3.91426 101.679 3.79615 100.984 3.82199C100.288 3.79584 99.5947 3.91131 98.9461 4.16125C98.2974 4.41119 97.7076 4.79027 97.2131 5.27498C96.7187 5.75969 96.3301 6.33972 96.0716 6.97908C95.813 7.61845 95.69 8.30354 95.7101 8.99188C95.7101 11.9899 97.9294 14.1736 101.354 14.1736C102.119 14.2174 102.885 14.0918 103.595 13.806C104.305 13.5201 104.942 13.0811 105.458 12.5211L104.182 11.0693C103.822 11.4344 103.388 11.7207 102.909 11.9098C102.43 12.0989 101.917 12.1865 101.402 12.167C100.655 12.2373 99.9079 12.0366 99.2998 11.6022C98.6917 11.1679 98.264 10.5296 98.0965 9.80631H106.115C106.127 9.51123 106.15 9.22795 106.15 9.0391ZM98.0846 8.22466C98.1652 7.52792 98.5085 6.8869 99.046 6.42961C99.5835 5.97232 100.276 5.7324 100.984 5.75775C101.693 5.72699 102.386 5.96529 102.923 6.42389C103.46 6.88249 103.799 7.52669 103.871 8.22466H98.0846Z" fill="white"/>
<path d="M19.8015 19.6367V22.9095H19.1422L16.7423 20.6979V22.9095H15.9512V19.6367H16.6105L19.0103 21.8483V19.6367H19.8015Z" fill="white"/>
<path d="M23.0713 22.1246H20.9817L20.5761 22.9086H19.8018L21.6332 19.5043H22.3707L24.2021 22.9086H23.4155L23.0713 22.1246ZM20.994 18.5449H21.4734C21.4795 18.5979 21.4981 18.6493 21.5281 18.6961C21.558 18.743 21.5988 18.7844 21.6479 18.818C21.6971 18.8516 21.7537 18.8767 21.8144 18.8918C21.8752 18.9069 21.9389 18.9117 22.002 18.906C22.1286 18.9148 22.2543 18.8821 22.3528 18.8148C22.4514 18.7475 22.515 18.6508 22.5305 18.5449H22.9976C22.9884 18.6459 22.9551 18.7442 22.8997 18.8341C22.8442 18.924 22.7677 19.0036 22.6748 19.0681C22.5818 19.1326 22.4744 19.1807 22.3588 19.2096C22.2431 19.2385 22.1218 19.2475 22.002 19.2361C21.8814 19.2475 21.7594 19.2386 21.6431 19.2098C21.5268 19.1811 21.4185 19.1331 21.3246 19.0687C21.2306 19.0043 21.153 18.9248 21.0963 18.8348C21.0395 18.7449 21.0047 18.6463 20.994 18.5449ZM22.764 21.6397L21.9897 20.1439L21.2399 21.6397H22.764Z" fill="white"/>
<path d="M28.0525 19.6367V22.9095H27.384L25.0177 20.6979V22.9095H24.2021V19.6367H24.8706L27.3038 21.8483V19.6367H28.0525Z" fill="white"/>
<path d="M31.241 21.2341H31.9028V22.5047C31.4875 22.7759 30.9775 22.9184 30.4558 22.909C30.1418 22.9015 29.835 22.8274 29.5624 22.6936C29.2898 22.5597 29.0599 22.3702 28.8933 22.1417C28.7266 21.9133 28.6282 21.6531 28.6069 21.3842C28.5856 21.1153 28.6421 20.846 28.7712 20.6004C28.9003 20.3547 29.0982 20.1402 29.3471 19.9759C29.5961 19.8116 29.8885 19.7026 30.1984 19.6586C30.5082 19.6147 30.8259 19.6371 31.1233 19.7238C31.4206 19.8105 31.6884 19.959 31.9028 20.1559L31.4766 20.5217C31.345 20.4036 31.1864 20.3101 31.0108 20.2472C30.8351 20.1842 30.6461 20.1531 30.4558 20.1559C30.2849 20.1559 30.1157 20.1848 29.9578 20.2409C29.8 20.297 29.6565 20.3793 29.5357 20.483C29.4148 20.5867 29.319 20.7097 29.2536 20.8452C29.1882 20.9807 29.1546 21.1259 29.1546 21.2726C29.1546 21.4192 29.1882 21.5644 29.2536 21.6999C29.319 21.8354 29.4148 21.9585 29.5357 22.0622C29.6565 22.1659 29.8 22.2481 29.9578 22.3042C30.1157 22.3603 30.2849 22.3892 30.4558 22.3892C30.7224 22.3933 30.9855 22.3368 31.2186 22.2256L31.241 21.2341Z" fill="white"/>
<path d="M34.1035 19.6367H34.8205V22.3938H36.8538V22.9095H34.1035V19.6367Z" fill="white"/>
<path d="M40.6938 19.8783V21.6011C40.7127 21.8369 40.6843 22.0743 40.6103 22.2981C40.5364 22.522 40.4185 22.7275 40.2642 22.9016C40.1098 23.0758 39.9223 23.2148 39.7136 23.3099C39.5048 23.405 39.2794 23.4541 39.0514 23.4541C38.8234 23.4541 38.598 23.405 38.3892 23.3099C38.1805 23.2148 37.993 23.0758 37.8386 22.9016C37.6843 22.7275 37.5664 22.522 37.4925 22.2981C37.4185 22.0743 37.3901 21.8369 37.409 21.6011V19.4063H38.1023V21.5775C38.1023 22.3799 38.4547 22.7575 39.0571 22.7575C39.6595 22.7575 40.0118 22.4153 40.0118 21.5775V19.4063H40.4551C40.4998 19.4081 40.5444 19.4001 40.586 19.3828C40.6275 19.3654 40.665 19.3392 40.6961 19.3058C40.7272 19.2724 40.7512 19.2325 40.7665 19.1889C40.7817 19.1452 40.788 19.0987 40.7847 19.0523C40.7908 18.9293 40.7546 18.808 40.6824 18.7101L41.0916 18.5449C41.1997 18.6988 41.2557 18.8855 41.2507 19.0759C41.2664 19.2568 41.2187 19.4376 41.1164 19.5849C41.0141 19.7323 40.8641 19.8365 40.6938 19.8783Z" fill="white"/>
<path d="M45.6521 21.1464C45.6718 21.5359 45.5588 21.9216 45.3277 22.2536C45.0966 22.5855 44.7581 22.8485 44.356 23.0083C43.9539 23.1681 43.5068 23.2174 43.0726 23.1498C42.6384 23.0822 42.2372 22.9008 41.921 22.6292C41.6048 22.3575 41.3882 22.0082 41.2992 21.6264C41.2102 21.2445 41.253 20.8479 41.422 20.4878C41.5909 20.1278 41.8783 19.8209 42.2469 19.607C42.6155 19.3931 43.0482 19.282 43.489 19.2882C43.9463 19.2882 44.2677 19.3647 44.5767 19.3647C44.8857 19.3647 45.0958 19.2445 45.0958 19.004C45.0931 18.8912 45.0546 18.7814 44.9846 18.687L45.4172 18.5449C45.5366 18.6831 45.6017 18.852 45.6026 19.0259C45.6101 19.1997 45.5429 19.3696 45.4144 19.5014C45.286 19.6332 45.106 19.7172 44.9104 19.7364C45.1459 19.9071 45.3348 20.1225 45.4632 20.3666C45.5916 20.6107 45.6561 20.8772 45.6521 21.1464ZM44.8981 21.1464C44.8981 20.8956 44.814 20.6505 44.6564 20.442C44.4989 20.2335 44.2749 20.0709 44.013 19.975C43.751 19.879 43.4627 19.8539 43.1845 19.9028C42.9064 19.9518 42.6509 20.0725 42.4504 20.2498C42.2498 20.4272 42.1133 20.6531 42.058 20.8991C42.0026 21.145 42.031 21.3999 42.1396 21.6316C42.2481 21.8633 42.4319 22.0613 42.6677 22.2007C42.9034 22.34 43.1807 22.4144 43.4642 22.4144C43.6498 22.413 43.8332 22.3789 44.0036 22.3141C44.1741 22.2494 44.3283 22.1552 44.4572 22.0372C44.5861 21.9191 44.6871 21.7796 44.7543 21.6266C44.8215 21.4737 44.8536 21.3104 44.8486 21.1464H44.8981ZM43.8103 23.6933C43.8121 23.7339 43.8043 23.7743 43.7875 23.8122C43.7708 23.85 43.7453 23.8843 43.7128 23.9131C43.6803 23.9418 43.6415 23.9643 43.5987 23.9791C43.5559 23.994 43.5102 24.0008 43.4642 23.9993C43.4178 24.0008 43.3714 23.9939 43.328 23.9792C43.2846 23.9645 43.2449 23.9422 43.2115 23.9136C43.178 23.8851 43.1514 23.8508 43.1333 23.813C43.1151 23.7751 43.1058 23.7344 43.1058 23.6933C43.1041 23.6512 43.1121 23.6093 43.1295 23.5702C43.1469 23.531 43.1733 23.4954 43.2069 23.4657C43.2406 23.436 43.2808 23.4127 43.325 23.3973C43.3693 23.3819 43.4167 23.3747 43.4642 23.3763C43.5494 23.3871 43.627 23.4255 43.6818 23.4841C43.7366 23.5427 43.7648 23.6173 43.7609 23.6933H43.8103Z" fill="white"/>
<path d="M50.0539 19.6367V22.9095H49.3336L47.0025 20.6979V22.9095H46.2036V19.6367H46.8715L49.2551 21.8483V19.6367H50.0539Z" fill="white"/>
<path d="M53.667 21.2353H54.404V22.5052C53.9317 22.7735 53.3552 22.9156 52.7647 22.9093C52.1918 22.9093 51.6423 22.737 51.2372 22.4303C50.8321 22.1236 50.6045 21.7076 50.6045 21.2738C50.6045 20.8401 50.8321 20.4241 51.2372 20.1174C51.6423 19.8107 52.1918 19.6384 52.7647 19.6384C53.0793 19.6277 53.3931 19.6686 53.6848 19.7583C53.9765 19.8479 54.2392 19.9842 54.4548 20.1579L53.9592 20.5234C53.8107 20.4049 53.6311 20.3112 53.432 20.2483C53.2329 20.1853 53.0186 20.1545 52.8029 20.1579C52.6093 20.1579 52.4176 20.1867 52.2388 20.2428C52.0599 20.2989 51.8974 20.3811 51.7606 20.4847C51.6237 20.5884 51.5151 20.7114 51.441 20.8468C51.3669 20.9822 51.3288 21.1273 51.3288 21.2738C51.3288 21.4204 51.3669 21.5655 51.441 21.7009C51.5151 21.8363 51.6237 21.9593 51.7606 22.0629C51.8974 22.1666 52.0599 22.2488 52.2388 22.3048C52.4176 22.3609 52.6093 22.3898 52.8029 22.3898C53.1048 22.3929 53.4025 22.3366 53.667 22.2262V21.2353Z" fill="white"/>
<path d="M56.105 21.2731C56.1234 20.9378 56.2705 20.6141 56.5279 20.3424C56.7853 20.0707 57.1416 19.863 57.5523 19.7453C57.963 19.6275 58.41 19.605 58.8373 19.6804C59.2647 19.7559 59.6535 19.926 59.9553 20.1695L59.4662 20.5342C59.3279 20.415 59.1579 20.3199 58.9675 20.2553C58.7771 20.1907 58.5708 20.1582 58.3625 20.1599C57.9767 20.1599 57.6066 20.2772 57.3338 20.4859C57.0609 20.6947 56.9077 20.9779 56.9077 21.2731C56.9077 21.5683 57.0609 21.8515 57.3338 22.0603C57.6066 22.269 57.9767 22.3863 58.3625 22.3863C58.5708 22.388 58.7771 22.3555 58.9675 22.2909C59.1579 22.2263 59.3279 22.1312 59.4662 22.012L59.9553 22.3767C59.6535 22.6202 59.2647 22.7903 58.8373 22.8657C58.41 22.9412 57.963 22.9187 57.5523 22.8009C57.1416 22.6832 56.7853 22.4755 56.5279 22.2038C56.2705 21.9321 56.1234 21.6084 56.105 21.2731Z" fill="white"/>
<path d="M60.5096 21.7071V19.6367H61.0881V21.6848C61.0881 22.4417 61.3821 22.7979 61.8847 22.7979C62.3874 22.7979 62.6814 22.4751 62.6814 21.6848V19.6367H63.2504V21.7071C63.2662 21.9295 63.2425 22.1534 63.1807 22.3646C63.119 22.5757 63.0207 22.7696 62.8919 22.9338C62.7631 23.0981 62.6067 23.2292 62.4325 23.3189C62.2583 23.4086 62.0702 23.4549 61.88 23.4549C61.6898 23.4549 61.5017 23.4086 61.3275 23.3189C61.1533 23.2292 60.9969 23.0981 60.8681 22.9338C60.7393 22.7696 60.641 22.5757 60.5793 22.3646C60.5176 22.1534 60.4938 21.9295 60.5096 21.7071Z" fill="white"/>
<path d="M68.2044 21.2458C68.2215 21.6186 68.1243 21.9879 67.9254 22.3066C67.7264 22.6252 67.4347 22.8789 67.0873 23.0351C66.74 23.1914 66.3528 23.2432 65.9751 23.1838C65.5975 23.1245 65.2465 22.9568 64.967 22.7021C64.6875 22.4474 64.4921 22.1173 64.4057 21.7538C64.3193 21.3903 64.3459 21.01 64.482 20.6613C64.6182 20.3126 64.8577 20.0114 65.1701 19.796C65.4825 19.5807 65.8535 19.461 66.2359 19.4523C66.4884 19.4332 66.7422 19.4656 66.9812 19.5474C67.2202 19.6291 67.4392 19.7584 67.6243 19.927C67.8094 20.0956 67.9565 20.2999 68.0564 20.527C68.1562 20.754 68.2066 20.9988 68.2044 21.2458ZM67.5338 21.2458C67.5337 21.0056 67.461 20.7707 67.325 20.5705C67.189 20.3703 66.9955 20.2135 66.7688 20.1197C66.542 20.026 66.292 19.9994 66.0499 20.0433C65.8078 20.0872 65.5843 20.1997 65.4072 20.3666C65.2302 20.5336 65.1074 20.7477 65.0542 20.9823C65.001 21.2168 65.0198 21.4615 65.1081 21.6857C65.1965 21.9099 65.3505 22.1038 65.5511 22.2432C65.7516 22.3827 65.9898 22.4614 66.2359 22.4697C66.4058 22.4817 66.5764 22.4586 66.7366 22.4019C66.8967 22.3452 67.0428 22.2562 67.1653 22.1407C67.2877 22.0252 67.3839 21.8858 67.4474 21.7316C67.5109 21.5774 67.5403 21.4119 67.5338 21.2458ZM65.8358 19.2202H65.3058L65.9872 18.5449H66.5712L67.2526 19.2202H66.7335L66.2359 18.8509L65.8358 19.2202ZM66.582 23.7041C66.582 23.7825 66.5501 23.8576 66.4933 23.913C66.4365 23.9684 66.3595 23.9995 66.2792 23.9995C66.1989 23.9995 66.1219 23.9684 66.0651 23.913C66.0083 23.8576 65.9764 23.7825 65.9764 23.7041C65.9764 23.6258 66.0083 23.5506 66.0651 23.4952C66.1219 23.4398 66.1989 23.4087 66.2792 23.4087C66.3595 23.4087 66.4365 23.4398 66.4933 23.4952C66.5501 23.5506 66.582 23.6258 66.582 23.7041Z" fill="white"/>
<path d="M69.3062 21.2731C69.3047 21.0523 69.3451 20.8334 69.4248 20.63C69.5046 20.4265 69.622 20.2427 69.7699 20.0897C69.9178 19.9367 70.0931 19.8178 70.2851 19.7403C70.4771 19.6627 70.6818 19.6281 70.8867 19.6385C71.1054 19.6313 71.3231 19.6747 71.5249 19.7659C71.7268 19.8572 71.908 19.9941 72.0564 20.1674L71.6992 20.5327C71.6008 20.4133 71.4797 20.318 71.3442 20.2533C71.2086 20.1887 71.0617 20.1561 70.9134 20.1578C70.6387 20.1578 70.3753 20.2753 70.181 20.4844C69.9868 20.6936 69.8777 20.9773 69.8777 21.2731C69.8777 21.5689 69.9868 21.8526 70.181 22.0618C70.3753 22.2709 70.6387 22.3884 70.9134 22.3884C71.0617 22.3901 71.2086 22.3575 71.3442 22.2929C71.4797 22.2282 71.6008 22.1329 71.6992 22.0135L72.0564 22.3788C71.908 22.5521 71.7268 22.689 71.5249 22.7802C71.3231 22.8715 71.1054 22.9149 70.8867 22.9077C70.6818 22.9181 70.4771 22.8835 70.2851 22.8059C70.0931 22.7284 69.9178 22.6095 69.7699 22.4565C69.622 22.3035 69.5046 22.1197 69.4248 21.9162C69.3451 21.7128 69.3047 21.4939 69.3062 21.2731Z" fill="white"/>
<path d="M74.2563 22.5166L74.5189 22.0573C74.9106 22.2857 75.3891 22.41 75.8815 22.4113C76.5315 22.4113 76.7941 22.2296 76.7941 21.9999C76.7941 21.3206 74.2938 21.7608 74.2938 20.5935C74.2938 20.0864 74.8314 19.6368 75.9565 19.6368C76.4389 19.634 76.9136 19.7298 77.3316 19.9142L77.0941 20.3735C76.7482 20.2188 76.357 20.1333 75.9565 20.1247C75.3189 20.1247 75.0564 20.3161 75.0564 20.5553C75.0564 21.225 77.5566 20.7849 77.5566 21.9521C77.5566 22.4496 77.0191 22.9088 75.8815 22.9088C75.2979 22.92 74.726 22.782 74.2563 22.5166Z" fill="white"/>
<path d="M81.9548 21.3232C81.9746 21.7305 81.8622 22.134 81.6322 22.4815C81.4022 22.829 81.0652 23.1047 80.6645 23.2729C80.2639 23.4411 79.8181 23.4942 79.3846 23.4252C78.9512 23.3562 78.55 23.1684 78.2328 22.886C77.9156 22.6035 77.6969 22.2394 77.6051 21.8407C77.5133 21.442 77.5525 21.0268 77.7176 20.649C77.8828 20.2711 78.1663 19.9477 78.5316 19.7206C78.8969 19.4936 79.3272 19.3732 79.767 19.3751C80.0505 19.3626 80.3339 19.4039 80.5997 19.4964C80.8655 19.5888 81.1082 19.7305 81.3129 19.9128C81.5177 20.0951 81.6802 20.3142 81.7906 20.5567C81.9009 20.7992 81.9568 21.06 81.9548 21.3232ZM81.2008 21.3232C81.2008 21.0603 81.1167 20.8033 80.9592 20.5847C80.8016 20.3661 80.5777 20.1957 80.3157 20.0951C80.0537 19.9945 79.7654 19.9682 79.4872 20.0195C79.2091 20.0707 78.9536 20.1973 78.7531 20.3833C78.5526 20.5692 78.416 20.806 78.3607 21.0639C78.3054 21.3217 78.3338 21.589 78.4423 21.8319C78.5508 22.0748 78.7346 22.2824 78.9704 22.4284C79.2062 22.5745 79.4834 22.6525 79.767 22.6525C79.9567 22.6572 80.1454 22.6261 80.3217 22.5609C80.4979 22.4958 80.658 22.3981 80.7922 22.2737C80.9264 22.1493 81.0318 22.0008 81.1021 21.8374C81.1723 21.674 81.2059 21.499 81.2008 21.3232ZM79.2602 19.123H78.6545L79.4332 18.55H80.1254L80.9165 19.123H80.3108L79.804 18.8251L79.2602 19.123ZM80.9536 18.6303H80.3974L81.0648 18H81.8436L80.9536 18.6303Z" fill="white"/>
<path d="M85.8076 19.6367V22.9095H85.2351L83.1921 20.6979V22.9095H82.5073V19.6367H83.0798L85.1229 21.8483V19.6367H85.8076Z" fill="white"/>
<path d="M89.4204 21.2353H90.1574V22.5052C89.6851 22.7735 89.1086 22.9156 88.5182 22.9093C87.9452 22.9093 87.3958 22.737 86.9906 22.4303C86.5855 22.1236 86.3579 21.7076 86.3579 21.2738C86.3579 20.8401 86.5855 20.4241 86.9906 20.1174C87.3958 19.8107 87.9452 19.6384 88.5182 19.6384C88.8327 19.6277 89.1465 19.6686 89.4382 19.7583C89.7299 19.8479 89.9926 19.9842 90.2082 20.1579L89.7126 20.5234C89.5641 20.4049 89.3845 20.3112 89.1854 20.2483C88.9863 20.1853 88.772 20.1545 88.5563 20.1579C88.3627 20.1579 88.171 20.1867 87.9922 20.2428C87.8133 20.2989 87.6508 20.3811 87.514 20.4847C87.3771 20.5884 87.2685 20.7114 87.1944 20.8468C87.1203 20.9822 87.0822 21.1273 87.0822 21.2738C87.0822 21.4204 87.1203 21.5655 87.1944 21.7009C87.2685 21.8363 87.3771 21.9593 87.514 22.0629C87.6508 22.1666 87.8133 22.2488 87.9922 22.3048C88.171 22.3609 88.3627 22.3898 88.5563 22.3898C88.858 22.3916 89.1553 22.3353 89.4204 22.2262V21.2353Z" fill="white"/>
</svg>
