<svg width="47" height="47" viewBox="0 0 47 47" fill="none" xmlns="http://www.w3.org/2000/svg">
<rect width="47" height="47" rx="10" fill="url(#paint0_linear_2075_35395)"/>
<path d="M31.2859 33.9288C33.2978 33.9288 34.9288 32.2978 34.9288 30.2859C34.9288 28.274 33.2978 26.6431 31.2859 26.6431C29.274 26.6431 27.6431 28.274 27.6431 30.2859C27.6431 32.2978 29.274 33.9288 31.2859 33.9288Z" stroke="white" stroke-width="2" stroke-linecap="round" stroke-linejoin="round"/>
<path d="M16.7146 19.3575C18.7265 19.3575 20.3575 17.7265 20.3575 15.7146C20.3575 13.7027 18.7265 12.0718 16.7146 12.0718C14.7027 12.0718 13.0718 13.7027 13.0718 15.7146C13.0718 17.7265 14.7027 19.3575 16.7146 19.3575Z" stroke="white" stroke-width="2" stroke-linecap="round" stroke-linejoin="round"/>
<path d="M16.7144 33.9289V19.3574C16.7144 22.2559 17.8658 25.0356 19.9153 27.0851C21.9648 29.1346 24.7445 30.286 27.6429 30.286" stroke="white" stroke-width="1.5" stroke-linecap="round" stroke-linejoin="round"/>
<defs>
<linearGradient id="paint0_linear_2075_35395" x1="23.5" y1="0" x2="23.5" y2="47" gradientUnits="userSpaceOnUse">
<stop stop-color="#72A537"/>
<stop offset="1" stop-color="#156A37"/>
</linearGradient>
</defs>
</svg>
