<svg width="47" height="47" viewBox="0 0 47 47" fill="none" xmlns="http://www.w3.org/2000/svg">
<rect width="47" height="47" rx="10" fill="url(#paint0_linear_2075_35402)"/>
<path d="M24.0003 33.9288C26.0122 33.9288 27.6431 32.2978 27.6431 30.2859C27.6431 28.274 26.0122 26.6431 24.0003 26.6431C21.9884 26.6431 20.3574 28.274 20.3574 30.2859C20.3574 32.2978 21.9884 33.9288 24.0003 33.9288Z" stroke="white" stroke-width="2" stroke-linecap="round" stroke-linejoin="round"/>
<path d="M16.7146 19.3575C18.7265 19.3575 20.3575 17.7265 20.3575 15.7146C20.3575 13.7027 18.7265 12.0718 16.7146 12.0718C14.7027 12.0718 13.0718 13.7027 13.0718 15.7146C13.0718 17.7265 14.7027 19.3575 16.7146 19.3575Z" stroke="white" stroke-width="2" stroke-linecap="round" stroke-linejoin="round"/>
<path d="M31.2859 19.3575C33.2978 19.3575 34.9288 17.7265 34.9288 15.7146C34.9288 13.7027 33.2978 12.0718 31.2859 12.0718C29.274 12.0718 27.6431 13.7027 27.6431 15.7146C27.6431 17.7265 29.274 19.3575 31.2859 19.3575Z" stroke="white" stroke-width="2" stroke-linecap="round" stroke-linejoin="round"/>
<path d="M31.2858 19.3574V20.5717C31.2858 21.2158 31.0299 21.8335 30.5745 22.289C30.119 22.7444 29.5013 23.0003 28.8572 23.0003H19.1429C18.4988 23.0003 17.8811 22.7444 17.4257 22.289C16.9702 21.8335 16.7144 21.2158 16.7144 20.5717V19.3574" stroke="white" stroke-width="1.5" stroke-linecap="round" stroke-linejoin="round"/>
<path d="M24 23V26.6429" stroke="white" stroke-width="1.5" stroke-linecap="round" stroke-linejoin="round"/>
<defs>
<linearGradient id="paint0_linear_2075_35402" x1="23.5" y1="0" x2="23.5" y2="47" gradientUnits="userSpaceOnUse">
<stop stop-color="#72A537"/>
<stop offset="1" stop-color="#156A37"/>
</linearGradient>
</defs>
</svg>
