<svg width="47" height="47" viewBox="0 0 47 47" fill="none" xmlns="http://www.w3.org/2000/svg">
<rect width="47" height="47" rx="10" fill="url(#paint0_linear_2075_35411)"/>
<g clip-path="url(#clip0_2075_35411)">
<path d="M23.5 36.9122C31.1261 36.9122 37.4429 30.6089 37.4429 22.9693C37.4429 15.3432 31.1261 9.02637 23.4865 9.02637C15.8605 9.02637 9.55713 15.3432 9.55713 22.9693C9.55713 30.6089 15.874 36.9122 23.5 36.9122ZM19.7882 21.93L18.4115 19.9053C17.6421 18.7581 16.4004 18.3261 15.1451 18.9335L14.0923 19.4599C13.2284 19.8783 12.8775 20.5397 12.8775 21.7545C12.8775 22.7128 12.5941 23.1717 12.0272 23.1717C11.9192 23.1717 11.8112 23.1582 11.7167 23.1312C11.7167 23.0773 11.7167 23.0233 11.7167 22.9693C11.7167 16.531 17.0482 11.186 23.4865 11.186C24.4179 11.186 25.3222 11.3074 26.1995 11.5099C25.7676 12.2928 25.0387 12.6977 25.0387 13.8045C25.0387 15.8156 27.7113 15.6671 27.7113 17.9077C27.7113 19.2575 26.6449 19.8918 24.2964 19.8918C22.9331 19.8918 22.0018 20.6072 22.0018 21.6735C22.0018 22.3889 22.3662 22.8748 23.1626 23.2932C23.581 23.4822 23.743 23.6981 23.743 23.9951C23.743 24.346 23.4865 24.535 23.0681 24.535C22.1773 24.535 21.0165 23.7521 19.7882 21.93ZM23.5 34.7526C17.6961 34.7526 12.7965 30.4199 11.8787 24.8589C11.9462 24.8589 12.0137 24.8589 12.0947 24.8589C13.5254 24.8589 14.4972 23.6307 14.4972 21.7545C14.4972 21.1741 14.5917 20.9851 14.9966 20.7962L15.8605 20.3913C16.3194 20.1618 16.7378 20.3373 17.0077 20.7422L18.533 22.9828C20.0582 25.2099 21.6104 26.1142 23.0276 26.1142C24.4044 26.1142 25.2412 25.2773 25.2412 23.9411C25.2412 23.1717 24.8498 22.4969 24.2154 22.0919C23.9994 21.9435 23.878 21.876 23.878 21.741C23.8645 21.5925 23.9994 21.525 24.2289 21.525C27.5898 21.525 29.3444 20.2968 29.3444 17.9077C29.3444 14.7493 26.6584 14.5738 26.6584 13.764C26.6584 13.2241 27.3738 12.9811 27.7922 12.0228C32.1519 13.764 35.2833 18.0427 35.2833 22.9693C35.2833 24.2245 35.0809 25.4528 34.7029 26.5866C34.0011 26.0197 33.4342 25.7768 32.7863 25.7768C32.2599 25.7768 31.9765 25.9117 31.666 26.0062C31.4096 26.1007 31.2881 25.9927 31.2476 25.7498C31.0991 24.7374 30.4782 24.3595 29.4794 24.3595H28.7776C27.9677 24.3595 27.3063 24.7779 26.8069 25.5473L26.591 25.8847C26.24 26.4246 25.9431 26.8566 25.6596 27.14C25.3762 27.383 25.1467 27.5044 24.5933 27.6799L23.9724 27.8689C23.0411 28.1658 22.7442 28.9892 23.0006 29.907L23.662 32.1881C23.8915 33.0249 24.3909 33.4568 25.2007 33.4568C25.5517 33.4568 25.9836 33.3353 26.4425 33.1194L26.6449 33.0114C26.9419 32.8629 27.1714 32.8089 27.4143 32.8089C27.9272 32.8089 28.2916 33.0654 28.6696 33.5243C27.1039 34.3072 25.3492 34.7526 23.5 34.7526ZM27.3873 31.2432C26.9689 31.2432 26.483 31.3917 25.9566 31.6077L25.5517 31.7561C25.3357 31.8371 25.1872 31.8236 25.1332 31.6212L24.5528 29.6775C24.4988 29.4751 24.5798 29.3536 24.7823 29.2861C25.8081 28.9892 26.3615 28.5977 26.7124 28.2603C27.2523 27.7339 27.6978 26.9915 28.0892 26.4246C28.3321 26.0467 28.5211 25.9117 28.7641 25.9117H29.4659C29.6549 25.9117 29.6954 25.9792 29.7359 26.1277C29.9248 27.0725 30.4377 27.6259 31.3691 27.6259C32.0439 27.6259 32.3679 27.3425 32.7863 27.3425C33.1237 27.3425 33.5017 27.5584 34.0821 28.1118C33.1642 29.9745 31.747 31.5807 30.0328 32.7415C29.4254 31.9721 28.6561 31.2432 27.3873 31.2432Z" fill="white"/>
</g>
<defs>
<linearGradient id="paint0_linear_2075_35411" x1="23.5" y1="0" x2="23.5" y2="47" gradientUnits="userSpaceOnUse">
<stop stop-color="#72A537"/>
<stop offset="1" stop-color="#156A37"/>
</linearGradient>
<clipPath id="clip0_2075_35411">
<rect width="43" height="43" fill="white" transform="translate(2 2)"/>
</clipPath>
</defs>
</svg>
