<svg width="52" height="52" viewBox="0 0 52 52" fill="none" xmlns="http://www.w3.org/2000/svg">
<path d="M0.882812 0.882324H15.1793V14.9482H0.882812V0.882324ZM19.264 0.882324H21.3063V2.89174H23.3487V0.882324H27.4334V4.90115H23.3487V6.91056H21.3063V8.91997H19.264V10.9294H21.3063V12.9388H19.264V14.9482H21.3063V12.9388H23.3487V14.9482H25.391V8.91997H27.4334V6.91056H29.4758V10.9294H33.5605V8.91997H35.6028V14.9482H33.5605V12.9388H31.5181V14.9482H29.4758V12.9388H27.4334V16.9576H31.5181V18.967H25.391V16.9576H23.3487V22.9859H21.3063V18.967H19.264V16.9576H17.2216V4.90115H19.264V0.882324ZM33.5605 0.882324H35.6028V2.89174H33.5605V0.882324ZM37.6452 0.882324H51.9416V14.9482H37.6452V0.882324ZM2.92517 2.89174V12.9388H13.1369V2.89174H2.92517ZM29.4758 2.89174H33.5605V4.90115H31.5181V6.91056H29.4758V2.89174ZM39.6875 2.89174V12.9388H49.8993V2.89174H39.6875ZM4.96752 4.90115H11.0946V10.9294H4.96752V4.90115ZM33.5605 4.90115H35.6028V6.91056H33.5605V4.90115ZM41.7299 4.90115H47.8569V10.9294H41.7299V4.90115ZM23.3487 6.91056H25.391V8.91997H23.3487V6.91056ZM31.5181 6.91056H33.5605V8.91997H31.5181V6.91056ZM31.5181 14.9482H33.5605V16.9576H31.5181V14.9482ZM0.882812 16.9576H2.92517V18.967H4.96752V20.9764H7.00987V24.9953H4.96752V22.9859H2.92517V20.9764H0.882812V16.9576ZM4.96752 16.9576H15.1793V18.967H13.1369V20.9764H15.1793V22.9859H13.1369V24.9953H15.1793V27.0047H13.1369V29.0141H17.2216V31.0235H13.1369V33.0329H11.0946V35.0423H7.00987V33.0329H4.96752V31.0235H11.0946V24.9953H9.05222V20.9764H7.00987V18.967H4.96752V16.9576ZM37.6452 16.9576H47.8569V18.967H41.7299V20.9764H45.8146V22.9859H43.7722V27.0047H41.7299V24.9953H39.6875V27.0047H35.6028V24.9953H31.5181V27.0047H29.4758V29.0141H33.5605V27.0047H35.6028V29.0141H37.6452V31.0235H39.6875V27.0047H41.7299V29.0141H43.7722V27.0047H45.8146V31.0235H43.7722V35.0423H45.8146V37.0517H43.7722V39.0611H45.8146V41.0706H43.7722V43.08H45.8146V41.0706H47.8569V39.0611H45.8146V37.0517H51.9416V39.0611H49.8993V41.0706H51.9416V51.1176H35.6028V49.1082H37.6452V47.0988H43.7722V45.0894H41.7299V43.08H39.6875V45.0894H35.6028V49.1082H29.4758V47.0988H25.391V49.1082H27.4334V51.1176H21.3063V49.1082H23.3487V47.0988H21.3063V49.1082H19.264V47.0988H17.2216V39.0611H19.264V37.0517H17.2216V31.0235H19.264V33.0329H23.3487V29.0141H27.4334V27.0047H23.3487V24.9953H29.4758V22.9859H31.5181V20.9764H33.5605V22.9859H35.6028V20.9764H37.6452V22.9859H39.6875V18.967H37.6452V16.9576ZM33.5605 18.967H35.6028V20.9764H33.5605V18.967ZM47.8569 18.967H49.8993V20.9764H51.9416V27.0047H49.8993V29.0141H51.9416V33.0329H49.8993V31.0235H47.8569V27.0047H45.8146V24.9953H49.8993V22.9859H47.8569V18.967ZM17.2216 20.9764H19.264V24.9953H15.1793V22.9859H17.2216V20.9764ZM27.4334 20.9764H29.4758V22.9859H27.4334V20.9764ZM2.92517 24.9953H4.96752V27.0047H2.92517V24.9953ZM0.882812 27.0047H2.92517V35.0423H0.882812V27.0047ZM17.2216 27.0047H23.3487V29.0141H17.2216V27.0047ZM25.391 31.0235V35.0423H21.3063V43.08H23.3487V45.0894H27.4334V43.08H25.391V39.0611H27.4334V41.0706H29.4758V45.0894H31.5181V47.0988H33.5605V45.0894H31.5181V41.0706H33.5605V37.0517H31.5181V35.0423H33.5605V33.0329H35.6028V31.0235H33.5605V33.0329H31.5181V35.0423H29.4758V37.0517H25.391V35.0423H27.4334V33.0329H29.4758V31.0235H25.391ZM13.1369 33.0329H15.1793V35.0423H13.1369V33.0329ZM45.8146 33.0329H47.8569V35.0423H45.8146V33.0329ZM35.6028 35.0423V41.0706H41.7299V35.0423H35.6028ZM0.882812 37.0517H15.1793V51.1176H0.882812V37.0517ZM29.4758 37.0517H31.5181V41.0706H29.4758V37.0517ZM37.6452 37.0517H39.6875V39.0611H37.6452V37.0517ZM2.92517 39.0611V49.1082H13.1369V39.0611H2.92517ZM4.96752 41.0706H11.0946V47.0988H4.96752V41.0706ZM47.8569 45.0894V47.0988H45.8146V49.1082H49.8993V45.0894H47.8569ZM17.2216 49.1082H19.264V51.1176H17.2216V49.1082Z" fill="black"/>
</svg>
