<svg width="24" height="24" viewBox="0 0 24 24" fill="none" xmlns="http://www.w3.org/2000/svg">
<path fill-rule="evenodd" clip-rule="evenodd" d="M10.0434 6.82711C10.0868 7.23904 9.78409 7.60104 9.389 7.72546C9.10604 7.81458 8.8338 7.93721 8.57827 8.09138C8.10786 8.37518 7.70555 8.75887 7.3998 9.21532C7.09405 9.67177 6.89233 10.1898 6.80891 10.7328C6.76359 11.0278 6.75378 11.3262 6.77906 11.6218C6.81435 12.0345 6.59481 12.4523 6.19734 12.5689C5.79987 12.6854 5.37741 12.4577 5.3186 12.0477C5.24539 11.5372 5.24759 11.0174 5.3263 10.5051C5.4431 9.74484 5.72551 9.01956 6.15356 8.38053C6.58161 7.7415 7.14484 7.20433 7.80341 6.80701C8.24727 6.53923 8.72712 6.33939 9.227 6.21284C9.62854 6.11119 9.99995 6.41519 10.0434 6.82711Z" fill="#E0E0E0"/>
<path fill-rule="evenodd" clip-rule="evenodd" d="M11 4C7.13401 4 4 7.13401 4 11C4 14.866 7.13401 18 11 18C14.866 18 18 14.866 18 11C18 7.13401 14.866 4 11 4ZM2 11C2 6.02944 6.02944 2 11 2C15.9706 2 20 6.02944 20 11C20 15.9706 15.9706 20 11 20C6.02944 20 2 15.9706 2 11Z" fill="#E0E0E0"/>
<path fill-rule="evenodd" clip-rule="evenodd" d="M15.9428 15.9433C16.3333 15.5528 16.9665 15.5528 17.357 15.9433L21.707 20.2933C22.0975 20.6838 22.0975 21.317 21.707 21.7075C21.3165 22.098 20.6833 22.098 20.2928 21.7075L15.9428 17.3575C15.5523 16.967 15.5523 16.3338 15.9428 15.9433Z" fill="#E0E0E0"/>
</svg>
