<svg width="58" height="58" viewBox="0 0 58 58" fill="none" xmlns="http://www.w3.org/2000/svg">
<path d="M39.9694 22.1995C38.8459 21.7901 37.6584 21.5847 36.4628 21.5929C32.5961 21.5929 29.8653 23.5407 29.8459 26.3368C29.8218 28.391 31.7865 29.5486 33.2728 30.2349C34.7977 30.9406 35.3076 31.3852 35.3028 32.016C35.2931 32.9754 34.0848 33.4104 32.961 33.4104C31.4168 33.4104 30.5734 33.1953 29.2756 32.6564L28.7947 32.4316L28.2461 35.6506C29.1862 36.0421 30.8803 36.3781 32.6299 36.4071C36.7407 36.4071 39.428 34.4713 39.4594 31.4964C39.4933 29.8555 38.4299 28.6157 36.1921 27.5911C34.8315 26.9265 33.9881 26.4818 33.9881 25.8076C33.9881 25.2106 34.7107 24.5726 36.2211 24.5726C37.2263 24.5483 38.2254 24.7369 39.1525 25.1261L39.515 25.288L40.0636 22.1777L39.9694 22.1995ZM50.0034 21.8539H46.9825C46.0424 21.8539 45.3344 22.1125 44.9235 23.0453L39.1139 36.2065H43.2246L44.0463 34.0484L49.0633 34.0532C49.1817 34.5583 49.5442 36.2065 49.5442 36.2065H53.1692L50.0034 21.8539ZM24.2852 21.7331H28.2026L25.7521 36.0929H21.8395L24.2852 21.7282V21.7331ZM14.3406 29.6476L14.7466 31.6414L18.5746 21.8539H22.724L16.5591 36.1871H12.4194L9.03603 24.0506C8.98123 23.8505 8.85254 23.6786 8.67595 23.5697C7.4565 22.9398 6.16441 22.4617 4.82861 22.1463L4.88178 21.8442H11.1869C12.0424 21.8781 12.7311 22.1463 12.9607 23.0598L14.3382 29.6549V29.6476H14.3406ZM45.17 31.1121L46.7312 27.0956C46.7119 27.1391 47.0526 26.2667 47.2508 25.7278L47.519 26.9676L48.4253 31.1097H45.1676V31.1121H45.17Z" fill="#0057A0"/>
</svg>
