<svg width="26" height="24" viewBox="0 0 26 24" fill="none" xmlns="http://www.w3.org/2000/svg">
<g clip-path="url(#clip0_5267_18612)">
<path d="M4.85844 20.9381C4.75904 20.8941 4.68725 20.8447 4.80322 20.7457C4.87501 20.6907 4.95232 20.6413 5.02963 20.5918C5.75306 20.1246 6.43232 19.6133 6.87963 18.8602C7.25515 18.2336 7.1944 17.8653 6.725 17.4035C4.1074 14.7979 2.95874 11.6811 3.53307 7.99812C3.85889 5.92025 4.81426 4.12272 6.2059 2.56157C7.0453 1.61608 8.04485 0.851994 9.13828 0.214339C9.20455 0.17586 9.29843 0.164866 9.30947 0.0659197C9.28738 0.0109495 9.24873 0.0274405 9.21559 0.0274405C7.35455 0.0274405 5.49351 -0.0110386 3.63799 0.0384346C1.85979 0.0934048 0.324571 1.46216 0.330093 3.4246C0.341138 9.158 0.330093 14.8914 0.330093 20.6303C0.330093 22.4113 1.69412 23.901 3.47785 23.967C4.98545 24.0274 6.49306 23.978 8.00619 23.9725C8.11664 23.978 8.22709 23.9835 8.33753 23.9835H16.3118C18.2999 23.9835 20.288 23.9945 22.276 23.9835C24.1205 23.9835 25.617 22.4993 25.617 20.6688V20.6358V17.42C25.617 17.3431 25.6447 17.2606 25.595 17.1782C25.4955 17.1836 25.4569 17.2661 25.4017 17.3211C24.3303 18.393 23.0657 19.256 21.6796 19.8662C18.2833 21.3559 14.8263 21.4603 11.3196 20.262C11.0159 20.152 10.6845 20.141 10.3698 20.218C9.90589 20.3334 9.44753 20.4709 8.98917 20.6083C7.64172 21.0261 6.26664 21.213 4.85844 20.9381ZM8.86216 11.6756C8.95604 11.5547 9.00574 11.4832 9.06096 11.4118C9.7844 10.4993 10.5078 9.58676 11.2313 8.66876C11.4411 8.4049 11.651 8.13555 11.7835 7.81672C11.9381 7.45392 11.7725 7.1131 11.3969 6.98117C11.2313 6.9317 11.0545 6.90971 10.8778 6.92071C9.89484 6.91521 8.90634 6.91521 7.92336 6.92071C7.7853 6.92071 7.64724 6.9372 7.5147 6.97018C7.20545 7.04714 7.01769 7.36047 7.095 7.6738C7.15022 7.88269 7.3159 8.0476 7.52574 8.09707C7.65828 8.13005 7.79634 8.14654 7.9344 8.14105C8.53082 8.14654 9.13276 8.14105 9.72917 8.14654C9.79544 8.14654 9.87828 8.10257 9.92798 8.20151C9.87828 8.26748 9.82858 8.33344 9.77887 8.39391C8.92291 9.47132 8.07246 10.5542 7.21649 11.6317C7.00664 11.901 6.89619 12.1978 7.05082 12.5277C7.20545 12.8575 7.52022 12.918 7.84052 12.9399C8.09455 12.9564 8.3541 12.9454 8.61365 12.9454C9.50828 12.9454 10.3974 12.9509 11.292 12.9399C11.7669 12.9344 12.021 12.6486 11.9713 12.2088C11.9326 11.8625 11.6951 11.6811 11.2533 11.6756C10.4747 11.6701 9.69604 11.6756 8.86216 11.6756ZM15.2681 8.7842C14.5778 8.18502 13.8157 8.14654 13.0702 8.5863C12.1645 9.11402 11.8332 9.97705 11.9436 10.9775C12.0486 11.912 12.4572 12.6761 13.4402 12.9894C14.0532 13.1873 14.622 13.1159 15.1245 12.7091C15.2571 12.6046 15.2957 12.6266 15.3896 12.7421C15.5718 12.9729 15.8866 13.0609 16.1627 12.9564C16.4389 12.874 16.6211 12.6211 16.6211 12.3353C16.6266 11.2359 16.6321 10.1365 16.6211 9.03706C16.6156 8.5973 16.2014 8.31695 15.7706 8.4049C15.5332 8.45438 15.4007 8.61379 15.2681 8.7842ZM19.0951 10.8236C19.073 12.1978 20.2162 13.2368 21.652 13.0939C22.9718 12.9619 23.8278 11.978 23.7836 10.5872C23.7394 9.21297 22.7123 8.27297 21.3041 8.31695C19.9842 8.35543 19.0509 9.41086 19.0951 10.8236ZM18.6091 9.72968C18.6091 8.86665 18.6147 8.00912 18.6091 7.14608C18.6091 6.70632 18.3275 6.43147 17.9078 6.43697C17.4992 6.44247 17.2286 6.71732 17.223 7.14059C17.2175 7.39895 17.223 7.65181 17.223 7.91017V12.2803C17.223 12.6211 17.4329 12.918 17.709 12.9894C18.09 13.0939 18.4821 12.8685 18.5815 12.4892C18.5981 12.4232 18.6091 12.3573 18.6036 12.2858C18.6147 11.4338 18.6091 10.5817 18.6091 9.72968Z" fill="#FDFEFE"/>
<path d="M8.00032 23.9782C6.49271 23.9782 4.97958 24.0277 3.47197 23.9727C1.68825 23.9012 0.324219 22.4116 0.324219 20.636C0.324219 14.9026 0.335263 9.16922 0.324219 3.43033C0.324219 1.4679 1.86496 0.0991382 3.63764 0.049665C5.49316 0.000191836 7.3542 0.038671 9.21524 0.038671C9.24837 0.038671 9.29255 0.0221799 9.30912 0.0771501C9.29808 0.176097 9.19867 0.187091 9.13793 0.22557C8.0445 0.863224 7.04495 1.62731 6.20555 2.5728C4.81943 4.13395 3.85854 5.92598 3.53272 8.00935C2.95839 11.6869 4.11257 14.8092 6.72465 17.4148C7.18853 17.882 7.24928 18.2448 6.87928 18.8715C6.43196 19.6246 5.75271 20.1358 5.02928 20.603C4.95197 20.647 4.87465 20.702 4.79734 20.7514C4.68137 20.8504 4.75316 20.8999 4.85257 20.9438C4.87465 20.9933 4.90227 21.0373 4.9354 21.0813C5.57047 21.642 6.17241 22.2411 6.79644 22.8128C7.08913 23.0822 7.38181 23.3625 7.66345 23.6429C7.77942 23.7473 7.97271 23.7803 8.00032 23.9782Z" fill="#0180C7"/>
<path d="M8.00127 23.9783C7.97366 23.7859 7.78037 23.7529 7.6644 23.6375C7.38276 23.3516 7.09008 23.0768 6.79739 22.8074C6.17336 22.2357 5.57142 21.6365 4.93635 21.0758C4.90322 21.0319 4.87561 20.9879 4.85352 20.9384C6.26172 21.2133 7.63679 21.0264 8.98977 20.6141C9.44813 20.4767 9.90649 20.3392 10.3704 20.2238C10.6851 20.1414 11.0165 20.1578 11.3202 20.2678C14.8214 21.4661 18.2784 21.3562 21.6802 19.872C23.0663 19.2618 24.3309 18.4043 25.4023 17.3324C25.4575 17.2774 25.4961 17.195 25.5955 17.1895C25.6453 17.2664 25.6176 17.3489 25.6176 17.4313V20.6471C25.6287 22.4831 24.1487 23.9783 22.3042 23.9948H22.2766C20.2885 24.0058 18.3005 23.9948 16.3124 23.9948H8.33261C8.22216 23.9838 8.11172 23.9783 8.00127 23.9783Z" fill="#0172B1"/>
<path d="M8.86264 11.6754C9.69652 11.6754 10.4807 11.6699 11.2594 11.6754C11.6956 11.6809 11.9331 11.8623 11.9773 12.2086C12.027 12.6429 11.7729 12.9342 11.298 12.9397C10.4034 12.9507 9.51428 12.9452 8.61966 12.9452C8.36011 12.9452 8.10608 12.9562 7.84653 12.9397C7.52623 12.9232 7.21145 12.8573 7.05683 12.5275C6.9022 12.1976 7.01265 11.9008 7.2225 11.6314C8.07294 10.554 8.92891 9.47112 9.78488 8.3937C9.83458 8.32774 9.88428 8.26177 9.93398 8.20131C9.87876 8.10786 9.80145 8.15183 9.73518 8.14634C9.13876 8.14084 8.53682 8.14634 7.94041 8.14084C7.80235 8.14084 7.66429 8.12435 7.53175 8.09686C7.21698 8.0254 7.02369 7.71207 7.09548 7.40424C7.14519 7.19535 7.31086 7.02494 7.52071 6.97547C7.65324 6.94249 7.7913 6.926 7.92936 6.926C8.91234 6.9205 9.90085 6.9205 10.8838 6.926C11.0605 6.9205 11.2317 6.94249 11.4029 6.98646C11.7785 7.1129 11.9386 7.45921 11.7895 7.82201C11.657 8.13534 11.4471 8.4047 11.2373 8.67405C10.5138 9.59205 9.7904 10.5046 9.06697 11.4116C9.00623 11.483 8.951 11.5545 8.86264 11.6754Z" fill="#0180C7"/>
<path d="M15.268 8.7842C15.4006 8.61379 15.5386 8.45437 15.7651 8.4104C16.2013 8.32245 16.61 8.60279 16.6155 9.04256C16.6321 10.142 16.6265 11.2414 16.6155 12.3408C16.6155 12.6266 16.4277 12.8795 16.1571 12.9619C15.881 13.0664 15.5663 12.9839 15.384 12.7475C15.2901 12.6321 15.2515 12.6101 15.1189 12.7146C14.6164 13.1213 14.0476 13.1928 13.4346 12.9949C12.4516 12.6761 12.0485 11.912 11.9381 10.983C11.8221 9.97705 12.1589 9.11951 13.0646 8.5918C13.8157 8.14654 14.5777 8.18502 15.268 8.7842ZM13.3131 10.7906C13.3242 11.0325 13.4015 11.2634 13.5451 11.4557C13.8433 11.8515 14.4121 11.934 14.8152 11.6371C14.8815 11.5877 14.9422 11.5272 14.9974 11.4557C15.3067 11.038 15.3067 10.3508 14.9974 9.93307C14.8428 9.71869 14.5998 9.59226 14.3403 9.58676C13.7328 9.54828 13.3076 10.0155 13.3131 10.7906ZM19.095 10.8236C19.0509 9.41086 19.9842 8.35543 21.3095 8.31695C22.7177 8.27297 23.7449 9.21296 23.7891 10.5872C23.8332 11.978 22.9773 12.9619 21.6574 13.0939C20.2161 13.2368 19.073 12.1978 19.095 10.8236ZM20.4812 10.6917C20.4701 10.9665 20.553 11.2359 20.7186 11.4612C21.0224 11.857 21.5912 11.934 21.9888 11.6262C22.0495 11.5822 22.0992 11.5272 22.1489 11.4722C22.4692 11.0545 22.4692 10.3508 22.1544 9.93307C21.9998 9.72419 21.7568 9.59226 21.4973 9.58676C20.9009 9.55378 20.4812 10.0045 20.4812 10.6917ZM18.6091 9.72968C18.6091 10.5817 18.6146 11.4338 18.6091 12.2858C18.6146 12.6761 18.3053 13.0004 17.9133 13.0114C17.847 13.0114 17.7752 13.0059 17.7089 12.9894C17.4328 12.918 17.223 12.6266 17.223 12.2803V7.91017C17.223 7.65181 17.2174 7.39895 17.223 7.14059C17.2285 6.71731 17.4991 6.44246 17.9077 6.44246C18.3274 6.43697 18.6091 6.71182 18.6091 7.15158C18.6146 8.00912 18.6091 8.87215 18.6091 9.72968Z" fill="#0180C7"/>
<path d="M13.3126 10.7906C13.307 10.0155 13.7323 9.54825 14.3342 9.58123C14.5937 9.59222 14.8367 9.71865 14.9914 9.93304C15.3006 10.3453 15.3006 11.0379 14.9914 11.4557C14.6931 11.8515 14.1243 11.934 13.7212 11.6371C13.6549 11.5876 13.5942 11.5272 13.539 11.4557C13.4009 11.2633 13.3236 11.0324 13.3126 10.7906ZM20.4806 10.6916C20.4806 10.01 20.9003 9.55374 21.4967 9.58672C21.7563 9.59222 21.9992 9.72415 22.1539 9.93304C22.4686 10.3508 22.4686 11.0599 22.1484 11.4722C21.8391 11.8625 21.2648 11.9285 20.8727 11.6206C20.8119 11.5766 20.7622 11.5217 20.7181 11.4612C20.5524 11.2358 20.4751 10.9665 20.4806 10.6916Z" fill="#FDFEFE"/>
<path d="M3.9411 0.0546875H22.06C24.0425 0.0546875 25.6496 1.65432 25.6496 3.62775V20.2837C25.6496 22.2572 24.0425 23.8568 22.06 23.8568H3.9411C1.95857 23.8568 0.351562 22.2572 0.351562 20.2837V3.62775C0.351562 1.65432 1.95857 0.0546875 3.9411 0.0546875Z" stroke="#0180C7" stroke-width="0.192396" stroke-miterlimit="10"/>
</g>
<defs>
<clipPath id="clip0_5267_18612">
<rect width="25.4118" height="24" fill="white" transform="translate(0.294922)"/>
</clipPath>
</defs>
</svg>
