<svg width="151" height="34" viewBox="0 0 151 34" fill="none" xmlns="http://www.w3.org/2000/svg">
<path d="M10.4981 1.57034C9.24838 1.51838 8.00106 1.71917 6.83111 2.16063C5.66116 2.6021 4.59275 3.27513 3.69009 4.13924C2.78744 5.00336 2.0692 6.04071 1.57854 7.18896C1.08789 8.3372 0.834961 9.57261 0.834961 10.8209C0.834961 12.0692 1.08789 13.3046 1.57854 14.4528C2.0692 15.6011 2.78744 16.6385 3.69009 17.5026C4.59275 18.3667 5.66116 19.0397 6.83111 19.4812C8.00106 19.9226 9.24838 20.1234 10.4981 20.0715C11.7478 20.1234 12.9951 19.9226 14.165 19.4812C15.335 19.0397 16.4034 18.3667 17.3061 17.5026C18.2087 16.6385 18.9269 15.6011 19.4176 14.4528C19.9083 13.3046 20.1612 12.0692 20.1612 10.8209C20.1612 9.57261 19.9083 8.3372 19.4176 7.18896C18.9269 6.04071 18.2087 5.00336 17.3061 4.13924C16.4034 3.27513 15.335 2.6021 14.165 2.16063C12.9951 1.71917 11.7478 1.51838 10.4981 1.57034ZM10.4981 17.1511C8.818 17.1511 7.20674 16.485 6.01875 15.2994C4.83076 14.1137 4.16335 12.5057 4.16335 10.8289C4.16335 9.15219 4.83076 7.54412 6.01875 6.35848C7.20674 5.17285 8.818 4.50676 10.4981 4.50676C12.1781 4.50676 13.7894 5.17285 14.9774 6.35848C16.1654 7.54412 16.8328 9.15219 16.8328 10.8289C16.8328 12.5057 16.1654 14.1137 14.9774 15.2994C13.7894 16.485 12.1781 17.1511 10.4981 17.1511Z" fill="white"/>
<path d="M39.9795 5.43088C38.9952 5.39849 38.0163 5.58823 37.1171 5.98571C36.2179 6.38319 35.422 6.97798 34.7898 7.72497C34.2851 6.96889 33.5872 6.35839 32.7669 5.95547C31.9465 5.55254 31.033 5.37155 30.1191 5.43088C29.2637 5.3939 28.4109 5.54608 27.6225 5.87633C26.8342 6.20658 26.1302 6.70659 25.5619 7.33996V5.59132H22.4805V19.3077H25.724V12.3453C25.724 9.61801 27.1836 8.23834 29.3406 8.23834C31.4976 8.23834 32.4544 9.4255 32.4544 11.864V19.3077H35.698V12.3453C35.698 9.61801 37.1738 8.23834 39.3146 8.23834C41.4553 8.23834 42.4284 9.4255 42.4284 11.864V19.3077H45.6719V11.4148C45.6719 7.30787 43.3366 5.43088 39.9795 5.43088Z" fill="white"/>
<path d="M67.0533 5.43088C66.0663 5.39602 65.0842 5.58457 64.182 5.98214C63.2799 6.37971 62.4814 6.9758 61.8474 7.72497C61.3428 6.96889 60.6448 6.35839 59.8245 5.95547C59.0041 5.55254 58.0906 5.37155 57.1767 5.43088C56.3216 5.39617 55.4695 5.54938 54.6815 5.87948C53.8935 6.20959 53.1892 6.70837 52.6195 7.33996V5.59132H49.5381V19.3077H52.7816V12.3453C52.7816 9.61801 54.2413 8.23834 56.3982 8.23834C58.5552 8.23834 59.512 9.4255 59.512 11.864V19.3077H62.7556V12.3453C62.7556 9.61801 64.2476 8.23834 66.3722 8.23834C68.4967 8.23834 69.486 9.4255 69.486 11.864V19.3077H72.7296V11.4148C72.6809 7.30787 70.2969 5.43088 67.0533 5.43088Z" fill="white"/>
<path d="M81.2461 5.42598C79.2017 5.35058 77.1888 5.9733 75.5058 7.20178L76.7426 9.64766C77.9243 8.70495 79.3691 8.20402 80.8497 8.22369C83.1173 8.22369 84.2273 9.37962 84.2273 11.3397V11.5407H80.7387C76.6316 11.5407 75.0459 13.4338 75.0459 15.8126C75.0459 18.1915 77.0439 20.0511 80.1361 20.0511C80.9476 20.1423 81.7677 20.0115 82.5175 19.6712C83.2673 19.3308 83.9217 18.7924 84.4176 18.1077V19.783H87.4147V11.4067C87.4147 7.38604 85.1471 5.42598 81.2461 5.42598ZM84.2273 15.4776C83.9498 16.1816 83.4697 16.7756 82.855 17.1754C82.2403 17.5753 81.5221 17.7608 80.8021 17.7057C79.2164 17.7057 78.2174 16.9183 78.2174 15.7121C78.2174 14.5059 78.8041 13.8191 80.9607 13.8191H84.2273V15.4776Z" fill="white"/>
<path d="M98.8676 5.43395C97.9893 5.37232 97.1087 5.51338 96.2913 5.84662C95.4739 6.17985 94.7407 6.69668 94.1464 7.35865V5.59435H91.2822V19.3077H94.4297V12.3789C94.3525 11.8473 94.3917 11.305 94.5444 10.7907C94.6972 10.2764 94.9598 9.803 95.3133 9.40438C95.6668 9.00575 96.1025 8.69182 96.5892 8.4851C97.0758 8.27837 97.6013 8.18399 98.1279 8.20872C100.142 8.20872 101.275 9.39561 101.275 11.8335V19.2757H104.423V11.4165C104.486 7.31053 102.078 5.43395 98.8676 5.43395Z" fill="white"/>
<path d="M107.827 5.96863V19.3078H110.931V5.96863H107.827ZM109.379 0.0244874C108.885 0.0244874 108.411 0.221732 108.062 0.572832C107.713 0.923932 107.517 1.40013 107.517 1.89666C107.517 2.39319 107.713 2.86938 108.062 3.22048C108.411 3.57158 108.885 3.76883 109.379 3.76883C109.64 3.78169 109.901 3.74052 110.146 3.64788C110.39 3.55524 110.614 3.4131 110.801 3.23027C110.989 3.04744 111.137 2.82782 111.237 2.585C111.337 2.34218 111.386 2.08134 111.382 1.81865C111.374 1.56786 111.316 1.32124 111.211 1.09367C111.105 0.866102 110.955 0.662319 110.77 0.494629C110.584 0.32694 110.367 0.198825 110.13 0.118021C109.894 0.0372162 109.644 0.00539254 109.395 0.0244874H109.379Z" fill="white"/>
<path d="M114.474 0.019104V19.3078H118.339V0.019104H114.474Z" fill="white"/>
<path d="M120.999 5.9695V19.3078H124.091V5.9695H120.999ZM122.545 0.0257378C122.045 0.0257378 121.565 0.226259 121.212 0.583187C120.858 0.940116 120.659 1.42422 120.659 1.92899C120.659 2.43376 120.858 2.91786 121.212 3.27479C121.565 3.63172 122.045 3.83224 122.545 3.83224C122.804 3.8429 123.062 3.80011 123.304 3.70649C123.546 3.61288 123.766 3.4704 123.951 3.28781C124.137 3.10522 124.283 2.88636 124.382 2.64465C124.48 2.40295 124.529 2.14349 124.524 1.88219C124.527 1.62543 124.477 1.37086 124.377 1.13484C124.277 0.898823 124.128 0.686588 123.942 0.511751C123.756 0.336914 123.535 0.203345 123.295 0.119646C123.054 0.0359465 122.799 0.0039583 122.545 0.0257378Z" fill="white"/>
<path d="M134.23 2.64071C134.86 2.65041 135.473 2.84664 135.993 3.20488L136.89 0.787017C136.018 0.256169 135.008 -0.00191338 133.989 0.0455412C133.336 -0.0262607 132.675 0.0486364 132.054 0.264837C131.433 0.481038 130.868 0.833154 130.399 1.29577C129.93 1.75838 129.568 2.31997 129.341 2.94001C129.114 3.56005 129.026 4.22307 129.085 4.88126V5.7517H126.841V8.21791H129.085V19.3078H132.29V8.21791H135.961V5.68722H132.194V4.86514C132.194 3.38219 132.883 2.64071 134.23 2.64071Z" fill="white"/>
<path d="M150.022 12.8046C150.079 11.8335 149.931 10.8613 149.588 9.95039C149.245 9.03949 148.715 8.21 148.031 7.51514C147.348 6.82028 146.526 6.2754 145.618 5.91545C144.71 5.55551 143.737 5.38844 142.761 5.42499C141.783 5.388 140.808 5.55134 139.897 5.90488C138.985 6.25842 138.156 6.79461 137.461 7.48024C136.766 8.16586 136.22 8.9863 135.857 9.89068C135.493 10.7951 135.32 11.7641 135.349 12.7378C135.349 16.9785 138.468 20.0672 143.281 20.0672C144.356 20.1292 145.432 19.9516 146.43 19.5472C147.428 19.1429 148.323 18.522 149.049 17.7298L147.255 15.6762C146.749 16.1927 146.14 16.5977 145.467 16.8651C144.794 17.1326 144.072 17.2565 143.348 17.2289C142.298 17.3284 141.248 17.0444 140.394 16.4301C139.539 15.8157 138.938 14.9128 138.703 13.8898H149.971C149.988 13.4724 150.022 13.0717 150.022 12.8046ZM138.686 11.6525C138.799 10.667 139.282 9.7603 140.037 9.11346C140.792 8.46662 141.765 8.12726 142.761 8.16312C143.757 8.1196 144.731 8.45668 145.486 9.10537C146.24 9.75405 146.717 10.6653 146.819 11.6525H138.686Z" fill="white"/>
<path d="M28.6652 27.7949V32.4242H27.7386L24.3658 29.2959V32.4242H23.2539V27.7949H24.1805L27.5533 30.9231V27.7949H28.6652Z" fill="white"/>
<path d="M33.2602 31.315H30.3234L29.7534 32.424H28.665L31.239 27.6086H32.2755L34.8494 32.424H33.7438L33.2602 31.315ZM30.3407 26.2516H31.0144C31.023 26.3265 31.0492 26.3992 31.0913 26.4655C31.1334 26.5318 31.1906 26.5904 31.2597 26.6379C31.3288 26.6854 31.4083 26.7208 31.4937 26.7422C31.5791 26.7635 31.6687 26.7704 31.7572 26.7623C31.9352 26.7747 32.1119 26.7285 32.2504 26.6333C32.3889 26.5381 32.4783 26.4013 32.5001 26.2516H33.1565C33.1436 26.3944 33.0968 26.5335 33.0189 26.6606C32.9409 26.7878 32.8335 26.9003 32.7028 26.9916C32.5722 27.0829 32.4212 27.1509 32.2587 27.1918C32.0962 27.2326 31.9257 27.2453 31.7572 27.2292C31.5879 27.2454 31.4164 27.2327 31.2529 27.1921C31.0894 27.1514 30.9372 27.0835 30.8052 26.9924C30.6732 26.9013 30.5641 26.7889 30.4844 26.6616C30.4046 26.5344 30.3557 26.395 30.3407 26.2516ZM32.8283 30.6292L31.74 28.5133L30.6862 30.6292H32.8283Z" fill="white"/>
<path d="M40.261 27.7949V32.4242H39.3215L35.9958 29.2959V32.4242H34.8496V27.7949H35.7891L39.2087 30.9231V27.7949H40.261Z" fill="white"/>
<path d="M44.7414 30.0543H45.6715V31.8517C45.0878 32.2351 44.371 32.4367 43.6378 32.4235C43.1966 32.4128 42.7653 32.3081 42.3822 32.1188C41.9991 31.9294 41.676 31.6613 41.4418 31.3382C41.2075 31.0151 41.0693 30.647 41.0394 30.2666C41.0094 29.8863 41.0887 29.5054 41.2702 29.1579C41.4517 28.8104 41.7297 28.507 42.0797 28.2746C42.4296 28.0422 42.8405 27.8881 43.276 27.8259C43.7115 27.7637 44.158 27.7953 44.5759 27.918C44.9938 28.0407 45.3701 28.2507 45.6715 28.5292L45.0724 29.0467C44.8876 28.8796 44.6647 28.7474 44.4178 28.6583C44.1709 28.5693 43.9053 28.5253 43.6378 28.5292C43.3976 28.5292 43.1598 28.5701 42.9379 28.6495C42.7161 28.7288 42.5145 28.8452 42.3447 28.9919C42.1748 29.1385 42.0401 29.3127 41.9482 29.5043C41.8563 29.6959 41.809 29.9013 41.809 30.1087C41.809 30.3162 41.8563 30.5216 41.9482 30.7132C42.0401 30.9048 42.1748 31.079 42.3447 31.2256C42.5145 31.3723 42.7161 31.4887 42.9379 31.568C43.1598 31.6474 43.3976 31.6883 43.6378 31.6883C44.0125 31.694 44.3823 31.6141 44.7098 31.4568L44.7414 30.0543Z" fill="white"/>
<path d="M48.7637 27.7949H49.7713V31.6947H52.6289V32.4242H48.7637V27.7949Z" fill="white"/>
<path d="M58.0269 28.1377V30.5745C58.0534 30.9081 58.0135 31.2439 57.9096 31.5605C57.8056 31.8771 57.64 32.1678 57.423 32.4141C57.2061 32.6605 56.9426 32.8571 56.6492 32.9916C56.3559 33.1261 56.039 33.1955 55.7186 33.1955C55.3982 33.1955 55.0813 33.1261 54.788 32.9916C54.4946 32.8571 54.2311 32.6605 54.0142 32.4141C53.7972 32.1678 53.6316 31.8771 53.5276 31.5605C53.4237 31.2439 53.3837 30.9081 53.4103 30.5745V27.47H54.3848V30.5411C54.3848 31.6761 54.88 32.2102 55.7266 32.2102C56.5732 32.2102 57.0684 31.7262 57.0684 30.5411V27.47H57.6914C57.7543 27.4725 57.8169 27.4612 57.8753 27.4367C57.9336 27.4122 57.9864 27.3751 58.0301 27.3278C58.0738 27.2806 58.1075 27.2242 58.129 27.1624C58.1504 27.1007 58.1592 27.0348 58.1546 26.9693C58.1632 26.7952 58.1123 26.6237 58.0109 26.4853L58.5859 26.2516C58.7379 26.4692 58.8166 26.7334 58.8096 27.0027C58.8316 27.2586 58.7645 27.5142 58.6208 27.7227C58.477 27.9311 58.2662 28.0785 58.0269 28.1377Z" fill="white"/>
<path d="M64.9957 29.9314C65.0235 30.4823 64.8647 31.0278 64.5399 31.4974C64.2151 31.967 63.7393 32.3389 63.1742 32.565C62.6091 32.791 61.9807 32.8608 61.3705 32.7651C60.7603 32.6695 60.1965 32.413 59.7521 32.0288C59.3076 31.6445 59.0032 31.1503 58.8781 30.6103C58.753 30.0702 58.8132 29.5091 59.0506 28.9998C59.2881 28.4905 59.692 28.0564 60.21 27.7539C60.728 27.4513 61.3362 27.2942 61.9557 27.303C62.5984 27.303 63.0501 27.4112 63.4844 27.4112C63.9187 27.4112 64.214 27.2411 64.214 26.901C64.2102 26.7414 64.156 26.586 64.0577 26.4526L64.6657 26.2516C64.8335 26.447 64.925 26.6859 64.9262 26.9319C64.9367 27.1778 64.8422 27.4181 64.6618 27.6045C64.4813 27.791 64.2282 27.9097 63.9534 27.9369C64.2843 28.1783 64.5498 28.483 64.7302 28.8283C64.9107 29.1736 65.0014 29.5506 64.9957 29.9314ZM63.9361 29.9314C63.9361 29.5767 63.8179 29.2299 63.5964 28.935C63.375 28.64 63.0603 28.4101 62.6921 28.2744C62.3239 28.1386 61.9187 28.1031 61.5278 28.1723C61.1369 28.2415 60.7778 28.4124 60.496 28.6632C60.2142 28.914 60.0222 29.2336 59.9445 29.5815C59.8667 29.9294 59.9066 30.29 60.0592 30.6177C60.2117 30.9454 60.47 31.2256 60.8014 31.4226C61.1327 31.6197 61.5224 31.7249 61.9209 31.7249C62.1817 31.7229 62.4394 31.6747 62.679 31.5831C62.9186 31.4915 63.1353 31.3583 63.3164 31.1914C63.4976 31.0244 63.6395 30.827 63.734 30.6106C63.8284 30.3943 63.8735 30.1634 63.8666 29.9314H63.9361ZM62.4073 33.5339C62.4098 33.5913 62.3989 33.6486 62.3753 33.7021C62.3517 33.7556 62.3159 33.8042 62.2703 33.8448C62.2246 33.8854 62.17 33.9173 62.1099 33.9382C62.0498 33.9592 61.9854 33.9689 61.9209 33.9668C61.8556 33.9689 61.7905 33.9592 61.7294 33.9384C61.6684 33.9175 61.6127 33.886 61.5657 33.8456C61.5187 33.8052 61.4813 33.7567 61.4557 33.7032C61.4302 33.6496 61.4171 33.592 61.4171 33.5339C61.4147 33.4744 61.4261 33.4151 61.4505 33.3597C61.475 33.3044 61.512 33.2541 61.5593 33.212C61.6065 33.1699 61.6631 33.137 61.7253 33.1152C61.7875 33.0934 61.8541 33.0833 61.9209 33.0855C62.0406 33.1007 62.1496 33.1551 62.2267 33.238C62.3037 33.3209 62.3434 33.4264 62.3378 33.5339H62.4073Z" fill="white"/>
<path d="M71.1828 27.7949V32.4242H70.1705L66.8942 29.2959V32.4242H65.7715V27.7949H66.7102L70.0601 30.9231V27.7949H71.1828Z" fill="white"/>
<path d="M76.2601 30.0561H77.296V31.8523C76.6321 32.2318 75.8219 32.4328 74.9921 32.4239C74.1869 32.4239 73.4147 32.1801 72.8453 31.7463C72.2759 31.3125 71.9561 30.7241 71.9561 30.1105C71.9561 29.497 72.2759 28.9086 72.8453 28.4748C73.4147 28.0409 74.1869 27.7972 74.9921 27.7972C75.4341 27.7821 75.8752 27.84 76.2852 27.9668C76.6951 28.0936 77.0643 28.2864 77.3674 28.532L76.6709 29.0491C76.4621 28.8815 76.2098 28.7489 75.9299 28.6599C75.6501 28.5708 75.3489 28.5273 75.0457 28.532C74.7736 28.532 74.5042 28.5729 74.2529 28.6522C74.0016 28.7315 73.7732 28.8478 73.5808 28.9944C73.3884 29.1409 73.2358 29.315 73.1317 29.5065C73.0276 29.698 72.974 29.9032 72.974 30.1105C72.974 30.3178 73.0276 30.5231 73.1317 30.7146C73.2358 30.9061 73.3884 31.0801 73.5808 31.2267C73.7732 31.3733 74.0016 31.4896 74.2529 31.5689C74.5042 31.6482 74.7736 31.689 75.0457 31.689C75.47 31.6935 75.8885 31.6138 76.2601 31.4577V30.0561Z" fill="white"/>
<path d="M79.6855 30.1095C79.7115 29.6352 79.9182 29.1774 80.28 28.793C80.6417 28.4087 81.1425 28.1149 81.7197 27.9484C82.2969 27.7819 82.925 27.75 83.5256 27.8567C84.1263 27.9634 84.6727 28.204 85.0969 28.5485L84.4095 29.0643C84.2152 28.8957 83.9762 28.7612 83.7086 28.6698C83.4409 28.5785 83.151 28.5325 82.8583 28.5349C82.316 28.5349 81.796 28.7008 81.4125 28.9961C81.0291 29.2914 80.8136 29.6919 80.8136 30.1095C80.8136 30.5271 81.0291 30.9276 81.4125 31.2229C81.796 31.5182 82.316 31.6841 82.8583 31.6841C83.151 31.6865 83.4409 31.6405 83.7086 31.5492C83.9762 31.4579 84.2152 31.3233 84.4095 31.1547L85.0969 31.6706C84.6727 32.015 84.1263 32.2556 83.5256 32.3623C82.925 32.469 82.2969 32.4371 81.7197 32.2706C81.1425 32.1041 80.6417 31.8103 80.28 31.426C79.9182 31.0417 79.7115 30.5838 79.6855 30.1095Z" fill="white"/>
<path d="M85.8758 30.7233V27.7949H86.6888V30.6918C86.6888 31.7625 87.102 32.2663 87.8084 32.2663C88.5148 32.2663 88.928 31.8097 88.928 30.6918V27.7949H89.7277V30.7233C89.7499 31.038 89.7166 31.3547 89.6299 31.6534C89.5431 31.9521 89.4049 32.2263 89.2239 32.4586C89.0429 32.691 88.823 32.8765 88.5783 33.0033C88.3335 33.1302 88.0691 33.1957 87.8018 33.1957C87.5345 33.1957 87.27 33.1302 87.0253 33.0033C86.7805 32.8765 86.5606 32.691 86.3796 32.4586C86.1986 32.2263 86.0604 31.9521 85.9737 31.6534C85.8869 31.3547 85.8536 31.038 85.8758 30.7233Z" fill="white"/>
<path d="M96.6909 30.072C96.7149 30.5993 96.5784 31.1216 96.2988 31.5724C96.0191 32.0232 95.6091 32.3819 95.1209 32.6029C94.6328 32.824 94.0886 32.8972 93.5578 32.8133C93.0271 32.7294 92.5338 32.4922 92.141 32.1319C91.7481 31.7717 91.4735 31.3047 91.3521 30.7905C91.2307 30.2764 91.2681 29.7384 91.4594 29.2452C91.6508 28.7519 91.9874 28.3259 92.4265 28.0213C92.8655 27.7167 93.387 27.5474 93.9244 27.535C94.2793 27.5081 94.636 27.5539 94.9719 27.6695C95.3077 27.7851 95.6155 27.968 95.8756 28.2065C96.1357 28.445 96.3425 28.734 96.4828 29.0552C96.6232 29.3763 96.694 29.7226 96.6909 30.072ZM95.7484 30.072C95.7482 29.7322 95.6462 29.4 95.455 29.1167C95.2638 28.8335 94.9919 28.6118 94.6733 28.4792C94.3546 28.3466 94.0032 28.309 93.663 28.3711C93.3227 28.4332 93.0085 28.5922 92.7597 28.8284C92.5109 29.0646 92.3383 29.3674 92.2636 29.6992C92.1888 30.031 92.2152 30.377 92.3394 30.6942C92.4635 31.0114 92.68 31.2856 92.9619 31.4828C93.2438 31.68 93.5785 31.7914 93.9244 31.8032C94.1632 31.8201 94.4029 31.7874 94.628 31.7073C94.853 31.6271 95.0583 31.5012 95.2305 31.3378C95.4026 31.1744 95.5377 30.9773 95.627 30.7592C95.7162 30.541 95.7576 30.3069 95.7484 30.072ZM93.362 27.2067H92.6172L93.5748 26.2516H94.3956L95.3532 27.2067H94.6236L93.9244 26.6844L93.362 27.2067ZM94.4108 33.5492C94.4108 33.66 94.366 33.7663 94.2862 33.8447C94.2063 33.923 94.0981 33.9671 93.9852 33.9671C93.8723 33.9671 93.7641 33.923 93.6842 33.8447C93.6044 33.7663 93.5596 33.66 93.5596 33.5492C93.5596 33.4384 93.6044 33.3321 93.6842 33.2537C93.7641 33.1754 93.8723 33.1314 93.9852 33.1314C94.0981 33.1314 94.2063 33.1754 94.2862 33.2537C94.366 33.3321 94.4108 33.4384 94.4108 33.5492Z" fill="white"/>
<path d="M98.2393 30.1095C98.2373 29.7972 98.294 29.4876 98.4061 29.1998C98.5181 28.912 98.6831 28.652 98.891 28.4356C99.0989 28.2192 99.3453 28.0511 99.6151 27.9413C99.885 27.8316 100.173 27.7826 100.461 27.7974C100.768 27.7871 101.074 27.8486 101.358 27.9777C101.641 28.1067 101.896 28.3004 102.105 28.5455L101.603 29.0623C101.464 28.8934 101.294 28.7586 101.104 28.6671C100.913 28.5756 100.707 28.5295 100.498 28.5319C100.112 28.5319 99.7418 28.6981 99.4688 28.9939C99.1958 29.2898 99.0425 29.6911 99.0425 30.1095C99.0425 30.5279 99.1958 30.9292 99.4688 31.2251C99.7418 31.5209 100.112 31.6872 100.498 31.6872C100.707 31.6896 100.913 31.6435 101.104 31.552C101.294 31.4604 101.464 31.3257 101.603 31.1567L102.105 31.6736C101.896 31.9187 101.641 32.1123 101.358 32.2414C101.074 32.3704 100.768 32.4319 100.461 32.4216C100.173 32.4364 99.885 32.3874 99.6151 32.2777C99.3453 32.168 99.0989 31.9998 98.891 31.7834C98.6831 31.567 98.5181 31.307 98.4061 31.0192C98.294 30.7314 98.2373 30.4219 98.2393 30.1095Z" fill="white"/>
<path d="M105.196 31.8684L105.565 31.2188C106.116 31.5418 106.788 31.7176 107.48 31.7195C108.394 31.7195 108.763 31.4624 108.763 31.1376C108.763 30.1768 105.249 30.7993 105.249 29.1483C105.249 28.431 106.004 27.7949 107.586 27.7949C108.264 27.7911 108.931 27.9265 109.518 28.1874L109.185 28.837C108.698 28.6182 108.149 28.4972 107.586 28.4851C106.69 28.4851 106.321 28.7558 106.321 29.0941C106.321 30.0414 109.835 29.4189 109.835 31.07C109.835 31.7737 109.079 32.4233 107.48 32.4233C106.66 32.4391 105.856 32.2438 105.196 31.8684Z" fill="white"/>
<path d="M116.016 30.1809C116.044 30.7571 115.886 31.3278 115.563 31.8193C115.24 32.3109 114.766 32.7009 114.203 32.9388C113.64 33.1767 113.013 33.2518 112.404 33.1542C111.795 33.0566 111.231 32.7909 110.785 32.3914C110.339 31.9919 110.032 31.477 109.903 30.9129C109.774 30.3489 109.829 29.7617 110.061 29.2272C110.293 28.6927 110.692 28.2353 111.205 27.9141C111.719 27.593 112.323 27.4227 112.941 27.4254C113.34 27.4077 113.738 27.4661 114.112 27.5969C114.485 27.7276 114.826 27.9281 115.114 28.186C115.402 28.4438 115.63 28.7537 115.785 29.0967C115.94 29.4397 116.019 29.8086 116.016 30.1809ZM114.957 30.1809C114.957 29.809 114.838 29.4455 114.617 29.1363C114.396 28.8271 114.081 28.5861 113.713 28.4438C113.344 28.3015 112.939 28.2642 112.548 28.3368C112.157 28.4093 111.798 28.5884 111.516 28.8514C111.235 29.1143 111.043 29.4494 110.965 29.8141C110.887 30.1788 110.927 30.5569 111.08 30.9005C111.232 31.244 111.49 31.5377 111.822 31.7443C112.153 31.9509 112.543 32.0612 112.941 32.0612C113.208 32.0679 113.473 32.0238 113.721 31.9317C113.969 31.8396 114.194 31.7013 114.382 31.5254C114.571 31.3494 114.719 31.1395 114.818 30.9083C114.916 30.6772 114.964 30.4297 114.957 30.1809ZM112.229 27.0688H111.378L112.472 26.2583H113.445L114.557 27.0688H113.706L112.994 26.6473L112.229 27.0688ZM114.609 26.3718H113.827L114.765 25.4803H115.86L114.609 26.3718Z" fill="white"/>
<path d="M121.43 27.7949V32.4242H120.626L117.754 29.2959V32.4242H116.792V27.7949H117.597L120.468 30.9231V27.7949H121.43Z" fill="white"/>
<path d="M126.507 30.0561H127.543V31.8523C126.879 32.2318 126.069 32.4328 125.239 32.4239C124.434 32.4239 123.662 32.1801 123.092 31.7463C122.523 31.3125 122.203 30.7241 122.203 30.1105C122.203 29.497 122.523 28.9086 123.092 28.4748C123.662 28.0409 124.434 27.7972 125.239 27.7972C125.681 27.7821 126.122 27.84 126.532 27.9668C126.942 28.0936 127.311 28.2864 127.614 28.532L126.918 29.0491C126.709 28.8815 126.457 28.7489 126.177 28.6599C125.897 28.5708 125.596 28.5273 125.293 28.532C125.021 28.532 124.751 28.5729 124.5 28.6522C124.249 28.7315 124.02 28.8478 123.828 28.9944C123.635 29.1409 123.483 29.315 123.379 29.5065C123.275 29.698 123.221 29.9032 123.221 30.1105C123.221 30.3178 123.275 30.5231 123.379 30.7146C123.483 30.9061 123.635 31.0801 123.828 31.2267C124.02 31.3733 124.249 31.4896 124.5 31.5689C124.751 31.6482 125.021 31.689 125.293 31.689C125.717 31.6916 126.135 31.612 126.507 31.4577V30.0561Z" fill="white"/>
</svg>
