<svg width="80" height="80" viewBox="0 0 80 80" fill="none" xmlns="http://www.w3.org/2000/svg">
<circle cx="40" cy="40" r="39" stroke="#29AB56" stroke-width="2"/>
<circle cx="39.9997" cy="39.9997" r="28.2927" fill="#F0F0F0"/>
<path d="M35.5024 49.7771H44.5083C46.0174 49.7771 46.9876 48.8657 47.066 47.3566L47.7225 33.245H48.8005C49.3003 33.245 49.6825 32.8531 49.6825 32.3631C49.6825 31.8731 49.2905 31.5007 48.8005 31.5007H44.4495V30.0308C44.4495 28.5216 43.4891 27.6396 41.8525 27.6396H38.1287C36.4921 27.6396 35.5318 28.5216 35.5318 30.0308V31.5007H31.2003C30.7103 31.5007 30.3184 31.8829 30.3184 32.3631C30.3184 32.8629 30.7103 33.245 31.2003 33.245H32.2783L32.9349 47.3566C33.0133 48.8755 33.9736 49.7771 35.5024 49.7771ZM37.3643 30.119C37.3643 29.6192 37.7171 29.2958 38.2561 29.2958H41.7252C42.2641 29.2958 42.6169 29.6192 42.6169 30.119V31.5007H37.3643V30.119ZM35.6984 48.0229C35.1594 48.0229 34.7674 47.6211 34.738 47.043L34.0814 33.245H45.89L45.253 47.043C45.2334 47.6309 44.8512 48.0229 44.2927 48.0229H35.6984ZM37.1095 46.4452C37.5309 46.4452 37.7955 46.1806 37.7857 45.7886L37.4917 35.5382C37.4819 35.1462 37.2075 34.8914 36.8057 34.8914C36.3941 34.8914 36.1296 35.156 36.1394 35.548L36.4333 45.7984C36.4431 46.1904 36.7175 46.4452 37.1095 46.4452ZM40.0004 46.4452C40.412 46.4452 40.6962 46.1904 40.6962 45.7984V35.548C40.6962 35.156 40.412 34.8914 40.0004 34.8914C39.5888 34.8914 39.3144 35.156 39.3144 35.548V45.7984C39.3144 46.1904 39.5888 46.4452 40.0004 46.4452ZM42.8913 46.455C43.2833 46.455 43.5577 46.1904 43.5675 45.7984L43.8615 35.548C43.8713 35.156 43.6067 34.9012 43.1951 34.9012C42.7933 34.9012 42.5189 35.156 42.5091 35.548L42.2151 45.7984C42.2053 46.1806 42.4699 46.455 42.8913 46.455Z" fill="#29AB56"/>
</svg>
