<svg width="32" height="32" viewBox="0 0 32 32" fill="none" xmlns="http://www.w3.org/2000/svg">
<path d="M6.87939 25.0071H25.1004C27.27 25.0071 28.4151 23.8821 28.4151 21.7326V11.1857C28.4151 9.03613 27.27 7.91113 25.1004 7.91113H22.3582C21.5747 7.91113 21.3236 7.78055 20.8314 7.26828L20.0379 6.41448C19.5156 5.86203 18.9832 5.59082 17.9586 5.59082H13.9709C12.9464 5.59082 12.424 5.86203 11.8917 6.41448L11.0981 7.26828C10.616 7.77051 10.3548 7.91113 9.57136 7.91113H6.87939C4.70975 7.91113 3.57471 9.03613 3.57471 11.1857V21.7326C3.57471 23.8821 4.70975 25.0071 6.87939 25.0071ZM7.00997 23.0082C6.09591 23.0082 5.57359 22.5261 5.57359 21.5518V11.3665C5.57359 10.4022 6.09591 9.92006 7.00997 9.92006H10.1539C11.058 9.92006 11.52 9.75935 12.0323 9.20689L12.7957 8.36314C13.3582 7.75042 13.6595 7.5897 14.5435 7.5897H17.3861C18.27 7.5897 18.5714 7.75042 19.1238 8.3531L19.8973 9.20689C20.4095 9.75935 20.8716 9.92006 21.7756 9.92006H24.9698C25.8939 9.92006 26.4062 10.4022 26.4062 11.3665V21.5518C26.4062 22.5261 25.8939 23.0082 24.9698 23.0082H7.00997ZM15.9899 21.6823C19.0033 21.6823 21.414 19.2716 21.414 16.2482C21.414 13.2247 19.0033 10.814 15.9899 10.814C12.9865 10.814 10.5758 13.2247 10.5758 16.2482C10.5758 19.2716 12.9865 21.6823 15.9899 21.6823ZM21.7555 12.6522C21.7555 13.3855 22.3481 13.958 23.0714 13.948C23.7745 13.948 24.3671 13.3754 24.3671 12.6522C24.3671 11.9491 23.7644 11.3464 23.0714 11.3464C22.3481 11.3464 21.7555 11.9491 21.7555 12.6522ZM15.9899 19.8542C14.0111 19.8542 12.3939 18.2471 12.3939 16.2482C12.3939 14.2393 14.001 12.6422 15.9899 12.6422C17.9888 12.6422 19.5959 14.2393 19.5959 16.2482C19.5959 18.2471 17.9888 19.8542 15.9899 19.8542Z" fill="white"/>
</svg>
