<svg width="21" height="20" viewBox="0 0 21 20" fill="none" xmlns="http://www.w3.org/2000/svg">
<path d="M19.0797 8.28628H18.3749V8.24996H10.5V11.7499H15.445C14.7236 13.7874 12.785 15.2499 10.5 15.2499C7.60066 15.2499 5.24998 12.8993 5.24998 9.99996C5.24998 7.10066 7.60066 4.74998 10.5 4.74998C11.8383 4.74998 13.0558 5.25485 13.9829 6.07954L16.4578 3.60461C14.8951 2.14818 12.8047 1.25 10.5 1.25C5.66779 1.25 1.75 5.16779 1.75 9.99996C1.75 14.8321 5.66779 18.7499 10.5 18.7499C15.3321 18.7499 19.2499 14.8321 19.2499 9.99996C19.2499 9.41327 19.1895 8.84059 19.0797 8.28628Z" fill="#FABC05"/>
<path d="M2.75879 5.92729L5.63359 8.03559C6.41146 6.10973 8.29533 4.74998 10.4999 4.74998C11.8382 4.74998 13.0557 5.25485 13.9828 6.07954L16.4577 3.60461C14.895 2.14818 12.8046 1.25 10.4999 1.25C7.13902 1.25 4.22441 3.14743 2.75879 5.92729Z" fill="#EB4336"/>
<path d="M10.5001 18.7498C12.7602 18.7498 14.8138 17.8848 16.3665 16.4783L13.6584 14.1867C12.7504 14.8772 11.6409 15.2507 10.5001 15.2498C8.22423 15.2498 6.29181 13.7986 5.56381 11.7734L2.71045 13.9719C4.15857 16.8055 7.09943 18.7498 10.5001 18.7498Z" fill="#34A853"/>
<path d="M19.0798 8.28631H18.375V8.25H10.5V11.75H15.445C15.0999 12.7197 14.4783 13.567 13.657 14.1873L13.6583 14.1864L16.3664 16.478C16.1748 16.6521 19.25 14.375 19.25 9.99999C19.25 9.41331 19.1896 8.84062 19.0798 8.28631Z" fill="#4286F5"/>
</svg>
