<svg width="20" height="20" viewBox="0 0 20 20" fill="none" xmlns="http://www.w3.org/2000/svg">
<path d="M15 1.3C11.1 -0.9 6.3 -0.2 3.1 2.8V1C3.1 0.4 2.7 0 2.1 0C1.5 0 1.1 0.4 1.1 1V5.5C1.1 6.1 1.5 6.5 2.1 6.5H6.6C7.2 6.5 7.6 6.1 7.6 5.5C7.6 4.9 7.2 4.5 6.6 4.5H4.2C5.7 2.9 7.8 2 10 2C14.4 2 18 5.6 18 10C18 14.4 14.4 18 10 18C5.6 18 2 14.4 2 10C2 9.4 1.6 9 1 9C0.4 9 0 9.4 0 10C0 15.5 4.5 20 10 20C13.6 20 16.9 18.1 18.7 15C21.4 10.2 19.8 4.1 15 1.3ZM10 6C9.4 6 9 6.4 9 7V10C9 10.6 9.4 11 10 11H12C12.6 11 13 10.6 13 10C13 9.4 12.6 9 12 9H11V7C11 6.4 10.6 6 10 6Z" fill="black"/>
</svg>
