<svg width="20" height="22" viewBox="0 0 20 22" fill="none" xmlns="http://www.w3.org/2000/svg">
<path fill-rule="evenodd" clip-rule="evenodd" d="M4.34985 6.5173C4.29635 7.13203 4.29571 7.7632 4.29571 8.43598C4.29571 8.50426 4.28872 8.57237 4.27484 8.63923C4.06467 9.65168 3.5887 10.5901 2.89695 11.3621C2.66206 11.7355 2.52629 12.1592 2.50083 12.5949V12.7871L2.5006 12.8086C2.48747 13.4196 2.69189 14.0181 3.08185 14.5008C3.6622 15.0916 4.44192 15.4631 5.28223 15.5429L5.29429 15.5441L5.29428 15.5441C8.41879 15.8793 11.5712 15.8793 14.6957 15.5441L14.7118 15.5425C15.5526 15.466 16.3328 15.0936 16.9098 14.4995C17.3068 14.018 17.5145 13.4165 17.4992 12.8025C17.4991 12.7982 17.499 12.794 17.499 12.7898C17.4989 12.7857 17.4989 12.7817 17.4989 12.7776V12.5926C17.4758 12.1607 17.3404 11.7407 17.1042 11.3727C16.4141 10.5961 15.9382 9.65553 15.7253 8.6414C15.7161 8.59759 15.7099 8.55322 15.7067 8.50857C15.6806 8.15041 15.682 7.79438 15.6832 7.48158C15.6833 7.46354 15.6833 7.44564 15.6834 7.42789C15.6846 7.08999 15.6839 6.79893 15.6597 6.51868C15.4084 3.95228 12.7946 2 10.0387 2H9.96106C7.20353 2 4.59212 3.9533 4.34985 6.5173ZM2.35829 6.3337C2.71934 2.48199 6.45212 0 9.96106 0H10.0387C13.5486 0 17.2785 2.48219 17.6509 6.33072L17.6518 6.34001L17.6517 6.34001C17.6853 6.72481 17.6846 7.10364 17.6834 7.43512L17.6833 7.46359C17.6822 7.77015 17.6812 8.03693 17.6968 8.29524C17.8478 8.95859 18.1703 9.57508 18.6358 10.0848C18.6683 10.1204 18.6983 10.1584 18.7253 10.1983C19.1927 10.8883 19.4604 11.6921 19.4979 12.5231C19.4986 12.5381 19.4989 12.5531 19.4989 12.5681V12.7659C19.5233 13.8784 19.1386 14.9598 18.419 15.8124C18.406 15.8278 18.3924 15.8429 18.3784 15.8576C17.4636 16.8167 16.2263 17.411 14.9013 17.5336C11.6394 17.8829 8.34855 17.8828 5.0867 17.5333C3.76498 17.4062 2.5311 16.8138 1.6144 15.8605C1.59756 15.843 1.58136 15.8249 1.56584 15.8062C0.858593 14.9544 0.479862 13.8812 0.500826 12.777V12.5681C0.500826 12.5516 0.501235 12.5351 0.502053 12.5186C0.543172 11.6894 0.808937 10.8873 1.27019 10.1951C1.29937 10.1513 1.33195 10.1099 1.36765 10.0712C1.82554 9.57531 2.14417 8.9745 2.29572 8.32723C2.29583 7.6982 2.29851 7.01796 2.35772 6.34001L2.35827 6.3337L2.35829 6.3337Z" fill="black"/>
<path fill-rule="evenodd" clip-rule="evenodd" d="M6.9316 19.0695C7.36356 18.7253 7.99271 18.7965 8.33685 19.2285C8.66973 19.6463 9.16256 19.9211 9.70888 19.9854C10.2554 20.0497 10.8031 19.8971 11.2304 19.5659L11.2454 19.5545C11.3737 19.4588 11.4887 19.348 11.5878 19.2248C11.934 18.7945 12.5635 18.7263 12.9938 19.0724C13.4241 19.4186 13.4923 20.0481 13.1461 20.4784C12.9427 20.7313 12.7082 20.9576 12.4483 21.1523C11.6045 21.8032 10.5352 22.0964 9.47515 21.9717C8.41181 21.8466 7.43827 21.3102 6.7726 20.4747C6.42846 20.0428 6.49965 19.4136 6.9316 19.0695Z" fill="black"/>
</svg>
