<svg width="18" height="22" viewBox="0 0 18 22" fill="none" xmlns="http://www.w3.org/2000/svg">
<path fill-rule="evenodd" clip-rule="evenodd" d="M7.85714 2C7.5072 2 7.17707 2.13542 6.93798 2.36787C6.69984 2.59939 6.57143 2.9073 6.57143 3.22222C6.57143 3.53714 6.69984 3.84505 6.93798 4.07658C7.17707 4.30903 7.5072 4.44444 7.85714 4.44444H10.1429C10.4928 4.44444 10.8229 4.30903 11.062 4.07658C11.3002 3.84505 11.4286 3.53714 11.4286 3.22222C11.4286 2.9073 11.3002 2.59939 11.062 2.36787C10.8229 2.13542 10.4928 2 10.1429 2H7.85714ZM5.54382 0.933879C6.16204 0.332836 6.99467 0 7.85714 0H10.1429C11.0053 0 11.838 0.332836 12.4562 0.933879C12.829 1.29639 13.1055 1.73889 13.2664 2.22222H14.7143C15.5768 2.22222 16.4094 2.55506 17.0276 3.1561C17.6468 3.75807 18 4.58062 18 5.44444V18.7778C18 19.6416 17.6468 20.4641 17.0276 21.0661C16.4094 21.6672 15.5768 22 14.7143 22H3.28571C2.42324 22 1.59061 21.6672 0.972392 21.0661C0.353219 20.4641 0 19.6416 0 18.7778V5.44444C0 4.58062 0.353219 3.75807 0.972392 3.1561C1.59061 2.55506 2.42324 2.22222 3.28571 2.22222H4.73362C4.89454 1.73889 5.17095 1.29639 5.54382 0.933879ZM4.73362 4.22222H3.28571C2.93577 4.22222 2.60564 4.35764 2.36655 4.59009C2.12841 4.82161 2 5.12953 2 5.44444V18.7778C2 19.0927 2.12841 19.4006 2.36655 19.6321C2.60564 19.8646 2.93577 20 3.28571 20H14.7143C15.0642 20 15.3944 19.8646 15.6335 19.6321C15.8716 19.4006 16 19.0927 16 18.7778V5.44444C16 5.12953 15.8716 4.82161 15.6335 4.59009C15.3944 4.35764 15.0642 4.22222 14.7143 4.22222H13.2664C13.1055 4.70556 12.829 5.14806 12.4562 5.51057C11.838 6.11161 11.0053 6.44444 10.1429 6.44444H7.85714C6.99467 6.44444 6.16204 6.11161 5.54382 5.51057C5.17095 5.14806 4.89454 4.70556 4.73362 4.22222ZM4.57143 11C4.57143 10.4477 5.01914 10 5.57143 10H5.58286C6.13514 10 6.58286 10.4477 6.58286 11C6.58286 11.5523 6.13514 12 5.58286 12H5.57143C5.01914 12 4.57143 11.5523 4.57143 11ZM8 11C8 10.4477 8.44772 10 9 10H12.4286C12.9809 10 13.4286 10.4477 13.4286 11C13.4286 11.5523 12.9809 12 12.4286 12H9C8.44772 12 8 11.5523 8 11ZM4.57143 15.4444C4.57143 14.8922 5.01914 14.4444 5.57143 14.4444H5.58286C6.13514 14.4444 6.58286 14.8922 6.58286 15.4444C6.58286 15.9967 6.13514 16.4444 5.58286 16.4444H5.57143C5.01914 16.4444 4.57143 15.9967 4.57143 15.4444ZM8 15.4444C8 14.8922 8.44772 14.4444 9 14.4444H12.4286C12.9809 14.4444 13.4286 14.8922 13.4286 15.4444C13.4286 15.9967 12.9809 16.4444 12.4286 16.4444H9C8.44772 16.4444 8 15.9967 8 15.4444Z" fill="black"/>
</svg>
