<svg width="24" height="23" viewBox="0 0 24 23" fill="none" xmlns="http://www.w3.org/2000/svg">
<path d="M4.60497 22.7769C5.10618 23.1617 5.7247 23.0334 6.44986 22.5097L11.9952 18.4268L17.5405 22.5097C18.2657 23.0334 18.8949 23.1617 19.3961 22.7769C19.8866 22.4028 19.9933 21.7829 19.7053 20.9385L17.5192 14.4079L23.1179 10.3784C23.8324 9.86537 24.1416 9.29888 23.939 8.70034C23.7364 8.11247 23.1712 7.82389 22.2861 7.83458L15.4184 7.87733L13.3282 1.31467C13.0616 0.4596 12.6244 0 11.9952 0C11.3767 0 10.9395 0.4596 10.6622 1.31467L8.57202 7.87733L1.70434 7.83458C0.819214 7.82389 0.264681 8.11247 0.0620629 8.70034C-0.140555 9.29888 0.15804 9.86537 0.883199 10.3784L6.48185 14.4079L4.28505 20.9385C3.99712 21.7829 4.10376 22.4028 4.60497 22.7769ZM11.9952 16.2143V3.18513C12.0272 3.18513 12.0379 3.19582 12.0592 3.25995L13.7654 9.09581C13.9254 9.63022 14.2133 9.81193 14.7572 9.79055L20.8251 9.6516C20.8891 9.6516 20.9104 9.66229 20.9211 9.68367C20.9317 9.71573 20.9211 9.72642 20.8677 9.75848L15.8663 13.2001C15.3757 13.5315 15.3117 13.8521 15.493 14.3759L17.5192 20.1155C17.5405 20.169 17.5405 20.1796 17.5192 20.201C17.4979 20.2331 17.4765 20.2117 17.4339 20.1903L12.6244 16.4708C12.4111 16.2998 12.1978 16.2143 11.9952 16.2143Z" fill="black"/>
</svg>
