<svg width="140" height="44" viewBox="0 0 140 44" fill="none" xmlns="http://www.w3.org/2000/svg">
<rect x="0.5" y="0.5" width="139" height="43" rx="1.5" stroke="black"/>
<path d="M47.5 22.0735C47.5 15.4053 42.1277 10 35.5015 10C28.8723 10.0015 23.5 15.4053 23.5 22.075C23.5 28.0997 27.8885 33.0941 33.6237 34V25.5636H30.5791V22.075H33.6267V19.4128C33.6267 16.3877 35.419 14.7169 38.1592 14.7169C39.473 14.7169 40.8453 14.9524 40.8453 14.9524V17.922H39.332C37.8427 17.922 37.3778 18.8534 37.3778 19.8088V22.0735H40.7043L40.1734 25.5621H37.3763V33.9985C43.1115 33.0926 47.5 28.0982 47.5 22.0735Z" fill="#1877F2"/>
<path d="M58.0752 17.0469V27H56.7559V17.0469H58.0752ZM62.2451 21.5244V22.6045H57.7881V21.5244H62.2451ZM62.9219 17.0469V18.127H57.7881V17.0469H62.9219ZM68.4316 25.7354V21.9277C68.4316 21.6361 68.3724 21.3831 68.2539 21.1689C68.14 20.9502 67.9668 20.7816 67.7344 20.6631C67.502 20.5446 67.2148 20.4854 66.873 20.4854C66.554 20.4854 66.2738 20.54 66.0322 20.6494C65.7952 20.7588 65.6084 20.9023 65.4717 21.0801C65.3395 21.2578 65.2734 21.4492 65.2734 21.6543H64.0088C64.0088 21.39 64.0771 21.1279 64.2139 20.8682C64.3506 20.6084 64.5465 20.3737 64.8018 20.1641C65.0615 19.9499 65.3714 19.7812 65.7314 19.6582C66.096 19.5306 66.5016 19.4668 66.9482 19.4668C67.486 19.4668 67.96 19.5579 68.3701 19.7402C68.7848 19.9225 69.1084 20.1982 69.3408 20.5674C69.5778 20.932 69.6963 21.39 69.6963 21.9414V25.3867C69.6963 25.6328 69.7168 25.8949 69.7578 26.1729C69.8034 26.4508 69.8695 26.6901 69.9561 26.8906V27H68.6367C68.5729 26.8542 68.5228 26.6605 68.4863 26.4189C68.4499 26.1729 68.4316 25.945 68.4316 25.7354ZM68.6504 22.5156L68.6641 23.4043H67.3857C67.0257 23.4043 66.7044 23.4339 66.4219 23.4932C66.1393 23.5479 65.9023 23.6322 65.7109 23.7461C65.5195 23.86 65.3737 24.0036 65.2734 24.1768C65.1732 24.3454 65.123 24.5436 65.123 24.7715C65.123 25.0039 65.1755 25.2158 65.2803 25.4072C65.3851 25.5986 65.5423 25.7513 65.752 25.8652C65.9661 25.9746 66.2282 26.0293 66.5381 26.0293C66.9255 26.0293 67.2673 25.9473 67.5635 25.7832C67.8597 25.6191 68.0944 25.4186 68.2676 25.1816C68.4453 24.9447 68.541 24.7145 68.5547 24.4912L69.0947 25.0996C69.0628 25.291 68.9762 25.5029 68.835 25.7354C68.6937 25.9678 68.5046 26.1911 68.2676 26.4053C68.0352 26.6149 67.7572 26.7904 67.4336 26.9316C67.1146 27.0684 66.7546 27.1367 66.3535 27.1367C65.8522 27.1367 65.4124 27.0387 65.0342 26.8428C64.6605 26.6468 64.3688 26.3848 64.1592 26.0566C63.9541 25.724 63.8516 25.3525 63.8516 24.9424C63.8516 24.5459 63.929 24.1973 64.084 23.8965C64.2389 23.5911 64.4622 23.3382 64.7539 23.1377C65.0456 22.9326 65.3965 22.7777 65.8066 22.6729C66.2168 22.568 66.6748 22.5156 67.1807 22.5156H68.6504ZM74.6455 26.0977C74.9463 26.0977 75.2243 26.0361 75.4795 25.9131C75.7347 25.79 75.9443 25.6214 76.1084 25.4072C76.2725 25.1885 76.3659 24.9401 76.3887 24.6621H77.5918C77.569 25.0996 77.4209 25.5075 77.1475 25.8857C76.8786 26.2594 76.5254 26.5625 76.0879 26.7949C75.6504 27.0228 75.1696 27.1367 74.6455 27.1367C74.0895 27.1367 73.6042 27.0387 73.1895 26.8428C72.7793 26.6468 72.4375 26.3779 72.1641 26.0361C71.8952 25.6943 71.6924 25.3024 71.5557 24.8604C71.4235 24.4137 71.3574 23.9421 71.3574 23.4453V23.1582C71.3574 22.6615 71.4235 22.1921 71.5557 21.75C71.6924 21.3034 71.8952 20.9092 72.1641 20.5674C72.4375 20.2256 72.7793 19.9567 73.1895 19.7607C73.6042 19.5648 74.0895 19.4668 74.6455 19.4668C75.2243 19.4668 75.7301 19.5853 76.1631 19.8223C76.596 20.0547 76.9355 20.3737 77.1816 20.7793C77.4323 21.1803 77.569 21.6361 77.5918 22.1465H76.3887C76.3659 21.8411 76.2793 21.5654 76.1289 21.3193C75.9831 21.0732 75.7826 20.8773 75.5273 20.7314C75.2767 20.5811 74.9827 20.5059 74.6455 20.5059C74.2581 20.5059 73.9323 20.5833 73.668 20.7383C73.4082 20.8887 73.2008 21.0938 73.0459 21.3535C72.8955 21.6087 72.7861 21.8936 72.7178 22.208C72.654 22.5179 72.6221 22.8346 72.6221 23.1582V23.4453C72.6221 23.7689 72.654 24.0879 72.7178 24.4023C72.7816 24.7168 72.8887 25.0016 73.0391 25.2568C73.194 25.512 73.4014 25.7171 73.6611 25.8721C73.9255 26.0225 74.2536 26.0977 74.6455 26.0977ZM82.083 27.1367C81.568 27.1367 81.1009 27.0501 80.6816 26.877C80.2669 26.6992 79.9092 26.4508 79.6084 26.1318C79.3122 25.8128 79.0843 25.4346 78.9248 24.9971C78.7653 24.5596 78.6855 24.0811 78.6855 23.5615V23.2744C78.6855 22.6729 78.7744 22.1374 78.9521 21.668C79.1299 21.194 79.3714 20.793 79.6768 20.4648C79.9821 20.1367 80.3285 19.8883 80.7158 19.7197C81.1032 19.5511 81.5042 19.4668 81.9189 19.4668C82.4476 19.4668 82.9033 19.5579 83.2861 19.7402C83.6735 19.9225 83.9902 20.1777 84.2363 20.5059C84.4824 20.8294 84.6647 21.2122 84.7832 21.6543C84.9017 22.0918 84.9609 22.5703 84.9609 23.0898V23.6572H79.4375V22.625H83.6963V22.5293C83.6781 22.2012 83.6097 21.8822 83.4912 21.5723C83.3773 21.2624 83.195 21.0072 82.9443 20.8066C82.6937 20.6061 82.3519 20.5059 81.9189 20.5059C81.6318 20.5059 81.3675 20.5674 81.126 20.6904C80.8844 20.8089 80.6771 20.9867 80.5039 21.2236C80.3307 21.4606 80.1963 21.75 80.1006 22.0918C80.0049 22.4336 79.957 22.8278 79.957 23.2744V23.5615C79.957 23.9124 80.0049 24.2428 80.1006 24.5527C80.2008 24.8581 80.3444 25.127 80.5312 25.3594C80.7227 25.5918 80.9528 25.7741 81.2217 25.9062C81.4951 26.0384 81.805 26.1045 82.1514 26.1045C82.598 26.1045 82.9762 26.0133 83.2861 25.8311C83.596 25.6488 83.8672 25.4049 84.0996 25.0996L84.8652 25.708C84.7057 25.9495 84.5029 26.1797 84.2568 26.3984C84.0107 26.6172 83.7077 26.7949 83.3477 26.9316C82.9922 27.0684 82.5706 27.1367 82.083 27.1367ZM86.4307 16.5H87.7021V25.5645L87.5928 27H86.4307V16.5ZM92.6992 23.2402V23.3838C92.6992 23.9215 92.6354 24.4206 92.5078 24.8809C92.3802 25.3366 92.1934 25.7331 91.9473 26.0703C91.7012 26.4076 91.4004 26.6696 91.0449 26.8564C90.6895 27.0433 90.2816 27.1367 89.8213 27.1367C89.3519 27.1367 88.9395 27.057 88.584 26.8975C88.2331 26.7334 87.9368 26.4987 87.6953 26.1934C87.4538 25.888 87.2601 25.5189 87.1143 25.0859C86.973 24.653 86.875 24.1654 86.8203 23.623V22.9941C86.875 22.4473 86.973 21.9574 87.1143 21.5244C87.2601 21.0915 87.4538 20.7223 87.6953 20.417C87.9368 20.1071 88.2331 19.8724 88.584 19.7129C88.9349 19.5488 89.3428 19.4668 89.8076 19.4668C90.2725 19.4668 90.6849 19.5579 91.0449 19.7402C91.4049 19.918 91.7057 20.1732 91.9473 20.5059C92.1934 20.8385 92.3802 21.2373 92.5078 21.7021C92.6354 22.1624 92.6992 22.6751 92.6992 23.2402ZM91.4277 23.3838V23.2402C91.4277 22.8711 91.3936 22.5247 91.3252 22.2012C91.2568 21.873 91.1475 21.5859 90.9971 21.3398C90.8467 21.0892 90.6484 20.8932 90.4023 20.752C90.1562 20.6061 89.8532 20.5332 89.4932 20.5332C89.1742 20.5332 88.8962 20.5879 88.6592 20.6973C88.4268 20.8066 88.2285 20.9548 88.0645 21.1416C87.9004 21.3239 87.766 21.5335 87.6611 21.7705C87.5609 22.0029 87.4857 22.2445 87.4355 22.4951V24.1426C87.5085 24.4616 87.627 24.7692 87.791 25.0654C87.9596 25.3571 88.1829 25.5964 88.4609 25.7832C88.7435 25.9701 89.0921 26.0635 89.5068 26.0635C89.8486 26.0635 90.1403 25.9951 90.3818 25.8584C90.6279 25.7171 90.8262 25.5234 90.9766 25.2773C91.1315 25.0312 91.2454 24.7464 91.3184 24.4229C91.3913 24.0993 91.4277 23.7529 91.4277 23.3838ZM93.9639 23.3838V23.2266C93.9639 22.6934 94.0413 22.1989 94.1963 21.7432C94.3512 21.2829 94.5745 20.8841 94.8662 20.5469C95.1579 20.2051 95.5111 19.9408 95.9258 19.7539C96.3405 19.5625 96.8053 19.4668 97.3203 19.4668C97.8398 19.4668 98.307 19.5625 98.7217 19.7539C99.141 19.9408 99.4964 20.2051 99.7881 20.5469C100.084 20.8841 100.31 21.2829 100.465 21.7432C100.62 22.1989 100.697 22.6934 100.697 23.2266V23.3838C100.697 23.917 100.62 24.4115 100.465 24.8672C100.31 25.3229 100.084 25.7217 99.7881 26.0635C99.4964 26.4007 99.1432 26.665 98.7285 26.8564C98.3184 27.0433 97.8535 27.1367 97.334 27.1367C96.8145 27.1367 96.3473 27.0433 95.9326 26.8564C95.5179 26.665 95.1624 26.4007 94.8662 26.0635C94.5745 25.7217 94.3512 25.3229 94.1963 24.8672C94.0413 24.4115 93.9639 23.917 93.9639 23.3838ZM95.2285 23.2266V23.3838C95.2285 23.7529 95.2718 24.1016 95.3584 24.4297C95.445 24.7533 95.5749 25.0404 95.748 25.291C95.9258 25.5417 96.1468 25.7399 96.4111 25.8857C96.6755 26.027 96.9831 26.0977 97.334 26.0977C97.6803 26.0977 97.9834 26.027 98.2432 25.8857C98.5075 25.7399 98.7262 25.5417 98.8994 25.291C99.0726 25.0404 99.2025 24.7533 99.2891 24.4297C99.3802 24.1016 99.4258 23.7529 99.4258 23.3838V23.2266C99.4258 22.862 99.3802 22.5179 99.2891 22.1943C99.2025 21.8662 99.0703 21.5768 98.8926 21.3262C98.7194 21.071 98.5007 20.8704 98.2363 20.7246C97.9766 20.5788 97.6712 20.5059 97.3203 20.5059C96.974 20.5059 96.6686 20.5788 96.4043 20.7246C96.1445 20.8704 95.9258 21.071 95.748 21.3262C95.5749 21.5768 95.445 21.8662 95.3584 22.1943C95.2718 22.5179 95.2285 22.862 95.2285 23.2266ZM101.948 23.3838V23.2266C101.948 22.6934 102.026 22.1989 102.181 21.7432C102.336 21.2829 102.559 20.8841 102.851 20.5469C103.142 20.2051 103.495 19.9408 103.91 19.7539C104.325 19.5625 104.79 19.4668 105.305 19.4668C105.824 19.4668 106.291 19.5625 106.706 19.7539C107.125 19.9408 107.481 20.2051 107.772 20.5469C108.069 20.8841 108.294 21.2829 108.449 21.7432C108.604 22.1989 108.682 22.6934 108.682 23.2266V23.3838C108.682 23.917 108.604 24.4115 108.449 24.8672C108.294 25.3229 108.069 25.7217 107.772 26.0635C107.481 26.4007 107.128 26.665 106.713 26.8564C106.303 27.0433 105.838 27.1367 105.318 27.1367C104.799 27.1367 104.332 27.0433 103.917 26.8564C103.502 26.665 103.147 26.4007 102.851 26.0635C102.559 25.7217 102.336 25.3229 102.181 24.8672C102.026 24.4115 101.948 23.917 101.948 23.3838ZM103.213 23.2266V23.3838C103.213 23.7529 103.256 24.1016 103.343 24.4297C103.429 24.7533 103.559 25.0404 103.732 25.291C103.91 25.5417 104.131 25.7399 104.396 25.8857C104.66 26.027 104.967 26.0977 105.318 26.0977C105.665 26.0977 105.968 26.027 106.228 25.8857C106.492 25.7399 106.711 25.5417 106.884 25.291C107.057 25.0404 107.187 24.7533 107.273 24.4297C107.365 24.1016 107.41 23.7529 107.41 23.3838V23.2266C107.41 22.862 107.365 22.5179 107.273 22.1943C107.187 21.8662 107.055 21.5768 106.877 21.3262C106.704 21.071 106.485 20.8704 106.221 20.7246C105.961 20.5788 105.656 20.5059 105.305 20.5059C104.958 20.5059 104.653 20.5788 104.389 20.7246C104.129 20.8704 103.91 21.071 103.732 21.3262C103.559 21.5768 103.429 21.8662 103.343 22.1943C103.256 22.5179 103.213 22.862 103.213 23.2266ZM111.539 16.5V27H110.268V16.5H111.539ZM116.058 19.6035L112.831 23.0557L111.026 24.9287L110.924 23.582L112.216 22.0371L114.513 19.6035H116.058ZM114.902 27L112.264 23.4727L112.92 22.3447L116.393 27H114.902Z" fill="#1877F2"/>
</svg>
