<svg width="140" height="44" viewBox="0 0 140 44" fill="none" xmlns="http://www.w3.org/2000/svg">
<rect x="0.5" y="0.5" width="139" height="43" rx="1.5" stroke="black"/>
<g clip-path="url(#clip0_4625_18608)">
<path d="M43.8584 30.9381C43.759 30.8941 43.6872 30.8447 43.8032 30.7457C43.875 30.6907 43.9523 30.6413 44.0296 30.5918C44.7531 30.1246 45.4323 29.6133 45.8796 28.8602C46.2551 28.2336 46.1944 27.8653 45.725 27.4035C43.1074 24.7979 41.9587 21.6811 42.5331 17.9981C42.8589 15.9202 43.8143 14.1227 45.2059 12.5616C46.0453 11.6161 47.0448 10.852 48.1383 10.2143C48.2045 10.1759 48.2984 10.1649 48.3095 10.0659C48.2874 10.0109 48.2487 10.0274 48.2156 10.0274C46.3546 10.0274 44.4935 9.98896 42.638 10.0384C40.8598 10.0934 39.3246 11.4622 39.3301 13.4246C39.3411 19.158 39.3301 24.8914 39.3301 30.6303C39.3301 32.4113 40.6941 33.901 42.4778 33.967C43.9855 34.0274 45.4931 33.978 47.0062 33.9725C47.1166 33.978 47.2271 33.9835 47.3375 33.9835H55.3118C57.2999 33.9835 59.288 33.9945 61.276 33.9835C63.1205 33.9835 64.617 32.4993 64.617 30.6688V30.6358V27.42C64.617 27.3431 64.6447 27.2606 64.595 27.1782C64.4955 27.1836 64.4569 27.2661 64.4017 27.3211C63.3303 28.393 62.0657 29.256 60.6796 29.8662C57.2833 31.3559 53.8263 31.4603 50.3196 30.262C50.0159 30.152 49.6845 30.141 49.3698 30.218C48.9059 30.3334 48.4475 30.4709 47.9892 30.6083C46.6417 31.0261 45.2666 31.213 43.8584 30.9381ZM47.8622 21.6756C47.956 21.5547 48.0057 21.4832 48.061 21.4118C48.7844 20.4993 49.5078 19.5868 50.2313 18.6688C50.4411 18.4049 50.651 18.1355 50.7835 17.8167C50.9381 17.4539 50.7725 17.1131 50.3969 16.9812C50.2313 16.9317 50.0545 16.9097 49.8778 16.9207C48.8948 16.9152 47.9063 16.9152 46.9234 16.9207C46.7853 16.9207 46.6472 16.9372 46.5147 16.9702C46.2054 17.0471 46.0177 17.3605 46.095 17.6738C46.1502 17.8827 46.3159 18.0476 46.5257 18.0971C46.6583 18.1301 46.7963 18.1465 46.9344 18.141C47.5308 18.1465 48.1328 18.141 48.7292 18.1465C48.7954 18.1465 48.8783 18.1026 48.928 18.2015C48.8783 18.2675 48.8286 18.3334 48.7789 18.3939C47.9229 19.4713 47.0725 20.5542 46.2165 21.6317C46.0066 21.901 45.8962 22.1978 46.0508 22.5277C46.2054 22.8575 46.5202 22.918 46.8405 22.9399C47.0946 22.9564 47.3541 22.9454 47.6137 22.9454C48.5083 22.9454 49.3974 22.9509 50.292 22.9399C50.7669 22.9344 51.021 22.6486 50.9713 22.2088C50.9326 21.8625 50.6951 21.6811 50.2533 21.6756C49.4747 21.6701 48.696 21.6756 47.8622 21.6756ZM54.2681 18.7842C53.5778 18.185 52.8157 18.1465 52.0702 18.5863C51.1645 19.114 50.8332 19.9771 50.9436 20.9775C51.0486 21.912 51.4572 22.6761 52.4402 22.9894C53.0532 23.1873 53.622 23.1159 54.1245 22.7091C54.2571 22.6046 54.2957 22.6266 54.3896 22.7421C54.5718 22.9729 54.8866 23.0609 55.1627 22.9564C55.4389 22.874 55.6211 22.6211 55.6211 22.3353C55.6266 21.2359 55.6321 20.1365 55.6211 19.0371C55.6156 18.5973 55.2014 18.3169 54.7706 18.4049C54.5332 18.4544 54.4007 18.6138 54.2681 18.7842ZM58.0951 20.8236C58.073 22.1978 59.2162 23.2368 60.652 23.0939C61.9718 22.9619 62.8278 21.978 62.7836 20.5872C62.7394 19.213 61.7123 18.273 60.3041 18.3169C58.9842 18.3554 58.0509 19.4109 58.0951 20.8236ZM57.6091 19.7297C57.6091 18.8667 57.6147 18.0091 57.6091 17.1461C57.6091 16.7063 57.3275 16.4315 56.9078 16.437C56.4992 16.4425 56.2286 16.7173 56.223 17.1406C56.2175 17.3989 56.223 17.6518 56.223 17.9102V22.2803C56.223 22.6211 56.4329 22.918 56.709 22.9894C57.09 23.0939 57.4821 22.8685 57.5815 22.4892C57.5981 22.4232 57.6091 22.3573 57.6036 22.2858C57.6147 21.4338 57.6091 20.5817 57.6091 19.7297Z" fill="#FDFEFE"/>
<path d="M47.0003 33.9782C45.4927 33.9782 43.9796 34.0277 42.472 33.9727C40.6882 33.9012 39.3242 32.4116 39.3242 30.636C39.3242 24.9026 39.3353 19.1692 39.3242 13.4303C39.3242 11.4679 40.865 10.0991 42.6376 10.0497C44.4932 10.0002 46.3542 10.0387 48.2152 10.0387C48.2484 10.0387 48.2926 10.0222 48.3091 10.0772C48.2981 10.1761 48.1987 10.1871 48.1379 10.2256C47.0445 10.8632 46.0449 11.6273 45.2055 12.5728C43.8194 14.134 42.8585 15.926 42.5327 18.0094C41.9584 21.6869 43.1126 24.8092 45.7247 27.4148C46.1885 27.882 46.2493 28.2448 45.8793 28.8715C45.432 29.6246 44.7527 30.1358 44.0293 30.603C43.952 30.647 43.8747 30.702 43.7973 30.7514C43.6814 30.8504 43.7532 30.8999 43.8526 30.9438C43.8747 30.9933 43.9023 31.0373 43.9354 31.0813C44.5705 31.642 45.1724 32.2411 45.7964 32.8128C46.0891 33.0822 46.3818 33.3625 46.6635 33.6429C46.7794 33.7473 46.9727 33.7803 47.0003 33.9782Z" fill="#0180C7"/>
<path d="M47.0013 33.9783C46.9737 33.7859 46.7804 33.7529 46.6644 33.6375C46.3828 33.3516 46.0901 33.0768 45.7974 32.8074C45.1734 32.2357 44.5714 31.6365 43.9364 31.0758C43.9032 31.0319 43.8756 30.9879 43.8535 30.9384C45.2617 31.2133 46.6368 31.0264 47.9898 30.6141C48.4481 30.4767 48.9065 30.3392 49.3704 30.2238C49.6851 30.1414 50.0165 30.1578 50.3202 30.2678C53.8214 31.4661 57.2784 31.3562 60.6802 29.872C62.0663 29.2618 63.3309 28.4043 64.4023 27.3324C64.4575 27.2774 64.4961 27.195 64.5955 27.1895C64.6453 27.2664 64.6176 27.3489 64.6176 27.4313V30.6471C64.6287 32.4831 63.1487 33.9783 61.3042 33.9948H61.2766C59.2885 34.0058 57.3005 33.9948 55.3124 33.9948H47.3326C47.2222 33.9838 47.1117 33.9783 47.0013 33.9783Z" fill="#0172B1"/>
<path d="M47.8626 21.6754C48.6965 21.6754 49.4807 21.6699 50.2594 21.6754C50.6956 21.6809 50.9331 21.8623 50.9773 22.2086C51.027 22.6429 50.7729 22.9342 50.298 22.9397C49.4034 22.9507 48.5143 22.9452 47.6197 22.9452C47.3601 22.9452 47.1061 22.9562 46.8465 22.9397C46.5262 22.9232 46.2115 22.8573 46.0568 22.5275C45.9022 22.1976 46.0126 21.9008 46.2225 21.6314C47.0729 20.554 47.9289 19.4711 48.7849 18.3937C48.8346 18.3277 48.8843 18.2618 48.934 18.2013C48.8788 18.1079 48.8014 18.1518 48.7352 18.1463C48.1388 18.1408 47.5368 18.1463 46.9404 18.1408C46.8023 18.1408 46.6643 18.1243 46.5318 18.0969C46.217 18.0254 46.0237 17.7121 46.0955 17.4042C46.1452 17.1954 46.3109 17.0249 46.5207 16.9755C46.6532 16.9425 46.7913 16.926 46.9294 16.926C47.9123 16.9205 48.9008 16.9205 49.8838 16.926C50.0605 16.9205 50.2317 16.9425 50.4029 16.9865C50.7785 17.1129 50.9386 17.4592 50.7895 17.822C50.657 18.1353 50.4471 18.4047 50.2373 18.6741C49.5138 19.5921 48.7904 20.5046 48.067 21.4116C48.0062 21.483 47.951 21.5545 47.8626 21.6754Z" fill="#0180C7"/>
<path d="M54.268 18.7842C54.4006 18.6138 54.5386 18.4544 54.7651 18.4104C55.2013 18.3224 55.61 18.6028 55.6155 19.0426C55.6321 20.142 55.6265 21.2414 55.6155 22.3408C55.6155 22.6266 55.4277 22.8795 55.1571 22.9619C54.881 23.0664 54.5663 22.9839 54.384 22.7475C54.2901 22.6321 54.2515 22.6101 54.1189 22.7146C53.6164 23.1213 53.0476 23.1928 52.4346 22.9949C51.4516 22.6761 51.0485 21.912 50.9381 20.983C50.8221 19.977 51.1589 19.1195 52.0646 18.5918C52.8157 18.1465 53.5777 18.185 54.268 18.7842ZM52.3131 20.7906C52.3242 21.0325 52.4015 21.2634 52.5451 21.4557C52.8433 21.8515 53.4121 21.934 53.8152 21.6371C53.8815 21.5877 53.9422 21.5272 53.9974 21.4557C54.3067 21.038 54.3067 20.3508 53.9974 19.9331C53.8428 19.7187 53.5998 19.5923 53.3403 19.5868C52.7328 19.5483 52.3076 20.0155 52.3131 20.7906ZM58.095 20.8236C58.0509 19.4109 58.9842 18.3554 60.3095 18.3169C61.7177 18.273 62.7449 19.213 62.7891 20.5872C62.8332 21.978 61.9773 22.9619 60.6574 23.0939C59.2161 23.2368 58.073 22.1978 58.095 20.8236ZM59.4812 20.6917C59.4701 20.9665 59.553 21.2359 59.7186 21.4612C60.0224 21.857 60.5912 21.934 60.9888 21.6262C61.0495 21.5822 61.0992 21.5272 61.1489 21.4722C61.4692 21.0545 61.4692 20.3508 61.1544 19.9331C60.9998 19.7242 60.7568 19.5923 60.4973 19.5868C59.9009 19.5538 59.4812 20.0045 59.4812 20.6917ZM57.6091 19.7297C57.6091 20.5817 57.6146 21.4338 57.6091 22.2858C57.6146 22.6761 57.3053 23.0004 56.9133 23.0114C56.847 23.0114 56.7752 23.0059 56.7089 22.9894C56.4328 22.918 56.223 22.6266 56.223 22.2803V17.9102C56.223 17.6518 56.2174 17.3989 56.223 17.1406C56.2285 16.7173 56.4991 16.4425 56.9077 16.4425C57.3274 16.437 57.6091 16.7118 57.6091 17.1516C57.6146 18.0091 57.6091 18.8721 57.6091 19.7297Z" fill="#0180C7"/>
<path d="M52.3126 20.7906C52.307 20.0155 52.7323 19.5482 53.3342 19.5812C53.5937 19.5922 53.8367 19.7187 53.9914 19.933C54.3006 20.3453 54.3006 21.0379 53.9914 21.4557C53.6931 21.8515 53.1243 21.934 52.7212 21.6371C52.6549 21.5876 52.5942 21.5272 52.539 21.4557C52.4009 21.2633 52.3236 21.0324 52.3126 20.7906ZM59.4806 20.6916C59.4806 20.01 59.9003 19.5537 60.4967 19.5867C60.7563 19.5922 60.9992 19.7242 61.1539 19.933C61.4686 20.3508 61.4686 21.0599 61.1484 21.4722C60.8391 21.8625 60.2648 21.9285 59.8727 21.6206C59.8119 21.5766 59.7622 21.5217 59.7181 21.4612C59.5524 21.2358 59.4751 20.9665 59.4806 20.6916Z" fill="#FDFEFE"/>
<path d="M42.9411 10.0547H61.06C63.0425 10.0547 64.6496 11.6543 64.6496 13.6278V30.2837C64.6496 32.2572 63.0425 33.8568 61.06 33.8568H42.9411C40.9586 33.8568 39.3516 32.2572 39.3516 30.2837V13.6278C39.3516 11.6543 40.9586 10.0547 42.9411 10.0547Z" stroke="#0180C7" stroke-width="0.192396" stroke-miterlimit="10"/>
</g>
<path d="M80.8398 25.9268V27H74.0996V25.9268H80.8398ZM80.6211 18.0039L74.4141 27H73.6006V26.0156L79.8008 17.0469H80.6211V18.0039ZM80.0605 17.0469V18.127H73.6895V17.0469H80.0605ZM86.7256 25.7354V21.9277C86.7256 21.6361 86.6663 21.3831 86.5479 21.1689C86.4339 20.9502 86.2607 20.7816 86.0283 20.6631C85.7959 20.5446 85.5088 20.4854 85.167 20.4854C84.848 20.4854 84.5677 20.54 84.3262 20.6494C84.0892 20.7588 83.9023 20.9023 83.7656 21.0801C83.6335 21.2578 83.5674 21.4492 83.5674 21.6543H82.3027C82.3027 21.39 82.3711 21.1279 82.5078 20.8682C82.6445 20.6084 82.8405 20.3737 83.0957 20.1641C83.3555 19.9499 83.6654 19.7812 84.0254 19.6582C84.39 19.5306 84.7956 19.4668 85.2422 19.4668C85.7799 19.4668 86.2539 19.5579 86.6641 19.7402C87.0788 19.9225 87.4023 20.1982 87.6348 20.5674C87.8717 20.932 87.9902 21.39 87.9902 21.9414V25.3867C87.9902 25.6328 88.0107 25.8949 88.0518 26.1729C88.0973 26.4508 88.1634 26.6901 88.25 26.8906V27H86.9307C86.8669 26.8542 86.8167 26.6605 86.7803 26.4189C86.7438 26.1729 86.7256 25.945 86.7256 25.7354ZM86.9443 22.5156L86.958 23.4043H85.6797C85.3197 23.4043 84.9984 23.4339 84.7158 23.4932C84.4333 23.5479 84.1963 23.6322 84.0049 23.7461C83.8135 23.86 83.6676 24.0036 83.5674 24.1768C83.4671 24.3454 83.417 24.5436 83.417 24.7715C83.417 25.0039 83.4694 25.2158 83.5742 25.4072C83.679 25.5986 83.8363 25.7513 84.0459 25.8652C84.2601 25.9746 84.5221 26.0293 84.832 26.0293C85.2194 26.0293 85.5612 25.9473 85.8574 25.7832C86.1536 25.6191 86.3883 25.4186 86.5615 25.1816C86.7393 24.9447 86.835 24.7145 86.8486 24.4912L87.3887 25.0996C87.3568 25.291 87.2702 25.5029 87.1289 25.7354C86.9876 25.9678 86.7985 26.1911 86.5615 26.4053C86.3291 26.6149 86.0511 26.7904 85.7275 26.9316C85.4085 27.0684 85.0485 27.1367 84.6475 27.1367C84.1462 27.1367 83.7064 27.0387 83.3281 26.8428C82.9544 26.6468 82.6628 26.3848 82.4531 26.0566C82.248 25.724 82.1455 25.3525 82.1455 24.9424C82.1455 24.5459 82.223 24.1973 82.3779 23.8965C82.5329 23.5911 82.7562 23.3382 83.0479 23.1377C83.3395 22.9326 83.6904 22.7777 84.1006 22.6729C84.5107 22.568 84.9688 22.5156 85.4746 22.5156H86.9443ZM91.3535 16.5V27H90.082V16.5H91.3535ZM93.0488 23.3838V23.2266C93.0488 22.6934 93.1263 22.1989 93.2812 21.7432C93.4362 21.2829 93.6595 20.8841 93.9512 20.5469C94.2428 20.2051 94.596 19.9408 95.0107 19.7539C95.4255 19.5625 95.8903 19.4668 96.4053 19.4668C96.9248 19.4668 97.3919 19.5625 97.8066 19.7539C98.2259 19.9408 98.5814 20.2051 98.873 20.5469C99.1693 20.8841 99.3949 21.2829 99.5498 21.7432C99.7048 22.1989 99.7822 22.6934 99.7822 23.2266V23.3838C99.7822 23.917 99.7048 24.4115 99.5498 24.8672C99.3949 25.3229 99.1693 25.7217 98.873 26.0635C98.5814 26.4007 98.2282 26.665 97.8135 26.8564C97.4033 27.0433 96.9385 27.1367 96.4189 27.1367C95.8994 27.1367 95.4323 27.0433 95.0176 26.8564C94.6029 26.665 94.2474 26.4007 93.9512 26.0635C93.6595 25.7217 93.4362 25.3229 93.2812 24.8672C93.1263 24.4115 93.0488 23.917 93.0488 23.3838ZM94.3135 23.2266V23.3838C94.3135 23.7529 94.3568 24.1016 94.4434 24.4297C94.5299 24.7533 94.6598 25.0404 94.833 25.291C95.0107 25.5417 95.2318 25.7399 95.4961 25.8857C95.7604 26.027 96.068 26.0977 96.4189 26.0977C96.7653 26.0977 97.0684 26.027 97.3281 25.8857C97.5924 25.7399 97.8112 25.5417 97.9844 25.291C98.1576 25.0404 98.2874 24.7533 98.374 24.4297C98.4652 24.1016 98.5107 23.7529 98.5107 23.3838V23.2266C98.5107 22.862 98.4652 22.5179 98.374 22.1943C98.2874 21.8662 98.1553 21.5768 97.9775 21.3262C97.8044 21.071 97.5856 20.8704 97.3213 20.7246C97.0615 20.5788 96.7562 20.5059 96.4053 20.5059C96.0589 20.5059 95.7536 20.5788 95.4893 20.7246C95.2295 20.8704 95.0107 21.071 94.833 21.3262C94.6598 21.5768 94.5299 21.8662 94.4434 22.1943C94.3568 22.5179 94.3135 22.862 94.3135 23.2266Z" fill="#0180C7"/>
<defs>
<clipPath id="clip0_4625_18608">
<rect width="25.4118" height="24" fill="white" transform="translate(39.2949 10)"/>
</clipPath>
</defs>
</svg>
