<svg width="52" height="42" viewBox="0 0 52 42" fill="none" xmlns="http://www.w3.org/2000/svg">
<path d="M1 1H36C39.7995 1 42.5485 1.00212 44.6449 1.28398C46.7126 1.56196 47.9949 2.09545 48.9497 3.05025C49.9046 4.00506 50.438 5.28745 50.716 7.35507C50.9979 9.45146 51 12.2005 51 16V26C51 29.7995 50.9979 32.5485 50.716 34.6449C50.438 36.7126 49.9046 37.9949 48.9497 38.9497C47.9949 39.9046 46.7126 40.438 44.6449 40.716C42.5485 40.9979 39.7995 41 36 41H1V1Z" fill="#29AB56"/>
<path d="M1 1H36C39.7995 1 42.5485 1.00212 44.6449 1.28398C46.7126 1.56196 47.9949 2.09545 48.9497 3.05025C49.9046 4.00506 50.438 5.28745 50.716 7.35507C50.9979 9.45146 51 12.2005 51 16V26C51 29.7995 50.9979 32.5485 50.716 34.6449C50.438 36.7126 49.9046 37.9949 48.9497 38.9497C47.9949 39.9046 46.7126 40.438 44.6449 40.716C42.5485 40.9979 39.7995 41 36 41H1V1Z" stroke="white" stroke-width="2"/>
<path fill-rule="evenodd" clip-rule="evenodd" d="M24.0434 15.8276C24.0868 16.2395 23.7841 16.6015 23.389 16.726C23.106 16.8151 22.8338 16.9377 22.5783 17.0919C22.1079 17.3757 21.7056 17.7594 21.3998 18.2158C21.0941 18.6723 20.8923 19.1903 20.8089 19.7333C20.7636 20.0283 20.7538 20.3267 20.7791 20.6223C20.8144 21.035 20.5948 21.4528 20.1973 21.5693C19.7999 21.6859 19.3774 21.4582 19.3186 21.0481C19.2454 20.5377 19.2476 20.0179 19.3263 19.5056C19.4431 18.7453 19.7255 18.0201 20.1536 17.381C20.5816 16.742 21.1448 16.2048 21.8034 15.8075C22.2473 15.5397 22.7271 15.3399 23.227 15.2133C23.6285 15.1117 23.9999 15.4157 24.0434 15.8276Z" fill="white"/>
<path fill-rule="evenodd" clip-rule="evenodd" d="M25 13C21.134 13 18 16.134 18 20C18 23.866 21.134 27 25 27C28.866 27 32 23.866 32 20C32 16.134 28.866 13 25 13ZM16 20C16 15.0294 20.0294 11 25 11C29.9706 11 34 15.0294 34 20C34 24.9706 29.9706 29 25 29C20.0294 29 16 24.9706 16 20Z" fill="white"/>
<path fill-rule="evenodd" clip-rule="evenodd" d="M29.9428 24.9428C30.3333 24.5523 30.9665 24.5523 31.357 24.9428L35.707 29.2928C36.0975 29.6833 36.0975 30.3165 35.707 30.707C35.3165 31.0975 34.6833 31.0975 34.2928 30.707L29.9428 26.357C29.5523 25.9665 29.5523 25.3333 29.9428 24.9428Z" fill="white"/>
</svg>
