<svg width="50" height="16" viewBox="0 0 50 16" fill="none" xmlns="http://www.w3.org/2000/svg">
<path d="M35.9694 1.19959C34.8459 0.790233 33.6584 0.584814 32.4628 0.593009C28.5961 0.593009 25.8653 2.54084 25.8459 5.33692C25.8218 7.39109 27.7865 8.54867 29.2728 9.23501C30.7977 9.94067 31.3076 10.3853 31.3028 11.0161C31.2931 11.9755 30.0848 12.4105 28.961 12.4105C27.4168 12.4105 26.5734 12.1954 25.2756 11.6565L24.7947 11.4318L24.2461 14.6508C25.1862 15.0423 26.8803 15.3782 28.6299 15.4072C32.7407 15.4072 35.428 13.4714 35.4594 10.4965C35.4933 8.85559 34.4299 7.61584 32.1921 6.59117C30.8315 5.92659 29.9881 5.48193 29.9881 4.80767C29.9881 4.21076 30.7107 3.57276 32.2211 3.57276C33.2263 3.54844 34.2254 3.73704 35.1525 4.12618L35.515 4.28809L36.0636 1.17784L35.9694 1.19959ZM46.0034 0.854009H42.9825C42.0424 0.854009 41.3344 1.11259 40.9235 2.04543L35.1139 15.2066H39.2246L40.0463 13.0485L45.0633 13.0533C45.1817 13.5584 45.5442 15.2066 45.5442 15.2066H49.1692L46.0034 0.854009ZM20.2852 0.733175H24.2026L21.7521 15.093H17.8395L20.2852 0.728342V0.733175ZM10.3406 8.64776L10.7466 10.6415L14.5746 0.854009H18.724L12.5591 15.1873H8.41936L5.03603 3.05076C4.98123 2.85064 4.85254 2.67877 4.67595 2.56984C3.4565 1.93991 2.16441 1.46187 0.828613 1.14642L0.88178 0.844341H7.18686C8.04236 0.878174 8.73111 1.14642 8.9607 2.05992L10.3382 8.65501V8.64776H10.3406ZM41.17 10.1123L42.7312 6.09576C42.7119 6.13926 43.0526 5.26684 43.2508 4.72792L43.519 5.96768L44.4253 10.1098H41.1676V10.1123H41.17Z" fill="#0057A0"/>
</svg>
