<svg width="62" height="18" viewBox="0 0 62 18" fill="none" xmlns="http://www.w3.org/2000/svg">
<g clip-path="url(#clip0_5804_13846)">
<path d="M13.5276 5.86284L11.7346 7.57713L11.645 7.66284L11.0757 8.20713L10.6544 8.61427L10.0851 9.15856L9.99546 9.23998L9.74893 9.47998L9.65929 9.56141L8.82109 10.3628L8.73144 10.4443C8.48647 10.6781 8.20894 10.8786 7.90668 11.04C7.76242 11.1171 7.61264 11.1844 7.45845 11.2414C7.11125 11.3701 6.74537 11.4467 6.37372 11.4686C6.14856 11.4878 5.92204 11.4878 5.69688 11.4686C5.20523 11.4175 4.7295 11.2717 4.29839 11.04C4.10316 10.9434 3.92228 10.8223 3.7605 10.68L3.65741 10.5814L0.389768 7.42713L0.322533 7.36284C0.264332 7.30266 0.213225 7.23655 0.170132 7.1657C0.0580085 6.98396 -0.000830334 6.7767 -0.000197267 6.5657C-0.00253841 6.53288 -0.00253841 6.49995 -0.000197267 6.46713C-0.000197267 6.4157 -0.000197267 6.36427 -0.000197267 6.31713V6.26141C0.0436158 6.1056 0.119841 5.95984 0.223921 5.83284C0.251424 5.79942 0.281382 5.76791 0.313568 5.73856L0.371839 5.68284L3.89049 2.36141L5.9972 0.351412C6.22136 0.136726 6.52249 0.0115292 6.83959 0.00118436C7.15668 -0.00916048 7.46603 0.0961196 7.70498 0.295698L13.5276 5.86284Z" fill="#005BAA"/>
<path d="M7.19398 13.337C6.91047 13.336 6.63057 13.2761 6.37371 13.1613L5.70584 12.527L5.53999 12.3727L5.5131 12.3427L5.20382 12.047L3.64844 10.5427L3.75153 10.6413C3.91441 10.7855 4.09684 10.908 4.2939 11.0056C4.72501 11.2373 5.20074 11.3831 5.69239 11.4342C5.91756 11.4534 6.14407 11.4534 6.36923 11.4342C6.74088 11.4123 7.10677 11.3357 7.45396 11.207C7.60815 11.1501 7.75793 11.0828 7.9022 11.0056C8.20445 10.8442 8.48198 10.6438 8.72695 10.4099L8.8166 10.3285L9.6548 9.52703L9.74445 9.44561L9.99098 9.20561L10.0806 9.12418L10.6499 8.57989L11.0712 8.17275L11.6539 7.65846L11.7436 7.57275L15.3519 4.14418L16.8311 2.57132L16.9117 2.49846C17.1302 2.2904 17.4259 2.17358 17.7343 2.17358C18.0426 2.17358 18.3383 2.2904 18.5568 2.49846L19.3726 3.27846H19.3994C19.2164 3.27116 19.0337 3.2997 18.8626 3.36235C18.6914 3.42499 18.5355 3.52041 18.4044 3.64275L15.6477 6.21418L15.6208 6.24418L10.8337 10.8042L9.06313 12.4627L8.95555 12.5699C8.71459 12.7935 8.43764 12.9788 8.13528 13.1185C7.96714 13.1965 7.78945 13.2541 7.60636 13.2899C7.50153 13.3109 7.39511 13.3238 7.28811 13.3285L7.19398 13.337Z" fill="#ED1C24"/>
<path d="M23.7926 9.07293L23.7029 9.15864L19.7988 12.9472L15.6885 16.9286C15.5607 17.0519 15.4228 17.1651 15.2761 17.2672L15.2178 17.3058C14.5033 17.794 13.6332 18.0289 12.7571 17.9703C11.881 17.9116 11.0536 17.563 10.4172 16.9844L10.3096 16.9244L9.60591 16.2515L7.62022 14.3529L6.95684 13.7144L6.86719 13.6244C6.97384 13.6414 7.08178 13.65 7.18992 13.6501H7.28405C7.41075 13.6449 7.53675 13.6292 7.66057 13.6029C7.87051 13.5631 8.074 13.4968 8.26568 13.4058C8.59598 13.249 8.89848 13.0437 9.16216 12.7972L9.28318 12.6729L10.8072 11.2415L16.0471 6.31293L16.074 6.27864L18.6468 3.89579C18.814 3.7426 19.0308 3.6485 19.2614 3.62902C19.492 3.60954 19.7227 3.66585 19.9153 3.78864L20.516 4.36721L23.7881 7.50007C23.8173 7.52657 23.8443 7.55523 23.8688 7.58579C24.0511 7.79863 24.1442 8.06861 24.1301 8.34339C24.1161 8.61816 23.9958 8.87815 23.7926 9.07293Z" fill="#ED1C24"/>
<path d="M11.1427 4.92441C11.0963 4.96537 11.0355 4.98812 10.9724 4.98812C10.9093 4.98812 10.8484 4.96537 10.8021 4.92441C10.4339 4.57012 9.9963 4.28864 9.51434 4.09604C9.03238 3.90344 8.51546 3.80349 7.99309 3.8019C6.93814 3.79869 5.92505 4.1963 5.1767 4.90727C4.42835 5.61824 4.00605 6.58432 4.00269 7.593C3.99932 8.60168 4.41518 9.57032 5.15877 10.2858L6.36901 11.4516C6.3703 11.4601 6.3703 11.4687 6.36901 11.4773C6.14984 11.4966 5.92927 11.4966 5.7101 11.4773L4.81363 10.6201C3.98147 9.81879 3.51633 8.73421 3.52054 7.60497C3.52474 6.47574 3.99794 5.39435 4.83604 4.5987C5.67414 3.80305 6.80849 3.35831 7.98954 3.36233C9.17059 3.36635 10.3016 3.81879 11.1338 4.62012C11.1744 4.66079 11.1978 4.71441 11.1994 4.77062C11.2011 4.82683 11.1809 4.88163 11.1427 4.92441Z" fill="#009EDB"/>
<path d="M12.9989 6.3815L12.6627 6.69864L12.0755 6.13293C12.0535 6.11183 12.0359 6.08678 12.024 6.05921C12.012 6.03163 12.0059 6.00207 12.0059 5.97222C12.0059 5.94236 12.012 5.9128 12.024 5.88523C12.0359 5.85765 12.0535 5.8326 12.0755 5.8115C12.0976 5.79038 12.1238 5.77362 12.1527 5.76219C12.1815 5.75076 12.2124 5.74487 12.2436 5.74487C12.2749 5.74487 12.3058 5.75076 12.3346 5.76219C12.3635 5.77362 12.3897 5.79038 12.4117 5.8115L12.9989 6.3815Z" fill="#009EDB"/>
<path d="M7.92507 11.0314C7.78099 11.1077 7.63116 11.1736 7.47684 11.2285L5.82733 9.6514C5.32718 9.16971 5.01856 8.53621 4.95473 7.8602C4.8909 7.1842 5.07587 6.50809 5.4777 5.94854C5.51393 5.89921 5.56886 5.86534 5.63081 5.85413C5.69275 5.84293 5.75683 5.85527 5.8094 5.88854C5.83507 5.90566 5.85694 5.92746 5.87377 5.95269C5.8906 5.97791 5.90205 6.00607 5.90746 6.03554C5.91288 6.06501 5.91215 6.09521 5.90532 6.12441C5.89849 6.15361 5.8857 6.18123 5.86767 6.20569C5.52894 6.67796 5.37314 7.24844 5.42715 7.81877C5.48115 8.38909 5.74157 8.92354 6.16351 9.32997L7.92507 11.0314Z" fill="#009EDB"/>
<path d="M11.9943 7.32851L11.7478 7.56422L11.6671 7.64137L9.8159 5.85422C9.47714 5.52888 9.04992 5.30066 8.58256 5.19538C8.1152 5.0901 7.62635 5.11197 7.17131 5.25851C7.14092 5.27196 7.10789 5.27911 7.07441 5.27949C7.04092 5.27988 7.00772 5.27349 6.977 5.26074C6.94627 5.248 6.91872 5.22919 6.89613 5.20554C6.87355 5.1819 6.85645 5.15396 6.84595 5.12355C6.83546 5.09314 6.8318 5.06095 6.83523 5.0291C6.83866 4.99725 6.8491 4.96645 6.86586 4.93872C6.88261 4.911 6.90531 4.88697 6.93246 4.86822C6.95961 4.84948 6.9906 4.83643 7.02339 4.82994C7.55995 4.66174 8.13495 4.64002 8.68371 4.76722C9.23247 4.89442 9.73323 5.16549 10.1297 5.54994L11.9943 7.32851Z" fill="#009EDB"/>
<path d="M11.0038 8.27994L10.6676 8.60136L8.80742 6.80994C8.58334 6.63432 8.29887 6.5448 8.0095 6.55885C7.72013 6.57291 7.44662 6.68952 7.2423 6.88594C7.03798 7.08237 6.91752 7.34452 6.9044 7.62126C6.89128 7.89801 6.98646 8.1695 7.17136 8.38279L8.36815 9.53565C8.41273 9.57827 8.43777 9.63608 8.43777 9.69636C8.43777 9.75664 8.41273 9.81445 8.36815 9.85708C8.32357 9.8997 8.2631 9.92365 8.20006 9.92365C8.13701 9.92365 8.07655 9.8997 8.03197 9.85708L6.81277 8.70422C6.52828 8.40406 6.37588 8.01052 6.38732 7.6056C6.39875 7.20067 6.57314 6.81557 6.87416 6.53053C7.17517 6.24548 7.5796 6.08246 8.0032 6.07543C8.4268 6.0684 8.8369 6.2179 9.14808 6.49279L11.0038 8.27994Z" fill="#009EDB"/>
<path d="M10.0091 9.22714L9.76262 9.46714L9.68193 9.54L7.81279 7.75714C7.76821 7.71452 7.74316 7.6567 7.74316 7.59643C7.74316 7.53615 7.76821 7.47833 7.81279 7.43571C7.85737 7.39309 7.91783 7.36914 7.98088 7.36914C8.04392 7.36914 8.10439 7.39309 8.14897 7.43571L10.0091 9.22714Z" fill="#009EDB"/>
<path fill-rule="evenodd" clip-rule="evenodd" d="M56.7821 9.12853L54.012 5.33139L53.7341 5.0871H56.4773L58.3286 7.95425L58.4765 7.83853L59.5926 6.24853C59.7324 6.07483 59.7949 5.85534 59.7664 5.63783C59.7378 5.42032 59.6206 5.22238 59.4402 5.0871H62.0175L59.0368 9.12425V12.0557L59.5612 12.6557H56.3429L56.7911 12.0642C56.7911 11.0914 56.7552 10.1014 56.7911 9.12853H56.7821ZM49.2652 5.0871C49.4429 5.263 49.5534 5.49096 49.579 5.73425C49.5966 5.87951 49.5766 6.02669 49.5207 6.16282L47.4633 11.8714C47.3273 12.1582 47.1268 12.4128 46.8761 12.6171H49.1173C48.9527 12.4881 48.8415 12.3073 48.8035 12.1071C48.7631 11.9669 48.7631 11.8188 48.8035 11.6785L49.2518 10.3242H51.865L52.2729 11.37C52.314 11.4746 52.3397 11.5842 52.3491 11.6957C52.3757 11.8736 52.3509 12.0551 52.2774 12.2205C52.204 12.3859 52.0846 12.529 51.9322 12.6342H55.4509C55.104 12.3673 54.8186 12.0346 54.6127 11.6571L52.0398 5.06567L49.2652 5.0871ZM51.5064 9.37282H49.6373L50.5337 6.90425L51.4974 9.37282H51.5064ZM42.1338 5.09139H46.0559C46.6249 5.09252 47.1703 5.30917 47.5727 5.69391C47.9751 6.07865 48.2017 6.60014 48.2029 7.14425V7.3971C48.1959 7.936 47.9679 8.45074 47.5681 8.83063C47.1683 9.21052 46.6285 9.4252 46.0648 9.42853L45.0832 9.45853C45.4508 9.26677 45.7465 8.96992 45.929 8.60951C46.1114 8.2491 46.1715 7.84317 46.1007 7.44853C46.0245 6.81424 45.6838 6.20567 45.1146 6.19282H44.756V11.8114C44.7543 11.9017 44.7826 11.9902 44.8367 12.0642C44.9441 12.2254 45.064 12.3787 45.1952 12.5228L45.2983 12.6428H42.2503L42.3803 12.4757C42.4758 12.3554 42.5556 12.2244 42.6179 12.0857C42.6573 12.0052 42.6772 11.9173 42.6762 11.8285V5.78139C42.6627 5.46425 42.3355 5.28425 42.1338 5.09139Z" fill="#005BAA"/>
<path fill-rule="evenodd" clip-rule="evenodd" d="M25.6162 5.05273H28.077L30.1434 10.7142L31.896 6.02559C31.928 5.88889 31.9022 5.74565 31.8243 5.62702C31.7301 5.43416 31.6271 5.24988 31.5284 5.06131H33.3662C33.2586 5.44273 33.0973 5.86273 32.9583 6.24845L30.5827 12.857C29.8694 12.7479 29.2021 12.4511 28.6553 11.9999C28.2879 11.622 28.0219 11.1647 27.8798 10.667L25.8941 5.61416C25.8152 5.4211 25.7223 5.2335 25.6162 5.05273ZM35.4415 7.71416V11.7599C35.4415 11.9227 35.4819 11.9527 35.5895 12.0856L36.0736 12.6899H33.7562L34.1461 12.1199C34.2418 12.0091 34.2927 11.8692 34.2896 11.7256V6.06416L33.6396 5.05273H36.0422L39.9284 9.85702V6.04273C39.9326 5.89837 39.8834 5.75722 39.7894 5.64416C39.6594 5.45131 39.5205 5.26702 39.3905 5.07845H41.6855L41.2372 5.66559C41.1297 5.79416 41.0893 5.82416 41.0893 5.99131V12.857C40.6198 12.8338 40.1611 12.7142 39.7442 12.5064C39.3273 12.2986 38.9621 12.0074 38.6733 11.6527L35.4415 7.71416Z" fill="#ED1C24"/>
<path d="M28.0776 15.2401C28.0776 15.5401 28.2121 15.6987 28.5572 15.6987C28.692 15.6987 28.8256 15.6754 28.9517 15.6301C29.0144 15.6044 29.0324 15.6301 29.0324 15.6858V15.7201C29.0324 15.7715 29.0324 15.7929 28.9517 15.8229C28.8276 15.8695 28.6949 15.8913 28.5617 15.8872C28.0866 15.8872 27.8625 15.6858 27.8625 15.2401V14.8115C27.8492 14.7211 27.8579 14.629 27.8881 14.5424C27.9182 14.4558 27.9689 14.377 28.0362 14.3123C28.1035 14.2475 28.1856 14.1985 28.276 14.1692C28.3663 14.1398 28.4626 14.1308 28.5572 14.1429C28.6875 14.1437 28.8166 14.167 28.9382 14.2115C29.001 14.2329 29.0144 14.2587 29.0144 14.3101V14.3444C29.0144 14.4087 28.9875 14.4258 28.9293 14.4044C28.8089 14.3551 28.6792 14.3303 28.5483 14.3315C28.2166 14.3315 28.1 14.4858 28.1 14.8201L28.0776 15.2401Z" fill="#009EDB"/>
<path d="M28.5614 15.8914C28.0818 15.8914 27.8577 15.6814 27.8577 15.24V14.8114C27.8442 14.7206 27.853 14.628 27.8834 14.5411C27.9138 14.4541 27.9649 14.375 28.0327 14.3102C28.1006 14.2453 28.1832 14.1965 28.2742 14.1674C28.3652 14.1384 28.462 14.1299 28.5569 14.1428C28.6872 14.1436 28.8163 14.1668 28.9379 14.2114C29.0052 14.2371 29.0186 14.2628 29.0186 14.3142V14.3485C29.0186 14.3828 29.0186 14.4042 29.0186 14.4128C29.0186 14.4214 28.9828 14.4128 28.9514 14.4128C28.8301 14.3671 28.7008 14.3439 28.5704 14.3442C28.2476 14.3442 28.1221 14.4942 28.1221 14.8285V15.2571C28.1221 15.57 28.2656 15.7114 28.5973 15.7114C28.7307 15.7131 28.8632 15.6898 28.9872 15.6428C29.0231 15.6428 29.041 15.6428 29.0545 15.6428C29.0679 15.6428 29.0545 15.6728 29.0545 15.7071V15.7414C29.0545 15.7971 29.0545 15.8185 28.9738 15.8442C28.8421 15.8906 28.7008 15.9068 28.5614 15.8914ZM28.5614 14.1471C28.4662 14.1339 28.369 14.1422 28.2778 14.1715C28.1866 14.2008 28.1038 14.2502 28.0362 14.3156C27.9686 14.3811 27.918 14.4609 27.8886 14.5485C27.8591 14.6361 27.8516 14.7291 27.8666 14.82V15.2485C27.8666 15.6771 28.0908 15.8914 28.5659 15.8914C28.6978 15.8985 28.8298 15.8765 28.9514 15.8271C29.0186 15.8014 29.0321 15.78 29.0321 15.7285V15.6857C29.0321 15.6514 29.0321 15.6342 29.0321 15.6257C29.0321 15.6171 29.0052 15.6257 28.9738 15.6257C28.8482 15.6727 28.7142 15.696 28.5793 15.6942C28.2476 15.6942 28.0952 15.5528 28.0952 15.2357V14.8071C28.0952 14.4685 28.2432 14.3185 28.5704 14.3185C28.7024 14.3165 28.8335 14.3398 28.9559 14.3871C28.9828 14.3871 29.0007 14.3871 29.0141 14.3871C29.0186 14.3777 29.0209 14.3674 29.0209 14.3571C29.0209 14.3468 29.0186 14.3365 29.0141 14.3271V14.2928C29.0141 14.2457 29.0141 14.22 28.9335 14.1942C28.8123 14.1551 28.6847 14.1377 28.5569 14.1428L28.5614 14.1471Z" fill="#009EDB"/>
<path d="M29.3232 14.1428C29.3232 14.07 29.3232 14.0571 29.4084 14.0571H29.4398C29.5115 14.0571 29.525 14.0571 29.525 14.1428V14.7471C29.5769 14.6828 29.6457 14.6327 29.7244 14.6018C29.8031 14.571 29.8889 14.5605 29.9732 14.5714C30.2914 14.5714 30.4797 14.7 30.4797 15V15.7714C30.4797 15.84 30.4797 15.8528 30.3945 15.8528H30.3587C30.287 15.8528 30.2735 15.8528 30.2735 15.7714V15.03C30.2735 14.8243 30.1794 14.7343 29.9239 14.7343C29.6684 14.7343 29.5474 14.8328 29.5474 15.0728V15.78C29.5474 15.8486 29.5474 15.8614 29.4622 15.8614H29.4308C29.3636 15.8614 29.3457 15.8614 29.3457 15.78L29.3232 14.1428Z" fill="#009EDB"/>
<path d="M30.3729 15.857H30.337C30.2653 15.857 30.2518 15.857 30.2518 15.7713V15.0299C30.2518 14.8199 30.1487 14.7384 29.9022 14.7384C29.6557 14.7384 29.5302 14.837 29.5302 15.0727V15.7799C29.5302 15.8484 29.5302 15.8656 29.4405 15.8656H29.4092C29.3374 15.8656 29.3195 15.8656 29.3195 15.7799V14.1427C29.3195 14.0656 29.3195 14.0527 29.4092 14.0527H29.4405C29.5123 14.0527 29.5302 14.0527 29.5302 14.1427V14.7384C29.5827 14.6749 29.6517 14.6256 29.7304 14.5955C29.809 14.5654 29.8945 14.5556 29.9784 14.567C30.3146 14.567 30.4849 14.7213 30.4849 15.0299V15.8013C30.4804 15.857 30.4491 15.857 30.3729 15.857ZM29.9022 14.7213C30.1532 14.7213 30.2563 14.8113 30.2563 15.0213V15.7713C30.2563 15.8399 30.2563 15.8484 30.337 15.8484H30.3729C30.4446 15.8484 30.458 15.8484 30.458 15.7713V14.9999C30.458 14.6956 30.2877 14.5456 29.956 14.5456C29.8715 14.5307 29.7844 14.5394 29.7049 14.5706C29.6255 14.6017 29.557 14.654 29.5078 14.7213V14.1427C29.5078 14.0742 29.5078 14.0613 29.4271 14.0613H29.3957C29.3285 14.0613 29.3105 14.0613 29.3105 14.1427V15.8013C29.3105 15.8699 29.3105 15.8784 29.3957 15.8784H29.4271C29.4988 15.8784 29.5078 15.8784 29.5078 15.8013V15.0727C29.5212 14.8327 29.6378 14.7299 29.9022 14.7299V14.7213Z" fill="#009EDB"/>
<path d="M30.749 15.3386V15.0986C30.749 14.7343 30.9507 14.55 31.3497 14.55C31.7486 14.55 31.9458 14.7386 31.9458 15.0986V15.3386C31.9458 15.7072 31.7486 15.8872 31.3497 15.8872C30.9507 15.8872 30.749 15.6986 30.749 15.3386ZM31.7396 15.0986C31.7396 14.8458 31.6455 14.7343 31.3497 14.7343C31.0538 14.7343 30.9552 14.8458 30.9552 15.0986V15.3386C30.9552 15.5915 31.0538 15.7029 31.3497 15.7029C31.6455 15.7029 31.7396 15.5915 31.7396 15.3386V15.0986Z" fill="#009EDB"/>
<path d="M31.3494 15.8916C30.937 15.8916 30.7487 15.7158 30.7487 15.3387V15.0987C30.741 15.0214 30.7502 14.9433 30.7757 14.8696C30.8011 14.7958 30.8423 14.7279 30.8967 14.6701C31.0227 14.5721 31.1827 14.5231 31.3449 14.533C31.7528 14.533 31.941 14.7087 31.941 15.0858V15.3258C31.9532 15.4028 31.9463 15.4814 31.9208 15.5553C31.8954 15.6293 31.8521 15.6965 31.7946 15.7515C31.737 15.8065 31.6667 15.8479 31.5894 15.8722C31.5121 15.8965 31.4299 15.9032 31.3494 15.8916ZM31.3494 14.5544C31.1877 14.5421 31.0272 14.5896 30.9011 14.6873C30.8459 14.7444 30.804 14.8123 30.7785 14.8862C30.753 14.9601 30.7444 15.0384 30.7532 15.1158V15.3558C30.7532 15.7287 30.9415 15.9001 31.3494 15.9001C31.5112 15.9139 31.6722 15.8661 31.7976 15.7673C31.8529 15.7101 31.8947 15.6423 31.9202 15.5683C31.9457 15.4944 31.9544 15.4161 31.9455 15.3387V15.0987C31.941 14.7258 31.7528 14.5716 31.3494 14.5716V14.5544ZM31.3494 15.7073C31.0625 15.7073 30.9504 15.6044 30.9504 15.3387V15.0987C30.9504 14.833 31.058 14.7301 31.3494 14.7301C31.6407 14.7301 31.7438 14.833 31.7438 15.0987V15.3387C31.7438 15.6087 31.6362 15.7073 31.3494 15.7073ZM31.3494 14.7387C31.0625 14.7387 30.9594 14.833 30.9594 15.0987V15.3387C30.9594 15.6001 31.067 15.6987 31.3494 15.6987C31.6318 15.6987 31.7393 15.6044 31.7393 15.3387V15.0987C31.7393 14.833 31.6318 14.7387 31.3494 14.7387Z" fill="#009EDB"/>
<path d="M32.9365 15.0899C32.9365 14.747 33.1293 14.5499 33.5461 14.5499C33.6268 14.5474 33.7073 14.559 33.7837 14.5842C33.8509 14.5842 33.8689 14.6227 33.8689 14.6827V14.7085C33.8689 14.7727 33.8689 14.7942 33.7837 14.7727C33.7092 14.7461 33.6301 14.733 33.5506 14.7342C33.2458 14.7342 33.1427 14.8499 33.1427 15.0942V15.347C33.1427 15.6085 33.2637 15.7027 33.5909 15.7027C33.6731 15.7056 33.7552 15.694 33.833 15.6685C33.8957 15.647 33.9137 15.6685 33.9137 15.7327V15.7585C33.9137 15.8142 33.9137 15.8356 33.8285 15.8527C33.746 15.8779 33.6596 15.8895 33.573 15.887C33.1562 15.887 32.9589 15.7156 32.9589 15.347L32.9365 15.0899Z" fill="#009EDB"/>
<path d="M33.5504 15.8913C33.3891 15.9004 33.2299 15.8532 33.1022 15.7585C33.0459 15.7019 33.0031 15.6342 32.9768 15.5602C32.9504 15.4862 32.9412 15.4076 32.9498 15.3299V15.0728C32.9449 14.9999 32.956 14.9268 32.9822 14.8582C33.0084 14.7896 33.0493 14.7269 33.1022 14.6742C33.2257 14.5711 33.3868 14.5188 33.5504 14.5285C33.631 14.5278 33.7112 14.5393 33.788 14.5628C33.8597 14.5628 33.8732 14.6056 33.8732 14.6656V14.6913C33.8732 14.7299 33.8732 14.7513 33.8732 14.7599C33.8628 14.7652 33.8513 14.7679 33.8395 14.7679C33.8278 14.7679 33.8163 14.7652 33.8059 14.7599C33.7305 14.7371 33.6519 14.7256 33.5728 14.7256C33.2815 14.7256 33.1649 14.8285 33.1649 15.0813V15.3342C33.1649 15.5913 33.2815 15.6856 33.6132 15.6856C33.6954 15.6889 33.7775 15.6772 33.8552 15.6513C33.8866 15.6513 33.9045 15.6513 33.918 15.6513C33.9314 15.6513 33.9404 15.6813 33.9404 15.7199V15.7456C33.9404 15.8056 33.9404 15.8271 33.8507 15.8442C33.7544 15.8769 33.6527 15.8929 33.5504 15.8913ZM33.5504 14.5542C33.1515 14.5542 32.9453 14.7385 32.9453 15.0899V15.3471C32.9453 15.7156 33.1381 15.8828 33.5549 15.8828C33.6411 15.8846 33.7272 15.8745 33.8104 15.8528C33.8776 15.8528 33.8956 15.8142 33.8956 15.7585V15.7328C33.8956 15.6985 33.8956 15.6771 33.8956 15.6685C33.8956 15.6599 33.8642 15.6685 33.8373 15.6685C33.7574 15.6919 33.6743 15.7035 33.5908 15.7028C33.2815 15.7028 33.1425 15.5999 33.1425 15.3428V15.0899C33.1425 14.8328 33.2636 14.7256 33.5549 14.7256C33.6344 14.7248 33.7134 14.7379 33.788 14.7642C33.8194 14.7642 33.8373 14.7642 33.8507 14.7642C33.8642 14.7642 33.8507 14.7342 33.8507 14.6999V14.6742C33.8507 14.6185 33.8507 14.5971 33.7701 14.5756C33.696 14.5639 33.6205 14.5624 33.5459 14.5713L33.5504 14.5542Z" fill="#009EDB"/>
<path d="M34.2905 15.3985C34.2905 15.6043 34.3802 15.7028 34.6536 15.7028C34.927 15.7028 35.0167 15.6085 35.0167 15.3985V14.6571C35.0167 14.5928 35.0167 14.5757 35.1063 14.5757H35.1332C35.2094 14.5757 35.2229 14.5757 35.2229 14.6571V15.3985C35.2229 15.7157 35.057 15.8871 34.6536 15.8871C34.2502 15.8871 34.0664 15.7243 34.0664 15.3985V14.6571C34.0664 14.5928 34.0664 14.5757 34.1561 14.5757H34.1829C34.2591 14.5757 34.2726 14.5757 34.2726 14.6571L34.2905 15.3985Z" fill="#009EDB"/>
<path d="M34.6532 15.8915C34.2767 15.8915 34.084 15.7244 34.084 15.3987V14.6572C34.084 14.593 34.084 14.5715 34.1692 14.5715H34.2005C34.2767 14.5715 34.2902 14.5715 34.2902 14.6572V15.3987C34.2902 15.6172 34.3933 15.6987 34.6532 15.6987C34.9132 15.6987 35.0118 15.6172 35.0118 15.3987V14.6572C35.0118 14.593 35.0118 14.5715 35.106 14.5715H35.1329C35.2135 14.5715 35.2225 14.5715 35.2225 14.6572V15.3987C35.2289 15.4647 35.2206 15.5313 35.1982 15.5941C35.1758 15.6569 35.1398 15.7144 35.0925 15.763C34.9686 15.8578 34.8114 15.9037 34.6532 15.8915ZM34.1692 14.5715C34.1064 14.5715 34.0885 14.5715 34.0885 14.6487V15.3901C34.0824 15.4568 34.0917 15.524 34.1157 15.587C34.1397 15.6499 34.1778 15.7071 34.2274 15.7544C34.3548 15.8487 34.5156 15.8917 34.6757 15.8744C34.7552 15.8828 34.8358 15.8762 34.9127 15.8549C34.9896 15.8336 35.0614 15.798 35.1239 15.7501C35.1713 15.7025 35.2074 15.6457 35.2298 15.5836C35.2522 15.5215 35.2605 15.4555 35.2539 15.3901V14.6572C35.2539 14.5972 35.2539 14.5801 35.1687 14.5801H35.1418C35.0746 14.5801 35.0567 14.5801 35.0567 14.6572V15.3987C35.0567 15.6215 34.9536 15.7072 34.6891 15.7072C34.4246 15.7072 34.3215 15.6215 34.3215 15.3987V14.6572C34.3215 14.5972 34.3215 14.5801 34.2364 14.5801L34.1692 14.5715Z" fill="#009EDB"/>
<path d="M35.4961 15.3386V15.0986C35.4961 14.7343 35.6933 14.55 36.0967 14.55C36.5001 14.55 36.6884 14.7386 36.6884 15.0986V15.3386C36.6884 15.7072 36.4912 15.8872 36.0967 15.8872C35.7023 15.8872 35.4961 15.6986 35.4961 15.3386ZM36.4867 15.0986C36.4867 14.8458 36.3926 14.7343 36.0967 14.7343C35.8009 14.7343 35.6978 14.8458 35.6978 15.0986V15.3386C35.6978 15.5915 35.8009 15.7029 36.0967 15.7029C36.3926 15.7029 36.4867 15.5915 36.4867 15.3386V15.0986ZM35.904 14.2072C35.9667 14.1129 36.0071 14.0786 36.0967 14.0786C36.1864 14.0786 36.2222 14.1043 36.2895 14.2072L36.3926 14.3615C36.4239 14.4086 36.3926 14.4215 36.3567 14.4215C36.3337 14.4251 36.3101 14.4211 36.2897 14.4102C36.2694 14.3993 36.2535 14.3821 36.2446 14.3615L36.1819 14.2586C36.1416 14.1858 36.0967 14.1858 36.0519 14.2586L35.9936 14.3615C35.9842 14.3817 35.9682 14.3984 35.948 14.4092C35.9278 14.42 35.9045 14.4243 35.8816 14.4215H35.8547C35.8009 14.4215 35.7919 14.4215 35.8233 14.3615L35.904 14.2072ZM36.0026 16.1186C36.0215 16.101 36.0455 16.0891 36.0715 16.0844C36.0975 16.0797 36.1243 16.0825 36.1487 16.0923C36.173 16.1021 36.1938 16.1186 36.2084 16.1397C36.2231 16.1608 36.2309 16.1855 36.2309 16.2108C36.2309 16.236 36.2231 16.2608 36.2084 16.2818C36.1938 16.3029 36.173 16.3194 36.1487 16.3292C36.1243 16.339 36.0975 16.3418 36.0715 16.3371C36.0455 16.3324 36.0215 16.3205 36.0026 16.3029C35.9897 16.2909 35.9795 16.2766 35.9725 16.2608C35.9655 16.2449 35.9619 16.2279 35.9619 16.2108C35.9619 16.1936 35.9655 16.1766 35.9725 16.1607C35.9795 16.1449 35.9897 16.1306 36.0026 16.1186Z" fill="#009EDB"/>
<path d="M36.0966 16.3413C36.0613 16.3403 36.0277 16.3264 36.0028 16.3025C35.9778 16.2786 35.9633 16.2465 35.9621 16.2128C35.9615 16.1952 35.9648 16.1777 35.9717 16.1615C35.9787 16.1452 35.9892 16.1306 36.0025 16.1185C36.0143 16.1059 36.0288 16.0959 36.0451 16.0892C36.0613 16.0825 36.0789 16.0794 36.0966 16.0799C36.1335 16.0799 36.1688 16.0939 36.1949 16.1188C36.2209 16.1437 36.2356 16.1775 36.2356 16.2128C36.2361 16.2297 36.2328 16.2465 36.2258 16.262C36.2189 16.2776 36.2084 16.2915 36.1952 16.3028C36.1822 16.3151 36.1669 16.3248 36.1499 16.3314C36.133 16.3381 36.1149 16.3414 36.0966 16.3413ZM36.0966 16.0842C36.079 16.0842 36.0616 16.0876 36.0454 16.0942C36.0292 16.1009 36.0146 16.1106 36.0025 16.1228C35.9788 16.1472 35.9659 16.1795 35.9666 16.2128C35.9668 16.2459 35.9795 16.2779 36.0025 16.3028C36.0281 16.3254 36.0617 16.3379 36.0966 16.3379C36.1315 16.3379 36.1651 16.3254 36.1907 16.3028C36.2035 16.2912 36.2136 16.2772 36.2206 16.2617C36.2275 16.2463 36.2311 16.2296 36.2311 16.2128C36.23 16.179 36.2154 16.1469 36.1904 16.123C36.1655 16.0992 36.1319 16.0853 36.0966 16.0842ZM36.0966 15.8913C35.6842 15.8913 35.4915 15.7156 35.4915 15.3385V15.0985C35.4844 15.0208 35.4943 14.9426 35.5205 14.8689C35.5468 14.7951 35.5888 14.7273 35.6439 14.6699C35.7695 14.5711 35.9299 14.522 36.0921 14.5328C36.5 14.5328 36.6883 14.7085 36.6883 15.0856V15.3256C36.7004 15.4026 36.6935 15.4812 36.668 15.5551C36.6426 15.6291 36.5994 15.6962 36.5418 15.7513C36.4842 15.8063 36.414 15.8477 36.3366 15.872C36.2593 15.8963 36.1771 15.9029 36.0966 15.8913ZM36.0966 14.5542C35.9348 14.5409 35.774 14.5886 35.6484 14.687C35.5931 14.7442 35.5513 14.8121 35.5258 14.886C35.5002 14.9599 35.4916 15.0382 35.5005 15.1156V15.3556C35.5005 15.7285 35.6887 15.8999 36.0966 15.8999C36.2584 15.9127 36.419 15.8651 36.5448 15.767C36.6001 15.7099 36.6419 15.642 36.6674 15.5681C36.693 15.4942 36.7016 15.4159 36.6928 15.3385V15.0985C36.6883 14.7256 36.5 14.5713 36.0966 14.5713V14.5542ZM36.0966 15.707C35.8097 15.707 35.6977 15.6042 35.6977 15.3385V15.0985C35.6977 14.8328 35.8053 14.7299 36.0966 14.7299C36.388 14.7299 36.4866 14.8328 36.4866 15.0985V15.3385C36.4866 15.6085 36.3835 15.707 36.0966 15.707ZM36.0966 14.7385C35.8097 14.7385 35.7022 14.8328 35.7022 15.0985V15.3385C35.7022 15.5999 35.8142 15.6985 36.0966 15.6985C36.379 15.6985 36.4821 15.6042 36.4821 15.3385V15.0985C36.4821 14.8328 36.379 14.7385 36.0966 14.7385ZM36.3566 14.4256C36.333 14.4289 36.309 14.4243 36.2885 14.4126C36.2681 14.4009 36.2526 14.3828 36.2445 14.3613L36.1818 14.2628C36.1818 14.2242 36.1369 14.207 36.119 14.207C36.119 14.207 36.0742 14.207 36.0563 14.2628L35.9935 14.3613C35.9855 14.3828 35.9699 14.4009 35.9495 14.4126C35.9291 14.4243 35.905 14.4289 35.8815 14.4256H35.8546C35.8232 14.4256 35.8097 14.4256 35.8053 14.4256C35.8008 14.4256 35.8053 14.3999 35.8053 14.3785L35.9083 14.2242C35.9756 14.1299 36.0114 14.0956 36.1056 14.0956C36.1997 14.0956 36.2311 14.1213 36.2983 14.2242L36.4014 14.3785C36.4014 14.3999 36.4283 14.417 36.4014 14.4256C36.3745 14.4342 36.388 14.4256 36.3566 14.4256ZM36.0966 14.2028C36.0966 14.2028 36.1414 14.2028 36.1638 14.2585L36.2266 14.3613C36.2346 14.3816 36.2496 14.3987 36.2692 14.4096C36.2888 14.4206 36.3118 14.4247 36.3342 14.4213C36.3655 14.4213 36.379 14.4213 36.3835 14.4213C36.388 14.4213 36.3835 14.4213 36.3835 14.3785L36.3073 14.2113C36.2445 14.1085 36.2042 14.0828 36.119 14.0828C36.0339 14.0828 35.9935 14.1128 35.9263 14.2113L35.8232 14.3656C35.8232 14.3656 35.8232 14.3999 35.8232 14.4085C35.8232 14.417 35.8232 14.4085 35.868 14.4085H35.859C35.8813 14.4104 35.9036 14.4056 35.9228 14.3949C35.9421 14.3841 35.9574 14.3679 35.9666 14.3485L36.0294 14.2456C36.0518 14.2199 36.0742 14.2028 36.0966 14.2028Z" fill="#009EDB"/>
<path d="M36.9521 15.0901C36.9521 14.7473 37.1449 14.5501 37.5617 14.5501C37.6425 14.5476 37.723 14.5593 37.7993 14.5844C37.8665 14.5844 37.8845 14.623 37.8845 14.683V14.7087C37.8845 14.773 37.8845 14.7944 37.7993 14.773C37.7249 14.7459 37.6458 14.7328 37.5662 14.7344C37.2614 14.7344 37.1583 14.8501 37.1583 15.0944V15.3473C37.1583 15.6087 37.2794 15.703 37.5842 15.703C37.6678 15.7055 37.7513 15.6939 37.8307 15.6687C37.8934 15.6473 37.9114 15.6687 37.9114 15.733V15.7587C37.9114 15.8144 37.9114 15.8358 37.8217 15.853C37.7407 15.8782 37.6558 15.8897 37.5707 15.8873C37.1494 15.8873 36.9521 15.7158 36.9521 15.3473V15.0901Z" fill="#009EDB"/>
<path d="M37.5709 15.8913C37.4094 15.902 37.2496 15.8546 37.1227 15.7585C37.0653 15.7025 37.0219 15.635 36.9955 15.5608C36.9691 15.4866 36.9605 15.4077 36.9703 15.3299V15.0728C36.9648 15.0002 36.9752 14.9273 37.0006 14.8587C37.0261 14.7901 37.0661 14.7273 37.1182 14.6742C37.2418 14.5711 37.4028 14.5188 37.5665 14.5285C37.6485 14.5281 37.7301 14.5396 37.8085 14.5628C37.8757 14.5628 37.8892 14.6056 37.8892 14.6656V14.6913C37.8892 14.7299 37.8892 14.7513 37.8892 14.7599C37.8788 14.7652 37.8673 14.7679 37.8556 14.7679C37.8438 14.7679 37.8323 14.7652 37.8219 14.7599C37.7466 14.7371 37.6679 14.7256 37.5889 14.7256C37.302 14.7256 37.181 14.8285 37.181 15.0813V15.3342C37.181 15.5913 37.2975 15.6856 37.6068 15.6856C37.689 15.6889 37.7711 15.6772 37.8488 15.6513C37.8595 15.647 37.8709 15.6447 37.8825 15.6447C37.894 15.6447 37.9055 15.647 37.9161 15.6513C37.9161 15.6513 37.9161 15.6813 37.9161 15.7199V15.7456C37.9161 15.8056 37.9161 15.8271 37.8309 15.8442C37.7472 15.8721 37.6596 15.888 37.5709 15.8913ZM37.5709 14.5542C37.1765 14.5542 36.9658 14.7385 36.9658 15.0899V15.3471C36.9658 15.7156 37.1586 15.8828 37.5799 15.8828C37.6646 15.8842 37.7491 15.8741 37.8309 15.8528C37.8982 15.8528 37.9161 15.8142 37.9161 15.7585V15.7328C37.9161 15.6985 37.9161 15.6771 37.9161 15.6685C37.9161 15.6599 37.8847 15.6685 37.8578 15.6685C37.778 15.6919 37.6948 15.7035 37.6113 15.7028C37.302 15.7028 37.163 15.5999 37.163 15.3428V15.0899C37.163 14.8328 37.2841 14.7256 37.5754 14.7256C37.6564 14.7248 37.7368 14.7379 37.813 14.7642C37.8444 14.7642 37.8623 14.7642 37.8713 14.7642C37.8802 14.7642 37.8713 14.7342 37.8713 14.6999V14.6742C37.8713 14.6185 37.8713 14.5971 37.7906 14.5756C37.715 14.5632 37.638 14.5618 37.562 14.5713L37.5709 14.5542Z" fill="#009EDB"/>
<path d="M38.8125 15.7199C38.8125 15.6556 38.8125 15.6384 38.9021 15.6513C39.0318 15.6875 39.166 15.7063 39.3011 15.707C39.5117 15.707 39.5969 15.6684 39.5969 15.557C39.5969 15.4456 39.5521 15.4284 39.4221 15.3684L39.0904 15.2184C38.9156 15.137 38.8349 15.0599 38.8349 14.8799C38.8349 14.6999 38.9963 14.5713 39.319 14.5713C39.4344 14.5707 39.5492 14.5866 39.6597 14.6184C39.7224 14.6184 39.7404 14.657 39.7404 14.717V14.7427C39.7404 14.807 39.7404 14.8199 39.6552 14.8027C39.545 14.7697 39.43 14.7538 39.3145 14.7556C39.1128 14.7556 39.0366 14.7942 39.0366 14.9013C39.0366 15.0084 39.0859 15.0299 39.1801 15.0727L39.5297 15.2227C39.7135 15.3084 39.8031 15.3856 39.8031 15.5742C39.8031 15.7627 39.6373 15.9084 39.2876 15.9084C39.1575 15.91 39.0277 15.8941 38.9021 15.8613C38.8304 15.8399 38.8125 15.8184 38.8125 15.7627V15.7199Z" fill="#009EDB"/>
<path d="M39.2876 15.8914C39.1558 15.8917 39.0245 15.8744 38.8977 15.8399C38.8304 15.8399 38.8125 15.8014 38.8125 15.7414C38.8125 15.7071 38.8125 15.6857 38.8125 15.6771C38.8125 15.6685 38.8484 15.6771 38.8842 15.6771C39.0142 15.7113 39.1484 15.7286 39.2831 15.7285C39.4983 15.7285 39.579 15.6899 39.579 15.5828C39.579 15.4757 39.5386 15.4585 39.4042 15.3985L39.068 15.2442C38.9022 15.1671 38.8125 15.0899 38.8125 14.9057C38.8125 14.7214 38.9694 14.5714 39.3011 14.5714C39.4169 14.5692 39.5322 14.5867 39.6417 14.6228C39.709 14.6228 39.7269 14.6614 39.7269 14.7214V14.7471C39.7352 14.7678 39.7352 14.7907 39.7269 14.8114C39.7039 14.8204 39.6782 14.8204 39.6552 14.8114C39.547 14.776 39.4333 14.7586 39.319 14.7599C39.1218 14.7599 39.0456 14.8028 39.0456 14.9057C39.0477 14.9439 39.0623 14.9805 39.0872 15.0104C39.1121 15.0404 39.1461 15.0622 39.1845 15.0728L39.5342 15.2271C39.7135 15.3042 39.8076 15.3857 39.8076 15.5785C39.8076 15.7714 39.6373 15.8914 39.2876 15.8914ZM38.8394 15.6514H38.8125C38.8125 15.6514 38.8125 15.6814 38.8125 15.7114C38.8125 15.7671 38.8125 15.7885 38.8977 15.8057C39.0231 15.8391 39.1529 15.855 39.2831 15.8528C39.6373 15.8528 39.7941 15.7542 39.7941 15.5228C39.7941 15.2914 39.7 15.2528 39.5252 15.1757L39.1756 15.0214C39.1351 15.0115 39.099 14.9895 39.0724 14.9587C39.0458 14.9279 39.0301 14.8898 39.0277 14.8499C39.0277 14.7428 39.1083 14.6999 39.31 14.6999C39.4258 14.6989 39.5409 14.7163 39.6507 14.7514C39.6821 14.7514 39.7 14.7514 39.7135 14.7514C39.7176 14.7419 39.7198 14.7317 39.7198 14.7214C39.7198 14.7111 39.7176 14.7009 39.7135 14.6914V14.6657C39.7135 14.6057 39.7135 14.5928 39.6328 14.5714C39.5228 14.5374 39.4076 14.5215 39.2921 14.5242C38.9649 14.5242 38.8125 14.6271 38.8125 14.8499C38.8125 15.0728 38.8977 15.1071 39.0635 15.1842L39.3952 15.3385C39.5297 15.3985 39.5745 15.4457 39.5745 15.5271C39.5745 15.6085 39.4938 15.6771 39.2742 15.6771C39.1379 15.6769 39.0023 15.6596 38.8708 15.6257L38.8394 15.6514Z" fill="#009EDB"/>
<path d="M40.0635 15.3386V15.0986C40.0635 14.7343 40.2652 14.55 40.6641 14.55C41.063 14.55 41.2603 14.7386 41.2603 15.0986V15.3386C41.2603 15.7072 41.063 15.8872 40.6641 15.8872C40.2652 15.8872 40.0635 15.6986 40.0635 15.3386ZM41.0541 15.0986C41.0541 14.8458 40.9644 14.7343 40.6641 14.7343C40.3638 14.7343 40.2697 14.8458 40.2697 15.0986V15.3386C40.2697 15.5915 40.3683 15.7029 40.6641 15.7029C40.96 15.7029 41.0541 15.5915 41.0541 15.3386V15.0986ZM40.4714 14.2072C40.5386 14.1129 40.5745 14.0786 40.6641 14.0786C40.7538 14.0786 40.7941 14.1043 40.8569 14.2072L40.9644 14.3615C40.9958 14.4086 40.9644 14.4215 40.9286 14.4215C40.9055 14.4251 40.8819 14.4211 40.8616 14.4102C40.8412 14.3993 40.8253 14.3821 40.8165 14.3615L40.7538 14.2586C40.7089 14.1858 40.6641 14.1858 40.6238 14.2586L40.561 14.3615C40.5341 14.4129 40.5072 14.4215 40.449 14.4215C40.3907 14.4215 40.3817 14.4215 40.4131 14.3615L40.4714 14.2072ZM41.1661 14.0529C41.1549 14.0726 41.1379 14.0888 41.1172 14.0995C41.0965 14.1101 41.073 14.1148 41.0496 14.1129H41.0227C40.9599 14.1129 40.951 14.1129 40.9824 14.0486L41.0944 13.8386C41.1045 13.8122 41.1239 13.7901 41.1493 13.776C41.1747 13.7619 41.2044 13.7568 41.2334 13.7615H41.2603C41.332 13.7615 41.3454 13.7615 41.3051 13.8343L41.1661 14.0529Z" fill="#009EDB"/>
<path d="M40.6638 15.8915C40.2559 15.8915 40.0632 15.7158 40.0632 15.3387V15.0987C40.0555 15.0213 40.0647 14.9433 40.0901 14.8696C40.1156 14.7958 40.1568 14.7279 40.2111 14.6701C40.3376 14.5728 40.4973 14.524 40.6593 14.533C41.0672 14.533 41.26 14.7087 41.26 15.0858V15.3258C41.2645 15.7073 41.0628 15.8915 40.6638 15.8915ZM40.6638 14.5544C40.5021 14.542 40.3416 14.5896 40.2156 14.6873C40.1603 14.7444 40.1185 14.8123 40.093 14.8862C40.0675 14.9601 40.0588 15.0384 40.0677 15.1158V15.3558C40.0677 15.7287 40.2559 15.9001 40.6638 15.9001C40.8257 15.9138 40.9867 15.8661 41.1121 15.7673C41.1673 15.7101 41.2091 15.6422 41.2347 15.5683C41.2602 15.4944 41.2688 15.4161 41.26 15.3387V15.0987C41.2376 14.7258 41.0672 14.5715 40.6638 14.5715V14.5544ZM40.6638 15.7073C40.377 15.7073 40.2649 15.6044 40.2649 15.3387V15.0987C40.2649 14.833 40.3725 14.7301 40.6638 14.7301C40.9552 14.7301 41.0583 14.833 41.0583 15.0987V15.3387C41.0583 15.6087 40.9507 15.7073 40.6638 15.7073ZM40.6638 14.7387C40.377 14.7387 40.2739 14.833 40.2739 15.0987V15.3387C40.2739 15.6001 40.3814 15.6987 40.6638 15.6987C40.9462 15.6987 41.0538 15.6044 41.0538 15.3387V15.0987C41.0538 14.833 40.9462 14.7387 40.6638 14.7387ZM40.9283 14.4258C40.9041 14.4294 40.8794 14.4249 40.8582 14.4133C40.837 14.4016 40.8206 14.3833 40.8117 14.3615L40.749 14.263C40.7087 14.1901 40.6683 14.1901 40.6235 14.263L40.5652 14.3615C40.5563 14.3833 40.5399 14.4016 40.5188 14.4133C40.4976 14.4249 40.4728 14.4294 40.4487 14.4258C40.4173 14.4258 40.3994 14.4258 40.3949 14.4258C40.3904 14.4258 40.3949 14.4001 40.3949 14.3787L40.498 14.2244C40.5607 14.1301 40.6011 14.0958 40.6907 14.0958C40.7804 14.0958 40.8207 14.1215 40.8879 14.2244L40.991 14.3787C40.991 14.4001 40.991 14.4173 40.991 14.4258C40.991 14.4344 40.9597 14.4258 40.9283 14.4258ZM40.6638 14.203C40.6638 14.203 40.7086 14.203 40.7311 14.2587L40.7938 14.3615C40.8033 14.3817 40.8193 14.3985 40.8395 14.4093C40.8596 14.4201 40.8829 14.4244 40.9059 14.4215C40.9328 14.4215 40.9507 14.4215 40.9552 14.4215C40.9597 14.4215 40.9552 14.4215 40.9552 14.3787L40.8521 14.2244C40.7848 14.1215 40.749 14.0958 40.6593 14.0958C40.5697 14.0958 40.5338 14.1258 40.4711 14.2244L40.368 14.3787C40.368 14.3787 40.368 14.413 40.368 14.4215C40.368 14.4301 40.368 14.4215 40.4173 14.4215C40.4402 14.4237 40.4632 14.4191 40.4832 14.4084C40.5033 14.3977 40.5194 14.3813 40.5294 14.3615L40.5876 14.2587C40.619 14.2201 40.6414 14.203 40.6638 14.203ZM41.0493 14.1173H41.0224C40.9866 14.1173 40.9686 14.1173 40.9641 14.1173C40.9569 14.0993 40.9569 14.0795 40.9641 14.0615L41.0807 13.8515C41.0838 13.8351 41.0904 13.8195 41.1002 13.8057C41.11 13.7919 41.1226 13.7802 41.1374 13.7713C41.1521 13.7625 41.1687 13.7566 41.1859 13.7542C41.2032 13.7518 41.2208 13.7528 41.2376 13.7573H41.2645C41.3048 13.7573 41.3272 13.7573 41.3317 13.7573C41.3362 13.7573 41.3317 13.7873 41.3317 13.8215L41.1972 14.0358C41.1856 14.0632 41.1647 14.0861 41.1379 14.1008C41.1111 14.1156 41.0799 14.1213 41.0493 14.1173ZM41.2331 13.7615C41.2048 13.7579 41.1761 13.7635 41.1517 13.7776C41.1273 13.7916 41.1085 13.8131 41.0986 13.8387L40.9821 14.0487C40.9821 14.0787 40.9821 14.0915 40.9821 14.1001C40.9821 14.1087 40.9821 14.1001 41.0359 14.1001H41.0628C41.0865 14.1006 41.1099 14.0948 41.1304 14.0835C41.1509 14.0722 41.1679 14.0557 41.1793 14.0358L41.3138 13.8215C41.3138 13.7915 41.3407 13.7744 41.3138 13.7658C41.2869 13.7573 41.2869 13.7658 41.251 13.7658L41.2331 13.7615Z" fill="#009EDB"/>
<path d="M41.7531 15.78C41.7531 15.8486 41.7531 15.8615 41.6679 15.8615H41.6365C41.5693 15.8615 41.5469 15.8615 41.5469 15.78V15.0386C41.5469 14.7129 41.7396 14.55 42.1206 14.55C42.5016 14.55 42.6854 14.7215 42.6854 15.0386V15.78C42.6854 15.8486 42.6854 15.8615 42.6002 15.8615H42.5823C42.5061 15.8615 42.4927 15.8615 42.4927 15.78V15.0386C42.4927 14.8286 42.4075 14.7343 42.1341 14.7343C41.8606 14.7343 41.7665 14.8329 41.7665 15.0386L41.7531 15.78Z" fill="#009EDB"/>
<path d="M42.5821 15.857C42.5059 15.857 42.488 15.857 42.488 15.7713V15.0384C42.488 14.8198 42.3938 14.7384 42.1339 14.7384C41.8739 14.7384 41.7708 14.8198 41.7708 15.0384V15.7798C41.7708 15.8484 41.7708 15.8655 41.6812 15.8655H41.6498C41.5825 15.8655 41.5601 15.8655 41.5601 15.7798V15.0384C41.5601 14.7127 41.7529 14.5455 42.1339 14.5455C42.2138 14.5377 42.2945 14.545 42.3714 14.5671C42.4483 14.5891 42.5199 14.6255 42.5821 14.6741C42.6299 14.7225 42.6666 14.7799 42.6898 14.8426C42.7129 14.9054 42.7221 14.9721 42.7166 15.0384V15.7798C42.6897 15.857 42.6762 15.857 42.5821 15.857ZM42.1339 14.7298C42.3983 14.7298 42.4969 14.8155 42.4969 15.0384V15.7798C42.4969 15.8484 42.4969 15.857 42.5821 15.857C42.6538 15.857 42.6673 15.857 42.6673 15.7798V15.0384C42.673 14.9727 42.6639 14.9066 42.6407 14.8445C42.6175 14.7824 42.5807 14.7258 42.5328 14.6784C42.4175 14.5982 42.276 14.5602 42.1339 14.5713C41.9738 14.5539 41.813 14.597 41.6856 14.6913C41.6357 14.7385 41.5971 14.7956 41.5723 14.8584C41.5476 14.9213 41.5373 14.9885 41.5422 15.0555V15.797C41.5422 15.8655 41.5422 15.8741 41.6274 15.8741H41.6856C41.7574 15.8741 41.7708 15.8741 41.7708 15.797V15.0384C41.7529 14.8155 41.856 14.7298 42.1339 14.7298Z" fill="#009EDB"/>
<path d="M44.102 15.0344C44.102 15.3344 43.9182 15.4887 43.5372 15.4887C43.4419 15.4787 43.3457 15.4787 43.2503 15.4887C43.2305 15.4918 43.2127 15.5019 43.2003 15.517C43.1878 15.532 43.1817 15.551 43.1831 15.5701C43.1831 15.6044 43.1831 15.6301 43.2548 15.643C43.3488 15.6499 43.4432 15.6499 43.5372 15.643C43.6914 15.6327 43.8459 15.6607 43.9854 15.7244C44.032 15.755 44.0691 15.797 44.0927 15.846C44.1164 15.895 44.1258 15.9493 44.1199 16.003C44.126 16.061 44.117 16.1196 44.0935 16.1735C44.07 16.2274 44.0329 16.2748 43.9854 16.3115C43.8477 16.381 43.6925 16.4121 43.5372 16.4015C43.382 16.4108 43.2271 16.3797 43.089 16.3115C43.0449 16.28 43.0099 16.2383 42.9872 16.1903C42.9645 16.1424 42.9548 16.0897 42.959 16.0373C42.9559 15.9815 42.9689 15.9261 42.9966 15.8769C43.0242 15.8278 43.0655 15.7869 43.1159 15.7587C43.0806 15.7451 43.0507 15.7213 43.0306 15.6904C43.0104 15.6596 43.0011 15.6235 43.0038 15.5873C43.0038 15.4715 43.0755 15.403 43.2234 15.3815C43.1479 15.3506 43.0848 15.2972 43.0436 15.2293C43.0024 15.1613 42.9853 15.0824 42.9948 15.0044V15.0001C42.9948 14.7173 43.2055 14.5715 43.5596 14.5715C43.6565 14.5695 43.7527 14.5871 43.842 14.623L43.9989 14.4901C44.0437 14.4515 44.0661 14.4515 44.1109 14.4901C44.1558 14.5287 44.1558 14.5501 44.1109 14.593L43.9899 14.713C44.0293 14.7513 44.0599 14.7969 44.08 14.8471C44.1 14.8972 44.1091 14.9508 44.1065 15.0044L44.102 15.0344ZM43.2727 15.8315C43.2317 15.8514 43.1976 15.8822 43.1745 15.9202C43.1514 15.9583 43.1404 16.0019 43.1427 16.0458C43.1427 16.2173 43.2458 16.2601 43.5372 16.2601C43.8285 16.2601 43.9316 16.2173 43.9316 16.0415C43.9316 15.8658 43.833 15.8487 43.5372 15.8487C43.4487 15.8492 43.3603 15.8435 43.2727 15.8315ZM43.8958 15.0001C43.8958 14.8158 43.7748 14.7258 43.5372 14.7258C43.2996 14.7258 43.1741 14.8158 43.1741 15.0001V15.0344C43.1741 15.2187 43.2638 15.313 43.5372 15.313C43.8106 15.313 43.8958 15.2187 43.8958 15.0344V15.0001Z" fill="#009EDB"/>
<path d="M43.5373 16.4315C43.3825 16.4428 43.2274 16.4131 43.0891 16.3458C43.0453 16.313 43.0105 16.2705 42.9879 16.222C42.9652 16.1734 42.9553 16.1203 42.9591 16.0672C42.9556 16.0124 42.9674 15.9577 42.9934 15.9087C43.0194 15.8598 43.0586 15.8183 43.107 15.7887C43.073 15.7739 43.0444 15.7496 43.0252 15.719C43.006 15.6884 42.997 15.6529 42.9994 15.6172C42.9994 15.503 43.0711 15.4344 43.2146 15.4115C43.1403 15.3794 43.0786 15.3256 43.0383 15.2578C42.9981 15.1901 42.9813 15.1118 42.9905 15.0344V15.0001C42.9886 14.9371 43.0013 14.8745 43.0276 14.8167C43.054 14.7589 43.0933 14.7074 43.1429 14.6658C43.2633 14.5812 43.4105 14.5388 43.5597 14.5458C43.6566 14.5438 43.7528 14.5613 43.8421 14.5972L43.999 14.4687C44.0438 14.4258 44.0662 14.4258 44.111 14.4687C44.1379 14.4901 44.1469 14.503 44.1469 14.5201C44.1469 14.5372 44.1469 14.5501 44.111 14.5758L43.99 14.6915C44.0309 14.729 44.0628 14.7744 44.0837 14.8246C44.1046 14.8749 44.1139 14.9289 44.111 14.983V15.0172C44.111 15.3172 43.9183 15.4715 43.5418 15.4715C43.4465 15.4611 43.3502 15.4611 43.2549 15.4715C43.2367 15.4755 43.2206 15.4853 43.2091 15.4994C43.1977 15.5134 43.1917 15.5309 43.1922 15.5487C43.1922 15.583 43.2146 15.6044 43.2594 15.6172C43.3534 15.625 43.4478 15.625 43.5418 15.6172C43.7035 15.6031 43.8662 15.6313 44.0124 15.6987C44.0589 15.7291 44.0956 15.7712 44.1186 15.8204C44.1415 15.8696 44.1498 15.9239 44.1424 15.9772C44.1502 16.0361 44.1419 16.0958 44.1183 16.1506C44.0948 16.2055 44.0567 16.2535 44.008 16.2901C43.868 16.3784 43.7049 16.4274 43.5373 16.4315ZM43.5373 14.5544C43.1877 14.5544 42.977 14.7215 42.977 14.983V15.0172C42.9679 15.0947 42.9846 15.1729 43.0249 15.2407C43.0652 15.3084 43.1269 15.3622 43.2011 15.3944C43.0532 15.4158 42.9815 15.4801 42.9815 15.5958C42.9807 15.6317 42.9908 15.6671 43.0107 15.6975C43.0306 15.728 43.0594 15.7522 43.0936 15.7672C43.0444 15.7953 43.0042 15.8357 42.9773 15.8841C42.9505 15.9324 42.938 15.9869 42.9412 16.0415C42.9376 16.0935 42.9472 16.1455 42.969 16.1933C42.9908 16.241 43.0243 16.283 43.0667 16.3158C43.2058 16.3809 43.3602 16.4105 43.5149 16.4015C43.6697 16.4125 43.8247 16.3829 43.9631 16.3158C44.0106 16.2791 44.0477 16.2317 44.0712 16.1778C44.0947 16.1239 44.1037 16.0653 44.0976 16.0072C44.1041 15.9545 44.0954 15.9011 44.0725 15.8528C44.0496 15.8045 44.0133 15.763 43.9676 15.733C43.828 15.6693 43.6736 15.6413 43.5194 15.6515C43.424 15.6613 43.3279 15.6613 43.2325 15.6515C43.2143 15.6486 43.1976 15.6398 43.1854 15.6265C43.1731 15.6132 43.166 15.5963 43.1653 15.5787C43.1639 15.5595 43.17 15.5406 43.1824 15.5255C43.1949 15.5105 43.2127 15.5004 43.2325 15.4972C43.3278 15.4865 43.4241 15.4865 43.5194 15.4972C43.6779 15.5124 43.8369 15.4729 43.9676 15.3858C44.0153 15.3426 44.0525 15.2898 44.0765 15.2313C44.1005 15.1728 44.1108 15.11 44.1066 15.0472V15.0001C44.1097 14.9467 44.1005 14.8932 44.0795 14.8436C44.0586 14.794 44.0265 14.7494 43.9855 14.713L44.1066 14.593C44.1335 14.593 44.1424 14.5544 44.1424 14.5415C44.1409 14.532 44.1374 14.5229 44.132 14.5148C44.1266 14.5066 44.1194 14.4997 44.111 14.4944H44.0886C44.0483 14.4558 44.0259 14.4558 43.9811 14.4944L43.8242 14.6272C43.7338 14.5893 43.636 14.5703 43.5373 14.5715V14.5544ZM43.5373 16.2687C43.2325 16.2687 43.1429 16.2172 43.1429 16.0501C43.138 16.0058 43.1479 15.9612 43.1713 15.9227C43.1947 15.8842 43.2302 15.8537 43.2728 15.8358C43.3609 15.8411 43.4492 15.8411 43.5373 15.8358C43.8331 15.8358 43.9362 15.8658 43.9362 16.033C43.9362 16.2001 43.8376 16.2858 43.5373 16.2858V16.2687ZM43.2728 15.8401C43.2322 15.8589 43.1985 15.8891 43.1761 15.9265C43.1537 15.964 43.1437 16.0071 43.1473 16.0501C43.1473 16.213 43.237 16.2644 43.5373 16.2644C43.8376 16.2644 43.9273 16.213 43.9273 16.0458C43.9273 15.8787 43.8331 15.853 43.5373 15.853C43.4493 15.8597 43.361 15.8611 43.2728 15.8572V15.8401ZM43.5373 15.3215C43.2773 15.3215 43.1742 15.2401 43.1742 15.0387V15.0001C43.1742 14.8115 43.2908 14.7215 43.5373 14.7215C43.7838 14.7215 43.9004 14.8158 43.9004 15.0001V15.0344C43.9004 15.2358 43.7973 15.3172 43.5373 15.3172V15.3215ZM43.5373 14.7301C43.2953 14.7301 43.1787 14.8201 43.1787 15.0044V15.0387C43.1787 15.2358 43.2818 15.3172 43.5373 15.3172C43.7928 15.3172 43.8959 15.2358 43.8959 15.0387V15.0001C43.8959 14.8201 43.7749 14.7258 43.5373 14.7258V14.7301Z" fill="#009EDB"/>
<path d="M46.5134 14.3571C46.5134 14.4128 46.5134 14.43 46.4372 14.43H46.2758V15.3428C46.2758 15.7071 46.0741 15.8871 45.6752 15.8871C45.2763 15.8871 45.079 15.7071 45.079 15.3428V15.0986C45.0709 15.0263 45.0801 14.9532 45.1058 14.8849C45.1315 14.8165 45.1731 14.7546 45.2275 14.7038C45.2819 14.6531 45.3476 14.6148 45.4197 14.5918C45.4919 14.5689 45.5685 14.5619 45.6438 14.5714C45.7296 14.5579 45.8177 14.5685 45.8973 14.602C45.9768 14.6355 46.0445 14.6904 46.0921 14.76V14.4514H45.72C45.6573 14.4514 45.6438 14.4514 45.6438 14.3786C45.6438 14.3228 45.6438 14.3057 45.72 14.3057H46.0921V14.1428C46.0921 14.07 46.0921 14.0571 46.1772 14.0571H46.1683C46.2355 14.0571 46.2579 14.0571 46.2579 14.1428V14.2843H46.4193C46.4775 14.2843 46.4955 14.2843 46.4955 14.3571H46.5134ZM45.2718 15.3386C45.2718 15.5914 45.3614 15.7028 45.6618 15.7028C45.9621 15.7028 46.0562 15.5914 46.0562 15.3386V15.0986C46.0562 14.8457 45.9621 14.7343 45.6618 14.7343C45.3614 14.7343 45.2718 14.8457 45.2718 15.0986V15.3386Z" fill="#009EDB"/>
<path d="M45.6757 15.8913C45.5134 15.9025 45.3528 15.8533 45.2275 15.7542C45.1722 15.697 45.1304 15.6292 45.1048 15.5552C45.0793 15.4813 45.0707 15.403 45.0795 15.3256V15.0813C45.0712 15.0043 45.0797 14.9264 45.1044 14.8527C45.1291 14.7789 45.1694 14.7108 45.223 14.6527C45.2826 14.5996 45.3535 14.5595 45.4309 14.5351C45.5083 14.5107 45.5902 14.5026 45.6712 14.5113C45.7523 14.5024 45.8345 14.5149 45.9087 14.5474C45.983 14.5798 46.0465 14.6311 46.0925 14.6956V14.3999H45.7205C45.6578 14.3999 45.6398 14.3999 45.6398 14.3227C45.6398 14.2627 45.6398 14.2456 45.7205 14.2456H46.0881V14.1427C46.0881 14.0699 46.0881 14.0527 46.1777 14.0527H46.1687C46.236 14.0527 46.2584 14.0527 46.2584 14.1427V14.2799H46.4198C46.478 14.2799 46.5004 14.2799 46.5004 14.357C46.5004 14.4127 46.5004 14.4342 46.4198 14.4342H46.2584V15.3427C46.2763 15.707 46.0746 15.8913 45.6757 15.8913ZM45.6443 14.5713C45.5684 14.5654 45.4919 14.574 45.4195 14.5969C45.3472 14.6197 45.2803 14.6562 45.223 14.7042C45.1709 14.763 45.1318 14.8313 45.1079 14.9049C45.084 14.9786 45.0759 15.056 45.084 15.1327V15.377C45.0737 15.4541 45.0812 15.5325 45.106 15.6065C45.1307 15.6806 45.1722 15.7485 45.2275 15.8056C45.3528 15.9045 45.5138 15.9522 45.6757 15.9384C45.8374 15.9508 45.9979 15.9032 46.1239 15.8056C46.1795 15.7486 46.2214 15.6808 46.247 15.6068C46.2725 15.5328 46.281 15.4544 46.2718 15.377V14.4256H46.4377C46.4915 14.4256 46.5139 14.4256 46.5139 14.357C46.5139 14.3056 46.5139 14.2884 46.4377 14.2884H46.2718V14.1427C46.2718 14.0699 46.2718 14.0613 46.1867 14.0613H46.1687C46.097 14.0613 46.0881 14.0613 46.0881 14.1427V14.2884H45.7205C45.6578 14.2884 45.6488 14.2884 45.6488 14.357C45.6488 14.4084 45.6488 14.4256 45.7205 14.4256H46.097V14.7513C46.048 14.6825 45.9791 14.6288 45.8987 14.5969C45.8183 14.5649 45.7299 14.556 45.6443 14.5713ZM45.6757 15.7242C45.3888 15.7242 45.2812 15.6256 45.2812 15.3556V15.1156C45.2812 14.8499 45.3933 14.747 45.6757 14.747C45.9581 14.747 46.0746 14.8499 46.0746 15.1156V15.3556C46.0746 15.6042 45.9626 15.707 45.6757 15.707V15.7242ZM45.6757 14.7556C45.3978 14.7556 45.2857 14.8542 45.2857 15.1156V15.3556C45.2857 15.6213 45.3933 15.7156 45.6757 15.7156C45.9581 15.7156 46.0657 15.6213 46.0657 15.3556V15.1156C46.0657 14.8327 45.9626 14.7384 45.6757 14.7384V14.7556Z" fill="#009EDB"/>
<path d="M46.5488 15.3386V15.0986C46.5488 14.7343 46.7461 14.55 47.1495 14.55C47.4498 14.55 47.6246 14.6486 47.7008 14.8329C47.7411 14.8329 47.7815 14.7643 47.7815 14.6272C47.7815 14.5886 47.7815 14.5758 47.8442 14.5758H47.8891C47.9384 14.5758 47.9473 14.5758 47.9473 14.6272C47.9473 14.8372 47.8622 14.94 47.7322 14.9743C47.7369 15.0156 47.7369 15.0573 47.7322 15.0986V15.3386C47.7322 15.7072 47.5349 15.8872 47.1405 15.8872C46.7461 15.8872 46.5488 15.6986 46.5488 15.3386ZM47.5394 15.0986C47.5394 14.8458 47.4453 14.7343 47.1495 14.7343C46.8536 14.7343 46.7505 14.8458 46.7505 15.0986V15.3386C46.7505 15.5915 46.8536 15.7029 47.1495 15.7029C47.4453 15.7029 47.5394 15.5915 47.5394 15.3386V15.0986Z" fill="#009EDB"/>
<path d="M47.1503 15.8913C46.7379 15.8913 46.5452 15.7156 46.5452 15.3384V15.0984C46.5381 15.0208 46.548 14.9426 46.5742 14.8688C46.6005 14.795 46.6425 14.7273 46.6976 14.6698C46.8232 14.5711 46.9836 14.522 47.1458 14.5327C47.4417 14.5327 47.5941 14.6227 47.6972 14.8156C47.751 14.7941 47.7734 14.7256 47.7734 14.6141C47.7734 14.5713 47.7734 14.5584 47.8406 14.5584H47.8854C47.9347 14.5584 47.9482 14.5584 47.9482 14.6141C47.9482 14.8027 47.8765 14.9227 47.733 14.9656C47.7354 15.0055 47.7354 15.0456 47.733 15.0856V15.3256C47.7448 15.4017 47.738 15.4794 47.713 15.5526C47.688 15.6258 47.6456 15.6924 47.5891 15.7473C47.5327 15.8021 47.4636 15.8437 47.3875 15.8687C47.3113 15.8937 47.2301 15.9014 47.1503 15.8913ZM47.1503 14.5541C46.9885 14.5409 46.8277 14.5885 46.7021 14.687C46.6468 14.7441 46.605 14.812 46.5795 14.8859C46.554 14.9599 46.5453 15.0382 46.5542 15.1156V15.3556C46.5542 15.7284 46.7424 15.8998 47.1503 15.8998C47.3121 15.9126 47.4727 15.865 47.5986 15.767C47.6538 15.7098 47.6956 15.642 47.7212 15.568C47.7467 15.4941 47.7553 15.4158 47.7465 15.3384V15.0984C47.749 15.057 47.749 15.0155 47.7465 14.9741C47.8899 14.9313 47.9616 14.8156 47.9616 14.627C47.9616 14.5884 47.9616 14.5798 47.9034 14.5798H47.8585C47.8137 14.5798 47.8003 14.5798 47.8003 14.627C47.8003 14.7427 47.7734 14.8113 47.7151 14.837C47.6165 14.6441 47.4462 14.5713 47.1503 14.5713V14.5541ZM47.1503 15.707C46.8635 15.707 46.7514 15.6041 46.7514 15.3384V15.0984C46.7514 14.8327 46.859 14.7298 47.1503 14.7298C47.4417 14.7298 47.5403 14.8327 47.5403 15.0984V15.3384C47.5403 15.6084 47.4372 15.707 47.1503 15.707ZM47.1503 14.7384C46.8635 14.7384 46.7559 14.8327 46.7559 15.0984V15.3384C46.7559 15.5998 46.8679 15.6984 47.1503 15.6984C47.4327 15.6984 47.5358 15.6041 47.5358 15.3384V15.0984C47.5358 14.8327 47.4327 14.7384 47.1503 14.7384Z" fill="#009EDB"/>
<path d="M48.2394 15.78C48.2394 15.8486 48.2394 15.8615 48.1497 15.8615H48.1184C48.0511 15.8615 48.0332 15.8615 48.0332 15.78V15.0386C48.0332 14.7129 48.2259 14.55 48.6025 14.55C48.979 14.55 49.1717 14.7215 49.1717 15.0386V15.78C49.1717 15.8486 49.1717 15.8615 49.0821 15.8615H49.0507C48.9745 15.8615 48.9611 15.8615 48.9611 15.78V15.0386C48.9611 14.8286 48.8804 14.7343 48.6025 14.7343C48.3246 14.7343 48.2394 14.8329 48.2394 15.0386V15.78Z" fill="#009EDB"/>
<path d="M49.082 15.8572H49.0506C48.9744 15.8572 48.961 15.8572 48.961 15.7715V15.0386C48.961 14.8201 48.8624 14.7386 48.6024 14.7386C48.3424 14.7386 48.2393 14.8201 48.2393 15.0386V15.7801C48.2393 15.8486 48.2393 15.8658 48.1497 15.8658H48.1183C48.0511 15.8658 48.0287 15.8658 48.0287 15.7801V15.0386C48.0287 14.7129 48.2214 14.5458 48.6024 14.5458C48.6823 14.5379 48.763 14.5452 48.8399 14.5673C48.9169 14.5894 48.9885 14.6258 49.0506 14.6744C49.0992 14.7222 49.1363 14.7796 49.1595 14.8424C49.1827 14.9053 49.1915 14.9722 49.1851 15.0386V15.7801C49.1717 15.8572 49.1582 15.8572 49.082 15.8572ZM48.6024 14.7215C48.8669 14.7215 48.9655 14.8072 48.9655 15.0301V15.7715C48.9655 15.8401 48.9655 15.8486 49.0506 15.8486H49.082C49.1537 15.8486 49.1672 15.8486 49.1672 15.7715V15.0386C49.1726 14.9733 49.1639 14.9076 49.1415 14.8457C49.1191 14.7837 49.0836 14.7268 49.0372 14.6786C48.9747 14.6308 48.9029 14.5952 48.826 14.5739C48.7491 14.5525 48.6685 14.5459 48.589 14.5544C48.4289 14.537 48.2681 14.5801 48.1407 14.6744C48.0908 14.7216 48.0522 14.7787 48.0274 14.8415C48.0027 14.9044 47.9924 14.9716 47.9973 15.0386V15.7801C47.9973 15.8486 47.9973 15.8572 48.0824 15.8572H48.1138C48.1855 15.8572 48.199 15.8572 48.199 15.7801V15.0386C48.2348 14.8158 48.3379 14.7301 48.6024 14.7301V14.7215Z" fill="#009EDB"/>
<path d="M51.3137 15.0342C51.3137 15.3342 51.13 15.4884 50.7535 15.4884C50.6566 15.4783 50.5589 15.4783 50.4621 15.4884C50.4423 15.4916 50.4245 15.5017 50.412 15.5167C50.3996 15.5318 50.3935 15.5507 50.3949 15.5699C50.3949 15.6042 50.3949 15.6299 50.4666 15.6427C50.5621 15.6498 50.658 15.6498 50.7535 15.6427C50.9077 15.6324 51.0621 15.6605 51.2017 15.7242C51.2471 15.7555 51.283 15.7978 51.3058 15.8467C51.3287 15.8957 51.3376 15.9495 51.3317 16.0027C51.3378 16.0608 51.3287 16.1194 51.3053 16.1733C51.2818 16.2271 51.2447 16.2746 51.1972 16.3113C51.0597 16.3812 50.9043 16.4124 50.749 16.4013C50.5849 16.4149 50.4201 16.3837 50.2738 16.3113C50.2312 16.2787 50.1975 16.2368 50.1756 16.189C50.1538 16.1412 50.1444 16.089 50.1483 16.037C50.1448 15.9817 50.1571 15.9265 50.184 15.8774C50.2109 15.8284 50.2512 15.7872 50.3007 15.7584C50.2655 15.7449 50.2356 15.721 50.2155 15.6902C50.1953 15.6594 50.1859 15.6232 50.1887 15.587C50.1887 15.4713 50.2604 15.4027 50.4083 15.3813C50.3328 15.3504 50.2697 15.297 50.2285 15.229C50.1873 15.1611 50.1702 15.0822 50.1797 15.0042V14.9999C50.1797 14.717 50.3904 14.5713 50.749 14.5713C50.8443 14.5696 50.939 14.5872 51.0269 14.6227L51.1838 14.4899C51.2286 14.4513 51.251 14.4513 51.2958 14.4899C51.3406 14.5284 51.3406 14.5499 51.2958 14.5927L51.1748 14.7127C51.2142 14.751 51.2448 14.7967 51.2649 14.8468C51.2849 14.897 51.2939 14.9505 51.2913 15.0042L51.3137 15.0342ZM50.4845 15.8313C50.4435 15.8511 50.4094 15.882 50.3863 15.92C50.3632 15.958 50.3522 16.0017 50.3545 16.0456C50.3545 16.217 50.4576 16.2599 50.7535 16.2599C51.0493 16.2599 51.1434 16.217 51.1434 16.0413C51.1434 15.8656 51.0448 15.8484 50.7535 15.8484C50.6635 15.8492 50.5736 15.8435 50.4845 15.8313ZM51.0986 14.9999C51.0986 14.8156 50.9821 14.7256 50.7445 14.7256C50.5069 14.7256 50.3814 14.8156 50.3814 14.9999V15.0342C50.3814 15.2184 50.4666 15.3127 50.7445 15.3127C51.0224 15.3127 51.0986 15.2184 51.0986 15.0342V14.9999Z" fill="#009EDB"/>
<path d="M50.7534 16.4315C50.5897 16.4467 50.4249 16.417 50.2782 16.3458C50.2344 16.313 50.1997 16.2705 50.177 16.222C50.1544 16.1734 50.1445 16.1203 50.1482 16.0672C50.1447 16.0119 50.157 15.9568 50.1839 15.9077C50.2108 15.8586 50.2511 15.8174 50.3006 15.7887C50.2654 15.7751 50.2355 15.7512 50.2154 15.7204C50.1952 15.6896 50.1859 15.6535 50.1886 15.6172C50.1886 15.503 50.2603 15.4344 50.4037 15.4115C50.3295 15.3794 50.2678 15.3256 50.2275 15.2578C50.1872 15.1901 50.1705 15.1118 50.1796 15.0344V15.0001C50.1777 14.9371 50.1904 14.8745 50.2168 14.8167C50.2431 14.7589 50.2825 14.7074 50.332 14.6658C50.4538 14.5806 50.6026 14.5382 50.7534 14.5458C50.8487 14.5442 50.9434 14.5617 51.0313 14.5972L51.1881 14.4687C51.233 14.4258 51.2554 14.4258 51.3002 14.4687C51.3271 14.4901 51.3361 14.503 51.3361 14.5201C51.3361 14.5372 51.3361 14.5501 51.3002 14.5758L51.1837 14.6915C51.223 14.7298 51.2537 14.7755 51.2737 14.8256C51.2938 14.8758 51.3028 14.9293 51.3002 14.983V15.0172C51.3002 15.3172 51.1075 15.4715 50.7354 15.4715C50.6386 15.4609 50.5409 15.4609 50.4441 15.4715C50.4259 15.4755 50.4097 15.4853 50.3983 15.4994C50.3869 15.5134 50.3809 15.5309 50.3813 15.5487C50.3813 15.583 50.3813 15.6044 50.4486 15.6172C50.544 15.6251 50.64 15.6251 50.7354 15.6172C50.8897 15.607 51.0441 15.635 51.1837 15.6987C51.2306 15.7289 51.2679 15.7709 51.2916 15.82C51.3154 15.8691 51.3245 15.9235 51.3181 15.9772C51.325 16.0364 51.3158 16.0963 51.2914 16.151C51.2671 16.2058 51.2285 16.2537 51.1792 16.2901C51.0522 16.3711 50.9056 16.4198 50.7534 16.4315ZM50.7534 14.5544C50.3993 14.5544 50.1886 14.7215 50.1886 14.983V15.0172C50.1794 15.0947 50.1962 15.1729 50.2365 15.2407C50.2767 15.3084 50.3384 15.3622 50.4127 15.3944C50.2648 15.4158 50.1975 15.4801 50.1975 15.5958C50.1957 15.6314 50.205 15.6666 50.2242 15.6971C50.2433 15.7276 50.2715 15.752 50.3051 15.7672C50.256 15.7953 50.2158 15.8357 50.1889 15.8841C50.162 15.9324 50.1495 15.9869 50.1527 16.0415C50.1489 16.094 50.1588 16.1465 50.1815 16.1944C50.2042 16.2422 50.239 16.284 50.2827 16.3158C50.582 16.4303 50.9158 16.4303 51.215 16.3158C51.262 16.2789 51.2985 16.2313 51.3212 16.1774C51.3439 16.1235 51.3521 16.065 51.345 16.0072C51.3515 15.9545 51.3429 15.9011 51.32 15.8528C51.2971 15.8045 51.2608 15.763 51.215 15.733C51.076 15.6677 50.9212 15.6396 50.7668 15.6515C50.6715 15.6617 50.5753 15.6617 50.4799 15.6515C50.4306 15.6515 50.4082 15.613 50.4082 15.5787C50.4068 15.5595 50.413 15.5406 50.4254 15.5255C50.4378 15.5105 50.4557 15.5004 50.4755 15.4972C50.5722 15.4864 50.67 15.4864 50.7668 15.4972C50.9164 15.5067 51.0649 15.4674 51.1881 15.3858C51.2359 15.3426 51.273 15.2898 51.2971 15.2313C51.3211 15.1728 51.3313 15.11 51.3271 15.0472V15.0001C51.3302 14.9467 51.321 14.8932 51.3001 14.8436C51.2792 14.794 51.2471 14.7494 51.2061 14.713L51.3316 14.593C51.3485 14.5802 51.3597 14.5618 51.363 14.5415C51.3615 14.532 51.3579 14.5229 51.3525 14.5148C51.3471 14.5066 51.34 14.4997 51.3316 14.4944C51.2868 14.4515 51.2688 14.4558 51.2195 14.4944L51.0626 14.6272C50.9655 14.5858 50.8596 14.5668 50.7534 14.5715V14.5544ZM50.7534 16.2687C50.4441 16.2687 50.3544 16.2172 50.3544 16.0501C50.3495 16.0058 50.3595 15.9612 50.3829 15.9227C50.4062 15.8842 50.4418 15.8537 50.4844 15.8358C50.574 15.8412 50.6638 15.8412 50.7534 15.8358C51.0447 15.8358 51.1478 15.8658 51.1478 16.033C51.1478 16.2001 51.0133 16.2858 50.7534 16.2858V16.2687ZM50.4844 15.8401C50.4438 15.8589 50.4101 15.8891 50.3877 15.9265C50.3653 15.964 50.3553 16.0071 50.3589 16.0501C50.3589 16.213 50.4486 16.2644 50.7534 16.2644C51.0582 16.2644 51.1388 16.213 51.1388 16.0458C51.1388 15.8787 51.0447 15.853 50.7534 15.853C50.6639 15.8598 50.5741 15.8612 50.4844 15.8572V15.8401ZM50.7534 15.3215C50.4934 15.3215 50.3858 15.2401 50.3858 15.0387V15.0001C50.3858 14.8115 50.5068 14.7215 50.7534 14.7215C50.9999 14.7215 51.1119 14.8158 51.1119 15.0001V15.0344C51.0985 15.2358 51.0089 15.3172 50.7534 15.3172V15.3215ZM50.7534 14.7301C50.5068 14.7301 50.3903 14.8201 50.3903 15.0044V15.0387C50.3903 15.2358 50.4934 15.3172 50.7534 15.3172C51.0133 15.3172 51.1075 15.2358 51.1075 15.0387V15.0001C51.0985 14.8201 50.9864 14.7258 50.7534 14.7258V14.7301Z" fill="#009EDB"/>
<path d="M51.8607 14.1728C51.8613 14.1894 51.8584 14.2061 51.8522 14.2216C51.8459 14.2372 51.8364 14.2514 51.8243 14.2634C51.8122 14.2754 51.7976 14.285 51.7816 14.2915C51.7655 14.298 51.7482 14.3013 51.7308 14.3013C51.7127 14.3019 51.6947 14.299 51.6779 14.2928C51.6611 14.2866 51.6457 14.2772 51.6328 14.2652C51.6198 14.2532 51.6095 14.2389 51.6024 14.223C51.5954 14.2071 51.5918 14.19 51.5918 14.1728C51.593 14.1383 51.6081 14.1056 51.634 14.0816C51.66 14.0576 51.6947 14.0442 51.7308 14.0442C51.7656 14.0453 51.7987 14.0593 51.823 14.0833C51.8472 14.1073 51.8608 14.1394 51.8607 14.1728ZM51.6277 14.657C51.6277 14.5928 51.6277 14.5756 51.7128 14.5756H51.7442C51.8114 14.5756 51.8294 14.5756 51.8294 14.657V15.7799C51.8294 15.8485 51.8294 15.8613 51.7442 15.8613H51.7128C51.6366 15.8613 51.6277 15.8613 51.6277 15.7799V14.657Z" fill="#009EDB"/>
<path d="M51.744 15.8571H51.7126C51.6364 15.8571 51.6229 15.8571 51.6229 15.7714V14.6571C51.6229 14.5928 51.6229 14.5714 51.7126 14.5714H51.744C51.8112 14.5714 51.8336 14.5714 51.8336 14.6571V15.7799C51.8336 15.8571 51.8112 15.8571 51.744 15.8571ZM51.7126 14.5714C51.6409 14.5714 51.6274 14.5714 51.6274 14.6485V15.7714C51.6274 15.8399 51.6274 15.8485 51.7126 15.8485H51.744C51.8067 15.8485 51.8247 15.8485 51.8247 15.7714V14.6571C51.8247 14.5971 51.8247 14.5799 51.744 14.5799L51.7126 14.5714ZM51.7126 14.2928C51.6769 14.2928 51.6427 14.2792 51.6175 14.2551C51.5923 14.231 51.5781 14.1983 51.5781 14.1642C51.5781 14.1301 51.5923 14.0974 51.6175 14.0733C51.6427 14.0492 51.6769 14.0356 51.7126 14.0356C51.7483 14.0356 51.7825 14.0492 51.8077 14.0733C51.8329 14.0974 51.8471 14.1301 51.8471 14.1642C51.8471 14.1983 51.8329 14.231 51.8077 14.2551C51.7825 14.2792 51.7483 14.2928 51.7126 14.2928ZM51.7126 14.0399C51.6955 14.0399 51.6786 14.0431 51.6629 14.0494C51.6471 14.0556 51.6328 14.0648 51.6207 14.0763C51.6086 14.0879 51.599 14.1016 51.5925 14.1167C51.586 14.1317 51.5826 14.1479 51.5826 14.1642C51.5826 14.1805 51.586 14.1967 51.5925 14.2118C51.599 14.2269 51.6086 14.2406 51.6207 14.2521C51.6328 14.2636 51.6471 14.2728 51.6629 14.279C51.6786 14.2853 51.6955 14.2885 51.7126 14.2885C51.7471 14.2885 51.7801 14.2754 51.8045 14.2521C51.8289 14.2288 51.8426 14.1972 51.8426 14.1642C51.8426 14.1313 51.8289 14.0996 51.8045 14.0763C51.7801 14.053 51.7471 14.0399 51.7126 14.0399Z" fill="#009EDB"/>
<path d="M53.2052 15.4758C53.2052 15.7672 53.0304 15.9044 52.636 15.9044C52.3222 15.9044 52.125 15.7844 52.125 15.5144C52.125 15.2444 52.3088 15.1329 52.6808 15.1329H53.0035V14.9572C53.0035 14.7815 52.8736 14.7215 52.645 14.7215C52.544 14.7209 52.4433 14.731 52.3446 14.7515C52.2774 14.7515 52.255 14.7515 52.255 14.6872V14.6658C52.255 14.6058 52.255 14.5887 52.3402 14.5758C52.4376 14.558 52.5367 14.5493 52.636 14.5501C53.017 14.5501 53.2052 14.6872 53.2052 14.9572V15.4758ZM53.0035 15.2701H52.6808C52.4388 15.2701 52.3267 15.3344 52.3267 15.4972C52.3267 15.6601 52.4298 15.7201 52.636 15.7201C52.8422 15.7201 53.0035 15.6644 53.0035 15.4672V15.2701ZM52.6808 14.4129C52.6315 14.4129 52.627 14.4129 52.6181 14.3615C52.6091 14.3101 52.6584 14.2587 52.7391 14.1772C52.7582 14.162 52.771 14.1407 52.7749 14.1172C52.7749 14.0701 52.7749 14.0487 52.7256 14.0487C52.6859 14.0396 52.6444 14.0396 52.6046 14.0487C52.5732 14.0487 52.5508 14.0487 52.5329 14.0229V14.0015C52.5329 13.9629 52.5329 13.9458 52.5732 13.9329C52.6241 13.9118 52.6792 13.9016 52.7346 13.9029C52.7613 13.9008 52.7881 13.9044 52.8131 13.9135C52.8381 13.9225 52.8607 13.9368 52.8792 13.9553C52.8976 13.9738 52.9116 13.996 52.9199 14.0203C52.9282 14.0447 52.9308 14.0704 52.9273 14.0958C52.9273 14.2072 52.766 14.2544 52.7615 14.3401C52.7597 14.3531 52.7534 14.3652 52.7437 14.3745C52.734 14.3838 52.7213 14.3898 52.7077 14.3915L52.6808 14.4129Z" fill="#009EDB"/>
<path d="M52.6366 15.8915C52.3004 15.8915 52.1211 15.7544 52.1211 15.4972C52.1211 15.2401 52.2914 15.1115 52.6814 15.1115H52.9996V14.9572C52.9996 14.7944 52.8921 14.7258 52.6455 14.7258C52.5448 14.7245 52.4441 14.7331 52.3452 14.7515C52.3094 14.7515 52.2869 14.7515 52.2735 14.7515C52.26 14.7515 52.2735 14.7215 52.2735 14.6915V14.6701C52.2735 14.6101 52.2735 14.593 52.3587 14.5758C52.4561 14.5576 52.5552 14.5489 52.6545 14.5501C53.0355 14.5501 53.2282 14.6915 53.2282 14.9787V15.4972C53.2103 15.763 53.031 15.8915 52.6366 15.8915ZM52.6814 15.1201C52.2959 15.1201 52.1256 15.2358 52.1256 15.4972C52.1256 15.7587 52.3004 15.883 52.6366 15.883C52.7927 15.8987 52.95 15.8656 53.0848 15.7887C53.1334 15.7517 53.1716 15.7038 53.1959 15.6491C53.2202 15.5945 53.2297 15.5349 53.2238 15.4758V14.9572C53.2273 14.8992 53.2161 14.8412 53.1911 14.7882C53.1662 14.7353 53.1281 14.6888 53.0803 14.653C52.9522 14.5795 52.8036 14.5451 52.6545 14.5544C52.5552 14.5532 52.4561 14.5618 52.3587 14.5801C52.2914 14.5801 52.278 14.6058 52.278 14.6658V14.6872C52.278 14.7172 52.278 14.7344 52.278 14.743C52.278 14.7515 52.3094 14.743 52.3452 14.743C52.4439 14.7227 52.5446 14.7126 52.6455 14.713C52.8965 14.713 53.0041 14.7858 53.0041 14.953V15.1158L52.6814 15.1201ZM52.6366 15.7201C52.4259 15.7201 52.3273 15.6472 52.3273 15.4972C52.3273 15.3472 52.4349 15.2658 52.6814 15.2658H53.0041V15.4672C53.0041 15.6772 52.8652 15.7201 52.6366 15.7201ZM52.6814 15.2915C52.4349 15.2915 52.3318 15.3558 52.3318 15.5144C52.3318 15.673 52.4304 15.733 52.6366 15.733C52.8428 15.733 52.9996 15.6644 52.9996 15.4844V15.2915H52.6814ZM52.6814 14.4344C52.6276 14.4344 52.6231 14.4344 52.6142 14.383C52.6052 14.3315 52.641 14.2887 52.6993 14.2287L52.7397 14.1901C52.7485 14.1833 52.7559 14.1748 52.7612 14.1653C52.7666 14.1557 52.77 14.1452 52.771 14.1344C52.771 14.0872 52.771 14.0701 52.7262 14.0658C52.6903 14.0668 52.655 14.0756 52.6231 14.0915C52.5873 14.0915 52.5648 14.0915 52.5424 14.0615V14.0401C52.5424 13.9972 52.5424 13.9844 52.5828 13.9715C52.6336 13.9504 52.6887 13.9402 52.7441 13.9415C52.7964 13.9401 52.8473 13.9568 52.8876 13.9887C52.9058 14.0084 52.9195 14.0316 52.928 14.0566C52.9365 14.0817 52.9395 14.1082 52.9369 14.1344C52.9328 14.1631 52.9228 14.1908 52.9074 14.2159C52.892 14.2409 52.8716 14.2627 52.8472 14.2801C52.81 14.3029 52.7829 14.338 52.771 14.3787C52.77 14.392 52.764 14.4045 52.7541 14.4139C52.7443 14.4234 52.7312 14.4291 52.7172 14.4301L52.6814 14.4344ZM52.7128 14.0615C52.7397 14.0615 52.7666 14.0615 52.7666 14.1344C52.7626 14.1579 52.7498 14.1792 52.7307 14.1944L52.6904 14.233C52.6321 14.2887 52.6007 14.3187 52.6052 14.3787C52.6097 14.4387 52.6052 14.4258 52.6679 14.4258C52.6804 14.4241 52.6919 14.4186 52.7008 14.4101C52.7097 14.4016 52.7154 14.3906 52.7172 14.3787C52.7289 14.3367 52.7559 14.3002 52.7934 14.2758C52.8187 14.2615 52.8404 14.2422 52.8574 14.2193C52.8744 14.1965 52.8862 14.1704 52.8921 14.143C52.8943 14.1174 52.8911 14.0917 52.8826 14.0674C52.8742 14.0431 52.8606 14.0207 52.8428 14.0015C52.8048 13.9688 52.7548 13.9519 52.7038 13.9544C52.6484 13.953 52.5933 13.9633 52.5424 13.9844C52.5111 13.9844 52.4931 14.0101 52.5066 14.0487C52.5066 14.0872 52.5469 14.0872 52.5783 14.0787C52.6204 14.0606 52.6672 14.0546 52.7128 14.0615Z" fill="#009EDB"/>
<path d="M53.7033 15.78C53.7033 15.8486 53.7033 15.8615 53.6136 15.8615H53.5822C53.515 15.8615 53.4971 15.8615 53.4971 15.78V15.0386C53.4971 14.7129 53.6898 14.55 54.0663 14.55C54.4429 14.55 54.6356 14.7215 54.6356 15.0386V15.78C54.6356 15.8486 54.6356 15.8615 54.5459 15.8615H54.5146C54.4384 15.8615 54.4249 15.8615 54.4249 15.78V15.0386C54.4249 14.8286 54.3442 14.7343 54.0663 14.7343C53.7884 14.7343 53.7033 14.8329 53.7033 15.0386V15.78Z" fill="#009EDB"/>
<path d="M54.5459 15.8572H54.5145C54.4383 15.8572 54.4249 15.8572 54.4249 15.7715V15.0386C54.4249 14.8201 54.3262 14.7386 54.0663 14.7386C53.8063 14.7386 53.7032 14.8201 53.7032 15.0386V15.7801C53.7032 15.8486 53.7032 15.8658 53.6135 15.8658H53.5822C53.5149 15.8658 53.4925 15.8658 53.4925 15.7801V15.0386C53.4925 14.7129 53.6853 14.5458 54.0663 14.5458C54.1462 14.5379 54.2269 14.5452 54.3038 14.5673C54.3807 14.5894 54.4523 14.6258 54.5145 14.6744C54.563 14.7222 54.6002 14.7796 54.6234 14.8424C54.6466 14.9053 54.6553 14.9722 54.649 15.0386V15.7801C54.6355 15.8572 54.6221 15.8572 54.5459 15.8572ZM54.0663 14.7215C54.3307 14.7215 54.4293 14.8072 54.4293 15.0301V15.7715C54.4293 15.8401 54.4293 15.8486 54.5145 15.8486H54.5459C54.6176 15.8486 54.631 15.8486 54.631 15.7715V15.0386C54.6365 14.9733 54.6277 14.9076 54.6054 14.8457C54.583 14.7837 54.5475 14.7268 54.5011 14.6786C54.4385 14.6308 54.3668 14.5952 54.2899 14.5739C54.213 14.5525 54.1324 14.5459 54.0528 14.5544C53.8928 14.537 53.732 14.5801 53.6046 14.6744C53.5547 14.7216 53.516 14.7787 53.4913 14.8415C53.4665 14.9044 53.4563 14.9716 53.4611 15.0386V15.7801C53.4611 15.8486 53.4836 15.8572 53.5463 15.8572H53.5777C53.6494 15.8572 53.6629 15.8572 53.6629 15.7801V15.0386C53.6987 14.8158 53.7884 14.7301 54.0663 14.7301V14.7215Z" fill="#009EDB"/>
<path d="M55.707 14.1428C55.707 14.07 55.707 14.0571 55.7967 14.0571H55.8281C55.8998 14.0571 55.9132 14.0571 55.9132 14.1428V14.7471C55.9649 14.6824 56.0337 14.6321 56.1124 14.6012C56.1912 14.5703 56.2772 14.56 56.3615 14.5714C56.6931 14.5714 56.8635 14.7214 56.8635 15.03V15.8014C56.8635 15.87 56.8635 15.8828 56.7783 15.8828H56.7425C56.6707 15.8828 56.6573 15.8828 56.6573 15.8014V15.03C56.6573 14.8243 56.5587 14.7343 56.3077 14.7343C56.0567 14.7343 55.9311 14.8328 55.9311 15.0728V15.78C55.9311 15.8486 55.9311 15.8614 55.846 15.8614H55.8146C55.7429 15.8614 55.725 15.8614 55.725 15.78L55.707 14.1428Z" fill="#009EDB"/>
<path d="M56.7604 15.857H56.7245C56.6528 15.857 56.6349 15.857 56.6349 15.7713V15.0299C56.6349 14.8199 56.5363 14.7384 56.2897 14.7384C56.0432 14.7384 55.9177 14.837 55.9177 15.0727V15.7799C55.9177 15.8484 55.9177 15.8656 55.8281 15.8656H55.7967C55.7294 15.8656 55.707 15.8656 55.707 15.7799V14.1427C55.707 14.0656 55.707 14.0527 55.7967 14.0527H55.8281C55.8998 14.0527 55.9177 14.0527 55.9177 14.1427V14.7384C55.9702 14.6749 56.0392 14.6256 56.1179 14.5955C56.1965 14.5654 56.2821 14.5556 56.3659 14.567C56.7021 14.567 56.8724 14.7213 56.8724 15.0299V15.8013C56.85 15.857 56.8321 15.857 56.7604 15.857ZM56.3121 14.7213C56.5632 14.7213 56.6663 14.8113 56.6663 15.0213V15.7713C56.6663 15.8399 56.6663 15.8484 56.7469 15.8484H56.7828C56.8545 15.8484 56.8635 15.8484 56.8635 15.7713V14.9999C56.8635 14.6956 56.6976 14.5456 56.3659 14.5456C56.2816 14.5342 56.1957 14.5445 56.1169 14.5754C56.0381 14.6062 55.9694 14.6566 55.9177 14.7213V14.1427C55.9177 14.0742 55.9177 14.0613 55.837 14.0613H55.8056C55.7384 14.0613 55.7205 14.0613 55.7205 14.1427V15.8013C55.7205 15.8699 55.7205 15.8784 55.8056 15.8784H55.837C55.9043 15.8784 55.9177 15.8784 55.9177 15.8013V15.0727C55.9087 14.8327 56.0298 14.7299 56.2897 14.7299L56.3121 14.7213Z" fill="#009EDB"/>
<path d="M57.1367 15.3386V15.0986C57.1367 14.7343 57.3339 14.5501 57.7374 14.5501C57.8488 14.5343 57.9627 14.5533 58.062 14.6043C58.1613 14.6552 58.2408 14.7354 58.2887 14.8329C58.329 14.8329 58.3694 14.7643 58.3694 14.6272C58.3694 14.5886 58.3694 14.5758 58.4321 14.5758H58.4769C58.5263 14.5758 58.5352 14.5758 58.5352 14.6272C58.5352 14.8372 58.4456 14.9401 58.3201 14.9743C58.3248 15.0157 58.3248 15.0573 58.3201 15.0986V15.3386C58.3201 15.7072 58.1228 15.8872 57.7284 15.8872C57.3339 15.8872 57.1367 15.6986 57.1367 15.3386ZM58.1273 15.0986C58.1273 14.8458 58.0332 14.7343 57.7374 14.7343C57.4415 14.7343 57.3384 14.8458 57.3384 15.0986V15.3386C57.3384 15.5915 57.437 15.7029 57.7374 15.7029C58.0377 15.7029 58.1273 15.5915 58.1273 15.3386V15.0986Z" fill="#009EDB"/>
<path d="M57.7372 15.8915C57.3249 15.8915 57.1321 15.7158 57.1321 15.3387V15.0987C57.125 15.021 57.1349 14.9428 57.1611 14.869C57.1874 14.7952 57.2294 14.7275 57.2845 14.6701C57.4101 14.5713 57.5705 14.5222 57.7328 14.5329C58.0286 14.5329 58.2034 14.6229 58.2841 14.8158C58.3379 14.7944 58.3603 14.7258 58.3603 14.6144C58.3603 14.5715 58.3603 14.5587 58.4275 14.5587H58.4723C58.5216 14.5587 58.5351 14.5587 58.5351 14.6144C58.5351 14.8029 58.4634 14.9229 58.3199 14.9658C58.3223 15.0058 58.3223 15.0458 58.3199 15.0858V15.3258C58.3317 15.4019 58.3249 15.4797 58.2999 15.5529C58.275 15.626 58.2326 15.6927 58.1761 15.7475C58.1196 15.8024 58.0505 15.8439 57.9744 15.8689C57.8982 15.8939 57.817 15.9016 57.7372 15.8915ZM57.7372 14.5544C57.5754 14.5411 57.4146 14.5888 57.289 14.6872C57.2337 14.7444 57.1919 14.8122 57.1664 14.8862C57.1409 14.9601 57.1322 15.0384 57.1411 15.1158V15.3558C57.1411 15.7287 57.3293 15.9001 57.7372 15.9001C57.899 15.9129 58.0596 15.8653 58.1855 15.7672C58.2407 15.7101 58.2826 15.6422 58.3081 15.5683C58.3336 15.4944 58.3422 15.4161 58.3334 15.3387V15.0987C58.3358 15.0573 58.3358 15.0158 58.3334 14.9744C58.4768 14.9315 58.5441 14.8158 58.5441 14.6272C58.5441 14.5887 58.5441 14.5801 58.4903 14.5801H58.4454C58.4006 14.5801 58.3872 14.5801 58.3872 14.6272C58.3872 14.7429 58.3603 14.8115 58.302 14.8372C58.2034 14.6444 58.0331 14.5715 57.7372 14.5715V14.5544ZM57.7372 15.7072C57.4504 15.7072 57.3383 15.6044 57.3383 15.3387V15.0987C57.3383 14.8329 57.4459 14.7301 57.7372 14.7301C58.0286 14.7301 58.1272 14.8329 58.1272 15.0987V15.3387C58.1272 15.6087 58.0241 15.7072 57.7372 15.7072ZM57.7372 14.7387C57.4504 14.7387 57.3428 14.8329 57.3428 15.0987V15.3387C57.3428 15.6001 57.4548 15.6987 57.7372 15.6987C58.0196 15.6987 58.1227 15.6044 58.1227 15.3387V15.0987C58.1227 14.8329 58.0196 14.7387 57.7372 14.7387Z" fill="#009EDB"/>
<path d="M58.8265 15.78C58.8265 15.8486 58.8265 15.8615 58.7369 15.8615H58.719C58.6517 15.8615 58.6338 15.8615 58.6338 15.78V15.0386C58.6338 14.7129 58.8221 14.55 59.2031 14.55C59.5841 14.55 59.7723 14.7215 59.7723 15.0386V15.78C59.7723 15.8486 59.7723 15.8615 59.6827 15.8615H59.6513C59.5751 15.8615 59.5616 15.8615 59.5616 15.78V15.0386C59.5616 14.8286 59.481 14.7343 59.2031 14.7343C58.9251 14.7343 58.84 14.8329 58.84 15.0386L58.8265 15.78Z" fill="#009EDB"/>
<path d="M59.6689 15.857H59.6375C59.5613 15.857 59.5479 15.857 59.5479 15.7713V15.0384C59.5479 14.8198 59.4493 14.7384 59.1893 14.7384C58.9293 14.7384 58.8262 14.8198 58.8262 15.0384V15.7798C58.8262 15.8484 58.8262 15.8655 58.7366 15.8655H58.7187C58.6514 15.8655 58.629 15.8655 58.629 15.7798V15.0384C58.629 14.7127 58.8218 14.5455 59.2028 14.5455C59.2826 14.5377 59.3634 14.545 59.4403 14.5671C59.5172 14.5891 59.5888 14.6255 59.651 14.6741C59.6995 14.722 59.7367 14.7793 59.7599 14.8422C59.7831 14.9051 59.7918 14.972 59.7855 15.0384V15.7798C59.7586 15.857 59.7451 15.857 59.6689 15.857ZM59.1893 14.7213C59.4538 14.7213 59.5524 14.807 59.5524 15.0298V15.7713C59.5524 15.8398 59.5524 15.8484 59.6375 15.8484H59.6689C59.7406 15.8484 59.7541 15.8484 59.7541 15.7713V15.0384C59.7595 14.9731 59.7508 14.9074 59.7284 14.8454C59.7061 14.7835 59.6705 14.7266 59.6241 14.6784C59.5616 14.6305 59.4898 14.5949 59.4129 14.5736C59.336 14.5523 59.2555 14.5457 59.1759 14.5541C59.0158 14.5368 58.855 14.5798 58.7276 14.6741C58.6777 14.7214 58.6391 14.7784 58.6143 14.8413C58.5896 14.9042 58.5793 14.9714 58.5842 15.0384V15.7798C58.5842 15.8484 58.6066 15.857 58.6694 15.857H58.7187C58.7904 15.857 58.8038 15.857 58.8038 15.7798V15.0384C58.8218 14.8155 58.9249 14.7298 59.1893 14.7298V14.7213Z" fill="#009EDB"/>
</g>
<defs>
<clipPath id="clip0_5804_13846">
<rect width="62" height="18" fill="white"/>
</clipPath>
</defs>
</svg>
