<svg width="241" height="183" viewBox="0 0 241 183" fill="none" xmlns="http://www.w3.org/2000/svg">
<g clip-path="url(#clip0_2075_37781)">
<path d="M122.298 5.16325e-06C141.116 0.741488 155.434 9.14135 164.997 25.2754C167.26 29.0964 169.095 33.2909 169.752 37.8535C170.034 39.8344 169.42 40.9331 167.58 41.588C160.655 44.0776 154.343 47.6551 148.172 51.5736C143.102 54.7885 138.88 58.9993 134.282 62.7662C132.654 64.0976 131.699 63.8108 130.537 62.2683C118.011 45.5822 101.549 34.4059 81.8413 27.7975C78.2211 26.5797 78.042 26.1088 80.137 22.9751C87.7085 11.5823 98.1348 4.17287 111.514 1.08246C115.049 0.273874 118.672 -0.0897773 122.298 5.16325e-06Z" fill="#FFCD00"/>
<path d="M59.9417 78.0181C61.57 82.1747 63.144 86.3422 64.8265 90.4663C67.8915 97.8829 71.7107 104.967 76.2244 111.607C83.1174 121.917 93.1747 127.789 104.806 130.853C131.944 138.013 155.331 131.048 174.718 110.93C180.589 104.758 185.141 97.4609 188.097 89.4813C188.543 88.2303 189.133 87.0352 189.856 85.92C189.343 89.9999 188.222 93.9804 186.529 97.7296C179.066 114.962 166.778 127.752 149.458 134.971C125.078 145.141 101.387 142.771 80.0617 127.221C55.9036 109.62 47.6537 85.146 52.4354 56.0009C52.5765 55.1133 52.7339 54.2257 52.9456 53.3489C53.1952 52.326 53.065 50.8538 54.1831 50.5345C55.5237 50.1503 56.175 51.617 56.7883 52.5046C58.8724 55.3405 61.1482 58.0313 63.5999 60.5581C70.3236 67.7372 77.4699 74.5109 85.0007 80.8433C93.5817 88.1011 95.7745 97.302 94.6618 107.834C94.2709 110.962 93.5728 114.044 92.5776 117.035C91.7581 119.639 91.0633 119.85 88.7132 118.302C81.3534 113.463 76.3546 106.514 71.7086 99.2721C67.6543 92.9506 64.4791 86.169 61.3583 79.3657C61.1086 78.8245 60.8155 78.2833 60.5062 77.742L59.9417 78.0181Z" fill="#40A737"/>
<path d="M131.558 122.085C130.429 92.6583 117.826 69.8184 92.5607 54.1228C82.4491 47.8392 71.3932 44.5377 59.7077 42.9735C56.8636 42.5947 56.6845 42.3511 57.9546 39.829C59.7526 36.1894 61.8265 32.692 64.1583 29.3671C65.043 28.1114 66.0742 27.7434 67.6319 27.9869C80.2384 30.1308 92.2935 34.7456 103.1 41.5644C113.907 48.3832 123.251 57.2707 130.592 67.7131C139.444 80.3333 145.052 94.9283 146.923 110.216C147.396 114.516 147.601 118.842 147.536 123.167C147.536 124.715 147.037 125.749 145.479 126.225C141.772 127.373 138.103 128.634 134.217 129.153C132.29 129.408 131.503 128.921 131.558 126.956C131.612 125.332 131.558 123.703 131.558 122.085Z" fill="#29AB56"/>
<path d="M127.912 121.901C127.912 122.171 127.912 122.442 127.912 122.713C127.804 130.901 128.742 130.073 120.134 129.927C117.963 129.895 115.825 129.489 113.676 129.24C111.966 129.045 111.244 128.26 111.336 126.371C111.971 112.814 108.731 100.241 100.991 89.0266C95.5117 81.0338 88.175 74.4809 79.6068 69.9266C74.3258 67.1014 70.5048 62.5876 66.4015 58.4472C63.5575 55.5787 61.1422 52.288 58.5533 49.1706C58.0539 48.5644 57.2561 47.9149 57.826 47.0598C58.2873 46.367 59.1395 46.7188 59.8505 46.8C95.6072 50.8754 123.206 78.2128 127.462 113.815C127.761 116.5 127.911 119.199 127.912 121.901Z" fill="#29AB56"/>
<path d="M185.53 54.2094C185.915 56.2877 184.743 56.5204 183.69 56.791C174.129 59.2956 165.114 63.5356 157.095 69.2988C152.697 72.4776 148.644 76.1054 145.002 80.1233C143.374 81.8715 142.429 81.6767 141.55 79.5821C140.047 75.9884 137.876 72.7464 135.857 69.4395C134.874 67.8158 134.999 66.7334 136.399 65.4615C148.432 54.2472 162.207 46.0909 178.11 41.6042C179.945 41.0629 180.905 41.5176 181.714 43.2765C183.34 46.7882 184.618 50.4498 185.53 54.2094Z" fill="#29AB56"/>
<path d="M187.749 69.8184C187.657 76.3672 187.597 76.2211 181.725 78.6566C169.811 83.5926 160.15 91.2943 153.284 102.314C152.546 103.499 151.96 105.653 150.679 105.42C149.143 105.144 149.425 102.898 149.1 101.48C148.139 97.2586 147.222 93.0154 145.523 89.032C144.519 86.6722 145.083 85.2001 146.777 83.3166C156.829 72.124 169.127 64.6659 183.57 60.585C186.675 59.7082 186.778 59.7191 187.125 62.8257C187.386 65.1638 187.543 67.4965 187.749 69.8184Z" fill="#29AB56"/>
<path d="M151.146 116.499C151.087 115.052 151.389 113.613 152.025 112.31C158.321 97.4806 169.268 87.4949 184.151 81.601C184.797 81.3466 185.535 80.8541 186.159 81.509C186.783 82.1639 186.371 82.8837 186.186 83.5602C183.858 91.9384 179.673 99.3208 174.289 106.108C169.214 112.5 162.837 117.295 155.96 121.533C155.276 121.955 154.495 122.22 153.789 122.615C152.329 123.411 151.618 123.064 151.569 121.349C151.509 119.725 151.292 118.112 151.146 116.499Z" fill="#29AB56"/>
<path d="M96.9477 89.9466C98.7062 91.2943 99.4498 93.286 100.432 95.0179C105.654 104.257 107.96 114.242 107.759 124.84C107.716 127.156 106.951 127.979 104.611 127.08C101.898 126.052 99.0807 125.386 96.5027 124.044C94.9992 123.259 94.4727 122.204 95.1403 120.494C98.9668 110.714 99.8895 100.76 96.7252 90.6015C96.6818 90.4716 96.8283 90.2876 96.9477 89.9466Z" fill="#29AB56"/>
<path d="M23.9735 169.994C23.9735 177.815 19.1919 182.984 11.9732 182.984C4.75454 182.984 0 177.934 0 170.081C0 162.228 4.69484 157.259 12.0003 157.259C19.3058 157.259 23.9735 162.233 23.9735 169.994ZM17.7915 170.054C17.7915 165.259 15.5934 162.352 12.0003 162.352C8.40729 162.352 6.14943 165.286 6.14943 170.054C6.14943 174.822 8.37473 177.875 12.0003 177.875C15.6259 177.875 17.7915 174.909 17.7915 170.054Z" fill="#00953D"/>
<path d="M26.6934 182.437C26.8714 180.952 26.9494 179.457 26.9267 177.961V168.863C26.968 167.367 26.89 165.871 26.6934 164.387H32.566V165.616C32.5746 165.755 32.5746 165.894 32.566 166.033V166.325C33.2719 165.527 34.1471 164.895 35.128 164.476C36.109 164.056 37.1712 163.86 38.2378 163.9C39.5877 163.846 40.9194 164.226 42.0371 164.983C42.5661 165.359 42.9856 165.869 43.2528 166.46C44.0471 165.611 45.0148 164.942 46.0906 164.497C47.1664 164.053 48.3253 163.844 49.4891 163.884C53.7335 163.862 55.9045 166.157 55.9045 170.649V177.994C55.8835 179.478 55.9614 180.963 56.1379 182.437H49.9342C50.1206 180.953 50.2004 179.457 50.173 177.961V171.862C50.173 169.637 49.5163 168.782 47.8229 168.782C46.3086 168.782 44.9462 169.962 44.2027 171.948V177.994C44.1831 179.479 44.2629 180.963 44.4415 182.437H38.2758C38.4604 180.953 38.5402 179.457 38.5146 177.961V171.862C38.5146 170.617 38.3952 170.054 38.0098 169.551C37.8198 169.304 37.572 169.107 37.2882 168.978C37.0043 168.849 36.693 168.791 36.3816 168.809C34.7533 168.809 33.4127 169.962 32.5823 171.981V177.961C32.5609 179.457 32.6407 180.952 32.8211 182.437H26.6934Z" fill="#00953D"/>
<path d="M59.2363 182.437C59.4192 180.952 59.499 179.457 59.4751 177.961V168.863C59.5181 167.367 59.4382 165.87 59.2363 164.387H65.1307V165.616C65.1302 165.755 65.1193 165.895 65.0981 166.033V166.325C65.804 165.527 66.6792 164.895 67.6602 164.475C68.6411 164.056 69.7034 163.86 70.7699 163.9C72.12 163.845 73.4519 164.225 74.5692 164.983C75.0997 165.358 75.5195 165.868 75.785 166.46C76.5798 165.61 77.5484 164.94 78.6252 164.496C79.702 164.052 80.862 163.843 82.0267 163.884C86.2764 163.884 88.442 166.195 88.442 170.671V178.015C88.4198 179.5 88.4996 180.985 88.6808 182.459H82.4989C82.6853 180.974 82.7651 179.479 82.7377 177.983V171.862C82.7377 169.637 82.0864 168.782 80.393 168.782C78.8787 168.782 77.5109 169.962 76.7674 171.948V177.994C76.7478 179.478 76.8276 180.963 77.0062 182.437H70.8187C71.0034 180.953 71.0832 179.457 71.0576 177.961V171.862C71.0576 170.617 70.9382 170.054 70.5528 169.551C70.3631 169.303 70.1153 169.107 69.8314 168.977C69.5475 168.848 69.2361 168.79 68.9245 168.809C67.2963 168.809 65.9556 169.962 65.1252 171.981V177.961C65.1023 179.457 65.1803 180.952 65.3586 182.437H59.2363Z" fill="#00953D"/>
<path d="M103.693 170.054C103.693 168.63 102.83 167.981 100.871 167.981C98.9118 167.981 97.9619 168.603 97.5115 170.054L91.8397 169.134C92.4367 167.386 93.088 166.428 94.3363 165.551C95.9646 164.425 98.1356 163.862 101.018 163.862C103.189 163.862 105.36 164.279 106.516 164.901C108.415 165.935 109.23 167.564 109.23 170.232V178.232C109.21 179.636 109.279 181.041 109.436 182.437H103.693V181.073C102.027 182.345 100.366 182.854 97.9294 182.854C95.6715 182.854 93.9781 182.313 92.7895 181.23C92.2494 180.711 91.8252 180.084 91.5447 179.39C91.2641 178.696 91.1334 177.951 91.1612 177.203C91.1233 176.357 91.3029 175.515 91.6828 174.757C92.0628 174 92.6305 173.351 93.3322 172.874C94.8465 171.791 96.8384 171.185 99.5088 170.947C100.67 170.828 101.56 170.801 103.699 170.741L103.693 170.054ZM103.693 174.53C101.05 174.584 99.7693 174.735 98.5535 175.12C97.468 175.477 96.833 176.202 96.833 177.074C96.833 178.156 97.7231 178.762 99.27 178.762C100.482 178.766 101.661 178.37 102.624 177.636C102.961 177.359 103.233 177.011 103.421 176.617C103.609 176.224 103.707 175.794 103.71 175.358L103.693 174.53Z" fill="#00953D"/>
<path d="M112.617 182.437C112.798 180.952 112.878 179.457 112.856 177.961V168.863C112.891 167.367 112.811 165.871 112.617 164.387H118.528V165.616C118.528 165.794 118.528 166.238 118.528 166.444C119.316 165.623 120.267 164.975 121.32 164.542C122.373 164.109 123.506 163.899 124.645 163.927C126.696 163.927 128.33 164.468 129.432 165.589C130.615 166.769 131.125 168.224 131.125 170.563V177.999C131.117 179.483 131.195 180.967 131.359 182.443H125.155C125.334 180.957 125.414 179.462 125.394 177.967V171.894C125.394 170.703 125.274 170.205 124.916 169.697C124.68 169.412 124.379 169.189 124.038 169.044C123.697 168.9 123.326 168.84 122.957 168.869C121.29 168.869 119.809 169.908 118.528 171.981V177.961C118.514 179.457 118.594 180.952 118.767 182.437H112.617Z" fill="#00953D"/>
<path d="M140.645 164.366C140.451 165.849 140.371 167.346 140.406 168.842V177.961C140.401 179.456 140.48 180.951 140.645 182.437H134.436C134.615 180.952 134.693 179.457 134.669 177.961V168.863C134.697 167.368 134.619 165.872 134.436 164.387L140.645 164.366ZM140.574 157.79V162.233H134.522V157.79H140.574Z" fill="#00953D"/>
<path d="M160.112 177.285C160.048 179.006 160.128 180.729 160.351 182.437H153.963C154.192 180.759 154.281 179.064 154.229 177.371V162.027C154.256 160.58 154.176 159.133 153.99 157.698C155.206 157.752 156.042 157.784 158.332 157.784H166.918C168.584 157.831 170.251 157.762 171.906 157.579V163.207C170.259 163.033 168.602 162.962 166.946 162.996H160.112V167.867H165.697C167.285 167.898 168.873 167.827 170.452 167.656V173.139C168.873 172.975 167.285 172.906 165.697 172.933H160.112V177.285Z" fill="#00953D"/>
<path d="M186.057 170.054C186.057 168.63 185.194 167.981 183.234 167.981C181.275 167.981 180.32 168.603 179.875 170.054L174.225 169.134C174.816 167.386 175.473 166.428 176.716 165.551C178.344 164.425 180.515 163.862 183.403 163.862C185.601 163.862 187.745 164.279 188.901 164.901C190.8 165.935 191.614 167.564 191.614 170.232V178.232C191.598 179.636 191.667 181.041 191.821 182.437H186.057V181.073C184.39 182.345 182.73 182.854 180.293 182.854C178.035 182.854 176.341 182.313 175.153 181.23C174.613 180.711 174.188 180.084 173.908 179.39C173.627 178.696 173.497 177.951 173.524 177.203C173.487 176.357 173.667 175.515 174.047 174.758C174.427 174 174.994 173.352 175.695 172.874C177.215 171.791 179.202 171.185 181.877 170.947C183.033 170.828 183.929 170.801 186.067 170.741L186.057 170.054ZM186.057 174.53C183.408 174.584 182.132 174.735 180.917 175.12C179.831 175.477 179.191 176.202 179.191 177.074C179.191 178.156 180.081 178.762 181.628 178.762C182.842 178.767 184.023 178.371 184.987 177.636C185.324 177.358 185.595 177.01 185.783 176.617C185.97 176.223 186.069 175.794 186.073 175.358L186.057 174.53Z" fill="#00953D"/>
<path d="M208.349 169.697C207.374 169.357 206.352 169.174 205.32 169.155C204.643 169.127 203.969 169.259 203.354 169.542C202.739 169.824 202.2 170.248 201.781 170.779C201.238 171.488 201.01 172.111 200.891 173.415V178.037C200.868 179.522 200.948 181.007 201.13 182.48H194.98C195.16 180.995 195.238 179.5 195.214 178.005V168.863C195.251 167.367 195.173 165.871 194.98 164.387H200.891V166.698C202.346 164.804 204.148 163.992 206.829 163.992C207.82 163.986 208.809 164.105 209.771 164.344L208.349 169.697Z" fill="#00953D"/>
<path d="M211.561 182.437C211.743 180.952 211.823 179.457 211.799 177.961V168.863C211.842 167.367 211.762 165.87 211.561 164.387H217.444V165.616C217.444 165.755 217.435 165.894 217.417 166.032V166.325C218.121 165.528 218.993 164.896 219.971 164.476C220.949 164.056 222.008 163.857 223.072 163.895C224.422 163.841 225.754 164.22 226.872 164.977C227.401 165.354 227.82 165.864 228.087 166.455C228.882 165.605 229.849 164.936 230.925 164.492C232.001 164.047 233.16 163.838 234.324 163.878C238.574 163.878 240.745 166.189 240.745 170.665V178.01C240.724 179.495 240.801 180.979 240.978 182.453H234.823C235.01 180.969 235.089 179.473 235.062 177.977V171.862C235.062 169.637 234.405 168.782 232.712 168.782C231.197 168.782 229.83 169.962 229.092 171.948V177.994C229.073 179.478 229.151 180.963 229.325 182.437H223.148C223.333 180.953 223.413 179.457 223.387 177.961V171.862C223.387 170.617 223.268 170.054 222.882 169.55C222.692 169.304 222.444 169.108 222.16 168.979C221.876 168.85 221.566 168.792 221.254 168.809C219.626 168.809 218.28 169.962 217.455 171.981V177.961C217.434 179.457 217.513 180.952 217.694 182.437H211.561Z" fill="#00953D"/>
</g>
<defs>
<clipPath id="clip0_2075_37781">
<rect width="241" height="183" fill="white"/>
</clipPath>
</defs>
</svg>
