<svg width="167" height="39" viewBox="0 0 167 39" fill="none" xmlns="http://www.w3.org/2000/svg">
<path d="M10.8875 1.81445C4.61892 1.81445 0 6.23306 0 12.207C0 18.181 4.61892 22.5996 10.8875 22.5996C17.156 22.5996 21.7985 18.2163 21.7985 12.207C21.7985 6.19771 17.1501 1.81445 10.8875 1.81445ZM10.8875 19.3121C9.00306 19.3121 7.19584 18.5636 5.86337 17.2311C4.5309 15.8986 3.78233 14.0914 3.78233 12.207C3.78233 10.3226 4.5309 8.51541 5.86337 7.18294C7.19584 5.85047 9.00306 5.1019 10.8875 5.1019C12.7719 5.1019 14.5791 5.85047 15.9115 7.18294C17.244 8.51541 17.9926 10.3226 17.9926 12.207C17.9926 14.0914 17.244 15.8986 15.9115 17.2311C14.5791 18.5636 12.7719 19.3121 10.8875 19.3121Z" fill="white"/>
<path d="M44.151 6.72222C43.0566 6.68309 41.9678 6.89412 40.9672 7.33924C39.9667 7.78436 39.081 8.45185 38.3773 9.29091C37.311 7.55881 35.4316 6.72222 33.181 6.72222C32.2324 6.67968 31.2862 6.84961 30.4116 7.21962C29.5371 7.58963 28.7562 8.15036 28.1261 8.86083V6.89307H24.6914V22.317H28.2793V14.4872C28.2793 11.4236 29.8995 9.86827 32.2914 9.86827C34.4889 9.86827 35.7615 11.1997 35.7615 13.9393V22.317H39.373V14.4872C39.373 11.4236 41.0167 9.86827 43.3851 9.86827C45.5767 9.86827 46.8493 11.1997 46.8493 13.9393V22.317H50.4607V13.4798C50.4784 8.83137 47.8803 6.72222 44.151 6.72222Z" fill="white"/>
<path d="M73.8439 6.72198C72.7487 6.68326 71.6591 6.89444 70.6577 7.3395C69.6563 7.78457 68.7694 8.45183 68.0643 9.29067C66.998 7.55858 65.1186 6.72198 62.868 6.72198C61.9195 6.68028 60.9736 6.8506 60.0991 7.22055C59.2247 7.59051 58.4438 8.15078 57.8131 8.86059V6.89283H54.3784V22.3167H57.9899V14.487C57.9899 11.4234 59.6042 9.86803 62.002 9.86803C64.1995 9.86803 65.4662 11.1995 65.4662 13.939V22.3167H69.0718V14.487C69.0718 11.4234 70.7214 9.86803 73.0898 9.86803C75.2814 9.86803 76.5539 11.1995 76.5539 13.939V22.3167H80.1654V13.4795C80.1654 8.83114 77.5614 6.72198 73.8439 6.72198Z" fill="white"/>
<path d="M89.9565 6.72217C87.4703 6.72217 85.0784 7.35845 83.4288 8.62511L84.8427 11.2527C86.1917 10.2434 87.8359 9.70711 89.5206 9.72683C92.0951 9.72683 93.3618 10.9699 93.3618 13.0732V13.3029H89.3792C84.7013 13.3029 82.9692 15.3237 82.9692 17.8983C82.9692 20.5848 85.1903 22.5172 88.7134 22.5172C91.0229 22.5172 92.6961 21.7631 93.568 20.4375V22.3169H96.9733V13.2735C96.9733 8.83131 94.4046 6.72217 89.9565 6.72217ZM93.3618 17.4918C92.7727 19.0766 91.2232 19.8896 89.4675 19.8896C87.6176 19.8896 86.5218 19.053 86.5218 17.751C86.5218 16.6257 87.1934 15.7008 89.6443 15.7008H93.3677L93.3618 17.4918Z" fill="white"/>
<path d="M109.623 6.72217C107.366 6.72217 105.499 7.47038 104.32 8.88434V6.89302H100.886V22.3169H104.497V14.5166C104.497 11.4236 106.223 9.86822 108.792 9.86822C111.107 9.86822 112.462 11.1997 112.462 13.9392V22.3169H116.062V13.4797C116.062 8.83132 113.317 6.72217 109.623 6.72217Z" fill="white"/>
<path d="M121.753 0.0235562C121.327 0.051736 120.919 0.204817 120.58 0.463637C120.241 0.722457 119.986 1.07551 119.847 1.47863C119.708 1.88174 119.69 2.31699 119.797 2.72991C119.904 3.14283 120.13 3.51506 120.448 3.80002C120.765 4.08499 121.159 4.27002 121.581 4.33196C122.003 4.3939 122.434 4.33 122.82 4.14825C123.206 3.9665 123.529 3.67499 123.75 3.31018C123.971 2.94538 124.08 2.5235 124.062 2.09735C124.053 1.80756 123.985 1.52269 123.862 1.25986C123.74 0.997037 123.566 0.761693 123.35 0.567972C123.134 0.37425 122.881 0.226159 122.607 0.132601C122.333 0.0390428 122.042 0.00195167 121.753 0.0235562ZM119.932 6.89301V22.3169H123.544V6.89301H119.932Z" fill="white"/>
<path d="M127.556 0.889648V22.317H131.168V0.889648H127.556Z" fill="white"/>
<path d="M137.001 0.0235562C136.576 0.051736 136.168 0.204817 135.829 0.463637C135.49 0.722457 135.235 1.07551 135.096 1.47863C134.956 1.88174 134.939 2.31699 135.046 2.72991C135.152 3.14283 135.379 3.51506 135.696 3.80002C136.013 4.08499 136.408 4.27002 136.83 4.33196C137.252 4.3939 137.683 4.33 138.068 4.14825C138.454 3.9665 138.778 3.67499 138.999 3.31018C139.22 2.94538 139.328 2.5235 139.311 2.09735C139.301 1.80756 139.233 1.52269 139.111 1.25986C138.988 0.997037 138.814 0.761693 138.598 0.567972C138.383 0.37425 138.13 0.226159 137.855 0.132601C137.581 0.0390428 137.291 0.00195167 137.001 0.0235562ZM135.181 6.89301V22.3169H138.792V6.89301H135.181Z" fill="white"/>
<path d="M149.054 3.62936C149.766 3.63806 150.459 3.85743 151.045 4.25975L152.053 1.54967C151.073 0.95182 149.936 0.6605 148.789 0.713077C145.207 0.713077 143.275 2.82223 143.275 6.05076V7.03463H140.735V9.92145H143.275V22.3407H146.886V9.89789H151.01V7.01107H146.768V6.0861C146.792 4.44238 147.569 3.62936 149.054 3.62936Z" fill="white"/>
<path d="M167 14.6875C167 9.86822 163.713 6.72217 159.206 6.72217C154.699 6.72217 151.235 10.0155 151.235 14.605C151.235 19.1944 154.587 22.5172 159.754 22.5172C162.411 22.5172 164.579 21.6512 165.964 20.0075L164.031 17.7687C163.49 18.3272 162.837 18.7655 162.116 19.0548C161.394 19.3441 160.619 19.478 159.842 19.4478C157.156 19.4478 155.282 17.9985 154.846 15.7479H166.947C166.977 15.4121 167 14.982 167 14.6875ZM154.817 13.3619C154.945 12.2999 155.467 11.3248 156.28 10.6297C157.093 9.9346 158.137 9.5703 159.206 9.60899C160.274 9.56111 161.32 9.92289 162.13 10.6204C162.941 11.3179 163.454 12.2985 163.566 13.3619H154.817Z" fill="white"/>
<path d="M29.4042 31.3188V35.3486L26.1226 31.3188H25.2153V37.2692H26.3111V33.2395L29.5927 37.2692H30.5V31.3188H29.4042Z" fill="white"/>
<path d="M35.2488 29.687C35.2169 29.8686 35.1221 30.0331 34.9809 30.1517C34.8398 30.2702 34.6613 30.3352 34.477 30.3352C34.2927 30.3352 34.1142 30.2702 33.9731 30.1517C33.8319 30.0331 33.7371 29.8686 33.7052 29.687H32.9923C33.0544 30.0325 33.2359 30.3451 33.5051 30.5703C33.7744 30.7955 34.1142 30.9189 34.4652 30.9189C34.8162 30.9189 35.1561 30.7955 35.4253 30.5703C35.6945 30.3451 35.876 30.0325 35.9381 29.687H35.2488ZM35.0249 31.3366H33.935L31.2603 37.287H32.4032L32.9923 35.9084H35.9381L36.5272 37.287H37.7055L35.0249 31.3366ZM33.3576 35.0424L34.4711 32.4442L35.5905 35.0424H33.3576Z" fill="white"/>
<path d="M42.6542 31.3188V35.3486L39.3726 31.3188H38.4653V37.2692H39.5611V33.2395L42.8427 37.2692H43.75V31.3188H42.6542Z" fill="white"/>
<path d="M49.4119 36.097C49.0389 36.3087 48.6152 36.4147 48.1864 36.4034C47.6317 36.4034 47.0998 36.183 46.7075 35.7908C46.3153 35.3986 46.095 34.8666 46.095 34.3119C46.095 33.7572 46.3153 33.2252 46.7075 32.833C47.0998 32.4408 47.6317 32.2204 48.1864 32.2204C48.492 32.2138 48.7956 32.2712 49.0776 32.3889C49.3597 32.5066 49.614 32.682 49.8243 32.9038L50.5195 32.2204C50.074 31.7732 49.5091 31.4636 48.8924 31.3288C48.2757 31.194 47.6331 31.2395 47.0416 31.4601C46.4501 31.6807 45.9347 32.0669 45.5568 32.5726C45.1789 33.0783 44.9547 33.6821 44.9108 34.3119C44.9069 34.7271 44.9883 35.1387 45.1499 35.5212C45.3115 35.9037 45.5499 36.249 45.8503 36.5356C46.1508 36.8222 46.5069 37.0441 46.8965 37.1876C47.2862 37.331 47.7012 37.393 48.1157 37.3696C48.9639 37.3914 49.7944 37.1256 50.4723 36.6155V34.2589H49.4119V36.097Z" fill="white"/>
<path d="M55.3797 36.3502V31.3188H54.2544V37.2692H58.4727V36.3325L55.3797 36.3502Z" fill="white"/>
<path d="M65.0592 30.0288L64.4053 30.2704C64.5167 30.4224 64.5766 30.6062 64.5761 30.7947C64.5822 30.8664 64.5727 30.9386 64.5484 31.0063C64.5241 31.074 64.4854 31.1357 64.4351 31.1871C64.3848 31.2385 64.324 31.2785 64.2568 31.3044C64.1896 31.3302 64.1177 31.3412 64.0459 31.3367H63.333V34.6536C63.333 35.8791 62.791 36.4211 61.8307 36.4211C60.8704 36.4211 60.3166 35.8967 60.3166 34.6536V31.319H59.209V34.6772C59.209 36.4093 60.187 37.3519 61.8189 37.3519C63.4509 37.3519 64.4229 36.4093 64.4229 34.6772V32.0319C64.6905 31.9649 64.9261 31.8062 65.0887 31.5833C65.2512 31.3605 65.3305 31.0876 65.3126 30.8124C65.3151 30.5307 65.2262 30.2557 65.0592 30.0288Z" fill="white"/>
<path d="M68.8298 37.9942C68.7621 37.9933 68.6948 38.0063 68.6322 38.0322C68.5696 38.0581 68.5128 38.0964 68.4655 38.1449C68.4181 38.1934 68.3811 38.251 68.3566 38.3142C68.3321 38.3774 68.3208 38.4449 68.3232 38.5126C68.3367 38.6383 68.3962 38.7546 68.4903 38.8391C68.5844 38.9236 68.7063 38.9703 68.8328 38.9703C68.9592 38.9703 69.0812 38.9236 69.1753 38.8391C69.2693 38.7546 69.3288 38.6383 69.3424 38.5126C69.3448 38.4444 69.3333 38.3764 69.3084 38.3128C69.2836 38.2492 69.246 38.1913 69.198 38.1427C69.15 38.0942 69.0926 38.056 69.0293 38.0304C68.966 38.0049 68.8981 37.9925 68.8298 37.9942ZM70.9567 31.9849C71.2409 31.9509 71.5017 31.8104 71.6865 31.5918C71.8713 31.3731 71.9663 31.0925 71.9523 30.8066C71.9511 30.5209 71.8605 30.2427 71.6931 30.0112L71.0509 30.2469C71.1581 30.4033 71.2174 30.5875 71.2218 30.7771C71.2218 31.1542 70.9508 31.3663 70.4618 31.3663C69.9728 31.3663 69.5368 31.2484 68.877 31.2484C68.2769 31.2681 67.6958 31.464 67.2064 31.8117C66.7169 32.1594 66.3406 32.6436 66.1244 33.2037C65.9083 33.7639 65.8618 34.3753 65.9909 34.9617C66.1199 35.5481 66.4188 36.0835 66.8501 36.5011C67.2815 36.9188 67.8262 37.2002 68.4165 37.3103C69.0067 37.4204 69.6163 37.3543 70.1692 37.1202C70.7221 36.8861 71.1939 36.4944 71.5256 35.994C71.8574 35.4936 72.0345 34.9065 72.0348 34.3061C72.0412 33.863 71.9477 33.4242 71.761 33.0223C71.5743 32.6204 71.2994 32.2658 70.9567 31.9849ZM68.8298 36.4035C68.4162 36.4035 68.0118 36.2808 67.6679 36.051C67.3239 35.8212 67.0559 35.4946 66.8976 35.1124C66.7393 34.7302 66.6978 34.3097 66.7785 33.904C66.8592 33.4983 67.0584 33.1256 67.3509 32.8331C67.6434 32.5406 68.0161 32.3414 68.4218 32.2607C68.8275 32.18 69.248 32.2214 69.6302 32.3797C70.0124 32.538 70.339 32.8061 70.5688 33.1501C70.7986 33.494 70.9213 33.8983 70.9213 34.312C70.9303 34.5891 70.8824 34.8651 70.7805 35.1229C70.6785 35.3808 70.5248 35.6149 70.3288 35.811C70.1327 36.007 69.8986 36.1607 69.6407 36.2626C69.3829 36.3646 69.1069 36.4125 68.8298 36.4035Z" fill="white"/>
<path d="M77.3959 31.3188V35.3486L74.1202 31.3188H73.207V37.2692H74.3028V33.2395L77.5844 37.2692H78.4976V31.3188H77.3959Z" fill="white"/>
<path d="M84.153 36.0972C83.7817 36.3079 83.3602 36.4138 82.9334 36.4036C82.3788 36.4036 81.8468 36.1832 81.4545 35.791C81.0623 35.3988 80.842 34.8668 80.842 34.3121C80.842 33.7574 81.0623 33.2254 81.4545 32.8332C81.8468 32.441 82.3788 32.2206 82.9334 32.2206C83.239 32.214 83.5426 32.2714 83.8246 32.3891C84.1067 32.5068 84.361 32.6822 84.5713 32.904L85.2724 32.2206C84.9672 31.8963 84.5953 31.6419 84.1824 31.4751C83.7694 31.3083 83.3253 31.233 82.8804 31.2544C82.4629 31.2285 82.0445 31.2883 81.651 31.4303C81.2575 31.5722 80.8973 31.7932 80.5925 32.0797C80.2876 32.3662 80.0447 32.712 79.8787 33.096C79.7126 33.4799 79.627 33.8938 79.627 34.3121C79.627 34.7304 79.7126 35.1443 79.8787 35.5282C80.0447 35.9122 80.2876 36.258 80.5925 36.5445C80.8973 36.831 81.2575 37.052 81.651 37.1939C82.0445 37.3359 82.4629 37.3957 82.8804 37.3698C83.7283 37.3897 84.5582 37.1241 85.237 36.6157V34.2591H84.1883L84.153 36.0972Z" fill="white"/>
<path d="M91.8131 36.4036C91.2584 36.4036 90.7265 36.1832 90.3342 35.791C89.942 35.3987 89.7217 34.8668 89.7217 34.3121C89.7217 33.7574 89.942 33.2254 90.3342 32.8332C90.7265 32.4409 91.2584 32.2206 91.8131 32.2206C92.113 32.2166 92.4103 32.2771 92.6848 32.3981C92.9592 32.519 93.2045 32.6976 93.4038 32.9217L94.1167 32.25C93.7009 31.7948 93.1572 31.4759 92.557 31.3351C91.9567 31.1944 91.3279 31.2384 90.7531 31.4614C90.1783 31.6844 89.6843 32.0759 89.336 32.5846C88.9877 33.0934 88.8013 33.6955 88.8013 34.3121C88.8013 34.9286 88.9877 35.5308 89.336 36.0395C89.6843 36.5482 90.1783 36.9398 90.7531 37.1628C91.3279 37.3858 91.9567 37.4298 92.557 37.289C93.1572 37.1483 93.7009 36.8293 94.1167 36.3741L93.4038 35.6907C93.2063 35.9178 92.9617 36.0993 92.687 36.2224C92.4123 36.3455 92.1141 36.4073 91.8131 36.4036Z" fill="white"/>
<path d="M99.207 31.3188V34.6358C99.207 35.8612 98.665 36.4032 97.7047 36.4032C96.7444 36.4032 96.1906 35.8789 96.1906 34.6358V31.3188H95.0889V34.677C95.0889 36.4091 96.0669 37.3517 97.6988 37.3517C99.3307 37.3517 100.297 36.4091 100.297 34.677V31.3188H99.207Z" fill="white"/>
<path d="M104.621 37.994C104.554 37.9931 104.486 38.0061 104.424 38.032C104.361 38.0579 104.304 38.0963 104.257 38.1447C104.21 38.1932 104.173 38.2508 104.148 38.314C104.124 38.3772 104.112 38.4447 104.115 38.5124C104.128 38.6381 104.188 38.7544 104.282 38.8389C104.376 38.9234 104.498 38.9701 104.624 38.9701C104.751 38.9701 104.873 38.9234 104.967 38.8389C105.061 38.7544 105.12 38.6381 105.134 38.5124C105.136 38.4442 105.125 38.3762 105.1 38.3126C105.075 38.249 105.038 38.1911 104.99 38.1425C104.942 38.094 104.884 38.0558 104.821 38.0302C104.758 38.0047 104.69 37.9923 104.621 37.994ZM105.104 29.687H104.138L103.001 30.8653H103.873L104.621 30.2349L105.37 30.8653H106.247L105.104 29.687ZM104.621 31.2541C104.022 31.2818 103.444 31.4849 102.959 31.8382C102.474 32.1915 102.103 32.6794 101.893 33.2414C101.683 33.8034 101.643 34.4147 101.777 34.9995C101.911 35.5843 102.214 36.1169 102.648 36.5311C103.082 36.9452 103.628 37.2228 104.219 37.3293C104.809 37.4359 105.418 37.3667 105.97 37.1303C106.521 36.894 106.991 36.5009 107.321 35.9998C107.651 35.4988 107.827 34.9118 107.826 34.3118C107.829 33.8971 107.746 33.4863 107.584 33.1046C107.422 32.7229 107.183 32.3783 106.883 32.0921C106.583 31.8058 106.228 31.5838 105.839 31.4397C105.45 31.2956 105.036 31.2325 104.621 31.2541ZM104.621 36.4033C104.208 36.4033 103.803 36.2806 103.459 36.0508C103.115 35.821 102.847 35.4944 102.689 35.1122C102.531 34.73 102.489 34.3095 102.57 33.9038C102.651 33.4981 102.85 33.1254 103.143 32.8329C103.435 32.5404 103.808 32.3412 104.213 32.2605C104.619 32.1798 105.04 32.2212 105.422 32.3795C105.804 32.5378 106.131 32.8059 106.36 33.1499C106.59 33.4938 106.713 33.8982 106.713 34.3118C106.721 34.5887 106.672 34.8643 106.57 35.1217C106.468 35.3792 106.314 35.613 106.118 35.8088C105.923 36.0047 105.689 36.1585 105.431 36.2607C105.174 36.3629 104.898 36.4114 104.621 36.4033Z" fill="white"/>
<path d="M111.814 36.4036C111.259 36.4036 110.727 36.1832 110.335 35.791C109.943 35.3987 109.723 34.8668 109.723 34.3121C109.723 33.7574 109.943 33.2254 110.335 32.8332C110.727 32.4409 111.259 32.2206 111.814 32.2206C112.113 32.2159 112.41 32.2761 112.684 32.3971C112.957 32.5182 113.201 32.6971 113.399 32.9217L114.118 32.25C113.702 31.7948 113.158 31.4759 112.558 31.3351C111.958 31.1944 111.329 31.2384 110.754 31.4614C110.179 31.6844 109.685 32.0759 109.337 32.5846C108.989 33.0934 108.802 33.6955 108.802 34.3121C108.802 34.9286 108.989 35.5308 109.337 36.0395C109.685 36.5482 110.179 36.9398 110.754 37.1628C111.329 37.3858 111.958 37.4298 112.558 37.289C113.158 37.1483 113.702 36.8293 114.118 36.3741L113.399 35.6907C113.203 35.918 112.959 36.0996 112.686 36.2228C112.412 36.3459 112.114 36.4076 111.814 36.4036Z" fill="white"/>
<path d="M118.248 32.9805C118.248 32.5268 118.62 32.1733 119.539 32.1733C120.116 32.1828 120.681 32.3432 121.176 32.6388L121.53 31.7786C120.93 31.426 120.246 31.2446 119.55 31.2543C117.918 31.2543 117.153 32.0673 117.153 33.0217C117.153 35.231 120.687 34.3944 120.687 35.6729C120.687 36.1147 120.293 36.4505 119.368 36.4505C118.661 36.446 117.974 36.217 117.406 35.7966L117.023 36.6509C117.709 37.1406 118.537 37.3911 119.38 37.3637C121.011 37.3637 121.783 36.5507 121.783 35.5963C121.771 33.4223 118.248 34.2648 118.248 32.9805Z" fill="white"/>
<path d="M127.545 29.0801L126.579 30.0698H127.392L128.682 29.0801H127.545ZM126.125 29.9461H125.176L124.028 30.8534H124.9L125.636 30.388L126.378 30.8534H127.256L126.125 29.9461ZM125.648 31.254C125.048 31.2817 124.47 31.4848 123.985 31.8381C123.5 32.1914 123.13 32.6793 122.92 33.2413C122.71 33.8033 122.669 34.4146 122.803 34.9994C122.937 35.5842 123.24 36.1168 123.674 36.5309C124.109 36.9451 124.655 37.2227 125.245 37.3292C125.836 37.4358 126.444 37.3665 126.996 37.1302C127.547 36.8938 128.017 36.5008 128.347 35.9997C128.678 35.4987 128.853 34.9117 128.853 34.3117C128.856 33.8967 128.774 33.4855 128.612 33.1034C128.45 32.7214 128.212 32.3764 127.911 32.09C127.611 31.8035 127.255 31.5816 126.866 31.4378C126.477 31.294 126.062 31.2315 125.648 31.254ZM125.648 36.4032C125.234 36.4032 124.83 36.2805 124.486 36.0507C124.142 35.8209 123.874 35.4943 123.715 35.1121C123.557 34.7299 123.516 34.3094 123.596 33.9037C123.677 33.498 123.876 33.1253 124.169 32.8328C124.461 32.5403 124.834 32.3411 125.24 32.2604C125.645 32.1797 126.066 32.2211 126.448 32.3794C126.83 32.5377 127.157 32.8058 127.387 33.1497C127.617 33.4937 127.739 33.898 127.739 34.3117C127.747 34.5886 127.699 34.8642 127.597 35.1216C127.494 35.379 127.341 35.6129 127.145 35.8087C126.949 36.0046 126.715 36.1583 126.458 36.2606C126.2 36.3628 125.925 36.4113 125.648 36.4032Z" fill="white"/>
<path d="M134.214 31.3188V35.3486L130.938 31.3188H130.025V37.2692H131.121V33.2395L134.402 37.2692H135.315V31.3188H134.214Z" fill="white"/>
<path d="M140.971 36.0972C140.6 36.3079 140.179 36.4138 139.752 36.4036C139.197 36.4036 138.665 36.1832 138.273 35.791C137.881 35.3988 137.66 34.8668 137.66 34.3121C137.66 33.7574 137.881 33.2254 138.273 32.8332C138.665 32.441 139.197 32.2206 139.752 32.2206C140.057 32.214 140.361 32.2714 140.643 32.3891C140.925 32.5068 141.179 32.6822 141.39 32.904L142.091 32.2206C141.786 31.8963 141.414 31.6419 141.001 31.4751C140.588 31.3083 140.144 31.233 139.699 31.2544C139.281 31.2285 138.863 31.2883 138.469 31.4303C138.076 31.5722 137.716 31.7932 137.411 32.0797C137.106 32.3662 136.863 32.712 136.697 33.096C136.531 33.4799 136.445 33.8938 136.445 34.3121C136.445 34.7304 136.531 35.1443 136.697 35.5282C136.863 35.9122 137.106 36.258 137.411 36.5445C137.716 36.831 138.076 37.052 138.469 37.1939C138.863 37.3359 139.281 37.3957 139.699 37.3698C140.537 37.3831 141.355 37.1179 142.026 36.6157V34.2591H140.977L140.971 36.0972Z" fill="white"/>
</svg>
