<svg width="18" height="16" viewBox="0 0 18 16" fill="none" xmlns="http://www.w3.org/2000/svg">
<path fill-rule="evenodd" clip-rule="evenodd" d="M9.49557 11.7262L12.6627 14.8933C12.972 15.2025 13.4732 15.2025 13.7824 14.8933L16.9496 11.7262C17.2588 11.4169 17.2588 10.9157 16.9496 10.6065C16.6404 10.2972 16.1391 10.2972 15.8299 10.6065L14.0144 12.4219V1.66484C14.0144 1.22755 13.6599 0.873047 13.2226 0.873047C12.7853 0.873047 12.4308 1.22755 12.4308 1.66484V12.4219L10.6153 10.6065C10.3061 10.2972 9.80479 10.2972 9.49557 10.6065C9.18635 10.9157 9.18635 11.4169 9.49557 11.7262ZM5.3367 1.10496C5.02749 0.795747 4.52615 0.795747 4.21694 1.10496L1.04978 4.27212C0.740569 4.58133 0.740569 5.08267 1.04978 5.39188C1.35899 5.70109 1.86033 5.70109 2.16954 5.39188L3.98503 3.57639V14.3335C3.98503 14.7708 4.33953 15.1253 4.77682 15.1253C5.21411 15.1253 5.56861 14.7708 5.56861 14.3335V3.57639L7.38413 5.39188C7.69335 5.70109 8.19461 5.70109 8.50383 5.39188C8.81305 5.08267 8.81305 4.58133 8.50383 4.27212L5.3367 1.10496Z" fill="#0E72ED"/>
</svg>
