<svg width="21" height="24" viewBox="0 0 21 24" fill="none" xmlns="http://www.w3.org/2000/svg">
<g clip-path="url(#clip0_9734_18800)">
<path d="M20.0595 18.6306C20.0349 18.7045 20.0103 18.7661 19.9733 18.84C20.0472 18.7168 20.0965 18.5937 20.1457 18.4582C20.1211 18.5198 20.0842 18.569 20.0595 18.6306ZM20.3181 17.5347C20.3181 17.3992 20.3058 17.2638 20.2812 17.1406C20.3181 17.4238 20.3181 17.7071 20.2689 17.9903C20.3058 17.8425 20.3181 17.6948 20.3181 17.5347ZM6.79736 22.1524C7.52389 23.2976 8.79223 23.9995 10.1591 23.9995C11.5259 23.9995 12.7943 23.2976 13.5208 22.1524H6.79736Z" fill="url(#paint0_linear_9734_18800)"/>
<path d="M20.2689 17.9908C20.2442 18.1508 20.195 18.2986 20.1457 18.4587C20.1211 18.5203 20.0841 18.5695 20.0595 18.6311C20.0349 18.705 20.0103 18.7665 19.9733 18.8404C19.961 18.8651 19.9487 18.8897 19.9364 18.9143C19.8132 19.1237 19.6778 19.3207 19.5054 19.4931C19.4808 19.5177 19.4561 19.53 19.4438 19.5423C19.3453 19.6408 19.2468 19.727 19.136 19.8009C19.0251 19.8748 18.9143 19.9487 18.7789 20.0103C18.5203 20.1457 18.2494 20.2319 17.9538 20.2689C17.8184 20.2935 17.6829 20.3058 17.5475 20.3058H2.77065C2.6352 20.3058 2.49974 20.2935 2.36429 20.2689C2.06875 20.2319 1.78553 20.1457 1.53925 20.0103C1.42842 19.961 1.3176 19.8994 1.21909 19.8379C1.20677 19.8132 1.18214 19.8009 1.15752 19.7886C1.059 19.7147 0.960493 19.6408 0.874295 19.5546C0.849666 19.53 0.837353 19.5177 0.812725 19.4931C0.726526 19.4069 0.640328 19.3084 0.566444 19.2099C0.480246 19.099 0.406362 18.9882 0.332478 18.8527C0.258594 18.7173 0.197024 18.5818 0.160082 18.4341C0.110826 18.3356 0.086198 18.2247 0.073884 18.1262C0.06157 18.1139 0.06157 18.1016 0.06157 18.0893C0.049256 18.04 0.036942 17.9785 0.024628 17.9169C0.024628 17.7814 0 17.6583 0 17.5351C0 16.3653 0.73884 15.3186 1.8471 14.9246V9.53104C1.8471 5.30734 5.03643 1.74859 9.23551 1.28066V0.923551C9.23551 0.418676 9.64187 0 10.1591 0C10.6762 0 11.0826 0.418676 11.0826 0.923551V1.28066C15.2817 1.74859 18.4587 5.30734 18.471 9.53104V14.9246C19.3207 15.2324 19.9241 15.8974 20.1827 16.6978C20.2319 16.8456 20.2689 16.9933 20.2812 17.1411C20.3181 17.4243 20.3181 17.7075 20.2689 17.9908Z" fill="url(#paint1_linear_9734_18800)"/>
</g>
<defs>
<linearGradient id="paint0_linear_9734_18800" x1="9.1986" y1="24.6891" x2="18.508" y2="15.3674" gradientUnits="userSpaceOnUse">
<stop stop-color="#6D03A8"/>
<stop offset="1" stop-color="#FD60C4"/>
</linearGradient>
<linearGradient id="paint1_linear_9734_18800" x1="2.40123" y1="21.0816" x2="17.9169" y2="5.55362" gradientUnits="userSpaceOnUse">
<stop stop-color="#6D03A8"/>
<stop offset="1" stop-color="#FD60C4"/>
</linearGradient>
<clipPath id="clip0_9734_18800">
<rect width="20.3181" height="24" fill="white"/>
</clipPath>
</defs>
</svg>
