<svg width="22" height="24" viewBox="0 0 22 24" fill="none" xmlns="http://www.w3.org/2000/svg">
<path d="M11.308 4.6171C11.308 3.70443 11.5787 2.81227 12.0857 2.05341C12.5928 1.29456 13.3134 0.703107 14.1566 0.353846C14.9998 0.00458429 15.9276 -0.0867984 16.8228 0.0912535C17.7179 0.269305 18.5401 0.708795 19.1855 1.35415C19.8308 1.9995 20.2703 2.82172 20.4484 3.71685C20.6264 4.61198 20.535 5.5398 20.1858 6.383C19.8365 7.22619 19.2451 7.94688 18.4862 8.45393C17.7274 8.96097 16.8352 9.23161 15.9225 9.23161C14.6987 9.23161 13.525 8.74544 12.6596 7.88005C11.7942 7.01466 11.308 5.84094 11.308 4.6171ZM19.3065 14.929V10.1053C18.2924 10.7412 17.1195 11.0782 15.9225 11.0774C14.2091 11.0774 12.5659 10.3968 11.3544 9.18523C10.1429 7.97369 9.46222 6.33048 9.46222 4.6171C9.46021 3.67192 9.67047 2.73836 10.0775 1.88531C10.1685 1.67017 10.2798 1.46415 10.4097 1.27004C10.6651 0.819948 10.9797 0.40609 11.3449 0.0395031C11.234 0.00292832 11.1166 -0.0096549 11.0004 0.00258709C10.7566 0.00577414 10.5237 0.104031 10.3513 0.276423C10.1789 0.448815 10.0807 0.681711 10.0775 0.925489V1.29465C8.04874 1.52147 6.17458 2.48744 4.81273 4.00816C3.45089 5.52889 2.69675 7.49787 2.69427 9.53924V14.929C2.07964 15.1475 1.5619 15.576 1.23235 16.139C0.902794 16.7019 0.78259 17.3631 0.89293 18.0061C1.00327 18.649 1.33707 19.2323 1.83547 19.6531C2.33386 20.074 2.96485 20.3054 3.61717 20.3064H18.3836C19.0359 20.3054 19.6669 20.074 20.1653 19.6531C20.6637 19.2323 20.9975 18.649 21.1078 18.0061C21.2182 17.3631 21.098 16.7019 20.7684 16.139C20.4389 15.576 19.9211 15.1475 19.3065 14.929ZM11.0004 23.998C11.6705 23.9985 12.3299 23.8296 12.9173 23.5069C13.5046 23.1841 14.0008 22.7182 14.3597 22.1522H7.64102C7.99996 22.7182 8.49616 23.1841 9.0835 23.5069C9.67083 23.8296 10.3302 23.9985 11.0004 23.998Z" fill="url(#paint0_linear_9730_18045)"/>
<defs>
<linearGradient id="paint0_linear_9730_18045" x1="3.24801" y1="21.0817" x2="21.0785" y2="3.2389" gradientUnits="userSpaceOnUse">
<stop stop-color="#6D03A8"/>
<stop offset="1" stop-color="#FD60C4"/>
</linearGradient>
</defs>
</svg>
