<svg width="24" height="24" viewBox="0 0 24 24" fill="none" xmlns="http://www.w3.org/2000/svg">
<path fill-rule="evenodd" clip-rule="evenodd" d="M11.25 17.25C10.008 17.25 9 18.258 9 19.5C9 20.742 10.008 21.75 11.25 21.75C12.492 21.75 13.5 20.742 13.5 19.5C13.5 18.258 12.492 17.25 11.25 17.25ZM18 17.25C16.758 17.25 15.75 18.258 15.75 19.5C15.75 20.742 16.758 21.75 18 21.75C19.242 21.75 20.25 20.742 20.25 19.5C20.25 18.258 19.242 17.25 18 17.25ZM7.20749 6.75L6.29475 3.82875C6.0015 2.88975 5.1315 2.25 4.1475 2.25C3.29175 2.25 2.25 2.25 2.25 2.25C1.836 2.25 1.5 2.586 1.5 3C1.5 3.414 1.836 3.75 2.25 3.75H4.1475C4.47525 3.75 4.76551 3.963 4.86301 4.2765L7.95525 14.1713C8.2485 15.1103 9.1185 15.75 10.1025 15.75H19.134C20.1277 15.75 21.0038 15.0982 21.2888 14.1465L22.6387 9.6465C22.8435 8.9655 22.7137 8.2275 22.2892 7.65675C21.8647 7.086 21.195 6.75 20.484 6.75H7.20749Z" fill="white"/>
</svg>
