<svg width="24" height="13" viewBox="0 0 24 13" fill="none" xmlns="http://www.w3.org/2000/svg">
<path d="M17.3001 0.300285C16.9101 -0.0897146 16.2801 -0.0897146 15.8901 0.300285L10.2501 5.94028L11.6601 7.35029L17.3001 1.70029C17.6801 1.32029 17.6801 0.680285 17.3001 0.300285ZM21.5401 0.290285L11.6601 10.1703L8.18014 6.70028C7.79014 6.31029 7.16014 6.31029 6.77014 6.70028C6.38014 7.09028 6.38014 7.72028 6.77014 8.11028L10.9501 12.2903C11.3401 12.6803 11.9701 12.6803 12.3601 12.2903L22.9501 1.71029C23.3401 1.32029 23.3401 0.690285 22.9501 0.300285H22.9401C22.5601 -0.0997146 21.9301 -0.0997148 21.5401 0.290285ZM1.12014 8.12029L5.30014 12.3003C5.69014 12.6903 6.32014 12.6903 6.71014 12.3003L7.41014 11.6003L2.53014 6.70028C2.14014 6.31029 1.51014 6.31029 1.12014 6.70028C0.730137 7.09028 0.730137 7.73029 1.12014 8.12029Z" fill="#242133"/>
</svg>
