<svg width="21" height="20" viewBox="0 0 21 20" fill="none" xmlns="http://www.w3.org/2000/svg">
<path d="M14.854 17.557C14.6236 17.8133 14.3348 18.0101 14.012 18.1308C13.6892 18.2514 13.342 18.2923 13 18.25H4.00004C2.42304 18.25 1.75004 17.577 1.75004 16V4.00004C1.75004 2.42304 2.42304 1.75004 4.00004 1.75004H9.25004V4.00004C9.19131 4.5067 9.24791 5.02008 9.4156 5.50177C9.5833 5.98347 9.85774 6.42101 10.2184 6.78168C10.5791 7.14234 11.0166 7.41678 11.4983 7.58447C11.98 7.75216 12.4934 7.80876 13 7.75004H15.25V10C15.25 10.1989 15.3291 10.3897 15.4697 10.5304C15.6104 10.671 15.8011 10.75 16 10.75C16.199 10.75 16.3897 10.671 16.5304 10.5304C16.671 10.3897 16.75 10.1989 16.75 10V7.00004C16.7501 6.90155 16.7307 6.80403 16.693 6.71307C16.6552 6.62211 16.5998 6.53952 16.53 6.47004L10.53 0.470036C10.4606 0.400239 10.378 0.344869 10.287 0.307113C10.196 0.269357 10.0985 0.249959 10 0.250036H4.00004C3.49338 0.191312 2.98 0.247913 2.4983 0.415604C2.0166 0.583296 1.57906 0.857736 1.2184 1.2184C0.857737 1.57906 0.583296 2.0166 0.415604 2.4983C0.247913 2.98 0.191312 3.49338 0.250036 4.00004V16C0.191312 16.5067 0.247913 17.0201 0.415604 17.5018C0.583296 17.9835 0.857737 18.421 1.2184 18.7817C1.57906 19.1423 2.0166 19.4168 2.4983 19.5845C2.98 19.7522 3.49338 19.8088 4.00004 19.75H13C13.5788 19.7992 14.1608 19.7057 14.6951 19.4779C15.2295 19.25 15.6998 18.8947 16.065 18.443C16.1825 18.2824 16.2314 18.0818 16.2009 17.8851C16.1705 17.6885 16.0631 17.512 15.9025 17.3945C15.742 17.277 15.5413 17.2282 15.3446 17.2586C15.148 17.2891 14.9715 17.3964 14.854 17.557ZM10.75 4.00004V2.81104L14.189 6.25004H13C11.423 6.25004 10.75 5.57704 10.75 4.00004ZM20.53 14.53L18.53 16.53C18.3879 16.6625 18.1998 16.7346 18.0055 16.7312C17.8112 16.7278 17.6258 16.6491 17.4884 16.5117C17.351 16.3742 17.2723 16.1889 17.2689 15.9946C17.2654 15.8003 17.3376 15.6122 17.47 15.47L18.189 14.75H11C10.8011 14.75 10.6104 14.671 10.4697 14.5304C10.3291 14.3897 10.25 14.1989 10.25 14C10.25 13.8011 10.3291 13.6104 10.4697 13.4697C10.6104 13.3291 10.8011 13.25 11 13.25H18.189L17.47 12.53C17.3376 12.3879 17.2654 12.1998 17.2689 12.0055C17.2723 11.8112 17.351 11.6258 17.4884 11.4884C17.6258 11.351 17.8112 11.2723 18.0055 11.2689C18.1998 11.2654 18.3879 11.3376 18.53 11.47L20.53 13.47C20.5991 13.5403 20.6541 13.6231 20.692 13.714C20.7487 13.851 20.7635 14.0017 20.7347 14.1471C20.7058 14.2924 20.6346 14.425 20.53 14.53Z" fill="#0E72ED"/>
</svg>
