<svg width="21" height="20" viewBox="0 0 21 20" fill="none" xmlns="http://www.w3.org/2000/svg">
<path d="M14.854 17.557C14.6236 17.8133 14.3348 18.0101 14.012 18.1308C13.6892 18.2514 13.342 18.2923 13 18.25H4.00004C2.42304 18.25 1.75004 17.577 1.75004 16V4.00004C1.75004 2.42304 2.42304 1.75004 4.00004 1.75004H9.25004V4.00004C9.19131 4.5067 9.24791 5.02008 9.4156 5.50177C9.5833 5.98347 9.85774 6.42101 10.2184 6.78168C10.5791 7.14234 11.0166 7.41678 11.4983 7.58447C11.98 7.75216 12.4934 7.80876 13 7.75004H15.25V10C15.25 10.1989 15.3291 10.3897 15.4697 10.5304C15.6104 10.671 15.8011 10.75 16 10.75C16.199 10.75 16.3897 10.671 16.5304 10.5304C16.671 10.3897 16.75 10.1989 16.75 10V7.00004C16.7501 6.90155 16.7307 6.80403 16.693 6.71307C16.6552 6.62211 16.5998 6.53952 16.53 6.47004L10.53 0.470036C10.4606 0.400239 10.378 0.344869 10.287 0.307113C10.196 0.269357 10.0985 0.249959 10 0.250036H4.00004C3.49338 0.191312 2.98 0.247913 2.4983 0.415604C2.0166 0.583296 1.57906 0.857736 1.2184 1.2184C0.857737 1.57906 0.583296 2.0166 0.415604 2.4983C0.247913 2.98 0.191312 3.49338 0.250036 4.00004V16C0.191312 16.5067 0.247913 17.0201 0.415604 17.5018C0.583296 17.9835 0.857737 18.421 1.2184 18.7817C1.57906 19.1423 2.0166 19.4168 2.4983 19.5845C2.98 19.7522 3.49338 19.8088 4.00004 19.75H13C13.5788 19.7992 14.1608 19.7057 14.6951 19.4779C15.2295 19.25 15.6998 18.8947 16.065 18.443C16.1825 18.2824 16.2314 18.0818 16.2009 17.8851C16.1705 17.6885 16.0631 17.512 15.9025 17.3945C15.742 17.277 15.5413 17.2282 15.3446 17.2586C15.148 17.2891 14.9715 17.3964 14.854 17.557ZM10.75 4.00004V2.81104L14.189 6.25004H13C11.423 6.25004 10.75 5.57704 10.75 4.00004ZM20.75 14C20.75 14.1989 20.671 14.3897 20.5304 14.5304C20.3897 14.671 20.199 14.75 20 14.75H12.811L13.53 15.47C13.6037 15.5387 13.6628 15.6215 13.7038 15.7135C13.7448 15.8055 13.7669 15.9048 13.7686 16.0055C13.7704 16.1062 13.7519 16.2062 13.7142 16.2996C13.6764 16.393 13.6203 16.4779 13.5491 16.5491C13.4779 16.6203 13.393 16.6764 13.2996 16.7142C13.2062 16.7519 13.1062 16.7704 13.0055 16.7686C12.9048 16.7668 12.8055 16.7448 12.7135 16.7038C12.6215 16.6628 12.5387 16.6037 12.47 16.53L10.47 14.53C10.3654 14.425 10.2942 14.2914 10.2654 14.1461C10.2366 14.0007 10.2514 13.85 10.308 13.713C10.346 13.6221 10.4009 13.5393 10.47 13.469L12.47 11.469C12.6122 11.3366 12.8003 11.2644 12.9946 11.2679C13.1889 11.2713 13.3742 11.35 13.5117 11.4874C13.6491 11.6248 13.7278 11.8102 13.7312 12.0045C13.7346 12.1988 13.6625 12.3869 13.53 12.529L12.811 13.249H20C20.0986 13.249 20.1962 13.2685 20.2873 13.3062C20.3783 13.344 20.4611 13.3993 20.5307 13.4691C20.6004 13.5388 20.6556 13.6216 20.6932 13.7127C20.7309 13.8038 20.7502 13.9015 20.75 14Z" fill="#0E72ED"/>
</svg>
