<svg width="22" height="22" viewBox="0 0 22 22" fill="none" xmlns="http://www.w3.org/2000/svg">
<path d="M21.6912 9.13147L19.5515 8.72914C19.3439 7.98167 19.045 7.25732 18.6612 6.57047L19.8754 4.75542C19.9762 4.60501 19.9561 4.40423 19.8281 4.27655L17.7217 2.17623C17.5925 2.04742 17.3902 2.02848 17.2398 2.13228L15.427 3.37717C14.7402 2.96385 14.0113 2.66456 13.2539 2.48537L12.8512 0.32026C12.8179 0.140687 12.6614 0.0107422 12.4788 0.0107422H9.52117C9.33857 0.0107422 9.18211 0.141065 9.14877 0.32026L8.74605 2.48537C7.9895 2.66456 7.26097 2.96347 6.57299 3.37717L4.76021 2.13228C4.61018 2.02886 4.40712 2.04742 4.27831 2.17623L2.17193 4.27655C2.04388 4.40423 2.0238 4.60501 2.12457 4.75542L3.33877 6.57047C2.955 7.25732 2.65609 7.98205 2.44849 8.72914L0.30876 9.13147C0.129566 9.16519 0 9.32165 0 9.50388V12.4971C0 12.6794 0.129566 12.8358 0.30876 12.8696L2.44886 13.2723C2.65685 14.0201 2.95538 14.7445 3.33915 15.4309L2.12495 17.2464C2.02418 17.3968 2.04426 17.5976 2.17231 17.7252L4.27869 19.8256C4.4075 19.954 4.61018 19.9733 4.76059 19.8695L6.57299 18.6242C7.26059 19.0376 7.9895 19.3368 8.74605 19.516L9.14877 21.6811C9.18211 21.8607 9.33857 21.9907 9.52117 21.9907H12.4788C12.6614 21.9907 12.8179 21.8603 12.8512 21.6811L13.2539 19.516C14.0113 19.3368 14.7402 19.0376 15.427 18.6242L17.2394 19.8695C17.3898 19.9733 17.5925 19.954 17.7213 19.8256L19.8277 17.7252C19.9557 17.5976 19.9758 17.3968 19.875 17.2464L18.6608 15.4309C19.0446 14.7441 19.3431 14.0201 19.5511 13.2723L21.6912 12.8696C21.8704 12.8358 22 12.6794 22 12.4971V9.50388C22 9.32165 21.8704 9.16519 21.6912 9.13147ZM10.9998 14.4846C9.06087 14.4846 7.48374 12.9116 7.48374 10.9784C7.48374 9.06934 9.06125 7.51645 10.9998 7.51645C12.9384 7.51645 14.5159 9.06934 14.5159 10.9784C14.5159 12.9116 12.9387 14.4846 10.9998 14.4846Z" fill="url(#paint0_linear_9734_18813)"/>
<defs>
<linearGradient id="paint0_linear_9734_18813" x1="13.4663" y1="23.9586" x2="6.32129" y2="1.14951" gradientUnits="userSpaceOnUse">
<stop stop-color="#0468E4"/>
<stop offset="1" stop-color="#11A7FF"/>
</linearGradient>
</defs>
</svg>
