<svg width="24" height="24" viewBox="0 0 24 24" fill="none" xmlns="http://www.w3.org/2000/svg">
<path d="M19.5866 14.8389H11.2627L17.1474 20.7236C17.4075 20.9837 17.8384 20.9604 18.0649 20.6705C19.2334 19.1747 19.9662 17.4071 20.1978 15.5253C20.2428 15.1601 19.9546 14.8389 19.5866 14.8389Z" fill="white"/>
<path d="M9.34186 14.658C9.22648 14.5427 9.16164 14.3861 9.16164 14.223V6.65999C9.16164 6.2831 8.82535 5.99177 8.45326 6.05182C4.50831 6.68862 1.48765 10.1236 1.50004 14.2483C1.51366 18.785 5.21866 22.4884 9.75533 22.4999C11.5252 22.5043 13.2116 21.9563 14.6182 20.937C14.9235 20.7156 14.956 20.2722 14.6894 20.0055L9.34186 14.658Z" fill="white"/>
<path d="M22.4962 12.9303C21.8876 6.91166 17.0877 2.11183 11.069 1.50316C10.706 1.46645 10.3916 1.75401 10.3916 2.11885V13.6078H21.8805C22.2453 13.6078 22.5329 13.2933 22.4962 12.9303Z" fill="white"/>
</svg>
