<svg width="28" height="29" viewBox="0 0 28 29" fill="none" xmlns="http://www.w3.org/2000/svg">
<path d="M8.53321 5.897C9.64821 5.555 10.8092 5.361 12.0082 5.361C13.2072 5.361 14.3682 5.555 15.4832 5.897C16.7152 4.996 17.5252 3.55 17.5252 1.906V1.282C17.5242 0.85 17.1742 0.5 16.7422 0.5H7.27321C6.84121 0.5 6.49121 0.85 6.49121 1.282V1.907C6.49121 3.55 7.30121 4.996 8.53321 5.897Z" fill="white"/>
<path d="M21.0106 3.2959C20.5136 3.2959 20.1106 3.6989 20.1106 4.1959C20.1106 5.1699 19.3186 5.9609 18.3446 5.9609H17.5666C17.4086 6.1549 17.2396 6.3389 17.0596 6.5149C17.7496 6.8429 18.4156 7.2299 19.0466 7.6909C20.6776 7.3639 21.9106 5.9219 21.9106 4.1969C21.9106 3.6989 21.5076 3.2959 21.0106 3.2959Z" fill="white"/>
<path d="M27.5381 19.4586C27.5381 20.1966 26.5381 20.8436 25.0321 21.1996C24.2131 21.4006 23.2411 21.5166 22.2001 21.5166C21.1661 21.5166 20.1941 21.4006 19.3751 21.1996C17.8691 20.8436 16.8691 20.1966 16.8691 19.4586C16.8691 18.3196 19.2571 17.3936 22.2011 17.3936C25.1501 17.3936 27.5381 18.3196 27.5381 19.4586Z" fill="white"/>
<path d="M25.3982 26.1457C24.4482 26.3837 23.3382 26.5107 22.1992 26.5107C21.0562 26.5107 19.9482 26.3827 18.9922 26.1417C18.0722 25.9187 17.3862 25.6267 16.8682 25.3047V26.4347C16.8682 27.1727 17.8612 27.8137 19.3602 28.1817C20.1792 28.3827 21.1582 28.4997 22.1992 28.4997C23.2472 28.4997 24.2192 28.3827 25.0452 28.1827C26.5452 27.8137 27.5372 27.1727 27.5372 26.4357V25.3037C27.0172 25.6277 26.3262 25.9217 25.3982 26.1457Z" fill="white"/>
<path d="M25.3762 22.6587C24.4282 22.8907 23.3252 23.0157 22.1992 23.0157C21.0772 23.0157 19.9762 22.8907 19.0162 22.6557C18.0802 22.4347 17.3882 22.1367 16.8682 21.8087V22.9457C16.8682 23.6837 17.8612 24.3247 19.3602 24.6867C20.1792 24.8937 21.1582 25.0107 22.1992 25.0107C23.2472 25.0107 24.2192 24.8947 25.0452 24.6867C26.5452 24.3247 27.5372 23.6837 27.5372 22.9457V21.8057C27.0152 22.1367 26.3192 22.4367 25.3762 22.6587Z" fill="white"/>
<path d="M15.3683 26.4363V22.9483V22.6083V19.0923C15.6793 16.8763 18.9653 15.8953 22.2003 15.8953C22.4553 15.8953 22.7093 15.9033 22.9623 15.9163C21.5373 11.1343 17.5923 6.8623 12.0083 6.8623C3.99527 6.8623 -0.659731 15.6583 0.696269 22.1383C1.79027 27.3643 6.49627 28.5003 12.0083 28.5003C13.4553 28.5003 14.8393 28.4123 16.1233 28.2003C15.5083 27.5633 15.3683 26.8993 15.3683 26.4363Z" fill="white"/>
</svg>
