<svg width="16" height="16" viewBox="0 0 16 16" fill="none" xmlns="http://www.w3.org/2000/svg">
<g clip-path="url(#clip0_10011_15662)">
<path d="M4.94922 14C5.20766 14.5943 5.63404 15.1001 6.17599 15.4554C6.71794 15.8107 7.35186 16 7.99989 16C8.64791 16 9.28183 15.8107 9.82378 15.4554C10.3657 15.1001 10.7921 14.5943 11.0506 14H4.94922Z" fill="#1A8BF3"/>
<path d="M14.9284 8.36547L13.771 4.55013C13.4004 3.2157 12.5946 2.04331 11.4816 1.21913C10.3686 0.394951 9.01215 -0.03379 7.62764 0.000983625C6.24313 0.0357572 4.90991 0.532052 3.83967 1.41107C2.76944 2.29009 2.02352 3.50144 1.72036 4.8528L0.821694 8.54413C0.702249 9.03463 0.695778 9.54586 0.802767 10.0392C0.909757 10.5326 1.12741 10.9952 1.43931 11.3922C1.7512 11.7892 2.14919 12.1101 2.60324 12.3308C3.05728 12.5515 3.55552 12.6661 4.06036 12.6661H11.7384C12.2589 12.6662 12.7721 12.5443 13.237 12.3103C13.702 12.0763 14.1056 11.7367 14.4157 11.3186C14.7258 10.9006 14.9337 10.4157 15.0227 9.90292C15.1117 9.3901 15.0794 8.86356 14.9284 8.36547Z" fill="#1A8BF3"/>
</g>
<defs>
<clipPath id="clip0_10011_15662">
<rect width="16" height="16" fill="white"/>
</clipPath>
</defs>
</svg>
