<svg width="24" height="24" viewBox="0 0 24 24" fill="none" xmlns="http://www.w3.org/2000/svg">
<path fill-rule="evenodd" clip-rule="evenodd" d="M17.25 15V19.5H21C21.3975 19.5 21.7793 19.3418 22.0605 19.0605C22.3418 18.7793 22.5 18.3975 22.5 18V15.75C22.5 14.5072 21.4928 13.5 20.25 13.5H19.3718C19.0538 13.5 18.771 13.7002 18.6645 13.9995C18.4583 14.5822 17.9025 15 17.25 15ZM11.649 12C11.364 12 11.1038 12.1612 10.977 12.4162C10.5473 13.2802 9.65475 13.875 8.625 13.875C7.59525 13.875 6.70275 13.2802 6.273 12.4162C6.14625 12.1612 5.886 12 5.601 12C5.601 12 5.10825 12 4.5 12C3.70425 12 2.9415 12.3157 2.379 12.879C1.81575 13.4415 1.5 14.2043 1.5 15V17.25C1.5 18.4928 2.50725 19.5 3.75 19.5H13.5C14.7428 19.5 15.75 18.4928 15.75 17.25V15C15.75 14.2043 15.4343 13.4415 14.871 12.879C14.3085 12.3157 13.5457 12 12.75 12C12.1418 12 11.649 12 11.649 12ZM14.3452 11.2515C15.1065 11.2755 15.831 11.5882 16.371 12.129C16.7528 12.5107 17.0213 12.9847 17.154 13.4985C17.1863 13.4992 17.2177 13.5 17.25 13.5C18.906 13.5 20.25 12.156 20.25 10.5C20.25 8.844 18.906 7.5 17.25 7.5C15.594 7.5 14.25 8.844 14.25 10.5C14.25 10.7595 14.283 11.0115 14.3452 11.2515ZM8.625 4.125C6.348 4.125 4.5 5.973 4.5 8.25C4.5 10.527 6.348 12.375 8.625 12.375C10.902 12.375 12.75 10.527 12.75 8.25C12.75 5.973 10.902 4.125 8.625 4.125Z" fill="white"/>
</svg>
