<svg width="24" height="24" viewBox="0 0 24 24" fill="none" xmlns="http://www.w3.org/2000/svg">
<path fill-rule="evenodd" clip-rule="evenodd" d="M19.5 3.75C19.5 3.153 19.263 2.58075 18.8408 2.15925C18.4193 1.737 17.847 1.5 17.25 1.5C14.6528 1.5 9.34725 1.5 6.75 1.5C6.153 1.5 5.58075 1.737 5.15925 2.15925C4.737 2.58075 4.5 3.153 4.5 3.75V21.75C4.5 22.053 4.683 22.3268 4.96275 22.443C5.24325 22.5593 5.56575 22.4948 5.78025 22.2803L7.4745 20.5868L8.99025 22.2548C9.1245 22.4018 9.312 22.4902 9.5115 22.4992C9.71025 22.5082 9.90525 22.4377 10.0522 22.3027L12 20.5177L13.9478 22.3027C14.0948 22.4377 14.2898 22.5082 14.4885 22.4992C14.688 22.4902 14.8755 22.4018 15.0098 22.2548L16.5255 20.5868L18.2197 22.2803C18.4342 22.4948 18.7568 22.5593 19.0373 22.443C19.317 22.3268 19.5 22.053 19.5 21.75V3.75ZM9 16.5H15C15.414 16.5 15.75 16.164 15.75 15.75C15.75 15.336 15.414 15 15 15H9C8.586 15 8.25 15.336 8.25 15.75C8.25 16.164 8.586 16.5 9 16.5ZM9 12H15C15.414 12 15.75 11.664 15.75 11.25C15.75 10.836 15.414 10.5 15 10.5H9C8.586 10.5 8.25 10.836 8.25 11.25C8.25 11.664 8.586 12 9 12ZM9 7.5H15C15.414 7.5 15.75 7.164 15.75 6.75C15.75 6.336 15.414 6 15 6H9C8.586 6 8.25 6.336 8.25 6.75C8.25 7.164 8.586 7.5 9 7.5Z" fill="white"/>
</svg>
