<svg width="24" height="24" viewBox="0 0 24 24" fill="none" xmlns="http://www.w3.org/2000/svg">
<path fill-rule="evenodd" clip-rule="evenodd" d="M15.7499 6.75H8.24993V10.5C8.24993 10.914 7.91393 11.25 7.49993 11.25C7.08593 11.25 6.74993 10.914 6.74993 10.5V6.75H5.92268C4.72643 6.75 3.73944 7.68675 3.67644 8.8815C3.57744 10.7565 3.39894 14.1488 3.25044 16.974C3.17469 18.4125 3.69293 19.8188 4.68443 20.8635C5.67593 21.9083 7.05293 22.5 8.49293 22.5H15.5069C16.9469 22.5 18.3239 21.9083 19.3154 20.8635C20.3069 19.8188 20.8252 18.4125 20.7494 16.974C20.6009 14.1488 20.4224 10.7565 20.3234 8.8815C20.2604 7.68675 19.2734 6.75 18.0772 6.75H17.2499V10.5C17.2499 10.914 16.9139 11.25 16.4999 11.25C16.0859 11.25 15.7499 10.914 15.7499 10.5V6.75H17.2499C17.2499 6.75 17.2499 8.1795 17.2499 6C17.2499 3.5145 15.2354 1.5 12.7499 1.5H11.2499C8.76443 1.5 6.74993 3.5145 6.74993 6V6.75H8.24993C8.24993 6.75 8.24993 8.1795 8.24993 6C8.24993 4.34325 9.59318 3 11.2499 3H12.7499C14.4067 3 15.7499 4.34325 15.7499 6V6.75Z" fill="white"/>
</svg>
