<svg width="24" height="24" viewBox="0 0 24 24" fill="none" xmlns="http://www.w3.org/2000/svg">
<path fill-rule="evenodd" clip-rule="evenodd" d="M10.8485 13.7895C11.4628 15.777 12.314 18.5287 13.0333 20.8567C13.3243 21.7957 14.1905 22.4377 15.173 22.4422C16.1563 22.4467 17.0278 21.8123 17.327 20.8762L18.029 18.6758C18.104 18.4403 18.2893 18.2573 18.5255 18.186L20.9038 17.463C21.8525 17.175 22.5013 16.299 22.4998 15.3075C22.4983 14.316 21.8488 13.4423 20.8993 13.1558L13.6468 10.971C12.851 10.731 11.987 10.95 11.4013 11.5395C10.8155 12.1298 10.6025 12.9953 10.8485 13.7895ZM12.7498 5.25V8.25C12.7498 8.664 12.4138 9 11.9998 9C11.5858 9 11.2498 8.664 11.2498 8.25V5.25H7.49976V8.25C7.49976 8.664 7.16376 9 6.74976 9C6.33576 9 5.99976 8.664 5.99976 8.25V5.25H5.09227C3.94552 5.25 2.98252 6.11175 2.85577 7.25175C2.58052 9.7305 1.99026 15.0412 1.68951 17.7517C1.61901 18.3877 1.82226 19.0238 2.24901 19.5007C2.67576 19.9777 3.2855 20.25 3.926 20.25H11.276L9.41525 14.2327C9.00575 12.909 9.36051 11.4667 10.337 10.4827C11.3135 9.4995 12.7528 9.13425 14.0795 9.53475L16.2185 10.179L15.8938 7.25175C15.767 6.11175 14.804 5.25 13.6573 5.25H12.7498V4.5C12.7498 2.84325 11.4065 1.5 9.74976 1.5H8.99976C7.34301 1.5 5.99976 2.84325 5.99976 4.5V5.25H7.49976V4.5C7.49976 3.67125 8.17101 3 8.99976 3H9.74976C10.5785 3 11.2498 3.67125 11.2498 4.5V5.25H12.7498Z" fill="white"/>
</svg>
