<svg width="16" height="16" viewBox="0 0 16 16" fill="none" xmlns="http://www.w3.org/2000/svg">
<g clip-path="url(#clip0_10005_2269)">
<path d="M15.219 6.11396L12.633 3.52796C12.5073 3.40652 12.3389 3.33933 12.1641 3.34085C11.9893 3.34236 11.8221 3.41248 11.6985 3.53608C11.5749 3.65969 11.5048 3.8269 11.5032 4.00169C11.5017 4.17649 11.5689 4.34489 11.6903 4.47063L14.2764 7.05663C14.3532 7.13498 14.4203 7.22227 14.4763 7.31663C14.4663 7.31663 14.4583 7.3113 14.4483 7.3113L3.99235 7.33263C3.81554 7.33263 3.64597 7.40287 3.52095 7.52789C3.39592 7.65291 3.32568 7.82248 3.32568 7.99929C3.32568 8.17611 3.39592 8.34567 3.52095 8.4707C3.64597 8.59572 3.81554 8.66596 3.99235 8.66596L14.4443 8.64463C14.463 8.64463 14.4783 8.63529 14.4964 8.63396C14.4372 8.74673 14.3622 8.85045 14.2737 8.94196L11.6877 11.528C11.624 11.5895 11.5732 11.663 11.5383 11.7444C11.5033 11.8257 11.485 11.9132 11.4842 12.0017C11.4834 12.0902 11.5003 12.178 11.5338 12.2599C11.5673 12.3419 11.6168 12.4163 11.6794 12.4789C11.742 12.5415 11.8164 12.591 11.8984 12.6245C11.9803 12.658 12.0681 12.6749 12.1566 12.6741C12.2451 12.6734 12.3326 12.655 12.414 12.62C12.4953 12.5851 12.5689 12.5343 12.6303 12.4706L15.2163 9.88463C15.7163 9.38455 15.9971 8.7064 15.9971 7.99929C15.9971 7.29219 15.7163 6.61404 15.2163 6.11396H15.219Z" fill="#ED3724"/>
<path d="M4.66667 14.6667H3.33333C2.8029 14.6667 2.29419 14.456 1.91912 14.0809C1.54405 13.7058 1.33333 13.1971 1.33333 12.6667V3.33333C1.33333 2.8029 1.54405 2.29419 1.91912 1.91912C2.29419 1.54405 2.8029 1.33333 3.33333 1.33333H4.66667C4.84348 1.33333 5.01305 1.2631 5.13807 1.13807C5.2631 1.01305 5.33333 0.843478 5.33333 0.666667C5.33333 0.489856 5.2631 0.320286 5.13807 0.195262C5.01305 0.0702379 4.84348 0 4.66667 0L3.33333 0C2.4496 0.00105857 1.60237 0.352588 0.97748 0.97748C0.352588 1.60237 0.00105857 2.4496 0 3.33333L0 12.6667C0.00105857 13.5504 0.352588 14.3976 0.97748 15.0225C1.60237 15.6474 2.4496 15.9989 3.33333 16H4.66667C4.84348 16 5.01305 15.9298 5.13807 15.8047C5.2631 15.6797 5.33333 15.5101 5.33333 15.3333C5.33333 15.1565 5.2631 14.987 5.13807 14.8619C5.01305 14.7369 4.84348 14.6667 4.66667 14.6667Z" fill="#ED3724"/>
</g>
<defs>
<clipPath id="clip0_10005_2269">
<rect width="16" height="16" fill="white"/>
</clipPath>
</defs>
</svg>
