<svg width="22" height="20" viewBox="0 0 22 20" fill="none" xmlns="http://www.w3.org/2000/svg">
<path fill-rule="evenodd" clip-rule="evenodd" d="M10.25 15.25C9.008 15.25 8 16.258 8 17.5C8 18.742 9.008 19.75 10.25 19.75C11.492 19.75 12.5 18.742 12.5 17.5C12.5 16.258 11.492 15.25 10.25 15.25ZM17 15.25C15.758 15.25 14.75 16.258 14.75 17.5C14.75 18.742 15.758 19.75 17 19.75C18.242 19.75 19.25 18.742 19.25 17.5C19.25 16.258 18.242 15.25 17 15.25ZM6.20749 4.75L5.29475 1.82875C5.0015 0.88975 4.1315 0.25 3.1475 0.25C2.29175 0.25 1.25 0.25 1.25 0.25C0.836 0.25 0.5 0.586 0.5 1C0.5 1.414 0.836 1.75 1.25 1.75H3.1475C3.47525 1.75 3.76551 1.963 3.86301 2.2765L6.95525 12.1713C7.2485 13.1103 8.1185 13.75 9.1025 13.75H18.134C19.1277 13.75 20.0038 13.0982 20.2888 12.1465L21.6387 7.6465C21.8435 6.9655 21.7137 6.2275 21.2892 5.65675C20.8647 5.086 20.195 4.75 19.484 4.75H6.20749Z" fill="white"/>
</svg>
