<svg width="169" height="38" viewBox="0 0 169 38" fill="none" xmlns="http://www.w3.org/2000/svg">
<path d="M10.8863 1.73603C9.47838 1.67787 8.07318 1.90262 6.75514 2.39678C5.4371 2.89094 4.23344 3.64429 3.21653 4.61154C2.19963 5.57879 1.39047 6.73996 0.837706 8.02525C0.284946 9.31054 0 10.6934 0 12.0907C0 13.488 0.284946 14.8708 0.837706 16.1561C1.39047 17.4414 2.19963 18.6026 3.21653 19.5698C4.23344 20.5371 5.4371 21.2904 6.75514 21.7846C8.07318 22.2787 9.47838 22.5035 10.8863 22.4454C12.2941 22.5035 13.6993 22.2787 15.0174 21.7846C16.3354 21.2904 17.5391 20.5371 18.556 19.5698C19.5729 18.6026 20.3821 17.4414 20.9348 16.1561C21.4876 14.8708 21.7725 13.488 21.7725 12.0907C21.7725 10.6934 21.4876 9.31054 20.9348 8.02525C20.3821 6.73996 19.5729 5.57879 18.556 4.61154C17.5391 3.64429 16.3354 2.89094 15.0174 2.39678C13.6993 1.90262 12.2941 1.67787 10.8863 1.73603ZM10.8863 19.1764C8.99353 19.1764 7.17831 18.4308 5.83995 17.1037C4.50158 15.7765 3.7497 13.9765 3.7497 12.0997C3.7497 10.2228 4.50158 8.4228 5.83995 7.09566C7.17831 5.76851 8.99353 5.02293 10.8863 5.02293C12.779 5.02293 14.5942 5.76851 15.9326 7.09566C17.2709 8.4228 18.0228 10.2228 18.0228 12.0997C18.0228 13.9765 17.2709 15.7765 15.9326 17.1037C14.5942 18.4308 12.779 19.1764 10.8863 19.1764Z" fill="white"/>
<path d="M44.0993 6.05774C42.9904 6.02148 41.8876 6.23387 40.8746 6.6788C39.8616 7.12372 38.965 7.78949 38.2527 8.62565C37.6842 7.77933 36.8979 7.09596 35.9737 6.64494C35.0495 6.19393 34.0204 5.99134 32.9907 6.05774C32.0272 6.01635 31.0663 6.18669 30.1782 6.55636C29.29 6.92602 28.4969 7.48572 27.8567 8.19468V6.23733H24.3853V21.5909H28.0394V13.7974C28.0394 10.7446 29.6837 9.20028 32.1137 9.20028C34.5437 9.20028 35.6217 10.5291 35.6217 13.2587V21.5909H39.2758V13.7974C39.2758 10.7446 40.9385 9.20028 43.3502 9.20028C45.7619 9.20028 46.8582 10.5291 46.8582 13.2587V21.5909H50.5123V12.7558C50.5123 8.15876 47.8813 6.05774 44.0993 6.05774Z" fill="white"/>
<path d="M74.5995 6.05774C73.4875 6.01872 72.3812 6.22978 71.3648 6.6748C70.3484 7.11982 69.4488 7.78705 68.7346 8.62565C68.1661 7.77933 67.3798 7.09596 66.4556 6.64494C65.5315 6.19393 64.5023 5.99134 63.4727 6.05774C62.5094 6.01889 61.5494 6.19039 60.6616 6.55989C59.7739 6.92939 58.9805 7.48771 58.3386 8.19468V6.23733H54.8672V21.5909H58.5213V13.7974C58.5213 10.7446 60.1657 9.20028 62.5957 9.20028C65.0257 9.20028 66.1036 10.5291 66.1036 13.2587V21.5909H69.7578V13.7974C69.7578 10.7446 71.4387 9.20028 73.8321 9.20028C76.2256 9.20028 77.3401 10.5291 77.3401 13.2587V21.5909H80.9942V12.7558C80.9394 8.15876 78.2536 6.05774 74.5995 6.05774Z" fill="white"/>
<path d="M90.5915 6.05226C88.2883 5.96786 86.0206 6.6649 84.1245 8.04L85.518 10.7778C86.8492 9.72259 88.4769 9.16187 90.1449 9.18389C92.6995 9.18389 93.9501 10.4778 93.9501 12.6718V12.8968H90.0199C85.3929 12.8968 83.6064 15.0158 83.6064 17.6786C83.6064 20.3414 85.8574 22.4229 89.341 22.4229C90.2552 22.5251 91.1791 22.3786 92.0238 21.9977C92.8686 21.6167 93.6057 21.0141 94.1644 20.2476V22.1229H97.5409V12.7468C97.5409 8.24627 94.9862 6.05226 90.5915 6.05226ZM93.9501 17.3036C93.6374 18.0916 93.0965 18.7565 92.404 19.2041C91.7115 19.6516 90.9024 19.8593 90.0913 19.7976C88.3048 19.7976 87.1794 18.9163 87.1794 17.5661C87.1794 16.2159 87.8404 15.4471 90.27 15.4471H93.9501V17.3036Z" fill="white"/>
<path d="M110.441 6.06118C109.452 5.9922 108.459 6.15009 107.539 6.5231C106.618 6.89611 105.792 7.47462 105.122 8.2156V6.24073H101.896V21.5909H105.441V13.835C105.354 13.24 105.399 12.6329 105.571 12.0573C105.743 11.4816 106.039 10.9517 106.437 10.5055C106.835 10.0593 107.326 9.70789 107.874 9.47649C108.422 9.2451 109.014 9.13945 109.608 9.16713C111.877 9.16713 113.154 10.4957 113.154 13.2246V21.555H116.699V12.7578C116.77 8.16174 114.058 6.06118 110.441 6.06118Z" fill="white"/>
<path d="M120.534 6.65963V21.5909H124.031V6.65963H120.534ZM122.282 0.00602591C121.726 0.00602591 121.192 0.226812 120.799 0.619817C120.405 1.01282 120.184 1.54586 120.184 2.10165C120.184 2.65745 120.405 3.19047 120.799 3.58348C121.192 3.97648 121.726 4.19727 122.282 4.19727C122.577 4.21166 122.871 4.16558 123.146 4.06189C123.422 3.95819 123.673 3.79908 123.884 3.59443C124.096 3.38978 124.263 3.14394 124.376 2.87214C124.488 2.60035 124.543 2.30838 124.538 2.01433C124.53 1.73361 124.464 1.45755 124.346 1.20282C124.227 0.94809 124.058 0.719985 123.849 0.532281C123.64 0.344577 123.395 0.201171 123.128 0.110723C122.862 0.020274 122.58 -0.015348 122.3 0.00602591H122.282Z" fill="white"/>
<path d="M128.022 0V21.5909H132.377V0H128.022Z" fill="white"/>
<path d="M135.373 6.6606V21.5909H138.857V6.6606H135.373ZM137.115 0.00742557C136.552 0.00742557 136.011 0.23188 135.613 0.631409C135.214 1.03094 134.99 1.57282 134.99 2.13784C134.99 2.70286 135.214 3.24474 135.613 3.64427C136.011 4.04379 136.552 4.26825 137.115 4.26825C137.407 4.28018 137.697 4.23229 137.97 4.12749C138.242 4.0227 138.49 3.86322 138.699 3.65884C138.908 3.45446 139.073 3.20947 139.184 2.93892C139.295 2.66836 139.349 2.37794 139.344 2.08545C139.348 1.79805 139.291 1.51309 139.178 1.2489C139.065 0.984717 138.899 0.74715 138.689 0.551446C138.479 0.355742 138.23 0.206231 137.959 0.112542C137.688 0.0188527 137.401 -0.0169534 137.115 0.00742557Z" fill="white"/>
<path d="M150.281 2.93451C150.991 2.94536 151.681 3.16501 152.267 3.56601L153.278 0.859567C152.295 0.265359 151.158 -0.0235259 150.01 0.0295926C149.274 -0.0507791 148.53 0.0330572 147.83 0.275062C147.13 0.517067 146.493 0.91121 145.965 1.42904C145.436 1.94687 145.029 2.57548 144.773 3.26952C144.517 3.96357 144.419 4.70573 144.485 5.44248V6.4168H141.957V9.17737H144.485V21.5909H148.096V9.17737H152.231V6.34463H147.988V5.42443C147.988 3.76448 148.764 2.93451 150.281 2.93451Z" fill="white"/>
<path d="M168.07 14.3115C168.134 13.2245 167.968 12.1363 167.582 11.1167C167.196 10.0971 166.598 9.16857 165.828 8.39077C165.058 7.61297 164.132 7.00306 163.109 6.60015C162.086 6.19724 160.99 6.01024 159.89 6.05115C158.789 6.00975 157.691 6.19259 156.664 6.58832C155.637 6.98405 154.703 7.58425 153.92 8.3517C153.137 9.11916 152.522 10.0375 152.112 11.0498C151.703 12.0622 151.508 13.1469 151.54 14.2367C151.54 18.9836 155.054 22.441 160.476 22.441C161.688 22.5104 162.9 22.3116 164.024 21.8589C165.148 21.4063 166.156 20.7113 166.975 19.8246L164.953 17.5259C164.383 18.104 163.697 18.5574 162.939 18.8567C162.18 19.1561 161.367 19.2948 160.551 19.264C159.369 19.3753 158.186 19.0574 157.224 18.3697C156.261 17.682 155.584 16.6714 155.318 15.5262H168.014C168.033 15.059 168.07 14.6105 168.07 14.3115ZM155.299 13.022C155.427 11.9188 155.971 10.9039 156.822 10.1799C157.673 9.45581 158.768 9.07595 159.89 9.11609C161.012 9.06738 162.11 9.44469 162.96 10.1708C163.81 10.8969 164.347 11.9169 164.462 13.022H155.299Z" fill="white"/>
<path d="M31.3522 31.0908V36.2726H30.3083L26.5085 32.771V36.2726H25.2559V31.0908H26.2997L30.0995 34.5925V31.0908H31.3522Z" fill="white"/>
<path d="M36.5293 35.0315H33.2208L32.5786 36.2729H31.3525L34.2523 30.8828H35.42L38.3198 36.2729H37.0742L36.5293 35.0315ZM33.2403 29.3638H33.9993C34.009 29.4476 34.0384 29.529 34.0859 29.6032C34.1333 29.6774 34.1978 29.743 34.2756 29.7961C34.3534 29.8493 34.443 29.889 34.5393 29.9129C34.6355 29.9368 34.7364 29.9445 34.8361 29.9354C35.0366 29.9494 35.2357 29.8976 35.3917 29.791C35.5477 29.6845 35.6485 29.5313 35.673 29.3638H36.4125C36.398 29.5236 36.3453 29.6793 36.2575 29.8216C36.1697 29.964 36.0486 30.0899 35.9014 30.1921C35.7543 30.2943 35.5841 30.3705 35.4011 30.4162C35.218 30.4619 35.0259 30.4761 34.8361 30.4581C34.6453 30.4762 34.4522 30.462 34.268 30.4165C34.0838 30.371 33.9123 30.295 33.7636 30.193C33.6149 30.0911 33.492 29.9652 33.4022 29.8228C33.3123 29.6803 33.2573 29.5243 33.2403 29.3638ZM36.0428 34.2638L34.8167 31.8955L33.6295 34.2638H36.0428Z" fill="white"/>
<path d="M44.4156 31.0908V36.2726H43.3573L39.6106 32.771V36.2726H38.3193V31.0908H39.3777L43.2302 34.5925V31.0908H44.4156Z" fill="white"/>
<path d="M49.4646 33.6199H50.5125V35.6318C49.8549 36.0611 49.0474 36.2867 48.2214 36.272C47.7243 36.2599 47.2384 36.1428 46.8068 35.9308C46.3752 35.7189 46.0113 35.4187 45.7474 35.057C45.4835 34.6954 45.3278 34.2834 45.2941 33.8576C45.2603 33.4319 45.3497 33.0056 45.5541 32.6166C45.7586 32.2276 46.0718 31.8879 46.466 31.6278C46.8602 31.3677 47.3232 31.1952 47.8138 31.1255C48.3044 31.0559 48.8074 31.0914 49.2782 31.2287C49.749 31.366 50.173 31.601 50.5125 31.9128L49.8376 32.492C49.6294 32.305 49.3782 32.157 49.1001 32.0573C48.8219 31.9577 48.5228 31.9085 48.2214 31.9128C47.9508 31.9128 47.6829 31.9586 47.433 32.0474C47.183 32.1363 46.9559 32.2665 46.7646 32.4307C46.5733 32.5949 46.4215 32.7898 46.318 33.0043C46.2144 33.2188 46.1611 33.4487 46.1611 33.6809C46.1611 33.9131 46.2144 34.143 46.318 34.3575C46.4215 34.572 46.5733 34.7669 46.7646 34.9311C46.9559 35.0952 47.183 35.2255 47.433 35.3143C47.6829 35.4032 47.9508 35.4489 48.2214 35.4489C48.6435 35.4553 49.0601 35.3659 49.4291 35.1898L49.4646 33.6199Z" fill="white"/>
<path d="M53.9961 31.0908H55.1312V35.4561H58.3506V36.2726H53.9961V31.0908Z" fill="white"/>
<path d="M64.4311 31.475V34.2027C64.461 34.5761 64.416 34.9519 64.2989 35.3063C64.1818 35.6608 63.9952 35.9861 63.7508 36.2618C63.5064 36.5376 63.2096 36.7577 62.8791 36.9082C62.5486 37.0588 62.1916 37.1365 61.8306 37.1365C61.4697 37.1365 61.1127 37.0588 60.7822 36.9082C60.4517 36.7577 60.1548 36.5376 59.9105 36.2618C59.6661 35.9861 59.4794 35.6608 59.3623 35.3063C59.2452 34.9519 59.2002 34.5761 59.2302 34.2027V30.7276H60.328V34.1653C60.328 35.4358 60.8858 36.0336 61.8396 36.0336C62.7934 36.0336 63.3513 35.4918 63.3513 34.1653V30.7276H64.0532C64.124 30.7305 64.1946 30.7177 64.2603 30.6903C64.3261 30.6629 64.3855 30.6214 64.4348 30.5685C64.484 30.5156 64.522 30.4525 64.5461 30.3833C64.5703 30.3142 64.5802 30.2405 64.575 30.1671C64.5847 29.9723 64.5273 29.7803 64.4131 29.6253L65.0609 29.3638C65.2321 29.6074 65.3207 29.9031 65.3129 30.2045C65.3376 30.491 65.2621 30.7771 65.1002 31.0104C64.9382 31.2438 64.7007 31.4087 64.4311 31.475Z" fill="white"/>
<path d="M72.2816 33.4828C72.3129 34.0994 72.134 34.7101 71.7681 35.2357C71.4021 35.7614 70.8661 36.1777 70.2295 36.4307C69.5928 36.6837 68.8849 36.7618 68.1974 36.6547C67.51 36.5477 66.8748 36.2605 66.3741 35.8305C65.8735 35.4004 65.5305 34.8472 65.3896 34.2427C65.2487 33.6381 65.3164 33.0101 65.584 32.44C65.8515 31.8699 66.3065 31.384 66.8901 31.0454C67.4736 30.7067 68.1588 30.5308 68.8567 30.5406C69.5808 30.5406 70.0897 30.6618 70.5789 30.6618C71.0682 30.6618 71.4009 30.4714 71.4009 30.0907C71.3966 29.9121 71.3356 29.7381 71.2248 29.5888L71.9097 29.3638C72.0988 29.5825 72.2019 29.8499 72.2033 30.1253C72.2151 30.4005 72.1086 30.6695 71.9053 30.8782C71.702 31.0869 71.4169 31.2198 71.1073 31.2502C71.4801 31.5205 71.7792 31.8615 71.9825 32.248C72.1858 32.6345 72.288 33.0565 72.2816 33.4828ZM71.0878 33.4828C71.0878 33.0857 70.9546 32.6976 70.7052 32.3674C70.4557 32.0373 70.1011 31.78 69.6863 31.628C69.2715 31.4761 68.815 31.4363 68.3747 31.5138C67.9343 31.5912 67.5298 31.7824 67.2123 32.0632C66.8948 32.344 66.6785 32.7017 66.591 33.0911C66.5034 33.4805 66.5483 33.8842 66.7201 34.251C66.892 34.6179 67.1829 34.9314 67.5563 35.152C67.9296 35.3726 68.3685 35.4903 68.8175 35.4903C69.1113 35.4881 69.4017 35.4342 69.6716 35.3316C69.9415 35.2291 70.1856 35.08 70.3897 34.8931C70.5938 34.7062 70.7537 34.4853 70.8601 34.2431C70.9665 34.0009 71.0173 33.7425 71.0095 33.4828H71.0878ZM69.3655 37.5152C69.3683 37.5795 69.356 37.6436 69.3294 37.7035C69.3028 37.7634 69.2626 37.8178 69.2111 37.8633C69.1597 37.9088 69.0982 37.9444 69.0305 37.9679C68.9627 37.9914 68.8902 38.0022 68.8175 37.9998C68.744 38.0021 68.6706 37.9913 68.6018 37.968C68.5331 37.9447 68.4703 37.9094 68.4173 37.8641C68.3644 37.8189 68.3222 37.7647 68.2935 37.7047C68.2647 37.6448 68.2499 37.5803 68.25 37.5152C68.2472 37.4487 68.2601 37.3823 68.2876 37.3203C68.3152 37.2583 68.3569 37.202 68.4101 37.1549C68.4634 37.1078 68.5271 37.0709 68.5972 37.0466C68.6672 37.0222 68.7423 37.0109 68.8175 37.0133C68.9524 37.0304 69.0752 37.0913 69.162 37.184C69.2488 37.2768 69.2935 37.3949 69.2872 37.5152H69.3655Z" fill="white"/>
<path d="M79.2516 31.0908V36.2726H78.1111L74.4202 32.771V36.2726H73.1553V31.0908H74.2128L77.9867 34.5925V31.0908H79.2516Z" fill="white"/>
<path d="M84.9719 33.622H86.1389V35.6326C85.391 36.0573 84.4782 36.2823 83.5434 36.2723C82.6363 36.2723 81.7663 35.9995 81.1249 35.5139C80.4834 35.0283 80.123 34.3696 80.123 33.6829C80.123 32.9961 80.4834 32.3375 81.1249 31.8519C81.7663 31.3663 82.6363 31.0934 83.5434 31.0934C84.0414 31.0766 84.5383 31.1413 85.0001 31.2833C85.462 31.4252 85.8779 31.6411 86.2194 31.916L85.4347 32.4948C85.1995 32.3072 84.9152 32.1588 84.5999 32.0591C84.2846 31.9594 83.9454 31.9107 83.6038 31.916C83.2973 31.916 82.9938 31.9617 82.7106 32.0505C82.4275 32.1393 82.1702 32.2694 81.9535 32.4335C81.7367 32.5976 81.5648 32.7923 81.4475 33.0067C81.3302 33.2211 81.2699 33.4509 81.2699 33.6829C81.2699 33.9149 81.3302 34.1447 81.4475 34.359C81.5648 34.5734 81.7367 34.7682 81.9535 34.9323C82.1702 35.0964 82.4275 35.2265 82.7106 35.3153C82.9938 35.4041 83.2973 35.4498 83.6038 35.4498C84.0818 35.4548 84.5532 35.3655 84.9719 35.1908V33.622Z" fill="white"/>
<path d="M88.832 33.6817C88.8612 33.1509 89.0941 32.6383 89.5017 32.2081C89.9092 31.7779 90.4734 31.4491 91.1237 31.2627C91.7739 31.0763 92.4816 31.0406 93.1582 31.1601C93.8348 31.2795 94.4505 31.5488 94.9283 31.9344L94.1539 32.5117C93.935 32.323 93.6657 32.1725 93.3643 32.0702C93.0628 31.968 92.7361 31.9165 92.4064 31.9192C91.7955 31.9192 91.2096 32.1049 90.7776 32.4354C90.3456 32.766 90.1029 33.2143 90.1029 33.6817C90.1029 34.1492 90.3456 34.5975 90.7776 34.9281C91.2096 35.2586 91.7955 35.4443 92.4064 35.4443C92.7361 35.447 93.0628 35.3955 93.3643 35.2932C93.6657 35.191 93.935 35.0404 94.1539 34.8517L94.9283 35.4291C94.4505 35.8147 93.8348 36.084 93.1582 36.2034C92.4816 36.3229 91.7739 36.2872 91.1237 36.1008C90.4734 35.9144 89.9092 35.5856 89.5017 35.1553C89.0941 34.7251 88.8612 34.2126 88.832 33.6817Z" fill="white"/>
<path d="M95.8063 34.3688V31.0908H96.7223V34.3336C96.7223 35.532 97.1878 36.0959 97.9836 36.0959C98.7794 36.0959 99.2449 35.5848 99.2449 34.3336V31.0908H100.146V34.3688C100.171 34.7211 100.133 35.0755 100.036 35.4099C99.9379 35.7442 99.7821 36.0511 99.5782 36.3112C99.3743 36.5713 99.1266 36.7789 98.8509 36.9209C98.5751 37.063 98.2772 37.1363 97.9761 37.1363C97.6749 37.1363 97.3771 37.063 97.1013 36.9209C96.8255 36.7789 96.5778 36.5713 96.3739 36.3112C96.17 36.0511 96.0143 35.7442 95.9166 35.4099C95.8189 35.0755 95.7813 34.7211 95.8063 34.3688Z" fill="white"/>
<path d="M107.989 33.6402C108.016 34.2304 107.862 34.8151 107.547 35.3196C107.232 35.8242 106.77 36.2258 106.22 36.4732C105.67 36.7206 105.057 36.8026 104.459 36.7087C103.861 36.6148 103.306 36.3492 102.863 35.946C102.42 35.5427 102.111 35.02 101.974 34.4444C101.837 33.8689 101.88 33.2667 102.095 32.7146C102.311 32.1625 102.69 31.6856 103.185 31.3447C103.679 31.0037 104.267 30.8142 104.872 30.8004C105.272 30.7703 105.674 30.8216 106.052 30.9509C106.431 31.0803 106.777 31.285 107.07 31.552C107.363 31.819 107.596 32.1425 107.754 32.502C107.913 32.8615 107.992 33.2491 107.989 33.6402ZM106.927 33.6402C106.927 33.2598 106.812 32.888 106.596 32.5709C106.381 32.2538 106.075 32.0056 105.716 31.8572C105.357 31.7088 104.961 31.6667 104.578 31.7362C104.194 31.8057 103.84 31.9838 103.56 32.2481C103.28 32.5125 103.085 32.8515 103.001 33.2229C102.917 33.5942 102.947 33.9816 103.086 34.3366C103.226 34.6916 103.47 34.9987 103.788 35.2194C104.105 35.4401 104.482 35.5648 104.872 35.5779C105.141 35.5969 105.411 35.5604 105.665 35.4706C105.918 35.3808 106.15 35.2399 106.344 35.0571C106.537 34.8742 106.69 34.6535 106.79 34.4093C106.891 34.1652 106.937 33.9031 106.927 33.6402ZM104.239 30.4329H103.399L104.478 29.3638H105.403L106.482 30.4329H105.66L104.872 29.8482L104.239 30.4329ZM105.42 37.5324C105.42 37.6565 105.37 37.7754 105.28 37.8631C105.19 37.9508 105.068 38.0001 104.941 38.0001C104.813 38.0001 104.691 37.9508 104.602 37.8631C104.512 37.7754 104.461 37.6565 104.461 37.5324C104.461 37.4084 104.512 37.2894 104.602 37.2017C104.691 37.1139 104.813 37.0647 104.941 37.0647C105.068 37.0647 105.19 37.1139 105.28 37.2017C105.37 37.2894 105.42 37.4084 105.42 37.5324Z" fill="white"/>
<path d="M109.733 33.6817C109.731 33.3321 109.795 32.9856 109.921 32.6635C110.048 32.3413 110.233 32.0503 110.468 31.8081C110.702 31.5659 110.979 31.3776 111.283 31.2548C111.587 31.132 111.912 31.0771 112.236 31.0937C112.582 31.0822 112.927 31.151 113.246 31.2954C113.566 31.4399 113.853 31.6567 114.088 31.931L113.522 32.5095C113.367 32.3204 113.175 32.1696 112.96 32.0671C112.746 31.9647 112.513 31.9131 112.278 31.9158C111.843 31.9158 111.426 32.1018 111.119 32.433C110.811 32.7642 110.638 33.2134 110.638 33.6817C110.638 34.1501 110.811 34.5993 111.119 34.9304C111.426 35.2616 111.843 35.4477 112.278 35.4477C112.513 35.4504 112.746 35.3988 112.96 35.2963C113.175 35.1939 113.367 35.043 113.522 34.854L114.088 35.4325C113.853 35.7068 113.566 35.9236 113.246 36.068C112.927 36.2125 112.582 36.2813 112.236 36.2698C111.912 36.2863 111.587 36.2315 111.283 36.1087C110.979 35.9859 110.702 35.7976 110.468 35.5554C110.233 35.3132 110.048 35.0221 109.921 34.7C109.795 34.3778 109.731 34.0314 109.733 33.6817Z" fill="white"/>
<path d="M117.572 35.6506L117.987 34.9234C118.608 35.285 119.365 35.4817 120.145 35.4839C121.174 35.4839 121.59 35.1961 121.59 34.8325C121.59 33.757 117.631 34.4538 117.631 32.6057C117.631 31.8029 118.482 31.0909 120.264 31.0909C121.028 31.0866 121.779 31.2382 122.441 31.5302L122.065 32.2573C121.517 32.0125 120.898 31.877 120.264 31.8635C119.254 31.8635 118.839 32.1664 118.839 32.5452C118.839 33.6055 122.797 32.9087 122.797 34.7568C122.797 35.5445 121.946 36.2716 120.145 36.2716C119.221 36.2893 118.315 36.0708 117.572 35.6506Z" fill="white"/>
<path d="M129.761 33.7617C129.792 34.4066 129.614 35.0454 129.25 35.5957C128.886 36.1459 128.352 36.5824 127.718 36.8487C127.083 37.115 126.377 37.199 125.691 37.0898C125.005 36.9806 124.37 36.6832 123.867 36.236C123.365 35.7889 123.019 35.2124 122.874 34.5811C122.728 33.9497 122.79 33.2925 123.052 32.6941C123.313 32.0958 123.762 31.5838 124.34 31.2243C124.919 30.8648 125.6 30.6743 126.297 30.6772C126.746 30.6575 127.194 30.7228 127.615 30.8692C128.036 31.0156 128.42 31.2399 128.744 31.5286C129.068 31.8173 129.326 32.1642 129.501 32.5481C129.675 32.932 129.764 33.345 129.761 33.7617ZM128.567 33.7617C128.567 33.3454 128.434 32.9385 128.184 32.5924C127.935 32.2463 127.58 31.9765 127.165 31.8172C126.75 31.6579 126.294 31.6162 125.854 31.6974C125.413 31.7787 125.009 31.9791 124.691 32.2734C124.374 32.5678 124.158 32.9428 124.07 33.3511C123.982 33.7593 124.027 34.1825 124.199 34.5671C124.371 34.9517 124.662 35.2804 125.035 35.5116C125.409 35.7429 125.848 35.8663 126.297 35.8663C126.597 35.8738 126.896 35.8245 127.175 35.7214C127.454 35.6183 127.707 35.4635 127.92 35.2666C128.132 35.0696 128.299 34.8346 128.41 34.5759C128.522 34.3171 128.575 34.0401 128.567 33.7617ZM125.494 30.2781H124.535L125.768 29.3709H126.864L128.117 30.2781H127.158L126.355 29.8063L125.494 30.2781ZM128.175 29.4979H127.295L128.351 28.5H129.584L128.175 29.4979Z" fill="white"/>
<path d="M135.861 31.0908V36.2726H134.954L131.719 32.771V36.2726H130.635V31.0908H131.542L134.776 34.5925V31.0908H135.861Z" fill="white"/>
<path d="M141.581 33.622H142.748V35.6326C142 36.0573 141.087 36.2823 140.152 36.2723C139.245 36.2723 138.375 35.9995 137.734 35.5139C137.092 35.0283 136.732 34.3696 136.732 33.6829C136.732 32.9961 137.092 32.3375 137.734 31.8519C138.375 31.3663 139.245 31.0934 140.152 31.0934C140.65 31.0766 141.147 31.1413 141.609 31.2833C142.071 31.4252 142.487 31.6411 142.828 31.916L142.044 32.4948C141.808 32.3072 141.524 32.1588 141.209 32.0591C140.894 31.9594 140.554 31.9107 140.213 31.916C139.906 31.916 139.603 31.9617 139.32 32.0505C139.036 32.1393 138.779 32.2694 138.562 32.4335C138.346 32.5976 138.174 32.7923 138.056 33.0067C137.939 33.2211 137.879 33.4509 137.879 33.6829C137.879 33.9149 137.939 34.1447 138.056 34.359C138.174 34.5734 138.346 34.7682 138.562 34.9323C138.779 35.0964 139.036 35.2265 139.32 35.3153C139.603 35.4041 139.906 35.4498 140.213 35.4498C140.69 35.4527 141.161 35.3636 141.581 35.1908V33.622Z" fill="white"/>
</svg>
